M48
; DRILL file {KiCad (5.1.7-0-10_14)} date Sunday, July 25, 2021 at 05:38:34 PM
; FORMAT={-:-/ absolute / metric / decimal}
; #@! TF.CreationDate,2021-07-25T17:38:34+03:00
; #@! TF.GenerationSoftware,Kicad,Pcbnew,(5.1.7-0-10_14)
FMAT,2
METRIC
T1C0.127
T2C0.200
T3C0.300
T4C0.400
T5C0.540
T6C0.850
T7C0.890
T8C0.950
T9C1.000
T10C1.050
T11C2.010
T12C3.200
T13C1.550
%
G90
G05
T1
X63.77Y-89.916
T2
X81.956Y-114.92
X81.956Y-116.22
X82.956Y-114.92
X82.956Y-116.22
X83.956Y-114.92
X83.956Y-116.22
T3
X74.068Y-89.308
X74.068Y-90.058
X74.068Y-90.808
X74.818Y-89.308
X74.818Y-90.058
X74.818Y-90.808
X75.568Y-89.308
X75.568Y-90.058
X75.568Y-90.808
X59.702Y-78.752
X59.702Y-79.502
X59.702Y-80.252
X60.452Y-78.752
X60.452Y-79.502
X60.452Y-80.252
X61.202Y-78.752
X61.202Y-79.502
X61.202Y-80.252
X92.468Y-76.974
X92.468Y-77.724
X92.468Y-78.474
X93.218Y-76.974
X93.218Y-77.724
X93.218Y-78.474
X93.968Y-76.974
X93.968Y-77.724
X93.968Y-78.474
X75.958Y-76.974
X75.958Y-77.724
X75.958Y-78.474
X76.708Y-76.974
X76.708Y-77.724
X76.708Y-78.474
X77.458Y-76.974
X77.458Y-77.724
X77.458Y-78.474
T4
X57.15Y-97.155
X57.531Y-96.139
X58.42Y-69.85
X58.928Y-83.058
X59.284Y-104.242
X59.563Y-97.282
X60.515Y-88.773
X60.515Y-90.742
X60.515Y-90.742
X61.214Y-102.131
X62.128Y-104.191
X62.992Y-72.136
X63.223Y-110.594
X63.436Y-94.107
X64.567Y-84.292
X64.96Y-79.502
X66.421Y-108.396
X67.107Y-77.724
X67.882Y-94.107
X69.088Y-90.17
X69.977Y-87.376
X70.103Y-93.818
X71.31Y-84.138
X71.374Y-92.964
X71.882Y-75.565
X71.882Y-78.613
X71.882Y-99.187
X72.263Y-91.694
X72.898Y-87.718
X75.184Y-81.483
X75.565Y-73.66
X76.454Y-95.25
X76.556Y-93.726
X76.556Y-96.368
X76.708Y-91.948
X77.216Y-87.63
X77.216Y-97.028
X77.216Y-112.014
X78.041Y-93.726
X78.08Y-97.028
X78.994Y-97.028
X79.248Y-92.71
X79.604Y-90.627
X79.756Y-94.742
X80.213Y-123.088
X80.454Y-81.153
X81.534Y-95.25
X81.852Y-85.026
X82.042Y-68.58
X82.55Y-78.232
X82.995Y-84.201
X83.058Y-93.726
X83.058Y-96.774
X83.376Y-87.122
X83.718Y-124.054
X84.836Y-86.042
X84.836Y-95.25
X85.344Y-104.521
X86.106Y-97.79
X86.995Y-96.901
X87.884Y-110.49
X88.392Y-115.316
X88.456Y-75.629
X88.456Y-78.613
X89.154Y-106.934
X90.043Y-98.425
X90.043Y-102.87
X91.663Y-91.598
X92.202Y-73.469
X92.773Y-81.129
X92.773Y-83.121
X92.964Y-91.44
X92.964Y-98.806
X92.964Y-114.3
X93.091Y-109.22
X93.218Y-113.284
X93.98Y-114.554
X94.615Y-102.87
X95.25Y-100.584
X95.377Y-107.95
X96.266Y-116.078
X96.901Y-81.09
X97.917Y-100.076
X98.552Y-69.088
X99.06Y-78.232
X99.187Y-90.932
X99.187Y-94.996
X100.33Y-117.983
X100.52Y-84.074
X100.584Y-101.092
X100.965Y-105.537
X101.727Y-61.468
X101.727Y-66.103
X101.854Y-101.219
X104.14Y-53.34
X105.913Y-54.361
X106.68Y-56.007
X107.378Y-66.103
X107.442Y-58.42
X107.442Y-61.468
X107.696Y-53.34
X109.474Y-115.57
X109.474Y-116.586
X111.506Y-53.34
T5
X62.5Y-89.154
X62.5Y-90.678
X63.77Y-89.154
X63.77Y-90.678
X65.04Y-89.154
X65.04Y-90.678
T6
X53.898Y-105.906
T7
X57.658Y-63.5
X60.198Y-63.5
X74.168Y-63.5
X76.708Y-63.5
X90.678Y-63.5
X93.218Y-63.5
T8
X53.898Y-103.406
X53.898Y-108.406
X53.898Y-113.106
X56.223Y-98.806
X61.023Y-98.806
X65.823Y-98.806
X68.148Y-103.406
X68.148Y-108.406
X68.148Y-113.106
T9
X109.22Y-84.074
X109.22Y-86.614
X109.22Y-89.154
X109.22Y-91.694
X109.22Y-94.234
X109.22Y-119.634
X109.22Y-122.174
X109.22Y-124.714
X73.215Y-112.141
X73.215Y-114.681
X73.215Y-117.221
X73.215Y-119.761
X88.9Y-137.16
X91.44Y-137.16
X93.98Y-137.16
X109.22Y-99.314
X109.22Y-101.854
X109.22Y-104.394
X109.22Y-106.934
X73.215Y-125.857
X73.215Y-128.397
X73.215Y-130.937
X73.215Y-133.477
T10
X53.898Y-115.906
X53.898Y-125.906
X53.898Y-135.906
X59.573Y-115.906
X62.473Y-135.906
X64.974Y-115.906
X68.148Y-100.906
X68.148Y-110.906
X68.148Y-120.906
X68.148Y-130.906
T11
X55.118Y-58.42
X65.278Y-58.42
X71.628Y-58.42
X81.788Y-58.42
X88.138Y-58.42
X98.298Y-58.42
T12
X54.61Y-72.009
X107.188Y-134.62
X107.188Y-72.009
T13
X56.223Y-105.006
X65.823Y-105.006
T9
G00X79.899Y-129.476
M15
G01X81.899Y-129.476
M16
G05
G00X79.899Y-135.476
M15
G01X81.899Y-135.476
M16
G05
G00X85.599Y-133.476
M15
G01X85.599Y-131.476
M16
G05
T0
M30
