%TF.GenerationSoftware,KiCad,Pcbnew,(5.1.7-0-10_14)*%
%TF.CreationDate,2021-07-25T17:44:21+03:00*%
%TF.ProjectId,sdisfp,73646973-6670-42e6-9b69-6361645f7063,rev?*%
%TF.SameCoordinates,Original*%
%TF.FileFunction,Copper,L1,Top*%
%TF.FilePolarity,Positive*%
%FSLAX46Y46*%
G04 Gerber Fmt 4.6, Leading zero omitted, Abs format (unit mm)*
G04 Created by KiCad (PCBNEW (5.1.7-0-10_14)) date 2021-07-25 17:44:21*
%MOMM*%
%LPD*%
G01*
G04 APERTURE LIST*
%TA.AperFunction,ComponentPad*%
%ADD10R,3.500000X3.500000*%
%TD*%
%TA.AperFunction,SMDPad,CuDef*%
%ADD11R,3.600000X2.700000*%
%TD*%
%TA.AperFunction,ComponentPad*%
%ADD12R,4.000000X2.850000*%
%TD*%
%TA.AperFunction,ComponentPad*%
%ADD13C,1.270000*%
%TD*%
%TA.AperFunction,ComponentPad*%
%ADD14C,0.600000*%
%TD*%
%TA.AperFunction,SMDPad,CuDef*%
%ADD15R,2.100000X2.100000*%
%TD*%
%TA.AperFunction,ComponentPad*%
%ADD16O,1.700000X1.700000*%
%TD*%
%TA.AperFunction,ComponentPad*%
%ADD17R,1.700000X1.700000*%
%TD*%
%TA.AperFunction,ComponentPad*%
%ADD18C,5.600000*%
%TD*%
%TA.AperFunction,ComponentPad*%
%ADD19O,1.600000X2.500000*%
%TD*%
%TA.AperFunction,ComponentPad*%
%ADD20O,3.500000X7.000000*%
%TD*%
%TA.AperFunction,ComponentPad*%
%ADD21C,0.500000*%
%TD*%
%TA.AperFunction,SMDPad,CuDef*%
%ADD22R,3.000000X2.290000*%
%TD*%
%TA.AperFunction,SMDPad,CuDef*%
%ADD23R,0.900000X0.800000*%
%TD*%
%TA.AperFunction,SMDPad,CuDef*%
%ADD24R,0.800000X0.900000*%
%TD*%
%TA.AperFunction,SMDPad,CuDef*%
%ADD25R,1.500000X2.200000*%
%TD*%
%TA.AperFunction,SMDPad,CuDef*%
%ADD26R,1.300000X1.600000*%
%TD*%
%TA.AperFunction,SMDPad,CuDef*%
%ADD27R,0.500000X2.000000*%
%TD*%
%TA.AperFunction,WasherPad*%
%ADD28C,2.000000*%
%TD*%
%TA.AperFunction,ComponentPad*%
%ADD29R,2.000000X2.000000*%
%TD*%
%TA.AperFunction,ComponentPad*%
%ADD30C,1.500000*%
%TD*%
%TA.AperFunction,ViaPad*%
%ADD31C,0.800000*%
%TD*%
%TA.AperFunction,Conductor*%
%ADD32C,0.250000*%
%TD*%
%TA.AperFunction,Conductor*%
%ADD33C,0.600000*%
%TD*%
%TA.AperFunction,Conductor*%
%ADD34C,0.400000*%
%TD*%
%TA.AperFunction,Conductor*%
%ADD35C,0.200000*%
%TD*%
G04 APERTURE END LIST*
%TO.P,J204,3*%
%TO.N,N/C*%
%TA.AperFunction,ComponentPad*%
G36*
G01*
X86474000Y-134226500D02*
X84724000Y-134226500D01*
G75*
G02*
X83849000Y-133351500I0J875000D01*
G01*
X83849000Y-131601500D01*
G75*
G02*
X84724000Y-130726500I875000J0D01*
G01*
X86474000Y-130726500D01*
G75*
G02*
X87349000Y-131601500I0J-875000D01*
G01*
X87349000Y-133351500D01*
G75*
G02*
X86474000Y-134226500I-875000J0D01*
G01*
G37*
%TD.AperFunction*%
%TO.P,J204,2*%
%TO.N,GND*%
%TA.AperFunction,ComponentPad*%
G36*
G01*
X81899000Y-136976500D02*
X79899000Y-136976500D01*
G75*
G02*
X79149000Y-136226500I0J750000D01*
G01*
X79149000Y-134726500D01*
G75*
G02*
X79899000Y-133976500I750000J0D01*
G01*
X81899000Y-133976500D01*
G75*
G02*
X82649000Y-134726500I0J-750000D01*
G01*
X82649000Y-136226500D01*
G75*
G02*
X81899000Y-136976500I-750000J0D01*
G01*
G37*
%TD.AperFunction*%
D10*
%TO.P,J204,1*%
%TO.N,+5V*%
X80899000Y-129476500D03*
%TD*%
D11*
%TO.P,L202,2*%
%TO.N,/Power/VBATSW*%
X101854000Y-129728000D03*
%TO.P,L202,1*%
%TO.N,Net-(D202-Pad2)*%
X101854000Y-121428000D03*
%TD*%
D12*
%TO.P,U101,DAP*%
%TO.N,GND*%
X63770000Y-89916000D03*
%TO.P,U101,20*%
%TA.AperFunction,SMDPad,CuDef*%
G36*
G01*
X66595000Y-92041000D02*
X66795000Y-92041000D01*
G75*
G02*
X66895000Y-92141000I0J-100000D01*
G01*
X66895000Y-93416000D01*
G75*
G02*
X66795000Y-93516000I-100000J0D01*
G01*
X66595000Y-93516000D01*
G75*
G02*
X66495000Y-93416000I0J100000D01*
G01*
X66495000Y-92141000D01*
G75*
G02*
X66595000Y-92041000I100000J0D01*
G01*
G37*
%TD.AperFunction*%
%TO.P,U101,19*%
%TO.N,Net-(U101-Pad19)*%
%TA.AperFunction,SMDPad,CuDef*%
G36*
G01*
X65945000Y-92041000D02*
X66145000Y-92041000D01*
G75*
G02*
X66245000Y-92141000I0J-100000D01*
G01*
X66245000Y-93416000D01*
G75*
G02*
X66145000Y-93516000I-100000J0D01*
G01*
X65945000Y-93516000D01*
G75*
G02*
X65845000Y-93416000I0J100000D01*
G01*
X65845000Y-92141000D01*
G75*
G02*
X65945000Y-92041000I100000J0D01*
G01*
G37*
%TD.AperFunction*%
%TO.P,U101,18*%
%TO.N,/RCVCC*%
%TA.AperFunction,SMDPad,CuDef*%
G36*
G01*
X65295000Y-92041000D02*
X65495000Y-92041000D01*
G75*
G02*
X65595000Y-92141000I0J-100000D01*
G01*
X65595000Y-93416000D01*
G75*
G02*
X65495000Y-93516000I-100000J0D01*
G01*
X65295000Y-93516000D01*
G75*
G02*
X65195000Y-93416000I0J100000D01*
G01*
X65195000Y-92141000D01*
G75*
G02*
X65295000Y-92041000I100000J0D01*
G01*
G37*
%TD.AperFunction*%
%TO.P,U101,17*%
%TO.N,/TD2+*%
%TA.AperFunction,SMDPad,CuDef*%
G36*
G01*
X64645000Y-92041000D02*
X64845000Y-92041000D01*
G75*
G02*
X64945000Y-92141000I0J-100000D01*
G01*
X64945000Y-93416000D01*
G75*
G02*
X64845000Y-93516000I-100000J0D01*
G01*
X64645000Y-93516000D01*
G75*
G02*
X64545000Y-93416000I0J100000D01*
G01*
X64545000Y-92141000D01*
G75*
G02*
X64645000Y-92041000I100000J0D01*
G01*
G37*
%TD.AperFunction*%
%TO.P,U101,16*%
%TO.N,/TD2-*%
%TA.AperFunction,SMDPad,CuDef*%
G36*
G01*
X63995000Y-92041000D02*
X64195000Y-92041000D01*
G75*
G02*
X64295000Y-92141000I0J-100000D01*
G01*
X64295000Y-93416000D01*
G75*
G02*
X64195000Y-93516000I-100000J0D01*
G01*
X63995000Y-93516000D01*
G75*
G02*
X63895000Y-93416000I0J100000D01*
G01*
X63895000Y-92141000D01*
G75*
G02*
X63995000Y-92041000I100000J0D01*
G01*
G37*
%TD.AperFunction*%
%TO.P,U101,15*%
%TO.N,/RCVCC*%
%TA.AperFunction,SMDPad,CuDef*%
G36*
G01*
X63345000Y-92041000D02*
X63545000Y-92041000D01*
G75*
G02*
X63645000Y-92141000I0J-100000D01*
G01*
X63645000Y-93416000D01*
G75*
G02*
X63545000Y-93516000I-100000J0D01*
G01*
X63345000Y-93516000D01*
G75*
G02*
X63245000Y-93416000I0J100000D01*
G01*
X63245000Y-92141000D01*
G75*
G02*
X63345000Y-92041000I100000J0D01*
G01*
G37*
%TD.AperFunction*%
%TO.P,U101,14*%
%TO.N,/TD+*%
%TA.AperFunction,SMDPad,CuDef*%
G36*
G01*
X62695000Y-92041000D02*
X62895000Y-92041000D01*
G75*
G02*
X62995000Y-92141000I0J-100000D01*
G01*
X62995000Y-93416000D01*
G75*
G02*
X62895000Y-93516000I-100000J0D01*
G01*
X62695000Y-93516000D01*
G75*
G02*
X62595000Y-93416000I0J100000D01*
G01*
X62595000Y-92141000D01*
G75*
G02*
X62695000Y-92041000I100000J0D01*
G01*
G37*
%TD.AperFunction*%
%TO.P,U101,13*%
%TO.N,/TD-*%
%TA.AperFunction,SMDPad,CuDef*%
G36*
G01*
X62045000Y-92041000D02*
X62245000Y-92041000D01*
G75*
G02*
X62345000Y-92141000I0J-100000D01*
G01*
X62345000Y-93416000D01*
G75*
G02*
X62245000Y-93516000I-100000J0D01*
G01*
X62045000Y-93516000D01*
G75*
G02*
X61945000Y-93416000I0J100000D01*
G01*
X61945000Y-92141000D01*
G75*
G02*
X62045000Y-92041000I100000J0D01*
G01*
G37*
%TD.AperFunction*%
%TO.P,U101,12*%
%TO.N,/LOCKED*%
%TA.AperFunction,SMDPad,CuDef*%
G36*
G01*
X61395000Y-92041000D02*
X61595000Y-92041000D01*
G75*
G02*
X61695000Y-92141000I0J-100000D01*
G01*
X61695000Y-93416000D01*
G75*
G02*
X61595000Y-93516000I-100000J0D01*
G01*
X61395000Y-93516000D01*
G75*
G02*
X61295000Y-93416000I0J100000D01*
G01*
X61295000Y-92141000D01*
G75*
G02*
X61395000Y-92041000I100000J0D01*
G01*
G37*
%TD.AperFunction*%
%TO.P,U101,11*%
%TO.N,Net-(C104-Pad1)*%
%TA.AperFunction,SMDPad,CuDef*%
G36*
G01*
X60745000Y-92041000D02*
X60945000Y-92041000D01*
G75*
G02*
X61045000Y-92141000I0J-100000D01*
G01*
X61045000Y-93416000D01*
G75*
G02*
X60945000Y-93516000I-100000J0D01*
G01*
X60745000Y-93516000D01*
G75*
G02*
X60645000Y-93416000I0J100000D01*
G01*
X60645000Y-92141000D01*
G75*
G02*
X60745000Y-92041000I100000J0D01*
G01*
G37*
%TD.AperFunction*%
%TO.P,U101,10*%
%TO.N,Net-(C103-Pad1)*%
%TA.AperFunction,SMDPad,CuDef*%
G36*
G01*
X60745000Y-86316000D02*
X60945000Y-86316000D01*
G75*
G02*
X61045000Y-86416000I0J-100000D01*
G01*
X61045000Y-87691000D01*
G75*
G02*
X60945000Y-87791000I-100000J0D01*
G01*
X60745000Y-87791000D01*
G75*
G02*
X60645000Y-87691000I0J100000D01*
G01*
X60645000Y-86416000D01*
G75*
G02*
X60745000Y-86316000I100000J0D01*
G01*
G37*
%TD.AperFunction*%
%TO.P,U101,9*%
%TO.N,/LOCKED*%
%TA.AperFunction,SMDPad,CuDef*%
G36*
G01*
X61395000Y-86316000D02*
X61595000Y-86316000D01*
G75*
G02*
X61695000Y-86416000I0J-100000D01*
G01*
X61695000Y-87691000D01*
G75*
G02*
X61595000Y-87791000I-100000J0D01*
G01*
X61395000Y-87791000D01*
G75*
G02*
X61295000Y-87691000I0J100000D01*
G01*
X61295000Y-86416000D01*
G75*
G02*
X61395000Y-86316000I100000J0D01*
G01*
G37*
%TD.AperFunction*%
%TO.P,U101,8*%
%TO.N,GND*%
%TA.AperFunction,SMDPad,CuDef*%
G36*
G01*
X62045000Y-86316000D02*
X62245000Y-86316000D01*
G75*
G02*
X62345000Y-86416000I0J-100000D01*
G01*
X62345000Y-87691000D01*
G75*
G02*
X62245000Y-87791000I-100000J0D01*
G01*
X62045000Y-87791000D01*
G75*
G02*
X61945000Y-87691000I0J100000D01*
G01*
X61945000Y-86416000D01*
G75*
G02*
X62045000Y-86316000I100000J0D01*
G01*
G37*
%TD.AperFunction*%
%TO.P,U101,7*%
%TO.N,/RCVCC*%
%TA.AperFunction,SMDPad,CuDef*%
G36*
G01*
X62695000Y-86316000D02*
X62895000Y-86316000D01*
G75*
G02*
X62995000Y-86416000I0J-100000D01*
G01*
X62995000Y-87691000D01*
G75*
G02*
X62895000Y-87791000I-100000J0D01*
G01*
X62695000Y-87791000D01*
G75*
G02*
X62595000Y-87691000I0J100000D01*
G01*
X62595000Y-86416000D01*
G75*
G02*
X62695000Y-86316000I100000J0D01*
G01*
G37*
%TD.AperFunction*%
%TO.P,U101,6*%
%TO.N,/IN-*%
%TA.AperFunction,SMDPad,CuDef*%
G36*
G01*
X63345000Y-86316000D02*
X63545000Y-86316000D01*
G75*
G02*
X63645000Y-86416000I0J-100000D01*
G01*
X63645000Y-87691000D01*
G75*
G02*
X63545000Y-87791000I-100000J0D01*
G01*
X63345000Y-87791000D01*
G75*
G02*
X63245000Y-87691000I0J100000D01*
G01*
X63245000Y-86416000D01*
G75*
G02*
X63345000Y-86316000I100000J0D01*
G01*
G37*
%TD.AperFunction*%
%TO.P,U101,5*%
%TO.N,/IN+*%
%TA.AperFunction,SMDPad,CuDef*%
G36*
G01*
X63995000Y-86316000D02*
X64195000Y-86316000D01*
G75*
G02*
X64295000Y-86416000I0J-100000D01*
G01*
X64295000Y-87691000D01*
G75*
G02*
X64195000Y-87791000I-100000J0D01*
G01*
X63995000Y-87791000D01*
G75*
G02*
X63895000Y-87691000I0J100000D01*
G01*
X63895000Y-86416000D01*
G75*
G02*
X63995000Y-86316000I100000J0D01*
G01*
G37*
%TD.AperFunction*%
%TO.P,U101,4*%
%TO.N,GND*%
%TA.AperFunction,SMDPad,CuDef*%
G36*
G01*
X64645000Y-86316000D02*
X64845000Y-86316000D01*
G75*
G02*
X64945000Y-86416000I0J-100000D01*
G01*
X64945000Y-87691000D01*
G75*
G02*
X64845000Y-87791000I-100000J0D01*
G01*
X64645000Y-87791000D01*
G75*
G02*
X64545000Y-87691000I0J100000D01*
G01*
X64545000Y-86416000D01*
G75*
G02*
X64645000Y-86316000I100000J0D01*
G01*
G37*
%TD.AperFunction*%
%TO.P,U101,3*%
%TA.AperFunction,SMDPad,CuDef*%
G36*
G01*
X65295000Y-86316000D02*
X65495000Y-86316000D01*
G75*
G02*
X65595000Y-86416000I0J-100000D01*
G01*
X65595000Y-87691000D01*
G75*
G02*
X65495000Y-87791000I-100000J0D01*
G01*
X65295000Y-87791000D01*
G75*
G02*
X65195000Y-87691000I0J100000D01*
G01*
X65195000Y-86416000D01*
G75*
G02*
X65295000Y-86316000I100000J0D01*
G01*
G37*
%TD.AperFunction*%
%TO.P,U101,2*%
%TO.N,Net-(C102-Pad1)*%
%TA.AperFunction,SMDPad,CuDef*%
G36*
G01*
X65945000Y-86316000D02*
X66145000Y-86316000D01*
G75*
G02*
X66245000Y-86416000I0J-100000D01*
G01*
X66245000Y-87691000D01*
G75*
G02*
X66145000Y-87791000I-100000J0D01*
G01*
X65945000Y-87791000D01*
G75*
G02*
X65845000Y-87691000I0J100000D01*
G01*
X65845000Y-86416000D01*
G75*
G02*
X65945000Y-86316000I100000J0D01*
G01*
G37*
%TD.AperFunction*%
%TO.P,U101,1*%
%TO.N,Net-(C102-Pad2)*%
%TA.AperFunction,SMDPad,CuDef*%
G36*
G01*
X66595000Y-86316000D02*
X66795000Y-86316000D01*
G75*
G02*
X66895000Y-86416000I0J-100000D01*
G01*
X66895000Y-87691000D01*
G75*
G02*
X66795000Y-87791000I-100000J0D01*
G01*
X66595000Y-87791000D01*
G75*
G02*
X66495000Y-87691000I0J100000D01*
G01*
X66495000Y-86416000D01*
G75*
G02*
X66595000Y-86316000I100000J0D01*
G01*
G37*
%TD.AperFunction*%
D13*
%TO.P,U101,DAP*%
%TO.N,GND*%
X65040000Y-89154000D03*
X63770000Y-90678000D03*
X62500000Y-89154000D03*
X65040000Y-90678000D03*
X62500000Y-90678000D03*
X63770000Y-89154000D03*
%TD*%
%TO.P,C8,2*%
%TO.N,GND*%
%TA.AperFunction,SMDPad,CuDef*%
G36*
G01*
X94669000Y-107399000D02*
X94669000Y-107739000D01*
G75*
G02*
X94529000Y-107879000I-140000J0D01*
G01*
X94249000Y-107879000D01*
G75*
G02*
X94109000Y-107739000I0J140000D01*
G01*
X94109000Y-107399000D01*
G75*
G02*
X94249000Y-107259000I140000J0D01*
G01*
X94529000Y-107259000D01*
G75*
G02*
X94669000Y-107399000I0J-140000D01*
G01*
G37*
%TD.AperFunction*%
%TO.P,C8,1*%
%TO.N,/MCU_VCC*%
%TA.AperFunction,SMDPad,CuDef*%
G36*
G01*
X95629000Y-107399000D02*
X95629000Y-107739000D01*
G75*
G02*
X95489000Y-107879000I-140000J0D01*
G01*
X95209000Y-107879000D01*
G75*
G02*
X95069000Y-107739000I0J140000D01*
G01*
X95069000Y-107399000D01*
G75*
G02*
X95209000Y-107259000I140000J0D01*
G01*
X95489000Y-107259000D01*
G75*
G02*
X95629000Y-107399000I0J-140000D01*
G01*
G37*
%TD.AperFunction*%
%TD*%
%TO.P,C5,2*%
%TO.N,GND*%
%TA.AperFunction,SMDPad,CuDef*%
G36*
G01*
X99652000Y-100784000D02*
X99992000Y-100784000D01*
G75*
G02*
X100132000Y-100924000I0J-140000D01*
G01*
X100132000Y-101204000D01*
G75*
G02*
X99992000Y-101344000I-140000J0D01*
G01*
X99652000Y-101344000D01*
G75*
G02*
X99512000Y-101204000I0J140000D01*
G01*
X99512000Y-100924000D01*
G75*
G02*
X99652000Y-100784000I140000J0D01*
G01*
G37*
%TD.AperFunction*%
%TO.P,C5,1*%
%TO.N,/MCU_VCC*%
%TA.AperFunction,SMDPad,CuDef*%
G36*
G01*
X99652000Y-99824000D02*
X99992000Y-99824000D01*
G75*
G02*
X100132000Y-99964000I0J-140000D01*
G01*
X100132000Y-100244000D01*
G75*
G02*
X99992000Y-100384000I-140000J0D01*
G01*
X99652000Y-100384000D01*
G75*
G02*
X99512000Y-100244000I0J140000D01*
G01*
X99512000Y-99964000D01*
G75*
G02*
X99652000Y-99824000I140000J0D01*
G01*
G37*
%TD.AperFunction*%
%TD*%
%TO.P,C4,2*%
%TO.N,GND*%
%TA.AperFunction,SMDPad,CuDef*%
G36*
G01*
X86403000Y-103841000D02*
X86063000Y-103841000D01*
G75*
G02*
X85923000Y-103701000I0J140000D01*
G01*
X85923000Y-103421000D01*
G75*
G02*
X86063000Y-103281000I140000J0D01*
G01*
X86403000Y-103281000D01*
G75*
G02*
X86543000Y-103421000I0J-140000D01*
G01*
X86543000Y-103701000D01*
G75*
G02*
X86403000Y-103841000I-140000J0D01*
G01*
G37*
%TD.AperFunction*%
%TO.P,C4,1*%
%TO.N,/MCU_VCC*%
%TA.AperFunction,SMDPad,CuDef*%
G36*
G01*
X86403000Y-104801000D02*
X86063000Y-104801000D01*
G75*
G02*
X85923000Y-104661000I0J140000D01*
G01*
X85923000Y-104381000D01*
G75*
G02*
X86063000Y-104241000I140000J0D01*
G01*
X86403000Y-104241000D01*
G75*
G02*
X86543000Y-104381000I0J-140000D01*
G01*
X86543000Y-104661000D01*
G75*
G02*
X86403000Y-104801000I-140000J0D01*
G01*
G37*
%TD.AperFunction*%
%TD*%
%TO.P,C3,2*%
%TO.N,GND*%
%TA.AperFunction,SMDPad,CuDef*%
G36*
G01*
X87783000Y-96731000D02*
X87783000Y-97071000D01*
G75*
G02*
X87643000Y-97211000I-140000J0D01*
G01*
X87363000Y-97211000D01*
G75*
G02*
X87223000Y-97071000I0J140000D01*
G01*
X87223000Y-96731000D01*
G75*
G02*
X87363000Y-96591000I140000J0D01*
G01*
X87643000Y-96591000D01*
G75*
G02*
X87783000Y-96731000I0J-140000D01*
G01*
G37*
%TD.AperFunction*%
%TO.P,C3,1*%
%TO.N,/MCU_VCC*%
%TA.AperFunction,SMDPad,CuDef*%
G36*
G01*
X88743000Y-96731000D02*
X88743000Y-97071000D01*
G75*
G02*
X88603000Y-97211000I-140000J0D01*
G01*
X88323000Y-97211000D01*
G75*
G02*
X88183000Y-97071000I0J140000D01*
G01*
X88183000Y-96731000D01*
G75*
G02*
X88323000Y-96591000I140000J0D01*
G01*
X88603000Y-96591000D01*
G75*
G02*
X88743000Y-96731000I0J-140000D01*
G01*
G37*
%TD.AperFunction*%
%TD*%
D14*
%TO.P,U102,DAP*%
%TO.N,GND*%
X75568000Y-89308000D03*
X75568000Y-90058000D03*
X75568000Y-90808000D03*
X74818000Y-89308000D03*
X74818000Y-90058000D03*
X74818000Y-90808000D03*
X74068000Y-89308000D03*
X74068000Y-90058000D03*
X74068000Y-90808000D03*
D15*
X74818000Y-90058000D03*
%TO.P,U102,16*%
%TO.N,/MUX_VCC*%
%TA.AperFunction,SMDPad,CuDef*%
G36*
G01*
X73218000Y-91183000D02*
X72518000Y-91183000D01*
G75*
G02*
X72443000Y-91108000I0J75000D01*
G01*
X72443000Y-90958000D01*
G75*
G02*
X72518000Y-90883000I75000J0D01*
G01*
X73218000Y-90883000D01*
G75*
G02*
X73293000Y-90958000I0J-75000D01*
G01*
X73293000Y-91108000D01*
G75*
G02*
X73218000Y-91183000I-75000J0D01*
G01*
G37*
%TD.AperFunction*%
%TO.P,U102,15*%
%TO.N,Net-(R110-Pad2)*%
%TA.AperFunction,SMDPad,CuDef*%
G36*
G01*
X73218000Y-90533000D02*
X72518000Y-90533000D01*
G75*
G02*
X72443000Y-90458000I0J75000D01*
G01*
X72443000Y-90308000D01*
G75*
G02*
X72518000Y-90233000I75000J0D01*
G01*
X73218000Y-90233000D01*
G75*
G02*
X73293000Y-90308000I0J-75000D01*
G01*
X73293000Y-90458000D01*
G75*
G02*
X73218000Y-90533000I-75000J0D01*
G01*
G37*
%TD.AperFunction*%
%TO.P,U102,14*%
%TO.N,/MUX_VCC*%
%TA.AperFunction,SMDPad,CuDef*%
G36*
G01*
X73218000Y-89883000D02*
X72518000Y-89883000D01*
G75*
G02*
X72443000Y-89808000I0J75000D01*
G01*
X72443000Y-89658000D01*
G75*
G02*
X72518000Y-89583000I75000J0D01*
G01*
X73218000Y-89583000D01*
G75*
G02*
X73293000Y-89658000I0J-75000D01*
G01*
X73293000Y-89808000D01*
G75*
G02*
X73218000Y-89883000I-75000J0D01*
G01*
G37*
%TD.AperFunction*%
%TO.P,U102,13*%
%TO.N,Net-(R113-Pad2)*%
%TA.AperFunction,SMDPad,CuDef*%
G36*
G01*
X73218000Y-89233000D02*
X72518000Y-89233000D01*
G75*
G02*
X72443000Y-89158000I0J75000D01*
G01*
X72443000Y-89008000D01*
G75*
G02*
X72518000Y-88933000I75000J0D01*
G01*
X73218000Y-88933000D01*
G75*
G02*
X73293000Y-89008000I0J-75000D01*
G01*
X73293000Y-89158000D01*
G75*
G02*
X73218000Y-89233000I-75000J0D01*
G01*
G37*
%TD.AperFunction*%
%TO.P,U102,12*%
%TO.N,/RD+*%
%TA.AperFunction,SMDPad,CuDef*%
G36*
G01*
X73918000Y-88533000D02*
X73768000Y-88533000D01*
G75*
G02*
X73693000Y-88458000I0J75000D01*
G01*
X73693000Y-87758000D01*
G75*
G02*
X73768000Y-87683000I75000J0D01*
G01*
X73918000Y-87683000D01*
G75*
G02*
X73993000Y-87758000I0J-75000D01*
G01*
X73993000Y-88458000D01*
G75*
G02*
X73918000Y-88533000I-75000J0D01*
G01*
G37*
%TD.AperFunction*%
%TO.P,U102,11*%
%TO.N,/RD-*%
%TA.AperFunction,SMDPad,CuDef*%
G36*
G01*
X74568000Y-88533000D02*
X74418000Y-88533000D01*
G75*
G02*
X74343000Y-88458000I0J75000D01*
G01*
X74343000Y-87758000D01*
G75*
G02*
X74418000Y-87683000I75000J0D01*
G01*
X74568000Y-87683000D01*
G75*
G02*
X74643000Y-87758000I0J-75000D01*
G01*
X74643000Y-88458000D01*
G75*
G02*
X74568000Y-88533000I-75000J0D01*
G01*
G37*
%TD.AperFunction*%
%TO.P,U102,10*%
%TO.N,/RD2+*%
%TA.AperFunction,SMDPad,CuDef*%
G36*
G01*
X75218000Y-88533000D02*
X75068000Y-88533000D01*
G75*
G02*
X74993000Y-88458000I0J75000D01*
G01*
X74993000Y-87758000D01*
G75*
G02*
X75068000Y-87683000I75000J0D01*
G01*
X75218000Y-87683000D01*
G75*
G02*
X75293000Y-87758000I0J-75000D01*
G01*
X75293000Y-88458000D01*
G75*
G02*
X75218000Y-88533000I-75000J0D01*
G01*
G37*
%TD.AperFunction*%
%TO.P,U102,9*%
%TO.N,/RD2-*%
%TA.AperFunction,SMDPad,CuDef*%
G36*
G01*
X75868000Y-88533000D02*
X75718000Y-88533000D01*
G75*
G02*
X75643000Y-88458000I0J75000D01*
G01*
X75643000Y-87758000D01*
G75*
G02*
X75718000Y-87683000I75000J0D01*
G01*
X75868000Y-87683000D01*
G75*
G02*
X75943000Y-87758000I0J-75000D01*
G01*
X75943000Y-88458000D01*
G75*
G02*
X75868000Y-88533000I-75000J0D01*
G01*
G37*
%TD.AperFunction*%
%TO.P,U102,8*%
%TO.N,/OUT_SEL1*%
%TA.AperFunction,SMDPad,CuDef*%
G36*
G01*
X77118000Y-89233000D02*
X76418000Y-89233000D01*
G75*
G02*
X76343000Y-89158000I0J75000D01*
G01*
X76343000Y-89008000D01*
G75*
G02*
X76418000Y-88933000I75000J0D01*
G01*
X77118000Y-88933000D01*
G75*
G02*
X77193000Y-89008000I0J-75000D01*
G01*
X77193000Y-89158000D01*
G75*
G02*
X77118000Y-89233000I-75000J0D01*
G01*
G37*
%TD.AperFunction*%
%TO.P,U102,7*%
%TO.N,/OUT_SEL0*%
%TA.AperFunction,SMDPad,CuDef*%
G36*
G01*
X77118000Y-89883000D02*
X76418000Y-89883000D01*
G75*
G02*
X76343000Y-89808000I0J75000D01*
G01*
X76343000Y-89658000D01*
G75*
G02*
X76418000Y-89583000I75000J0D01*
G01*
X77118000Y-89583000D01*
G75*
G02*
X77193000Y-89658000I0J-75000D01*
G01*
X77193000Y-89808000D01*
G75*
G02*
X77118000Y-89883000I-75000J0D01*
G01*
G37*
%TD.AperFunction*%
%TO.P,U102,6*%
%TO.N,Net-(R111-Pad2)*%
%TA.AperFunction,SMDPad,CuDef*%
G36*
G01*
X77118000Y-90533000D02*
X76418000Y-90533000D01*
G75*
G02*
X76343000Y-90458000I0J75000D01*
G01*
X76343000Y-90308000D01*
G75*
G02*
X76418000Y-90233000I75000J0D01*
G01*
X77118000Y-90233000D01*
G75*
G02*
X77193000Y-90308000I0J-75000D01*
G01*
X77193000Y-90458000D01*
G75*
G02*
X77118000Y-90533000I-75000J0D01*
G01*
G37*
%TD.AperFunction*%
%TO.P,U102,5*%
%TO.N,GND*%
%TA.AperFunction,SMDPad,CuDef*%
G36*
G01*
X77118000Y-91183000D02*
X76418000Y-91183000D01*
G75*
G02*
X76343000Y-91108000I0J75000D01*
G01*
X76343000Y-90958000D01*
G75*
G02*
X76418000Y-90883000I75000J0D01*
G01*
X77118000Y-90883000D01*
G75*
G02*
X77193000Y-90958000I0J-75000D01*
G01*
X77193000Y-91108000D01*
G75*
G02*
X77118000Y-91183000I-75000J0D01*
G01*
G37*
%TD.AperFunction*%
%TO.P,U102,4*%
%TO.N,/SFPRX-*%
%TA.AperFunction,SMDPad,CuDef*%
G36*
G01*
X75868000Y-92433000D02*
X75718000Y-92433000D01*
G75*
G02*
X75643000Y-92358000I0J75000D01*
G01*
X75643000Y-91658000D01*
G75*
G02*
X75718000Y-91583000I75000J0D01*
G01*
X75868000Y-91583000D01*
G75*
G02*
X75943000Y-91658000I0J-75000D01*
G01*
X75943000Y-92358000D01*
G75*
G02*
X75868000Y-92433000I-75000J0D01*
G01*
G37*
%TD.AperFunction*%
%TO.P,U102,3*%
%TO.N,/SFPRX+*%
%TA.AperFunction,SMDPad,CuDef*%
G36*
G01*
X75218000Y-92433000D02*
X75068000Y-92433000D01*
G75*
G02*
X74993000Y-92358000I0J75000D01*
G01*
X74993000Y-91658000D01*
G75*
G02*
X75068000Y-91583000I75000J0D01*
G01*
X75218000Y-91583000D01*
G75*
G02*
X75293000Y-91658000I0J-75000D01*
G01*
X75293000Y-92358000D01*
G75*
G02*
X75218000Y-92433000I-75000J0D01*
G01*
G37*
%TD.AperFunction*%
%TO.P,U102,2*%
%TO.N,/TD2-*%
%TA.AperFunction,SMDPad,CuDef*%
G36*
G01*
X74568000Y-92433000D02*
X74418000Y-92433000D01*
G75*
G02*
X74343000Y-92358000I0J75000D01*
G01*
X74343000Y-91658000D01*
G75*
G02*
X74418000Y-91583000I75000J0D01*
G01*
X74568000Y-91583000D01*
G75*
G02*
X74643000Y-91658000I0J-75000D01*
G01*
X74643000Y-92358000D01*
G75*
G02*
X74568000Y-92433000I-75000J0D01*
G01*
G37*
%TD.AperFunction*%
%TO.P,U102,1*%
%TO.N,/TD2+*%
%TA.AperFunction,SMDPad,CuDef*%
G36*
G01*
X73918000Y-92433000D02*
X73768000Y-92433000D01*
G75*
G02*
X73693000Y-92358000I0J75000D01*
G01*
X73693000Y-91658000D01*
G75*
G02*
X73768000Y-91583000I75000J0D01*
G01*
X73918000Y-91583000D01*
G75*
G02*
X73993000Y-91658000I0J-75000D01*
G01*
X73993000Y-92358000D01*
G75*
G02*
X73918000Y-92433000I-75000J0D01*
G01*
G37*
%TD.AperFunction*%
%TD*%
%TO.P,R116,2*%
%TO.N,Net-(J101-Pad3)*%
%TA.AperFunction,SMDPad,CuDef*%
G36*
G01*
X105650000Y-102039000D02*
X105650000Y-101669000D01*
G75*
G02*
X105785000Y-101534000I135000J0D01*
G01*
X106055000Y-101534000D01*
G75*
G02*
X106190000Y-101669000I0J-135000D01*
G01*
X106190000Y-102039000D01*
G75*
G02*
X106055000Y-102174000I-135000J0D01*
G01*
X105785000Y-102174000D01*
G75*
G02*
X105650000Y-102039000I0J135000D01*
G01*
G37*
%TD.AperFunction*%
%TO.P,R116,1*%
%TO.N,/LED1*%
%TA.AperFunction,SMDPad,CuDef*%
G36*
G01*
X104630000Y-102039000D02*
X104630000Y-101669000D01*
G75*
G02*
X104765000Y-101534000I135000J0D01*
G01*
X105035000Y-101534000D01*
G75*
G02*
X105170000Y-101669000I0J-135000D01*
G01*
X105170000Y-102039000D01*
G75*
G02*
X105035000Y-102174000I-135000J0D01*
G01*
X104765000Y-102174000D01*
G75*
G02*
X104630000Y-102039000I0J135000D01*
G01*
G37*
%TD.AperFunction*%
%TD*%
%TO.P,R115,2*%
%TO.N,Net-(J101-Pad2)*%
%TA.AperFunction,SMDPad,CuDef*%
G36*
G01*
X105650000Y-104579000D02*
X105650000Y-104209000D01*
G75*
G02*
X105785000Y-104074000I135000J0D01*
G01*
X106055000Y-104074000D01*
G75*
G02*
X106190000Y-104209000I0J-135000D01*
G01*
X106190000Y-104579000D01*
G75*
G02*
X106055000Y-104714000I-135000J0D01*
G01*
X105785000Y-104714000D01*
G75*
G02*
X105650000Y-104579000I0J135000D01*
G01*
G37*
%TD.AperFunction*%
%TO.P,R115,1*%
%TO.N,/BTN2*%
%TA.AperFunction,SMDPad,CuDef*%
G36*
G01*
X104630000Y-104579000D02*
X104630000Y-104209000D01*
G75*
G02*
X104765000Y-104074000I135000J0D01*
G01*
X105035000Y-104074000D01*
G75*
G02*
X105170000Y-104209000I0J-135000D01*
G01*
X105170000Y-104579000D01*
G75*
G02*
X105035000Y-104714000I-135000J0D01*
G01*
X104765000Y-104714000D01*
G75*
G02*
X104630000Y-104579000I0J135000D01*
G01*
G37*
%TD.AperFunction*%
%TD*%
%TO.P,R114,2*%
%TO.N,Net-(J101-Pad1)*%
%TA.AperFunction,SMDPad,CuDef*%
G36*
G01*
X105650000Y-107119000D02*
X105650000Y-106749000D01*
G75*
G02*
X105785000Y-106614000I135000J0D01*
G01*
X106055000Y-106614000D01*
G75*
G02*
X106190000Y-106749000I0J-135000D01*
G01*
X106190000Y-107119000D01*
G75*
G02*
X106055000Y-107254000I-135000J0D01*
G01*
X105785000Y-107254000D01*
G75*
G02*
X105650000Y-107119000I0J135000D01*
G01*
G37*
%TD.AperFunction*%
%TO.P,R114,1*%
%TO.N,/BTN1*%
%TA.AperFunction,SMDPad,CuDef*%
G36*
G01*
X104630000Y-107119000D02*
X104630000Y-106749000D01*
G75*
G02*
X104765000Y-106614000I135000J0D01*
G01*
X105035000Y-106614000D01*
G75*
G02*
X105170000Y-106749000I0J-135000D01*
G01*
X105170000Y-107119000D01*
G75*
G02*
X105035000Y-107254000I-135000J0D01*
G01*
X104765000Y-107254000D01*
G75*
G02*
X104630000Y-107119000I0J135000D01*
G01*
G37*
%TD.AperFunction*%
%TD*%
D16*
%TO.P,J101,4*%
%TO.N,GND*%
X109220000Y-99314000D03*
%TO.P,J101,3*%
%TO.N,Net-(J101-Pad3)*%
X109220000Y-101854000D03*
%TO.P,J101,2*%
%TO.N,Net-(J101-Pad2)*%
X109220000Y-104394000D03*
D17*
%TO.P,J101,1*%
%TO.N,Net-(J101-Pad1)*%
X109220000Y-106934000D03*
%TD*%
%TO.P,C203,2*%
%TO.N,GND*%
%TA.AperFunction,SMDPad,CuDef*%
G36*
G01*
X84516800Y-122570001D02*
X84516800Y-121269999D01*
G75*
G02*
X84766799Y-121020000I249999J0D01*
G01*
X85416801Y-121020000D01*
G75*
G02*
X85666800Y-121269999I0J-249999D01*
G01*
X85666800Y-122570001D01*
G75*
G02*
X85416801Y-122820000I-249999J0D01*
G01*
X84766799Y-122820000D01*
G75*
G02*
X84516800Y-122570001I0J249999D01*
G01*
G37*
%TD.AperFunction*%
%TO.P,C203,1*%
%TO.N,+5V*%
%TA.AperFunction,SMDPad,CuDef*%
G36*
G01*
X81566800Y-122570001D02*
X81566800Y-121269999D01*
G75*
G02*
X81816799Y-121020000I249999J0D01*
G01*
X82466801Y-121020000D01*
G75*
G02*
X82716800Y-121269999I0J-249999D01*
G01*
X82716800Y-122570001D01*
G75*
G02*
X82466801Y-122820000I-249999J0D01*
G01*
X81816799Y-122820000D01*
G75*
G02*
X81566800Y-122570001I0J249999D01*
G01*
G37*
%TD.AperFunction*%
%TD*%
%TO.P,C206,2*%
%TO.N,GND*%
%TA.AperFunction,SMDPad,CuDef*%
G36*
G01*
X91200400Y-115580399D02*
X91200400Y-116880401D01*
G75*
G02*
X90950401Y-117130400I-249999J0D01*
G01*
X90300399Y-117130400D01*
G75*
G02*
X90050400Y-116880401I0J249999D01*
G01*
X90050400Y-115580399D01*
G75*
G02*
X90300399Y-115330400I249999J0D01*
G01*
X90950401Y-115330400D01*
G75*
G02*
X91200400Y-115580399I0J-249999D01*
G01*
G37*
%TD.AperFunction*%
%TO.P,C206,1*%
%TO.N,+3V3*%
%TA.AperFunction,SMDPad,CuDef*%
G36*
G01*
X94150400Y-115580399D02*
X94150400Y-116880401D01*
G75*
G02*
X93900401Y-117130400I-249999J0D01*
G01*
X93250399Y-117130400D01*
G75*
G02*
X93000400Y-116880401I0J249999D01*
G01*
X93000400Y-115580399D01*
G75*
G02*
X93250399Y-115330400I249999J0D01*
G01*
X93900401Y-115330400D01*
G75*
G02*
X94150400Y-115580399I0J-249999D01*
G01*
G37*
%TD.AperFunction*%
%TD*%
%TO.P,C102,2*%
%TO.N,Net-(C102-Pad2)*%
%TA.AperFunction,SMDPad,CuDef*%
G36*
G01*
X66595600Y-85412400D02*
X66595600Y-85072400D01*
G75*
G02*
X66735600Y-84932400I140000J0D01*
G01*
X67015600Y-84932400D01*
G75*
G02*
X67155600Y-85072400I0J-140000D01*
G01*
X67155600Y-85412400D01*
G75*
G02*
X67015600Y-85552400I-140000J0D01*
G01*
X66735600Y-85552400D01*
G75*
G02*
X66595600Y-85412400I0J140000D01*
G01*
G37*
%TD.AperFunction*%
%TO.P,C102,1*%
%TO.N,Net-(C102-Pad1)*%
%TA.AperFunction,SMDPad,CuDef*%
G36*
G01*
X65635600Y-85412400D02*
X65635600Y-85072400D01*
G75*
G02*
X65775600Y-84932400I140000J0D01*
G01*
X66055600Y-84932400D01*
G75*
G02*
X66195600Y-85072400I0J-140000D01*
G01*
X66195600Y-85412400D01*
G75*
G02*
X66055600Y-85552400I-140000J0D01*
G01*
X65775600Y-85552400D01*
G75*
G02*
X65635600Y-85412400I0J140000D01*
G01*
G37*
%TD.AperFunction*%
%TD*%
%TO.P,C107,2*%
%TO.N,/MUX_VCC*%
%TA.AperFunction,SMDPad,CuDef*%
G36*
G01*
X71671000Y-91621000D02*
X71331000Y-91621000D01*
G75*
G02*
X71191000Y-91481000I0J140000D01*
G01*
X71191000Y-91201000D01*
G75*
G02*
X71331000Y-91061000I140000J0D01*
G01*
X71671000Y-91061000D01*
G75*
G02*
X71811000Y-91201000I0J-140000D01*
G01*
X71811000Y-91481000D01*
G75*
G02*
X71671000Y-91621000I-140000J0D01*
G01*
G37*
%TD.AperFunction*%
%TO.P,C107,1*%
%TO.N,GND*%
%TA.AperFunction,SMDPad,CuDef*%
G36*
G01*
X71671000Y-92581000D02*
X71331000Y-92581000D01*
G75*
G02*
X71191000Y-92441000I0J140000D01*
G01*
X71191000Y-92161000D01*
G75*
G02*
X71331000Y-92021000I140000J0D01*
G01*
X71671000Y-92021000D01*
G75*
G02*
X71811000Y-92161000I0J-140000D01*
G01*
X71811000Y-92441000D01*
G75*
G02*
X71671000Y-92581000I-140000J0D01*
G01*
G37*
%TD.AperFunction*%
%TD*%
%TO.P,U202,6*%
%TO.N,N/C*%
%TA.AperFunction,SMDPad,CuDef*%
G36*
G01*
X97569000Y-118783000D02*
X97569000Y-119083000D01*
G75*
G02*
X97419000Y-119233000I-150000J0D01*
G01*
X96394000Y-119233000D01*
G75*
G02*
X96244000Y-119083000I0J150000D01*
G01*
X96244000Y-118783000D01*
G75*
G02*
X96394000Y-118633000I150000J0D01*
G01*
X97419000Y-118633000D01*
G75*
G02*
X97569000Y-118783000I0J-150000D01*
G01*
G37*
%TD.AperFunction*%
%TO.P,U202,5*%
%TO.N,/Power/VBATSW*%
%TA.AperFunction,SMDPad,CuDef*%
G36*
G01*
X97569000Y-117833000D02*
X97569000Y-118133000D01*
G75*
G02*
X97419000Y-118283000I-150000J0D01*
G01*
X96394000Y-118283000D01*
G75*
G02*
X96244000Y-118133000I0J150000D01*
G01*
X96244000Y-117833000D01*
G75*
G02*
X96394000Y-117683000I150000J0D01*
G01*
X97419000Y-117683000D01*
G75*
G02*
X97569000Y-117833000I0J-150000D01*
G01*
G37*
%TD.AperFunction*%
%TO.P,U202,4*%
%TA.AperFunction,SMDPad,CuDef*%
G36*
G01*
X97569000Y-116883000D02*
X97569000Y-117183000D01*
G75*
G02*
X97419000Y-117333000I-150000J0D01*
G01*
X96394000Y-117333000D01*
G75*
G02*
X96244000Y-117183000I0J150000D01*
G01*
X96244000Y-116883000D01*
G75*
G02*
X96394000Y-116733000I150000J0D01*
G01*
X97419000Y-116733000D01*
G75*
G02*
X97569000Y-116883000I0J-150000D01*
G01*
G37*
%TD.AperFunction*%
%TO.P,U202,3*%
%TO.N,Net-(R205-Pad2)*%
%TA.AperFunction,SMDPad,CuDef*%
G36*
G01*
X99844000Y-116883000D02*
X99844000Y-117183000D01*
G75*
G02*
X99694000Y-117333000I-150000J0D01*
G01*
X98669000Y-117333000D01*
G75*
G02*
X98519000Y-117183000I0J150000D01*
G01*
X98519000Y-116883000D01*
G75*
G02*
X98669000Y-116733000I150000J0D01*
G01*
X99694000Y-116733000D01*
G75*
G02*
X99844000Y-116883000I0J-150000D01*
G01*
G37*
%TD.AperFunction*%
%TO.P,U202,2*%
%TO.N,GND*%
%TA.AperFunction,SMDPad,CuDef*%
G36*
G01*
X99844000Y-117833000D02*
X99844000Y-118133000D01*
G75*
G02*
X99694000Y-118283000I-150000J0D01*
G01*
X98669000Y-118283000D01*
G75*
G02*
X98519000Y-118133000I0J150000D01*
G01*
X98519000Y-117833000D01*
G75*
G02*
X98669000Y-117683000I150000J0D01*
G01*
X99694000Y-117683000D01*
G75*
G02*
X99844000Y-117833000I0J-150000D01*
G01*
G37*
%TD.AperFunction*%
%TO.P,U202,1*%
%TO.N,Net-(D202-Pad2)*%
%TA.AperFunction,SMDPad,CuDef*%
G36*
G01*
X99844000Y-118783000D02*
X99844000Y-119083000D01*
G75*
G02*
X99694000Y-119233000I-150000J0D01*
G01*
X98669000Y-119233000D01*
G75*
G02*
X98519000Y-119083000I0J150000D01*
G01*
X98519000Y-118783000D01*
G75*
G02*
X98669000Y-118633000I150000J0D01*
G01*
X99694000Y-118633000D01*
G75*
G02*
X99844000Y-118783000I0J-150000D01*
G01*
G37*
%TD.AperFunction*%
%TD*%
%TO.P,R206,2*%
%TO.N,GND*%
%TA.AperFunction,SMDPad,CuDef*%
G36*
G01*
X96534000Y-115131000D02*
X96534000Y-115501000D01*
G75*
G02*
X96399000Y-115636000I-135000J0D01*
G01*
X96129000Y-115636000D01*
G75*
G02*
X95994000Y-115501000I0J135000D01*
G01*
X95994000Y-115131000D01*
G75*
G02*
X96129000Y-114996000I135000J0D01*
G01*
X96399000Y-114996000D01*
G75*
G02*
X96534000Y-115131000I0J-135000D01*
G01*
G37*
%TD.AperFunction*%
%TO.P,R206,1*%
%TO.N,Net-(R205-Pad2)*%
%TA.AperFunction,SMDPad,CuDef*%
G36*
G01*
X97554000Y-115131000D02*
X97554000Y-115501000D01*
G75*
G02*
X97419000Y-115636000I-135000J0D01*
G01*
X97149000Y-115636000D01*
G75*
G02*
X97014000Y-115501000I0J135000D01*
G01*
X97014000Y-115131000D01*
G75*
G02*
X97149000Y-114996000I135000J0D01*
G01*
X97419000Y-114996000D01*
G75*
G02*
X97554000Y-115131000I0J-135000D01*
G01*
G37*
%TD.AperFunction*%
%TD*%
%TO.P,R205,2*%
%TO.N,Net-(R205-Pad2)*%
%TA.AperFunction,SMDPad,CuDef*%
G36*
G01*
X99072000Y-115131000D02*
X99072000Y-115501000D01*
G75*
G02*
X98937000Y-115636000I-135000J0D01*
G01*
X98667000Y-115636000D01*
G75*
G02*
X98532000Y-115501000I0J135000D01*
G01*
X98532000Y-115131000D01*
G75*
G02*
X98667000Y-114996000I135000J0D01*
G01*
X98937000Y-114996000D01*
G75*
G02*
X99072000Y-115131000I0J-135000D01*
G01*
G37*
%TD.AperFunction*%
%TO.P,R205,1*%
%TO.N,+5V*%
%TA.AperFunction,SMDPad,CuDef*%
G36*
G01*
X100092000Y-115131000D02*
X100092000Y-115501000D01*
G75*
G02*
X99957000Y-115636000I-135000J0D01*
G01*
X99687000Y-115636000D01*
G75*
G02*
X99552000Y-115501000I0J135000D01*
G01*
X99552000Y-115131000D01*
G75*
G02*
X99687000Y-114996000I135000J0D01*
G01*
X99957000Y-114996000D01*
G75*
G02*
X100092000Y-115131000I0J-135000D01*
G01*
G37*
%TD.AperFunction*%
%TD*%
%TO.P,D202,2*%
%TO.N,Net-(D202-Pad2)*%
%TA.AperFunction,SMDPad,CuDef*%
G36*
G01*
X101153999Y-118271000D02*
X102554001Y-118271000D01*
G75*
G02*
X102804000Y-118520999I0J-249999D01*
G01*
X102804000Y-119071001D01*
G75*
G02*
X102554001Y-119321000I-249999J0D01*
G01*
X101153999Y-119321000D01*
G75*
G02*
X100904000Y-119071001I0J249999D01*
G01*
X100904000Y-118520999D01*
G75*
G02*
X101153999Y-118271000I249999J0D01*
G01*
G37*
%TD.AperFunction*%
%TO.P,D202,1*%
%TO.N,+5V*%
%TA.AperFunction,SMDPad,CuDef*%
G36*
G01*
X101153999Y-115121000D02*
X102554001Y-115121000D01*
G75*
G02*
X102804000Y-115370999I0J-249999D01*
G01*
X102804000Y-115921001D01*
G75*
G02*
X102554001Y-116171000I-249999J0D01*
G01*
X101153999Y-116171000D01*
G75*
G02*
X100904000Y-115921001I0J249999D01*
G01*
X100904000Y-115370999D01*
G75*
G02*
X101153999Y-115121000I249999J0D01*
G01*
G37*
%TD.AperFunction*%
%TD*%
%TO.P,C209,2*%
%TO.N,GND*%
%TA.AperFunction,SMDPad,CuDef*%
G36*
G01*
X101076999Y-136282000D02*
X102377001Y-136282000D01*
G75*
G02*
X102627000Y-136531999I0J-249999D01*
G01*
X102627000Y-137182001D01*
G75*
G02*
X102377001Y-137432000I-249999J0D01*
G01*
X101076999Y-137432000D01*
G75*
G02*
X100827000Y-137182001I0J249999D01*
G01*
X100827000Y-136531999D01*
G75*
G02*
X101076999Y-136282000I249999J0D01*
G01*
G37*
%TD.AperFunction*%
%TO.P,C209,1*%
%TO.N,/Power/VBATSW*%
%TA.AperFunction,SMDPad,CuDef*%
G36*
G01*
X101076999Y-133332000D02*
X102377001Y-133332000D01*
G75*
G02*
X102627000Y-133581999I0J-249999D01*
G01*
X102627000Y-134232001D01*
G75*
G02*
X102377001Y-134482000I-249999J0D01*
G01*
X101076999Y-134482000D01*
G75*
G02*
X100827000Y-134232001I0J249999D01*
G01*
X100827000Y-133581999D01*
G75*
G02*
X101076999Y-133332000I249999J0D01*
G01*
G37*
%TD.AperFunction*%
%TD*%
%TO.P,C208,2*%
%TO.N,GND*%
%TA.AperFunction,SMDPad,CuDef*%
G36*
G01*
X107580000Y-116728001D02*
X107580000Y-115427999D01*
G75*
G02*
X107829999Y-115178000I249999J0D01*
G01*
X108480001Y-115178000D01*
G75*
G02*
X108730000Y-115427999I0J-249999D01*
G01*
X108730000Y-116728001D01*
G75*
G02*
X108480001Y-116978000I-249999J0D01*
G01*
X107829999Y-116978000D01*
G75*
G02*
X107580000Y-116728001I0J249999D01*
G01*
G37*
%TD.AperFunction*%
%TO.P,C208,1*%
%TO.N,+5V*%
%TA.AperFunction,SMDPad,CuDef*%
G36*
G01*
X104630000Y-116728001D02*
X104630000Y-115427999D01*
G75*
G02*
X104879999Y-115178000I249999J0D01*
G01*
X105530001Y-115178000D01*
G75*
G02*
X105780000Y-115427999I0J-249999D01*
G01*
X105780000Y-116728001D01*
G75*
G02*
X105530001Y-116978000I-249999J0D01*
G01*
X104879999Y-116978000D01*
G75*
G02*
X104630000Y-116728001I0J249999D01*
G01*
G37*
%TD.AperFunction*%
%TD*%
D18*
%TO.P,J7,1*%
%TO.N,Net-(J7-Pad1)*%
X54610000Y-72009000D03*
%TD*%
D19*
%TO.P,J1,2*%
%TO.N,GND*%
X57658000Y-63500000D03*
%TO.P,J1,1*%
%TO.N,Net-(J1-Pad1)*%
X60198000Y-63500000D03*
D20*
%TO.P,J1,2*%
%TO.N,GND*%
X65278000Y-58420000D03*
X55118000Y-58420000D03*
%TD*%
%TO.P,R112,2*%
%TO.N,/SDO2+*%
%TA.AperFunction,SMDPad,CuDef*%
G36*
G01*
X95871000Y-70670000D02*
X95871000Y-70300000D01*
G75*
G02*
X96006000Y-70165000I135000J0D01*
G01*
X96276000Y-70165000D01*
G75*
G02*
X96411000Y-70300000I0J-135000D01*
G01*
X96411000Y-70670000D01*
G75*
G02*
X96276000Y-70805000I-135000J0D01*
G01*
X96006000Y-70805000D01*
G75*
G02*
X95871000Y-70670000I0J135000D01*
G01*
G37*
%TD.AperFunction*%
%TO.P,R112,1*%
%TO.N,Net-(C111-Pad1)*%
%TA.AperFunction,SMDPad,CuDef*%
G36*
G01*
X94851000Y-70670000D02*
X94851000Y-70300000D01*
G75*
G02*
X94986000Y-70165000I135000J0D01*
G01*
X95256000Y-70165000D01*
G75*
G02*
X95391000Y-70300000I0J-135000D01*
G01*
X95391000Y-70670000D01*
G75*
G02*
X95256000Y-70805000I-135000J0D01*
G01*
X94986000Y-70805000D01*
G75*
G02*
X94851000Y-70670000I0J135000D01*
G01*
G37*
%TD.AperFunction*%
%TD*%
%TO.P,R109,2*%
%TO.N,/SDO2-*%
%TA.AperFunction,SMDPad,CuDef*%
G36*
G01*
X97296000Y-75634000D02*
X97296000Y-76004000D01*
G75*
G02*
X97161000Y-76139000I-135000J0D01*
G01*
X96891000Y-76139000D01*
G75*
G02*
X96756000Y-76004000I0J135000D01*
G01*
X96756000Y-75634000D01*
G75*
G02*
X96891000Y-75499000I135000J0D01*
G01*
X97161000Y-75499000D01*
G75*
G02*
X97296000Y-75634000I0J-135000D01*
G01*
G37*
%TD.AperFunction*%
%TO.P,R109,1*%
%TO.N,/CD2_VCC*%
%TA.AperFunction,SMDPad,CuDef*%
G36*
G01*
X98316000Y-75634000D02*
X98316000Y-76004000D01*
G75*
G02*
X98181000Y-76139000I-135000J0D01*
G01*
X97911000Y-76139000D01*
G75*
G02*
X97776000Y-76004000I0J135000D01*
G01*
X97776000Y-75634000D01*
G75*
G02*
X97911000Y-75499000I135000J0D01*
G01*
X98181000Y-75499000D01*
G75*
G02*
X98316000Y-75634000I0J-135000D01*
G01*
G37*
%TD.AperFunction*%
%TD*%
%TO.P,R108,2*%
%TO.N,/SDO2+*%
%TA.AperFunction,SMDPad,CuDef*%
G36*
G01*
X97296000Y-74110000D02*
X97296000Y-74480000D01*
G75*
G02*
X97161000Y-74615000I-135000J0D01*
G01*
X96891000Y-74615000D01*
G75*
G02*
X96756000Y-74480000I0J135000D01*
G01*
X96756000Y-74110000D01*
G75*
G02*
X96891000Y-73975000I135000J0D01*
G01*
X97161000Y-73975000D01*
G75*
G02*
X97296000Y-74110000I0J-135000D01*
G01*
G37*
%TD.AperFunction*%
%TO.P,R108,1*%
%TO.N,/CD2_VCC*%
%TA.AperFunction,SMDPad,CuDef*%
G36*
G01*
X98316000Y-74110000D02*
X98316000Y-74480000D01*
G75*
G02*
X98181000Y-74615000I-135000J0D01*
G01*
X97911000Y-74615000D01*
G75*
G02*
X97776000Y-74480000I0J135000D01*
G01*
X97776000Y-74110000D01*
G75*
G02*
X97911000Y-73975000I135000J0D01*
G01*
X98181000Y-73975000D01*
G75*
G02*
X98316000Y-74110000I0J-135000D01*
G01*
G37*
%TD.AperFunction*%
%TD*%
%TO.P,R106,2*%
%TO.N,/CD2_VCC*%
%TA.AperFunction,SMDPad,CuDef*%
G36*
G01*
X89540500Y-81583500D02*
X89910500Y-81583500D01*
G75*
G02*
X90045500Y-81718500I0J-135000D01*
G01*
X90045500Y-81988500D01*
G75*
G02*
X89910500Y-82123500I-135000J0D01*
G01*
X89540500Y-82123500D01*
G75*
G02*
X89405500Y-81988500I0J135000D01*
G01*
X89405500Y-81718500D01*
G75*
G02*
X89540500Y-81583500I135000J0D01*
G01*
G37*
%TD.AperFunction*%
%TO.P,R106,1*%
%TO.N,Net-(R106-Pad1)*%
%TA.AperFunction,SMDPad,CuDef*%
G36*
G01*
X89540500Y-80563500D02*
X89910500Y-80563500D01*
G75*
G02*
X90045500Y-80698500I0J-135000D01*
G01*
X90045500Y-80968500D01*
G75*
G02*
X89910500Y-81103500I-135000J0D01*
G01*
X89540500Y-81103500D01*
G75*
G02*
X89405500Y-80968500I0J135000D01*
G01*
X89405500Y-80698500D01*
G75*
G02*
X89540500Y-80563500I135000J0D01*
G01*
G37*
%TD.AperFunction*%
%TD*%
%TO.P,R103,2*%
%TO.N,Net-(R103-Pad2)*%
%TA.AperFunction,SMDPad,CuDef*%
G36*
G01*
X104660000Y-88969000D02*
X104660000Y-89339000D01*
G75*
G02*
X104525000Y-89474000I-135000J0D01*
G01*
X104255000Y-89474000D01*
G75*
G02*
X104120000Y-89339000I0J135000D01*
G01*
X104120000Y-88969000D01*
G75*
G02*
X104255000Y-88834000I135000J0D01*
G01*
X104525000Y-88834000D01*
G75*
G02*
X104660000Y-88969000I0J-135000D01*
G01*
G37*
%TD.AperFunction*%
%TO.P,R103,1*%
%TO.N,/PWRLED*%
%TA.AperFunction,SMDPad,CuDef*%
G36*
G01*
X105680000Y-88969000D02*
X105680000Y-89339000D01*
G75*
G02*
X105545000Y-89474000I-135000J0D01*
G01*
X105275000Y-89474000D01*
G75*
G02*
X105140000Y-89339000I0J135000D01*
G01*
X105140000Y-88969000D01*
G75*
G02*
X105275000Y-88834000I135000J0D01*
G01*
X105545000Y-88834000D01*
G75*
G02*
X105680000Y-88969000I0J-135000D01*
G01*
G37*
%TD.AperFunction*%
%TD*%
%TO.P,R102,2*%
%TO.N,Net-(R102-Pad2)*%
%TA.AperFunction,SMDPad,CuDef*%
G36*
G01*
X104662000Y-94049000D02*
X104662000Y-94419000D01*
G75*
G02*
X104527000Y-94554000I-135000J0D01*
G01*
X104257000Y-94554000D01*
G75*
G02*
X104122000Y-94419000I0J135000D01*
G01*
X104122000Y-94049000D01*
G75*
G02*
X104257000Y-93914000I135000J0D01*
G01*
X104527000Y-93914000D01*
G75*
G02*
X104662000Y-94049000I0J-135000D01*
G01*
G37*
%TD.AperFunction*%
%TO.P,R102,1*%
%TO.N,/LEDF*%
%TA.AperFunction,SMDPad,CuDef*%
G36*
G01*
X105682000Y-94049000D02*
X105682000Y-94419000D01*
G75*
G02*
X105547000Y-94554000I-135000J0D01*
G01*
X105277000Y-94554000D01*
G75*
G02*
X105142000Y-94419000I0J135000D01*
G01*
X105142000Y-94049000D01*
G75*
G02*
X105277000Y-93914000I135000J0D01*
G01*
X105547000Y-93914000D01*
G75*
G02*
X105682000Y-94049000I0J-135000D01*
G01*
G37*
%TD.AperFunction*%
%TD*%
%TO.P,R101,2*%
%TO.N,Net-(R101-Pad2)*%
%TA.AperFunction,SMDPad,CuDef*%
G36*
G01*
X104662000Y-91509000D02*
X104662000Y-91879000D01*
G75*
G02*
X104527000Y-92014000I-135000J0D01*
G01*
X104257000Y-92014000D01*
G75*
G02*
X104122000Y-91879000I0J135000D01*
G01*
X104122000Y-91509000D01*
G75*
G02*
X104257000Y-91374000I135000J0D01*
G01*
X104527000Y-91374000D01*
G75*
G02*
X104662000Y-91509000I0J-135000D01*
G01*
G37*
%TD.AperFunction*%
%TO.P,R101,1*%
%TO.N,/LEDC*%
%TA.AperFunction,SMDPad,CuDef*%
G36*
G01*
X105682000Y-91509000D02*
X105682000Y-91879000D01*
G75*
G02*
X105547000Y-92014000I-135000J0D01*
G01*
X105277000Y-92014000D01*
G75*
G02*
X105142000Y-91879000I0J135000D01*
G01*
X105142000Y-91509000D01*
G75*
G02*
X105277000Y-91374000I135000J0D01*
G01*
X105547000Y-91374000D01*
G75*
G02*
X105682000Y-91509000I0J-135000D01*
G01*
G37*
%TD.AperFunction*%
%TD*%
%TO.P,R14,2*%
%TO.N,/SDO+*%
%TA.AperFunction,SMDPad,CuDef*%
G36*
G01*
X79363000Y-70670000D02*
X79363000Y-70300000D01*
G75*
G02*
X79498000Y-70165000I135000J0D01*
G01*
X79768000Y-70165000D01*
G75*
G02*
X79903000Y-70300000I0J-135000D01*
G01*
X79903000Y-70670000D01*
G75*
G02*
X79768000Y-70805000I-135000J0D01*
G01*
X79498000Y-70805000D01*
G75*
G02*
X79363000Y-70670000I0J135000D01*
G01*
G37*
%TD.AperFunction*%
%TO.P,R14,1*%
%TO.N,Net-(C15-Pad1)*%
%TA.AperFunction,SMDPad,CuDef*%
G36*
G01*
X78343000Y-70670000D02*
X78343000Y-70300000D01*
G75*
G02*
X78478000Y-70165000I135000J0D01*
G01*
X78748000Y-70165000D01*
G75*
G02*
X78883000Y-70300000I0J-135000D01*
G01*
X78883000Y-70670000D01*
G75*
G02*
X78748000Y-70805000I-135000J0D01*
G01*
X78478000Y-70805000D01*
G75*
G02*
X78343000Y-70670000I0J135000D01*
G01*
G37*
%TD.AperFunction*%
%TD*%
%TO.P,R13,2*%
%TO.N,/SDO-*%
%TA.AperFunction,SMDPad,CuDef*%
G36*
G01*
X80784000Y-75634000D02*
X80784000Y-76004000D01*
G75*
G02*
X80649000Y-76139000I-135000J0D01*
G01*
X80379000Y-76139000D01*
G75*
G02*
X80244000Y-76004000I0J135000D01*
G01*
X80244000Y-75634000D01*
G75*
G02*
X80379000Y-75499000I135000J0D01*
G01*
X80649000Y-75499000D01*
G75*
G02*
X80784000Y-75634000I0J-135000D01*
G01*
G37*
%TD.AperFunction*%
%TO.P,R13,1*%
%TO.N,/CD_VCC*%
%TA.AperFunction,SMDPad,CuDef*%
G36*
G01*
X81804000Y-75634000D02*
X81804000Y-76004000D01*
G75*
G02*
X81669000Y-76139000I-135000J0D01*
G01*
X81399000Y-76139000D01*
G75*
G02*
X81264000Y-76004000I0J135000D01*
G01*
X81264000Y-75634000D01*
G75*
G02*
X81399000Y-75499000I135000J0D01*
G01*
X81669000Y-75499000D01*
G75*
G02*
X81804000Y-75634000I0J-135000D01*
G01*
G37*
%TD.AperFunction*%
%TD*%
%TO.P,R12,2*%
%TO.N,/SDO+*%
%TA.AperFunction,SMDPad,CuDef*%
G36*
G01*
X80788000Y-74110000D02*
X80788000Y-74480000D01*
G75*
G02*
X80653000Y-74615000I-135000J0D01*
G01*
X80383000Y-74615000D01*
G75*
G02*
X80248000Y-74480000I0J135000D01*
G01*
X80248000Y-74110000D01*
G75*
G02*
X80383000Y-73975000I135000J0D01*
G01*
X80653000Y-73975000D01*
G75*
G02*
X80788000Y-74110000I0J-135000D01*
G01*
G37*
%TD.AperFunction*%
%TO.P,R12,1*%
%TO.N,/CD_VCC*%
%TA.AperFunction,SMDPad,CuDef*%
G36*
G01*
X81808000Y-74110000D02*
X81808000Y-74480000D01*
G75*
G02*
X81673000Y-74615000I-135000J0D01*
G01*
X81403000Y-74615000D01*
G75*
G02*
X81268000Y-74480000I0J135000D01*
G01*
X81268000Y-74110000D01*
G75*
G02*
X81403000Y-73975000I135000J0D01*
G01*
X81673000Y-73975000D01*
G75*
G02*
X81808000Y-74110000I0J-135000D01*
G01*
G37*
%TD.AperFunction*%
%TD*%
%TO.P,R10,2*%
%TO.N,/CD_VCC*%
%TA.AperFunction,SMDPad,CuDef*%
G36*
G01*
X72967000Y-81583500D02*
X73337000Y-81583500D01*
G75*
G02*
X73472000Y-81718500I0J-135000D01*
G01*
X73472000Y-81988500D01*
G75*
G02*
X73337000Y-82123500I-135000J0D01*
G01*
X72967000Y-82123500D01*
G75*
G02*
X72832000Y-81988500I0J135000D01*
G01*
X72832000Y-81718500D01*
G75*
G02*
X72967000Y-81583500I135000J0D01*
G01*
G37*
%TD.AperFunction*%
%TO.P,R10,1*%
%TO.N,Net-(R10-Pad1)*%
%TA.AperFunction,SMDPad,CuDef*%
G36*
G01*
X72967000Y-80563500D02*
X73337000Y-80563500D01*
G75*
G02*
X73472000Y-80698500I0J-135000D01*
G01*
X73472000Y-80968500D01*
G75*
G02*
X73337000Y-81103500I-135000J0D01*
G01*
X72967000Y-81103500D01*
G75*
G02*
X72832000Y-80968500I0J135000D01*
G01*
X72832000Y-80698500D01*
G75*
G02*
X72967000Y-80563500I135000J0D01*
G01*
G37*
%TD.AperFunction*%
%TD*%
%TO.P,R5,2*%
%TO.N,GND*%
%TA.AperFunction,SMDPad,CuDef*%
G36*
G01*
X59621000Y-71134000D02*
X59251000Y-71134000D01*
G75*
G02*
X59116000Y-70999000I0J135000D01*
G01*
X59116000Y-70729000D01*
G75*
G02*
X59251000Y-70594000I135000J0D01*
G01*
X59621000Y-70594000D01*
G75*
G02*
X59756000Y-70729000I0J-135000D01*
G01*
X59756000Y-70999000D01*
G75*
G02*
X59621000Y-71134000I-135000J0D01*
G01*
G37*
%TD.AperFunction*%
%TO.P,R5,1*%
%TO.N,Net-(C2-Pad2)*%
%TA.AperFunction,SMDPad,CuDef*%
G36*
G01*
X59621000Y-72154000D02*
X59251000Y-72154000D01*
G75*
G02*
X59116000Y-72019000I0J135000D01*
G01*
X59116000Y-71749000D01*
G75*
G02*
X59251000Y-71614000I135000J0D01*
G01*
X59621000Y-71614000D01*
G75*
G02*
X59756000Y-71749000I0J-135000D01*
G01*
X59756000Y-72019000D01*
G75*
G02*
X59621000Y-72154000I-135000J0D01*
G01*
G37*
%TD.AperFunction*%
%TD*%
%TO.P,R4,2*%
%TO.N,GND*%
%TA.AperFunction,SMDPad,CuDef*%
G36*
G01*
X62599000Y-71559000D02*
X62599000Y-71189000D01*
G75*
G02*
X62734000Y-71054000I135000J0D01*
G01*
X63004000Y-71054000D01*
G75*
G02*
X63139000Y-71189000I0J-135000D01*
G01*
X63139000Y-71559000D01*
G75*
G02*
X63004000Y-71694000I-135000J0D01*
G01*
X62734000Y-71694000D01*
G75*
G02*
X62599000Y-71559000I0J135000D01*
G01*
G37*
%TD.AperFunction*%
%TO.P,R4,1*%
%TO.N,Net-(C1-Pad2)*%
%TA.AperFunction,SMDPad,CuDef*%
G36*
G01*
X61579000Y-71559000D02*
X61579000Y-71189000D01*
G75*
G02*
X61714000Y-71054000I135000J0D01*
G01*
X61984000Y-71054000D01*
G75*
G02*
X62119000Y-71189000I0J-135000D01*
G01*
X62119000Y-71559000D01*
G75*
G02*
X61984000Y-71694000I-135000J0D01*
G01*
X61714000Y-71694000D01*
G75*
G02*
X61579000Y-71559000I0J135000D01*
G01*
G37*
%TD.AperFunction*%
%TD*%
%TO.P,R3,2*%
%TO.N,Net-(J1-Pad1)*%
%TA.AperFunction,SMDPad,CuDef*%
G36*
G01*
X60468000Y-67760000D02*
X60468000Y-68130000D01*
G75*
G02*
X60333000Y-68265000I-135000J0D01*
G01*
X60063000Y-68265000D01*
G75*
G02*
X59928000Y-68130000I0J135000D01*
G01*
X59928000Y-67760000D01*
G75*
G02*
X60063000Y-67625000I135000J0D01*
G01*
X60333000Y-67625000D01*
G75*
G02*
X60468000Y-67760000I0J-135000D01*
G01*
G37*
%TD.AperFunction*%
%TO.P,R3,1*%
%TO.N,Net-(C1-Pad2)*%
%TA.AperFunction,SMDPad,CuDef*%
G36*
G01*
X61488000Y-67760000D02*
X61488000Y-68130000D01*
G75*
G02*
X61353000Y-68265000I-135000J0D01*
G01*
X61083000Y-68265000D01*
G75*
G02*
X60948000Y-68130000I0J135000D01*
G01*
X60948000Y-67760000D01*
G75*
G02*
X61083000Y-67625000I135000J0D01*
G01*
X61353000Y-67625000D01*
G75*
G02*
X61488000Y-67760000I0J-135000D01*
G01*
G37*
%TD.AperFunction*%
%TD*%
%TO.P,R2,2*%
%TO.N,GND*%
%TA.AperFunction,SMDPad,CuDef*%
G36*
G01*
X92906000Y-108319000D02*
X93276000Y-108319000D01*
G75*
G02*
X93411000Y-108454000I0J-135000D01*
G01*
X93411000Y-108724000D01*
G75*
G02*
X93276000Y-108859000I-135000J0D01*
G01*
X92906000Y-108859000D01*
G75*
G02*
X92771000Y-108724000I0J135000D01*
G01*
X92771000Y-108454000D01*
G75*
G02*
X92906000Y-108319000I135000J0D01*
G01*
G37*
%TD.AperFunction*%
%TO.P,R2,1*%
%TO.N,/BOOT0*%
%TA.AperFunction,SMDPad,CuDef*%
G36*
G01*
X92906000Y-107299000D02*
X93276000Y-107299000D01*
G75*
G02*
X93411000Y-107434000I0J-135000D01*
G01*
X93411000Y-107704000D01*
G75*
G02*
X93276000Y-107839000I-135000J0D01*
G01*
X92906000Y-107839000D01*
G75*
G02*
X92771000Y-107704000I0J135000D01*
G01*
X92771000Y-107434000D01*
G75*
G02*
X92906000Y-107299000I135000J0D01*
G01*
G37*
%TD.AperFunction*%
%TD*%
%TO.P,R1,2*%
%TO.N,/RST*%
%TA.AperFunction,SMDPad,CuDef*%
G36*
G01*
X98494000Y-100822000D02*
X98864000Y-100822000D01*
G75*
G02*
X98999000Y-100957000I0J-135000D01*
G01*
X98999000Y-101227000D01*
G75*
G02*
X98864000Y-101362000I-135000J0D01*
G01*
X98494000Y-101362000D01*
G75*
G02*
X98359000Y-101227000I0J135000D01*
G01*
X98359000Y-100957000D01*
G75*
G02*
X98494000Y-100822000I135000J0D01*
G01*
G37*
%TD.AperFunction*%
%TO.P,R1,1*%
%TO.N,/MCU_VCC*%
%TA.AperFunction,SMDPad,CuDef*%
G36*
G01*
X98494000Y-99802000D02*
X98864000Y-99802000D01*
G75*
G02*
X98999000Y-99937000I0J-135000D01*
G01*
X98999000Y-100207000D01*
G75*
G02*
X98864000Y-100342000I-135000J0D01*
G01*
X98494000Y-100342000D01*
G75*
G02*
X98359000Y-100207000I0J135000D01*
G01*
X98359000Y-99937000D01*
G75*
G02*
X98494000Y-99802000I135000J0D01*
G01*
G37*
%TD.AperFunction*%
%TD*%
%TO.P,L2,2*%
%TO.N,Net-(C15-Pad1)*%
%TA.AperFunction,SMDPad,CuDef*%
G36*
G01*
X78378000Y-71734000D02*
X78378000Y-72284000D01*
G75*
G02*
X78178000Y-72484000I-200000J0D01*
G01*
X77778000Y-72484000D01*
G75*
G02*
X77578000Y-72284000I0J200000D01*
G01*
X77578000Y-71734000D01*
G75*
G02*
X77778000Y-71534000I200000J0D01*
G01*
X78178000Y-71534000D01*
G75*
G02*
X78378000Y-71734000I0J-200000D01*
G01*
G37*
%TD.AperFunction*%
%TO.P,L2,1*%
%TO.N,/SDO+*%
%TA.AperFunction,SMDPad,CuDef*%
G36*
G01*
X80028000Y-71734000D02*
X80028000Y-72284000D01*
G75*
G02*
X79828000Y-72484000I-200000J0D01*
G01*
X79428000Y-72484000D01*
G75*
G02*
X79228000Y-72284000I0J200000D01*
G01*
X79228000Y-71734000D01*
G75*
G02*
X79428000Y-71534000I200000J0D01*
G01*
X79828000Y-71534000D01*
G75*
G02*
X80028000Y-71734000I0J-200000D01*
G01*
G37*
%TD.AperFunction*%
%TD*%
%TO.P,L1,2*%
%TO.N,Net-(C1-Pad2)*%
%TA.AperFunction,SMDPad,CuDef*%
G36*
G01*
X61449000Y-69744000D02*
X61449000Y-69194000D01*
G75*
G02*
X61649000Y-68994000I200000J0D01*
G01*
X62049000Y-68994000D01*
G75*
G02*
X62249000Y-69194000I0J-200000D01*
G01*
X62249000Y-69744000D01*
G75*
G02*
X62049000Y-69944000I-200000J0D01*
G01*
X61649000Y-69944000D01*
G75*
G02*
X61449000Y-69744000I0J200000D01*
G01*
G37*
%TD.AperFunction*%
%TO.P,L1,1*%
%TO.N,Net-(J1-Pad1)*%
%TA.AperFunction,SMDPad,CuDef*%
G36*
G01*
X59799000Y-69744000D02*
X59799000Y-69194000D01*
G75*
G02*
X59999000Y-68994000I200000J0D01*
G01*
X60399000Y-68994000D01*
G75*
G02*
X60599000Y-69194000I0J-200000D01*
G01*
X60599000Y-69744000D01*
G75*
G02*
X60399000Y-69944000I-200000J0D01*
G01*
X59999000Y-69944000D01*
G75*
G02*
X59799000Y-69744000I0J200000D01*
G01*
G37*
%TD.AperFunction*%
%TD*%
%TO.P,C111,2*%
%TO.N,Net-(C111-Pad2)*%
%TA.AperFunction,SMDPad,CuDef*%
G36*
G01*
X93720500Y-68232000D02*
X93720500Y-69182000D01*
G75*
G02*
X93470500Y-69432000I-250000J0D01*
G01*
X92970500Y-69432000D01*
G75*
G02*
X92720500Y-69182000I0J250000D01*
G01*
X92720500Y-68232000D01*
G75*
G02*
X92970500Y-67982000I250000J0D01*
G01*
X93470500Y-67982000D01*
G75*
G02*
X93720500Y-68232000I0J-250000D01*
G01*
G37*
%TD.AperFunction*%
%TO.P,C111,1*%
%TO.N,Net-(C111-Pad1)*%
%TA.AperFunction,SMDPad,CuDef*%
G36*
G01*
X95620500Y-68232000D02*
X95620500Y-69182000D01*
G75*
G02*
X95370500Y-69432000I-250000J0D01*
G01*
X94870500Y-69432000D01*
G75*
G02*
X94620500Y-69182000I0J250000D01*
G01*
X94620500Y-68232000D01*
G75*
G02*
X94870500Y-67982000I250000J0D01*
G01*
X95370500Y-67982000D01*
G75*
G02*
X95620500Y-68232000I0J-250000D01*
G01*
G37*
%TD.AperFunction*%
%TD*%
%TO.P,C15,2*%
%TO.N,Net-(C15-Pad2)*%
%TA.AperFunction,SMDPad,CuDef*%
G36*
G01*
X77208000Y-68232000D02*
X77208000Y-69182000D01*
G75*
G02*
X76958000Y-69432000I-250000J0D01*
G01*
X76458000Y-69432000D01*
G75*
G02*
X76208000Y-69182000I0J250000D01*
G01*
X76208000Y-68232000D01*
G75*
G02*
X76458000Y-67982000I250000J0D01*
G01*
X76958000Y-67982000D01*
G75*
G02*
X77208000Y-68232000I0J-250000D01*
G01*
G37*
%TD.AperFunction*%
%TO.P,C15,1*%
%TO.N,Net-(C15-Pad1)*%
%TA.AperFunction,SMDPad,CuDef*%
G36*
G01*
X79108000Y-68232000D02*
X79108000Y-69182000D01*
G75*
G02*
X78858000Y-69432000I-250000J0D01*
G01*
X78358000Y-69432000D01*
G75*
G02*
X78108000Y-69182000I0J250000D01*
G01*
X78108000Y-68232000D01*
G75*
G02*
X78358000Y-67982000I250000J0D01*
G01*
X78858000Y-67982000D01*
G75*
G02*
X79108000Y-68232000I0J-250000D01*
G01*
G37*
%TD.AperFunction*%
%TD*%
D21*
%TO.P,U201,9*%
%TO.N,GND*%
X83956400Y-114920000D03*
X83956400Y-116220000D03*
X82956400Y-114920000D03*
X82956400Y-116220000D03*
X81956400Y-114920000D03*
X81956400Y-116220000D03*
D22*
X82956400Y-115570000D03*
%TO.P,U201,8*%
%TO.N,Net-(C202-Pad1)*%
%TA.AperFunction,SMDPad,CuDef*%
G36*
G01*
X81201400Y-114070000D02*
X80901400Y-114070000D01*
G75*
G02*
X80751400Y-113920000I0J150000D01*
G01*
X80751400Y-112270000D01*
G75*
G02*
X80901400Y-112120000I150000J0D01*
G01*
X81201400Y-112120000D01*
G75*
G02*
X81351400Y-112270000I0J-150000D01*
G01*
X81351400Y-113920000D01*
G75*
G02*
X81201400Y-114070000I-150000J0D01*
G01*
G37*
%TD.AperFunction*%
%TO.P,U201,7*%
%TO.N,Net-(R201-Pad1)*%
%TA.AperFunction,SMDPad,CuDef*%
G36*
G01*
X82471400Y-114070000D02*
X82171400Y-114070000D01*
G75*
G02*
X82021400Y-113920000I0J150000D01*
G01*
X82021400Y-112270000D01*
G75*
G02*
X82171400Y-112120000I150000J0D01*
G01*
X82471400Y-112120000D01*
G75*
G02*
X82621400Y-112270000I0J-150000D01*
G01*
X82621400Y-113920000D01*
G75*
G02*
X82471400Y-114070000I-150000J0D01*
G01*
G37*
%TD.AperFunction*%
%TO.P,U201,6*%
%TO.N,Net-(C205-Pad2)*%
%TA.AperFunction,SMDPad,CuDef*%
G36*
G01*
X83741400Y-114070000D02*
X83441400Y-114070000D01*
G75*
G02*
X83291400Y-113920000I0J150000D01*
G01*
X83291400Y-112270000D01*
G75*
G02*
X83441400Y-112120000I150000J0D01*
G01*
X83741400Y-112120000D01*
G75*
G02*
X83891400Y-112270000I0J-150000D01*
G01*
X83891400Y-113920000D01*
G75*
G02*
X83741400Y-114070000I-150000J0D01*
G01*
G37*
%TD.AperFunction*%
%TO.P,U201,5*%
%TO.N,Net-(R203-Pad1)*%
%TA.AperFunction,SMDPad,CuDef*%
G36*
G01*
X85011400Y-114070000D02*
X84711400Y-114070000D01*
G75*
G02*
X84561400Y-113920000I0J150000D01*
G01*
X84561400Y-112270000D01*
G75*
G02*
X84711400Y-112120000I150000J0D01*
G01*
X85011400Y-112120000D01*
G75*
G02*
X85161400Y-112270000I0J-150000D01*
G01*
X85161400Y-113920000D01*
G75*
G02*
X85011400Y-114070000I-150000J0D01*
G01*
G37*
%TD.AperFunction*%
%TO.P,U201,4*%
%TO.N,GND*%
%TA.AperFunction,SMDPad,CuDef*%
G36*
G01*
X85011400Y-119020000D02*
X84711400Y-119020000D01*
G75*
G02*
X84561400Y-118870000I0J150000D01*
G01*
X84561400Y-117220000D01*
G75*
G02*
X84711400Y-117070000I150000J0D01*
G01*
X85011400Y-117070000D01*
G75*
G02*
X85161400Y-117220000I0J-150000D01*
G01*
X85161400Y-118870000D01*
G75*
G02*
X85011400Y-119020000I-150000J0D01*
G01*
G37*
%TD.AperFunction*%
%TO.P,U201,3*%
%TO.N,Net-(C204-Pad1)*%
%TA.AperFunction,SMDPad,CuDef*%
G36*
G01*
X83741400Y-119020000D02*
X83441400Y-119020000D01*
G75*
G02*
X83291400Y-118870000I0J150000D01*
G01*
X83291400Y-117220000D01*
G75*
G02*
X83441400Y-117070000I150000J0D01*
G01*
X83741400Y-117070000D01*
G75*
G02*
X83891400Y-117220000I0J-150000D01*
G01*
X83891400Y-118870000D01*
G75*
G02*
X83741400Y-119020000I-150000J0D01*
G01*
G37*
%TD.AperFunction*%
%TO.P,U201,2*%
%TO.N,+5V*%
%TA.AperFunction,SMDPad,CuDef*%
G36*
G01*
X82471400Y-119020000D02*
X82171400Y-119020000D01*
G75*
G02*
X82021400Y-118870000I0J150000D01*
G01*
X82021400Y-117220000D01*
G75*
G02*
X82171400Y-117070000I150000J0D01*
G01*
X82471400Y-117070000D01*
G75*
G02*
X82621400Y-117220000I0J-150000D01*
G01*
X82621400Y-118870000D01*
G75*
G02*
X82471400Y-119020000I-150000J0D01*
G01*
G37*
%TD.AperFunction*%
%TO.P,U201,1*%
%TO.N,Net-(C204-Pad2)*%
%TA.AperFunction,SMDPad,CuDef*%
G36*
G01*
X81201400Y-119020000D02*
X80901400Y-119020000D01*
G75*
G02*
X80751400Y-118870000I0J150000D01*
G01*
X80751400Y-117220000D01*
G75*
G02*
X80901400Y-117070000I150000J0D01*
G01*
X81201400Y-117070000D01*
G75*
G02*
X81351400Y-117220000I0J-150000D01*
G01*
X81351400Y-118870000D01*
G75*
G02*
X81201400Y-119020000I-150000J0D01*
G01*
G37*
%TD.AperFunction*%
%TD*%
%TO.P,R204,2*%
%TO.N,Net-(R203-Pad1)*%
%TA.AperFunction,SMDPad,CuDef*%
G36*
G01*
X87565200Y-114027800D02*
X87565200Y-113657800D01*
G75*
G02*
X87700200Y-113522800I135000J0D01*
G01*
X87970200Y-113522800D01*
G75*
G02*
X88105200Y-113657800I0J-135000D01*
G01*
X88105200Y-114027800D01*
G75*
G02*
X87970200Y-114162800I-135000J0D01*
G01*
X87700200Y-114162800D01*
G75*
G02*
X87565200Y-114027800I0J135000D01*
G01*
G37*
%TD.AperFunction*%
%TO.P,R204,1*%
%TO.N,GND*%
%TA.AperFunction,SMDPad,CuDef*%
G36*
G01*
X86545200Y-114027800D02*
X86545200Y-113657800D01*
G75*
G02*
X86680200Y-113522800I135000J0D01*
G01*
X86950200Y-113522800D01*
G75*
G02*
X87085200Y-113657800I0J-135000D01*
G01*
X87085200Y-114027800D01*
G75*
G02*
X86950200Y-114162800I-135000J0D01*
G01*
X86680200Y-114162800D01*
G75*
G02*
X86545200Y-114027800I0J135000D01*
G01*
G37*
%TD.AperFunction*%
%TD*%
%TO.P,R203,2*%
%TO.N,+3V3*%
%TA.AperFunction,SMDPad,CuDef*%
G36*
G01*
X87563200Y-112656200D02*
X87563200Y-112286200D01*
G75*
G02*
X87698200Y-112151200I135000J0D01*
G01*
X87968200Y-112151200D01*
G75*
G02*
X88103200Y-112286200I0J-135000D01*
G01*
X88103200Y-112656200D01*
G75*
G02*
X87968200Y-112791200I-135000J0D01*
G01*
X87698200Y-112791200D01*
G75*
G02*
X87563200Y-112656200I0J135000D01*
G01*
G37*
%TD.AperFunction*%
%TO.P,R203,1*%
%TO.N,Net-(R203-Pad1)*%
%TA.AperFunction,SMDPad,CuDef*%
G36*
G01*
X86543200Y-112656200D02*
X86543200Y-112286200D01*
G75*
G02*
X86678200Y-112151200I135000J0D01*
G01*
X86948200Y-112151200D01*
G75*
G02*
X87083200Y-112286200I0J-135000D01*
G01*
X87083200Y-112656200D01*
G75*
G02*
X86948200Y-112791200I-135000J0D01*
G01*
X86678200Y-112791200D01*
G75*
G02*
X86543200Y-112656200I0J135000D01*
G01*
G37*
%TD.AperFunction*%
%TD*%
%TO.P,R202,2*%
%TO.N,Net-(C205-Pad1)*%
%TA.AperFunction,SMDPad,CuDef*%
G36*
G01*
X86376000Y-110305000D02*
X86376000Y-110675000D01*
G75*
G02*
X86241000Y-110810000I-135000J0D01*
G01*
X85971000Y-110810000D01*
G75*
G02*
X85836000Y-110675000I0J135000D01*
G01*
X85836000Y-110305000D01*
G75*
G02*
X85971000Y-110170000I135000J0D01*
G01*
X86241000Y-110170000D01*
G75*
G02*
X86376000Y-110305000I0J-135000D01*
G01*
G37*
%TD.AperFunction*%
%TO.P,R202,1*%
%TO.N,GND*%
%TA.AperFunction,SMDPad,CuDef*%
G36*
G01*
X87396000Y-110305000D02*
X87396000Y-110675000D01*
G75*
G02*
X87261000Y-110810000I-135000J0D01*
G01*
X86991000Y-110810000D01*
G75*
G02*
X86856000Y-110675000I0J135000D01*
G01*
X86856000Y-110305000D01*
G75*
G02*
X86991000Y-110170000I135000J0D01*
G01*
X87261000Y-110170000D01*
G75*
G02*
X87396000Y-110305000I0J-135000D01*
G01*
G37*
%TD.AperFunction*%
%TD*%
%TO.P,R201,2*%
%TO.N,+5V*%
%TA.AperFunction,SMDPad,CuDef*%
G36*
G01*
X82531800Y-109996000D02*
X82161800Y-109996000D01*
G75*
G02*
X82026800Y-109861000I0J135000D01*
G01*
X82026800Y-109591000D01*
G75*
G02*
X82161800Y-109456000I135000J0D01*
G01*
X82531800Y-109456000D01*
G75*
G02*
X82666800Y-109591000I0J-135000D01*
G01*
X82666800Y-109861000D01*
G75*
G02*
X82531800Y-109996000I-135000J0D01*
G01*
G37*
%TD.AperFunction*%
%TO.P,R201,1*%
%TO.N,Net-(R201-Pad1)*%
%TA.AperFunction,SMDPad,CuDef*%
G36*
G01*
X82531800Y-111016000D02*
X82161800Y-111016000D01*
G75*
G02*
X82026800Y-110881000I0J135000D01*
G01*
X82026800Y-110611000D01*
G75*
G02*
X82161800Y-110476000I135000J0D01*
G01*
X82531800Y-110476000D01*
G75*
G02*
X82666800Y-110611000I0J-135000D01*
G01*
X82666800Y-110881000D01*
G75*
G02*
X82531800Y-111016000I-135000J0D01*
G01*
G37*
%TD.AperFunction*%
%TD*%
D23*
%TO.P,Q202,3*%
%TO.N,/Power/VBATSW*%
X93710000Y-132588000D03*
%TO.P,Q202,2*%
%TO.N,/Power/VBAT*%
X91710000Y-133538000D03*
%TO.P,Q202,1*%
%TO.N,/Power/GATE*%
X91710000Y-131638000D03*
%TD*%
D24*
%TO.P,Q201,3*%
%TO.N,/Power/GATE*%
X92202000Y-88408000D03*
%TO.P,Q201,2*%
%TO.N,GND*%
X93152000Y-90408000D03*
%TO.P,Q201,1*%
%TO.N,/FET*%
X91252000Y-90408000D03*
%TD*%
D25*
%TO.P,L201,2*%
%TO.N,+3V3*%
X93624000Y-124155200D03*
%TO.P,L201,1*%
%TO.N,Net-(C204-Pad1)*%
X87224000Y-124155200D03*
%TD*%
D16*
%TO.P,J202,3*%
%TO.N,GND*%
X93980000Y-137160000D03*
%TO.P,J202,2*%
%TO.N,/Power/VBAT*%
X91440000Y-137160000D03*
D17*
%TO.P,J202,1*%
%TO.N,GND*%
X88900000Y-137160000D03*
%TD*%
D16*
%TO.P,J201,3*%
%TO.N,/Power/VBATSW*%
X109220000Y-124714000D03*
%TO.P,J201,2*%
%TO.N,+5V*%
X109220000Y-122174000D03*
D17*
%TO.P,J201,1*%
%TO.N,GND*%
X109220000Y-119634000D03*
%TD*%
%TO.P,D201,2*%
%TO.N,/Power/GATE*%
%TA.AperFunction,SMDPad,CuDef*%
G36*
G01*
X97333750Y-88001500D02*
X98246250Y-88001500D01*
G75*
G02*
X98490000Y-88245250I0J-243750D01*
G01*
X98490000Y-88732750D01*
G75*
G02*
X98246250Y-88976500I-243750J0D01*
G01*
X97333750Y-88976500D01*
G75*
G02*
X97090000Y-88732750I0J243750D01*
G01*
X97090000Y-88245250D01*
G75*
G02*
X97333750Y-88001500I243750J0D01*
G01*
G37*
%TD.AperFunction*%
%TO.P,D201,1*%
%TO.N,/BTN*%
%TA.AperFunction,SMDPad,CuDef*%
G36*
G01*
X97333750Y-86126500D02*
X98246250Y-86126500D01*
G75*
G02*
X98490000Y-86370250I0J-243750D01*
G01*
X98490000Y-86857750D01*
G75*
G02*
X98246250Y-87101500I-243750J0D01*
G01*
X97333750Y-87101500D01*
G75*
G02*
X97090000Y-86857750I0J243750D01*
G01*
X97090000Y-86370250D01*
G75*
G02*
X97333750Y-86126500I243750J0D01*
G01*
G37*
%TD.AperFunction*%
%TD*%
%TO.P,C207,2*%
%TO.N,GND*%
%TA.AperFunction,SMDPad,CuDef*%
G36*
G01*
X81953000Y-96175001D02*
X81953000Y-94324999D01*
G75*
G02*
X82202999Y-94075000I249999J0D01*
G01*
X83953001Y-94075000D01*
G75*
G02*
X84203000Y-94324999I0J-249999D01*
G01*
X84203000Y-96175001D01*
G75*
G02*
X83953001Y-96425000I-249999J0D01*
G01*
X82202999Y-96425000D01*
G75*
G02*
X81953000Y-96175001I0J249999D01*
G01*
G37*
%TD.AperFunction*%
%TO.P,C207,1*%
%TO.N,+3V3*%
%TA.AperFunction,SMDPad,CuDef*%
G36*
G01*
X76853000Y-96175001D02*
X76853000Y-94324999D01*
G75*
G02*
X77102999Y-94075000I249999J0D01*
G01*
X78853001Y-94075000D01*
G75*
G02*
X79103000Y-94324999I0J-249999D01*
G01*
X79103000Y-96175001D01*
G75*
G02*
X78853001Y-96425000I-249999J0D01*
G01*
X77102999Y-96425000D01*
G75*
G02*
X76853000Y-96175001I0J249999D01*
G01*
G37*
%TD.AperFunction*%
%TD*%
%TO.P,C205,2*%
%TO.N,Net-(C205-Pad2)*%
%TA.AperFunction,SMDPad,CuDef*%
G36*
G01*
X83874000Y-110320000D02*
X83874000Y-110660000D01*
G75*
G02*
X83734000Y-110800000I-140000J0D01*
G01*
X83454000Y-110800000D01*
G75*
G02*
X83314000Y-110660000I0J140000D01*
G01*
X83314000Y-110320000D01*
G75*
G02*
X83454000Y-110180000I140000J0D01*
G01*
X83734000Y-110180000D01*
G75*
G02*
X83874000Y-110320000I0J-140000D01*
G01*
G37*
%TD.AperFunction*%
%TO.P,C205,1*%
%TO.N,Net-(C205-Pad1)*%
%TA.AperFunction,SMDPad,CuDef*%
G36*
G01*
X84834000Y-110320000D02*
X84834000Y-110660000D01*
G75*
G02*
X84694000Y-110800000I-140000J0D01*
G01*
X84414000Y-110800000D01*
G75*
G02*
X84274000Y-110660000I0J140000D01*
G01*
X84274000Y-110320000D01*
G75*
G02*
X84414000Y-110180000I140000J0D01*
G01*
X84694000Y-110180000D01*
G75*
G02*
X84834000Y-110320000I0J-140000D01*
G01*
G37*
%TD.AperFunction*%
%TD*%
%TO.P,C204,2*%
%TO.N,Net-(C204-Pad2)*%
%TA.AperFunction,SMDPad,CuDef*%
G36*
G01*
X80637400Y-120860400D02*
X79687400Y-120860400D01*
G75*
G02*
X79437400Y-120610400I0J250000D01*
G01*
X79437400Y-120110400D01*
G75*
G02*
X79687400Y-119860400I250000J0D01*
G01*
X80637400Y-119860400D01*
G75*
G02*
X80887400Y-120110400I0J-250000D01*
G01*
X80887400Y-120610400D01*
G75*
G02*
X80637400Y-120860400I-250000J0D01*
G01*
G37*
%TD.AperFunction*%
%TO.P,C204,1*%
%TO.N,Net-(C204-Pad1)*%
%TA.AperFunction,SMDPad,CuDef*%
G36*
G01*
X80637400Y-122760400D02*
X79687400Y-122760400D01*
G75*
G02*
X79437400Y-122510400I0J250000D01*
G01*
X79437400Y-122010400D01*
G75*
G02*
X79687400Y-121760400I250000J0D01*
G01*
X80637400Y-121760400D01*
G75*
G02*
X80887400Y-122010400I0J-250000D01*
G01*
X80887400Y-122510400D01*
G75*
G02*
X80637400Y-122760400I-250000J0D01*
G01*
G37*
%TD.AperFunction*%
%TD*%
%TO.P,C202,2*%
%TO.N,GND*%
%TA.AperFunction,SMDPad,CuDef*%
G36*
G01*
X79281200Y-113738000D02*
X79621200Y-113738000D01*
G75*
G02*
X79761200Y-113878000I0J-140000D01*
G01*
X79761200Y-114158000D01*
G75*
G02*
X79621200Y-114298000I-140000J0D01*
G01*
X79281200Y-114298000D01*
G75*
G02*
X79141200Y-114158000I0J140000D01*
G01*
X79141200Y-113878000D01*
G75*
G02*
X79281200Y-113738000I140000J0D01*
G01*
G37*
%TD.AperFunction*%
%TO.P,C202,1*%
%TO.N,Net-(C202-Pad1)*%
%TA.AperFunction,SMDPad,CuDef*%
G36*
G01*
X79281200Y-112778000D02*
X79621200Y-112778000D01*
G75*
G02*
X79761200Y-112918000I0J-140000D01*
G01*
X79761200Y-113198000D01*
G75*
G02*
X79621200Y-113338000I-140000J0D01*
G01*
X79281200Y-113338000D01*
G75*
G02*
X79141200Y-113198000I0J140000D01*
G01*
X79141200Y-112918000D01*
G75*
G02*
X79281200Y-112778000I140000J0D01*
G01*
G37*
%TD.AperFunction*%
%TD*%
%TO.P,U1,48*%
%TO.N,/MCU_VCC*%
%TA.AperFunction,SMDPad,CuDef*%
G36*
G01*
X95229000Y-104846000D02*
X95229000Y-106171000D01*
G75*
G02*
X95154000Y-106246000I-75000J0D01*
G01*
X95004000Y-106246000D01*
G75*
G02*
X94929000Y-106171000I0J75000D01*
G01*
X94929000Y-104846000D01*
G75*
G02*
X95004000Y-104771000I75000J0D01*
G01*
X95154000Y-104771000D01*
G75*
G02*
X95229000Y-104846000I0J-75000D01*
G01*
G37*
%TD.AperFunction*%
%TO.P,U1,47*%
%TO.N,GND*%
%TA.AperFunction,SMDPad,CuDef*%
G36*
G01*
X94729000Y-104846000D02*
X94729000Y-106171000D01*
G75*
G02*
X94654000Y-106246000I-75000J0D01*
G01*
X94504000Y-106246000D01*
G75*
G02*
X94429000Y-106171000I0J75000D01*
G01*
X94429000Y-104846000D01*
G75*
G02*
X94504000Y-104771000I75000J0D01*
G01*
X94654000Y-104771000D01*
G75*
G02*
X94729000Y-104846000I0J-75000D01*
G01*
G37*
%TD.AperFunction*%
%TO.P,U1,46*%
%TO.N,Net-(U1-Pad46)*%
%TA.AperFunction,SMDPad,CuDef*%
G36*
G01*
X94229000Y-104846000D02*
X94229000Y-106171000D01*
G75*
G02*
X94154000Y-106246000I-75000J0D01*
G01*
X94004000Y-106246000D01*
G75*
G02*
X93929000Y-106171000I0J75000D01*
G01*
X93929000Y-104846000D01*
G75*
G02*
X94004000Y-104771000I75000J0D01*
G01*
X94154000Y-104771000D01*
G75*
G02*
X94229000Y-104846000I0J-75000D01*
G01*
G37*
%TD.AperFunction*%
%TO.P,U1,45*%
%TO.N,Net-(U1-Pad45)*%
%TA.AperFunction,SMDPad,CuDef*%
G36*
G01*
X93729000Y-104846000D02*
X93729000Y-106171000D01*
G75*
G02*
X93654000Y-106246000I-75000J0D01*
G01*
X93504000Y-106246000D01*
G75*
G02*
X93429000Y-106171000I0J75000D01*
G01*
X93429000Y-104846000D01*
G75*
G02*
X93504000Y-104771000I75000J0D01*
G01*
X93654000Y-104771000D01*
G75*
G02*
X93729000Y-104846000I0J-75000D01*
G01*
G37*
%TD.AperFunction*%
%TO.P,U1,44*%
%TO.N,/BOOT0*%
%TA.AperFunction,SMDPad,CuDef*%
G36*
G01*
X93229000Y-104846000D02*
X93229000Y-106171000D01*
G75*
G02*
X93154000Y-106246000I-75000J0D01*
G01*
X93004000Y-106246000D01*
G75*
G02*
X92929000Y-106171000I0J75000D01*
G01*
X92929000Y-104846000D01*
G75*
G02*
X93004000Y-104771000I75000J0D01*
G01*
X93154000Y-104771000D01*
G75*
G02*
X93229000Y-104846000I0J-75000D01*
G01*
G37*
%TD.AperFunction*%
%TO.P,U1,43*%
%TO.N,/SDA*%
%TA.AperFunction,SMDPad,CuDef*%
G36*
G01*
X92729000Y-104846000D02*
X92729000Y-106171000D01*
G75*
G02*
X92654000Y-106246000I-75000J0D01*
G01*
X92504000Y-106246000D01*
G75*
G02*
X92429000Y-106171000I0J75000D01*
G01*
X92429000Y-104846000D01*
G75*
G02*
X92504000Y-104771000I75000J0D01*
G01*
X92654000Y-104771000D01*
G75*
G02*
X92729000Y-104846000I0J-75000D01*
G01*
G37*
%TD.AperFunction*%
%TO.P,U1,42*%
%TO.N,/SCL*%
%TA.AperFunction,SMDPad,CuDef*%
G36*
G01*
X92229000Y-104846000D02*
X92229000Y-106171000D01*
G75*
G02*
X92154000Y-106246000I-75000J0D01*
G01*
X92004000Y-106246000D01*
G75*
G02*
X91929000Y-106171000I0J75000D01*
G01*
X91929000Y-104846000D01*
G75*
G02*
X92004000Y-104771000I75000J0D01*
G01*
X92154000Y-104771000D01*
G75*
G02*
X92229000Y-104846000I0J-75000D01*
G01*
G37*
%TD.AperFunction*%
%TO.P,U1,41*%
%TO.N,/OUT_FAULT*%
%TA.AperFunction,SMDPad,CuDef*%
G36*
G01*
X91729000Y-104846000D02*
X91729000Y-106171000D01*
G75*
G02*
X91654000Y-106246000I-75000J0D01*
G01*
X91504000Y-106246000D01*
G75*
G02*
X91429000Y-106171000I0J75000D01*
G01*
X91429000Y-104846000D01*
G75*
G02*
X91504000Y-104771000I75000J0D01*
G01*
X91654000Y-104771000D01*
G75*
G02*
X91729000Y-104846000I0J-75000D01*
G01*
G37*
%TD.AperFunction*%
%TO.P,U1,40*%
%TO.N,Net-(U1-Pad40)*%
%TA.AperFunction,SMDPad,CuDef*%
G36*
G01*
X91229000Y-104846000D02*
X91229000Y-106171000D01*
G75*
G02*
X91154000Y-106246000I-75000J0D01*
G01*
X91004000Y-106246000D01*
G75*
G02*
X90929000Y-106171000I0J75000D01*
G01*
X90929000Y-104846000D01*
G75*
G02*
X91004000Y-104771000I75000J0D01*
G01*
X91154000Y-104771000D01*
G75*
G02*
X91229000Y-104846000I0J-75000D01*
G01*
G37*
%TD.AperFunction*%
%TO.P,U1,39*%
%TO.N,Net-(U1-Pad39)*%
%TA.AperFunction,SMDPad,CuDef*%
G36*
G01*
X90729000Y-104846000D02*
X90729000Y-106171000D01*
G75*
G02*
X90654000Y-106246000I-75000J0D01*
G01*
X90504000Y-106246000D01*
G75*
G02*
X90429000Y-106171000I0J75000D01*
G01*
X90429000Y-104846000D01*
G75*
G02*
X90504000Y-104771000I75000J0D01*
G01*
X90654000Y-104771000D01*
G75*
G02*
X90729000Y-104846000I0J-75000D01*
G01*
G37*
%TD.AperFunction*%
%TO.P,U1,38*%
%TO.N,Net-(U1-Pad38)*%
%TA.AperFunction,SMDPad,CuDef*%
G36*
G01*
X90229000Y-104846000D02*
X90229000Y-106171000D01*
G75*
G02*
X90154000Y-106246000I-75000J0D01*
G01*
X90004000Y-106246000D01*
G75*
G02*
X89929000Y-106171000I0J75000D01*
G01*
X89929000Y-104846000D01*
G75*
G02*
X90004000Y-104771000I75000J0D01*
G01*
X90154000Y-104771000D01*
G75*
G02*
X90229000Y-104846000I0J-75000D01*
G01*
G37*
%TD.AperFunction*%
%TO.P,U1,37*%
%TO.N,/JTCK*%
%TA.AperFunction,SMDPad,CuDef*%
G36*
G01*
X89729000Y-104846000D02*
X89729000Y-106171000D01*
G75*
G02*
X89654000Y-106246000I-75000J0D01*
G01*
X89504000Y-106246000D01*
G75*
G02*
X89429000Y-106171000I0J75000D01*
G01*
X89429000Y-104846000D01*
G75*
G02*
X89504000Y-104771000I75000J0D01*
G01*
X89654000Y-104771000D01*
G75*
G02*
X89729000Y-104846000I0J-75000D01*
G01*
G37*
%TD.AperFunction*%
%TO.P,U1,36*%
%TO.N,/MCU_VCC*%
%TA.AperFunction,SMDPad,CuDef*%
G36*
G01*
X88904000Y-104021000D02*
X88904000Y-104171000D01*
G75*
G02*
X88829000Y-104246000I-75000J0D01*
G01*
X87504000Y-104246000D01*
G75*
G02*
X87429000Y-104171000I0J75000D01*
G01*
X87429000Y-104021000D01*
G75*
G02*
X87504000Y-103946000I75000J0D01*
G01*
X88829000Y-103946000D01*
G75*
G02*
X88904000Y-104021000I0J-75000D01*
G01*
G37*
%TD.AperFunction*%
%TO.P,U1,35*%
%TO.N,GND*%
%TA.AperFunction,SMDPad,CuDef*%
G36*
G01*
X88904000Y-103521000D02*
X88904000Y-103671000D01*
G75*
G02*
X88829000Y-103746000I-75000J0D01*
G01*
X87504000Y-103746000D01*
G75*
G02*
X87429000Y-103671000I0J75000D01*
G01*
X87429000Y-103521000D01*
G75*
G02*
X87504000Y-103446000I75000J0D01*
G01*
X88829000Y-103446000D01*
G75*
G02*
X88904000Y-103521000I0J-75000D01*
G01*
G37*
%TD.AperFunction*%
%TO.P,U1,34*%
%TO.N,/JTMS*%
%TA.AperFunction,SMDPad,CuDef*%
G36*
G01*
X88904000Y-103021000D02*
X88904000Y-103171000D01*
G75*
G02*
X88829000Y-103246000I-75000J0D01*
G01*
X87504000Y-103246000D01*
G75*
G02*
X87429000Y-103171000I0J75000D01*
G01*
X87429000Y-103021000D01*
G75*
G02*
X87504000Y-102946000I75000J0D01*
G01*
X88829000Y-102946000D01*
G75*
G02*
X88904000Y-103021000I0J-75000D01*
G01*
G37*
%TD.AperFunction*%
%TO.P,U1,33*%
%TO.N,Net-(U1-Pad33)*%
%TA.AperFunction,SMDPad,CuDef*%
G36*
G01*
X88904000Y-102521000D02*
X88904000Y-102671000D01*
G75*
G02*
X88829000Y-102746000I-75000J0D01*
G01*
X87504000Y-102746000D01*
G75*
G02*
X87429000Y-102671000I0J75000D01*
G01*
X87429000Y-102521000D01*
G75*
G02*
X87504000Y-102446000I75000J0D01*
G01*
X88829000Y-102446000D01*
G75*
G02*
X88904000Y-102521000I0J-75000D01*
G01*
G37*
%TD.AperFunction*%
%TO.P,U1,32*%
%TO.N,Net-(U1-Pad32)*%
%TA.AperFunction,SMDPad,CuDef*%
G36*
G01*
X88904000Y-102021000D02*
X88904000Y-102171000D01*
G75*
G02*
X88829000Y-102246000I-75000J0D01*
G01*
X87504000Y-102246000D01*
G75*
G02*
X87429000Y-102171000I0J75000D01*
G01*
X87429000Y-102021000D01*
G75*
G02*
X87504000Y-101946000I75000J0D01*
G01*
X88829000Y-101946000D01*
G75*
G02*
X88904000Y-102021000I0J-75000D01*
G01*
G37*
%TD.AperFunction*%
%TO.P,U1,31*%
%TO.N,/RX*%
%TA.AperFunction,SMDPad,CuDef*%
G36*
G01*
X88904000Y-101521000D02*
X88904000Y-101671000D01*
G75*
G02*
X88829000Y-101746000I-75000J0D01*
G01*
X87504000Y-101746000D01*
G75*
G02*
X87429000Y-101671000I0J75000D01*
G01*
X87429000Y-101521000D01*
G75*
G02*
X87504000Y-101446000I75000J0D01*
G01*
X88829000Y-101446000D01*
G75*
G02*
X88904000Y-101521000I0J-75000D01*
G01*
G37*
%TD.AperFunction*%
%TO.P,U1,30*%
%TO.N,/TX*%
%TA.AperFunction,SMDPad,CuDef*%
G36*
G01*
X88904000Y-101021000D02*
X88904000Y-101171000D01*
G75*
G02*
X88829000Y-101246000I-75000J0D01*
G01*
X87504000Y-101246000D01*
G75*
G02*
X87429000Y-101171000I0J75000D01*
G01*
X87429000Y-101021000D01*
G75*
G02*
X87504000Y-100946000I75000J0D01*
G01*
X88829000Y-100946000D01*
G75*
G02*
X88904000Y-101021000I0J-75000D01*
G01*
G37*
%TD.AperFunction*%
%TO.P,U1,29*%
%TO.N,Net-(U1-Pad29)*%
%TA.AperFunction,SMDPad,CuDef*%
G36*
G01*
X88904000Y-100521000D02*
X88904000Y-100671000D01*
G75*
G02*
X88829000Y-100746000I-75000J0D01*
G01*
X87504000Y-100746000D01*
G75*
G02*
X87429000Y-100671000I0J75000D01*
G01*
X87429000Y-100521000D01*
G75*
G02*
X87504000Y-100446000I75000J0D01*
G01*
X88829000Y-100446000D01*
G75*
G02*
X88904000Y-100521000I0J-75000D01*
G01*
G37*
%TD.AperFunction*%
%TO.P,U1,28*%
%TO.N,/SFP_RXLOS*%
%TA.AperFunction,SMDPad,CuDef*%
G36*
G01*
X88904000Y-100021000D02*
X88904000Y-100171000D01*
G75*
G02*
X88829000Y-100246000I-75000J0D01*
G01*
X87504000Y-100246000D01*
G75*
G02*
X87429000Y-100171000I0J75000D01*
G01*
X87429000Y-100021000D01*
G75*
G02*
X87504000Y-99946000I75000J0D01*
G01*
X88829000Y-99946000D01*
G75*
G02*
X88904000Y-100021000I0J-75000D01*
G01*
G37*
%TD.AperFunction*%
%TO.P,U1,27*%
%TO.N,/SFP_MABS*%
%TA.AperFunction,SMDPad,CuDef*%
G36*
G01*
X88904000Y-99521000D02*
X88904000Y-99671000D01*
G75*
G02*
X88829000Y-99746000I-75000J0D01*
G01*
X87504000Y-99746000D01*
G75*
G02*
X87429000Y-99671000I0J75000D01*
G01*
X87429000Y-99521000D01*
G75*
G02*
X87504000Y-99446000I75000J0D01*
G01*
X88829000Y-99446000D01*
G75*
G02*
X88904000Y-99521000I0J-75000D01*
G01*
G37*
%TD.AperFunction*%
%TO.P,U1,26*%
%TO.N,/SFP_TXDIS*%
%TA.AperFunction,SMDPad,CuDef*%
G36*
G01*
X88904000Y-99021000D02*
X88904000Y-99171000D01*
G75*
G02*
X88829000Y-99246000I-75000J0D01*
G01*
X87504000Y-99246000D01*
G75*
G02*
X87429000Y-99171000I0J75000D01*
G01*
X87429000Y-99021000D01*
G75*
G02*
X87504000Y-98946000I75000J0D01*
G01*
X88829000Y-98946000D01*
G75*
G02*
X88904000Y-99021000I0J-75000D01*
G01*
G37*
%TD.AperFunction*%
%TO.P,U1,25*%
%TO.N,/SFP_TXFAULT*%
%TA.AperFunction,SMDPad,CuDef*%
G36*
G01*
X88904000Y-98521000D02*
X88904000Y-98671000D01*
G75*
G02*
X88829000Y-98746000I-75000J0D01*
G01*
X87504000Y-98746000D01*
G75*
G02*
X87429000Y-98671000I0J75000D01*
G01*
X87429000Y-98521000D01*
G75*
G02*
X87504000Y-98446000I75000J0D01*
G01*
X88829000Y-98446000D01*
G75*
G02*
X88904000Y-98521000I0J-75000D01*
G01*
G37*
%TD.AperFunction*%
%TO.P,U1,24*%
%TO.N,/MCU_VCC*%
%TA.AperFunction,SMDPad,CuDef*%
G36*
G01*
X89729000Y-96521000D02*
X89729000Y-97846000D01*
G75*
G02*
X89654000Y-97921000I-75000J0D01*
G01*
X89504000Y-97921000D01*
G75*
G02*
X89429000Y-97846000I0J75000D01*
G01*
X89429000Y-96521000D01*
G75*
G02*
X89504000Y-96446000I75000J0D01*
G01*
X89654000Y-96446000D01*
G75*
G02*
X89729000Y-96521000I0J-75000D01*
G01*
G37*
%TD.AperFunction*%
%TO.P,U1,23*%
%TO.N,GND*%
%TA.AperFunction,SMDPad,CuDef*%
G36*
G01*
X90229000Y-96521000D02*
X90229000Y-97846000D01*
G75*
G02*
X90154000Y-97921000I-75000J0D01*
G01*
X90004000Y-97921000D01*
G75*
G02*
X89929000Y-97846000I0J75000D01*
G01*
X89929000Y-96521000D01*
G75*
G02*
X90004000Y-96446000I75000J0D01*
G01*
X90154000Y-96446000D01*
G75*
G02*
X90229000Y-96521000I0J-75000D01*
G01*
G37*
%TD.AperFunction*%
%TO.P,U1,22*%
%TO.N,/LOCKED*%
%TA.AperFunction,SMDPad,CuDef*%
G36*
G01*
X90729000Y-96521000D02*
X90729000Y-97846000D01*
G75*
G02*
X90654000Y-97921000I-75000J0D01*
G01*
X90504000Y-97921000D01*
G75*
G02*
X90429000Y-97846000I0J75000D01*
G01*
X90429000Y-96521000D01*
G75*
G02*
X90504000Y-96446000I75000J0D01*
G01*
X90654000Y-96446000D01*
G75*
G02*
X90729000Y-96521000I0J-75000D01*
G01*
G37*
%TD.AperFunction*%
%TO.P,U1,21*%
%TO.N,/OUT_SEL0*%
%TA.AperFunction,SMDPad,CuDef*%
G36*
G01*
X91229000Y-96521000D02*
X91229000Y-97846000D01*
G75*
G02*
X91154000Y-97921000I-75000J0D01*
G01*
X91004000Y-97921000D01*
G75*
G02*
X90929000Y-97846000I0J75000D01*
G01*
X90929000Y-96521000D01*
G75*
G02*
X91004000Y-96446000I75000J0D01*
G01*
X91154000Y-96446000D01*
G75*
G02*
X91229000Y-96521000I0J-75000D01*
G01*
G37*
%TD.AperFunction*%
%TO.P,U1,20*%
%TO.N,/OUT_SEL1*%
%TA.AperFunction,SMDPad,CuDef*%
G36*
G01*
X91729000Y-96521000D02*
X91729000Y-97846000D01*
G75*
G02*
X91654000Y-97921000I-75000J0D01*
G01*
X91504000Y-97921000D01*
G75*
G02*
X91429000Y-97846000I0J75000D01*
G01*
X91429000Y-96521000D01*
G75*
G02*
X91504000Y-96446000I75000J0D01*
G01*
X91654000Y-96446000D01*
G75*
G02*
X91729000Y-96521000I0J-75000D01*
G01*
G37*
%TD.AperFunction*%
%TO.P,U1,19*%
%TO.N,/IN_CD*%
%TA.AperFunction,SMDPad,CuDef*%
G36*
G01*
X92229000Y-96521000D02*
X92229000Y-97846000D01*
G75*
G02*
X92154000Y-97921000I-75000J0D01*
G01*
X92004000Y-97921000D01*
G75*
G02*
X91929000Y-97846000I0J75000D01*
G01*
X91929000Y-96521000D01*
G75*
G02*
X92004000Y-96446000I75000J0D01*
G01*
X92154000Y-96446000D01*
G75*
G02*
X92229000Y-96521000I0J-75000D01*
G01*
G37*
%TD.AperFunction*%
%TO.P,U1,18*%
%TO.N,/OUT_EN*%
%TA.AperFunction,SMDPad,CuDef*%
G36*
G01*
X92729000Y-96521000D02*
X92729000Y-97846000D01*
G75*
G02*
X92654000Y-97921000I-75000J0D01*
G01*
X92504000Y-97921000D01*
G75*
G02*
X92429000Y-97846000I0J75000D01*
G01*
X92429000Y-96521000D01*
G75*
G02*
X92504000Y-96446000I75000J0D01*
G01*
X92654000Y-96446000D01*
G75*
G02*
X92729000Y-96521000I0J-75000D01*
G01*
G37*
%TD.AperFunction*%
%TO.P,U1,17*%
%TO.N,/OUT2_EN*%
%TA.AperFunction,SMDPad,CuDef*%
G36*
G01*
X93229000Y-96521000D02*
X93229000Y-97846000D01*
G75*
G02*
X93154000Y-97921000I-75000J0D01*
G01*
X93004000Y-97921000D01*
G75*
G02*
X92929000Y-97846000I0J75000D01*
G01*
X92929000Y-96521000D01*
G75*
G02*
X93004000Y-96446000I75000J0D01*
G01*
X93154000Y-96446000D01*
G75*
G02*
X93229000Y-96521000I0J-75000D01*
G01*
G37*
%TD.AperFunction*%
%TO.P,U1,16*%
%TO.N,Net-(D101-Pad2)*%
%TA.AperFunction,SMDPad,CuDef*%
G36*
G01*
X93729000Y-96521000D02*
X93729000Y-97846000D01*
G75*
G02*
X93654000Y-97921000I-75000J0D01*
G01*
X93504000Y-97921000D01*
G75*
G02*
X93429000Y-97846000I0J75000D01*
G01*
X93429000Y-96521000D01*
G75*
G02*
X93504000Y-96446000I75000J0D01*
G01*
X93654000Y-96446000D01*
G75*
G02*
X93729000Y-96521000I0J-75000D01*
G01*
G37*
%TD.AperFunction*%
%TO.P,U1,15*%
%TO.N,Net-(R103-Pad2)*%
%TA.AperFunction,SMDPad,CuDef*%
G36*
G01*
X94229000Y-96521000D02*
X94229000Y-97846000D01*
G75*
G02*
X94154000Y-97921000I-75000J0D01*
G01*
X94004000Y-97921000D01*
G75*
G02*
X93929000Y-97846000I0J75000D01*
G01*
X93929000Y-96521000D01*
G75*
G02*
X94004000Y-96446000I75000J0D01*
G01*
X94154000Y-96446000D01*
G75*
G02*
X94229000Y-96521000I0J-75000D01*
G01*
G37*
%TD.AperFunction*%
%TO.P,U1,14*%
%TO.N,Net-(R101-Pad2)*%
%TA.AperFunction,SMDPad,CuDef*%
G36*
G01*
X94729000Y-96521000D02*
X94729000Y-97846000D01*
G75*
G02*
X94654000Y-97921000I-75000J0D01*
G01*
X94504000Y-97921000D01*
G75*
G02*
X94429000Y-97846000I0J75000D01*
G01*
X94429000Y-96521000D01*
G75*
G02*
X94504000Y-96446000I75000J0D01*
G01*
X94654000Y-96446000D01*
G75*
G02*
X94729000Y-96521000I0J-75000D01*
G01*
G37*
%TD.AperFunction*%
%TO.P,U1,13*%
%TO.N,Net-(R102-Pad2)*%
%TA.AperFunction,SMDPad,CuDef*%
G36*
G01*
X95229000Y-96521000D02*
X95229000Y-97846000D01*
G75*
G02*
X95154000Y-97921000I-75000J0D01*
G01*
X95004000Y-97921000D01*
G75*
G02*
X94929000Y-97846000I0J75000D01*
G01*
X94929000Y-96521000D01*
G75*
G02*
X95004000Y-96446000I75000J0D01*
G01*
X95154000Y-96446000D01*
G75*
G02*
X95229000Y-96521000I0J-75000D01*
G01*
G37*
%TD.AperFunction*%
%TO.P,U1,12*%
%TO.N,/FET*%
%TA.AperFunction,SMDPad,CuDef*%
G36*
G01*
X97229000Y-98521000D02*
X97229000Y-98671000D01*
G75*
G02*
X97154000Y-98746000I-75000J0D01*
G01*
X95829000Y-98746000D01*
G75*
G02*
X95754000Y-98671000I0J75000D01*
G01*
X95754000Y-98521000D01*
G75*
G02*
X95829000Y-98446000I75000J0D01*
G01*
X97154000Y-98446000D01*
G75*
G02*
X97229000Y-98521000I0J-75000D01*
G01*
G37*
%TD.AperFunction*%
%TO.P,U1,11*%
%TO.N,Net-(U1-Pad11)*%
%TA.AperFunction,SMDPad,CuDef*%
G36*
G01*
X97229000Y-99021000D02*
X97229000Y-99171000D01*
G75*
G02*
X97154000Y-99246000I-75000J0D01*
G01*
X95829000Y-99246000D01*
G75*
G02*
X95754000Y-99171000I0J75000D01*
G01*
X95754000Y-99021000D01*
G75*
G02*
X95829000Y-98946000I75000J0D01*
G01*
X97154000Y-98946000D01*
G75*
G02*
X97229000Y-99021000I0J-75000D01*
G01*
G37*
%TD.AperFunction*%
%TO.P,U1,10*%
%TO.N,Net-(U1-Pad10)*%
%TA.AperFunction,SMDPad,CuDef*%
G36*
G01*
X97229000Y-99521000D02*
X97229000Y-99671000D01*
G75*
G02*
X97154000Y-99746000I-75000J0D01*
G01*
X95829000Y-99746000D01*
G75*
G02*
X95754000Y-99671000I0J75000D01*
G01*
X95754000Y-99521000D01*
G75*
G02*
X95829000Y-99446000I75000J0D01*
G01*
X97154000Y-99446000D01*
G75*
G02*
X97229000Y-99521000I0J-75000D01*
G01*
G37*
%TD.AperFunction*%
%TO.P,U1,9*%
%TO.N,/MCU_VCC*%
%TA.AperFunction,SMDPad,CuDef*%
G36*
G01*
X97229000Y-100021000D02*
X97229000Y-100171000D01*
G75*
G02*
X97154000Y-100246000I-75000J0D01*
G01*
X95829000Y-100246000D01*
G75*
G02*
X95754000Y-100171000I0J75000D01*
G01*
X95754000Y-100021000D01*
G75*
G02*
X95829000Y-99946000I75000J0D01*
G01*
X97154000Y-99946000D01*
G75*
G02*
X97229000Y-100021000I0J-75000D01*
G01*
G37*
%TD.AperFunction*%
%TO.P,U1,8*%
%TO.N,GND*%
%TA.AperFunction,SMDPad,CuDef*%
G36*
G01*
X97229000Y-100521000D02*
X97229000Y-100671000D01*
G75*
G02*
X97154000Y-100746000I-75000J0D01*
G01*
X95829000Y-100746000D01*
G75*
G02*
X95754000Y-100671000I0J75000D01*
G01*
X95754000Y-100521000D01*
G75*
G02*
X95829000Y-100446000I75000J0D01*
G01*
X97154000Y-100446000D01*
G75*
G02*
X97229000Y-100521000I0J-75000D01*
G01*
G37*
%TD.AperFunction*%
%TO.P,U1,7*%
%TO.N,/RST*%
%TA.AperFunction,SMDPad,CuDef*%
G36*
G01*
X97229000Y-101021000D02*
X97229000Y-101171000D01*
G75*
G02*
X97154000Y-101246000I-75000J0D01*
G01*
X95829000Y-101246000D01*
G75*
G02*
X95754000Y-101171000I0J75000D01*
G01*
X95754000Y-101021000D01*
G75*
G02*
X95829000Y-100946000I75000J0D01*
G01*
X97154000Y-100946000D01*
G75*
G02*
X97229000Y-101021000I0J-75000D01*
G01*
G37*
%TD.AperFunction*%
%TO.P,U1,6*%
%TO.N,Net-(U1-Pad6)*%
%TA.AperFunction,SMDPad,CuDef*%
G36*
G01*
X97229000Y-101521000D02*
X97229000Y-101671000D01*
G75*
G02*
X97154000Y-101746000I-75000J0D01*
G01*
X95829000Y-101746000D01*
G75*
G02*
X95754000Y-101671000I0J75000D01*
G01*
X95754000Y-101521000D01*
G75*
G02*
X95829000Y-101446000I75000J0D01*
G01*
X97154000Y-101446000D01*
G75*
G02*
X97229000Y-101521000I0J-75000D01*
G01*
G37*
%TD.AperFunction*%
%TO.P,U1,5*%
%TO.N,Net-(U1-Pad5)*%
%TA.AperFunction,SMDPad,CuDef*%
G36*
G01*
X97229000Y-102021000D02*
X97229000Y-102171000D01*
G75*
G02*
X97154000Y-102246000I-75000J0D01*
G01*
X95829000Y-102246000D01*
G75*
G02*
X95754000Y-102171000I0J75000D01*
G01*
X95754000Y-102021000D01*
G75*
G02*
X95829000Y-101946000I75000J0D01*
G01*
X97154000Y-101946000D01*
G75*
G02*
X97229000Y-102021000I0J-75000D01*
G01*
G37*
%TD.AperFunction*%
%TO.P,U1,4*%
%TO.N,/LED1*%
%TA.AperFunction,SMDPad,CuDef*%
G36*
G01*
X97229000Y-102521000D02*
X97229000Y-102671000D01*
G75*
G02*
X97154000Y-102746000I-75000J0D01*
G01*
X95829000Y-102746000D01*
G75*
G02*
X95754000Y-102671000I0J75000D01*
G01*
X95754000Y-102521000D01*
G75*
G02*
X95829000Y-102446000I75000J0D01*
G01*
X97154000Y-102446000D01*
G75*
G02*
X97229000Y-102521000I0J-75000D01*
G01*
G37*
%TD.AperFunction*%
%TO.P,U1,3*%
%TO.N,/BTN2*%
%TA.AperFunction,SMDPad,CuDef*%
G36*
G01*
X97229000Y-103021000D02*
X97229000Y-103171000D01*
G75*
G02*
X97154000Y-103246000I-75000J0D01*
G01*
X95829000Y-103246000D01*
G75*
G02*
X95754000Y-103171000I0J75000D01*
G01*
X95754000Y-103021000D01*
G75*
G02*
X95829000Y-102946000I75000J0D01*
G01*
X97154000Y-102946000D01*
G75*
G02*
X97229000Y-103021000I0J-75000D01*
G01*
G37*
%TD.AperFunction*%
%TO.P,U1,2*%
%TO.N,/BTN1*%
%TA.AperFunction,SMDPad,CuDef*%
G36*
G01*
X97229000Y-103521000D02*
X97229000Y-103671000D01*
G75*
G02*
X97154000Y-103746000I-75000J0D01*
G01*
X95829000Y-103746000D01*
G75*
G02*
X95754000Y-103671000I0J75000D01*
G01*
X95754000Y-103521000D01*
G75*
G02*
X95829000Y-103446000I75000J0D01*
G01*
X97154000Y-103446000D01*
G75*
G02*
X97229000Y-103521000I0J-75000D01*
G01*
G37*
%TD.AperFunction*%
%TO.P,U1,1*%
%TO.N,Net-(U1-Pad1)*%
%TA.AperFunction,SMDPad,CuDef*%
G36*
G01*
X97229000Y-104021000D02*
X97229000Y-104171000D01*
G75*
G02*
X97154000Y-104246000I-75000J0D01*
G01*
X95829000Y-104246000D01*
G75*
G02*
X95754000Y-104171000I0J75000D01*
G01*
X95754000Y-104021000D01*
G75*
G02*
X95829000Y-103946000I75000J0D01*
G01*
X97154000Y-103946000D01*
G75*
G02*
X97229000Y-104021000I0J-75000D01*
G01*
G37*
%TD.AperFunction*%
%TD*%
D14*
%TO.P,U103,17*%
%TO.N,GND*%
X93968000Y-78474000D03*
X93218000Y-78474000D03*
X92468000Y-78474000D03*
X93968000Y-77724000D03*
X93218000Y-77724000D03*
X92468000Y-77724000D03*
X93968000Y-76974000D03*
X93218000Y-76974000D03*
X92468000Y-76974000D03*
D15*
X93218000Y-77724000D03*
%TO.P,U103,16*%
%TO.N,Net-(U103-Pad16)*%
%TA.AperFunction,SMDPad,CuDef*%
G36*
G01*
X92093000Y-76124000D02*
X92093000Y-75424000D01*
G75*
G02*
X92168000Y-75349000I75000J0D01*
G01*
X92318000Y-75349000D01*
G75*
G02*
X92393000Y-75424000I0J-75000D01*
G01*
X92393000Y-76124000D01*
G75*
G02*
X92318000Y-76199000I-75000J0D01*
G01*
X92168000Y-76199000D01*
G75*
G02*
X92093000Y-76124000I0J75000D01*
G01*
G37*
%TD.AperFunction*%
%TO.P,U103,15*%
%TO.N,N/C*%
%TA.AperFunction,SMDPad,CuDef*%
G36*
G01*
X92743000Y-76124000D02*
X92743000Y-75424000D01*
G75*
G02*
X92818000Y-75349000I75000J0D01*
G01*
X92968000Y-75349000D01*
G75*
G02*
X93043000Y-75424000I0J-75000D01*
G01*
X93043000Y-76124000D01*
G75*
G02*
X92968000Y-76199000I-75000J0D01*
G01*
X92818000Y-76199000D01*
G75*
G02*
X92743000Y-76124000I0J75000D01*
G01*
G37*
%TD.AperFunction*%
%TO.P,U103,14*%
%TA.AperFunction,SMDPad,CuDef*%
G36*
G01*
X93393000Y-76124000D02*
X93393000Y-75424000D01*
G75*
G02*
X93468000Y-75349000I75000J0D01*
G01*
X93618000Y-75349000D01*
G75*
G02*
X93693000Y-75424000I0J-75000D01*
G01*
X93693000Y-76124000D01*
G75*
G02*
X93618000Y-76199000I-75000J0D01*
G01*
X93468000Y-76199000D01*
G75*
G02*
X93393000Y-76124000I0J75000D01*
G01*
G37*
%TD.AperFunction*%
%TO.P,U103,13*%
%TO.N,Net-(U103-Pad13)*%
%TA.AperFunction,SMDPad,CuDef*%
G36*
G01*
X94043000Y-76124000D02*
X94043000Y-75424000D01*
G75*
G02*
X94118000Y-75349000I75000J0D01*
G01*
X94268000Y-75349000D01*
G75*
G02*
X94343000Y-75424000I0J-75000D01*
G01*
X94343000Y-76124000D01*
G75*
G02*
X94268000Y-76199000I-75000J0D01*
G01*
X94118000Y-76199000D01*
G75*
G02*
X94043000Y-76124000I0J75000D01*
G01*
G37*
%TD.AperFunction*%
%TO.P,U103,12*%
%TO.N,/SDO2+*%
%TA.AperFunction,SMDPad,CuDef*%
G36*
G01*
X94743000Y-76824000D02*
X94743000Y-76674000D01*
G75*
G02*
X94818000Y-76599000I75000J0D01*
G01*
X95518000Y-76599000D01*
G75*
G02*
X95593000Y-76674000I0J-75000D01*
G01*
X95593000Y-76824000D01*
G75*
G02*
X95518000Y-76899000I-75000J0D01*
G01*
X94818000Y-76899000D01*
G75*
G02*
X94743000Y-76824000I0J75000D01*
G01*
G37*
%TD.AperFunction*%
%TO.P,U103,11*%
%TO.N,/SDO2-*%
%TA.AperFunction,SMDPad,CuDef*%
G36*
G01*
X94743000Y-77474000D02*
X94743000Y-77324000D01*
G75*
G02*
X94818000Y-77249000I75000J0D01*
G01*
X95518000Y-77249000D01*
G75*
G02*
X95593000Y-77324000I0J-75000D01*
G01*
X95593000Y-77474000D01*
G75*
G02*
X95518000Y-77549000I-75000J0D01*
G01*
X94818000Y-77549000D01*
G75*
G02*
X94743000Y-77474000I0J75000D01*
G01*
G37*
%TD.AperFunction*%
%TO.P,U103,10*%
%TO.N,Net-(R107-Pad1)*%
%TA.AperFunction,SMDPad,CuDef*%
G36*
G01*
X94743000Y-78124000D02*
X94743000Y-77974000D01*
G75*
G02*
X94818000Y-77899000I75000J0D01*
G01*
X95518000Y-77899000D01*
G75*
G02*
X95593000Y-77974000I0J-75000D01*
G01*
X95593000Y-78124000D01*
G75*
G02*
X95518000Y-78199000I-75000J0D01*
G01*
X94818000Y-78199000D01*
G75*
G02*
X94743000Y-78124000I0J75000D01*
G01*
G37*
%TD.AperFunction*%
%TO.P,U103,9*%
%TO.N,/CD2_VCC*%
%TA.AperFunction,SMDPad,CuDef*%
G36*
G01*
X94743000Y-78774000D02*
X94743000Y-78624000D01*
G75*
G02*
X94818000Y-78549000I75000J0D01*
G01*
X95518000Y-78549000D01*
G75*
G02*
X95593000Y-78624000I0J-75000D01*
G01*
X95593000Y-78774000D01*
G75*
G02*
X95518000Y-78849000I-75000J0D01*
G01*
X94818000Y-78849000D01*
G75*
G02*
X94743000Y-78774000I0J75000D01*
G01*
G37*
%TD.AperFunction*%
%TO.P,U103,8*%
%TO.N,Net-(U103-Pad8)*%
%TA.AperFunction,SMDPad,CuDef*%
G36*
G01*
X94043000Y-80024000D02*
X94043000Y-79324000D01*
G75*
G02*
X94118000Y-79249000I75000J0D01*
G01*
X94268000Y-79249000D01*
G75*
G02*
X94343000Y-79324000I0J-75000D01*
G01*
X94343000Y-80024000D01*
G75*
G02*
X94268000Y-80099000I-75000J0D01*
G01*
X94118000Y-80099000D01*
G75*
G02*
X94043000Y-80024000I0J75000D01*
G01*
G37*
%TD.AperFunction*%
%TO.P,U103,7*%
%TO.N,Net-(U103-Pad7)*%
%TA.AperFunction,SMDPad,CuDef*%
G36*
G01*
X93393000Y-80024000D02*
X93393000Y-79324000D01*
G75*
G02*
X93468000Y-79249000I75000J0D01*
G01*
X93618000Y-79249000D01*
G75*
G02*
X93693000Y-79324000I0J-75000D01*
G01*
X93693000Y-80024000D01*
G75*
G02*
X93618000Y-80099000I-75000J0D01*
G01*
X93468000Y-80099000D01*
G75*
G02*
X93393000Y-80024000I0J75000D01*
G01*
G37*
%TD.AperFunction*%
%TO.P,U103,6*%
%TO.N,/OUT2_EN*%
%TA.AperFunction,SMDPad,CuDef*%
G36*
G01*
X92743000Y-80024000D02*
X92743000Y-79324000D01*
G75*
G02*
X92818000Y-79249000I75000J0D01*
G01*
X92968000Y-79249000D01*
G75*
G02*
X93043000Y-79324000I0J-75000D01*
G01*
X93043000Y-80024000D01*
G75*
G02*
X92968000Y-80099000I-75000J0D01*
G01*
X92818000Y-80099000D01*
G75*
G02*
X92743000Y-80024000I0J75000D01*
G01*
G37*
%TD.AperFunction*%
%TO.P,U103,5*%
%TO.N,Net-(U103-Pad5)*%
%TA.AperFunction,SMDPad,CuDef*%
G36*
G01*
X92093000Y-80024000D02*
X92093000Y-79324000D01*
G75*
G02*
X92168000Y-79249000I75000J0D01*
G01*
X92318000Y-79249000D01*
G75*
G02*
X92393000Y-79324000I0J-75000D01*
G01*
X92393000Y-80024000D01*
G75*
G02*
X92318000Y-80099000I-75000J0D01*
G01*
X92168000Y-80099000D01*
G75*
G02*
X92093000Y-80024000I0J75000D01*
G01*
G37*
%TD.AperFunction*%
%TO.P,U103,4*%
%TO.N,Net-(R106-Pad1)*%
%TA.AperFunction,SMDPad,CuDef*%
G36*
G01*
X90843000Y-78774000D02*
X90843000Y-78624000D01*
G75*
G02*
X90918000Y-78549000I75000J0D01*
G01*
X91618000Y-78549000D01*
G75*
G02*
X91693000Y-78624000I0J-75000D01*
G01*
X91693000Y-78774000D01*
G75*
G02*
X91618000Y-78849000I-75000J0D01*
G01*
X90918000Y-78849000D01*
G75*
G02*
X90843000Y-78774000I0J75000D01*
G01*
G37*
%TD.AperFunction*%
%TO.P,U103,3*%
%TO.N,GND*%
%TA.AperFunction,SMDPad,CuDef*%
G36*
G01*
X90843000Y-78124000D02*
X90843000Y-77974000D01*
G75*
G02*
X90918000Y-77899000I75000J0D01*
G01*
X91618000Y-77899000D01*
G75*
G02*
X91693000Y-77974000I0J-75000D01*
G01*
X91693000Y-78124000D01*
G75*
G02*
X91618000Y-78199000I-75000J0D01*
G01*
X90918000Y-78199000D01*
G75*
G02*
X90843000Y-78124000I0J75000D01*
G01*
G37*
%TD.AperFunction*%
%TO.P,U103,2*%
%TO.N,/RD2-*%
%TA.AperFunction,SMDPad,CuDef*%
G36*
G01*
X90843000Y-77474000D02*
X90843000Y-77324000D01*
G75*
G02*
X90918000Y-77249000I75000J0D01*
G01*
X91618000Y-77249000D01*
G75*
G02*
X91693000Y-77324000I0J-75000D01*
G01*
X91693000Y-77474000D01*
G75*
G02*
X91618000Y-77549000I-75000J0D01*
G01*
X90918000Y-77549000D01*
G75*
G02*
X90843000Y-77474000I0J75000D01*
G01*
G37*
%TD.AperFunction*%
%TO.P,U103,1*%
%TO.N,/RD2+*%
%TA.AperFunction,SMDPad,CuDef*%
G36*
G01*
X90843000Y-76824000D02*
X90843000Y-76674000D01*
G75*
G02*
X90918000Y-76599000I75000J0D01*
G01*
X91618000Y-76599000D01*
G75*
G02*
X91693000Y-76674000I0J-75000D01*
G01*
X91693000Y-76824000D01*
G75*
G02*
X91618000Y-76899000I-75000J0D01*
G01*
X90918000Y-76899000D01*
G75*
G02*
X90843000Y-76824000I0J75000D01*
G01*
G37*
%TD.AperFunction*%
%TD*%
%TO.P,R113,2*%
%TO.N,Net-(R113-Pad2)*%
%TA.AperFunction,SMDPad,CuDef*%
G36*
G01*
X71296500Y-87878500D02*
X71296500Y-87508500D01*
G75*
G02*
X71431500Y-87373500I135000J0D01*
G01*
X71701500Y-87373500D01*
G75*
G02*
X71836500Y-87508500I0J-135000D01*
G01*
X71836500Y-87878500D01*
G75*
G02*
X71701500Y-88013500I-135000J0D01*
G01*
X71431500Y-88013500D01*
G75*
G02*
X71296500Y-87878500I0J135000D01*
G01*
G37*
%TD.AperFunction*%
%TO.P,R113,1*%
%TO.N,/MUX_VCC*%
%TA.AperFunction,SMDPad,CuDef*%
G36*
G01*
X70276500Y-87878500D02*
X70276500Y-87508500D01*
G75*
G02*
X70411500Y-87373500I135000J0D01*
G01*
X70681500Y-87373500D01*
G75*
G02*
X70816500Y-87508500I0J-135000D01*
G01*
X70816500Y-87878500D01*
G75*
G02*
X70681500Y-88013500I-135000J0D01*
G01*
X70411500Y-88013500D01*
G75*
G02*
X70276500Y-87878500I0J135000D01*
G01*
G37*
%TD.AperFunction*%
%TD*%
%TO.P,R111,2*%
%TO.N,Net-(R111-Pad2)*%
%TA.AperFunction,SMDPad,CuDef*%
G36*
G01*
X78652400Y-90442200D02*
X78652400Y-90812200D01*
G75*
G02*
X78517400Y-90947200I-135000J0D01*
G01*
X78247400Y-90947200D01*
G75*
G02*
X78112400Y-90812200I0J135000D01*
G01*
X78112400Y-90442200D01*
G75*
G02*
X78247400Y-90307200I135000J0D01*
G01*
X78517400Y-90307200D01*
G75*
G02*
X78652400Y-90442200I0J-135000D01*
G01*
G37*
%TD.AperFunction*%
%TO.P,R111,1*%
%TO.N,/MUX_VCC*%
%TA.AperFunction,SMDPad,CuDef*%
G36*
G01*
X79672400Y-90442200D02*
X79672400Y-90812200D01*
G75*
G02*
X79537400Y-90947200I-135000J0D01*
G01*
X79267400Y-90947200D01*
G75*
G02*
X79132400Y-90812200I0J135000D01*
G01*
X79132400Y-90442200D01*
G75*
G02*
X79267400Y-90307200I135000J0D01*
G01*
X79537400Y-90307200D01*
G75*
G02*
X79672400Y-90442200I0J-135000D01*
G01*
G37*
%TD.AperFunction*%
%TD*%
%TO.P,R110,2*%
%TO.N,Net-(R110-Pad2)*%
%TA.AperFunction,SMDPad,CuDef*%
G36*
G01*
X71296500Y-90482000D02*
X71296500Y-90112000D01*
G75*
G02*
X71431500Y-89977000I135000J0D01*
G01*
X71701500Y-89977000D01*
G75*
G02*
X71836500Y-90112000I0J-135000D01*
G01*
X71836500Y-90482000D01*
G75*
G02*
X71701500Y-90617000I-135000J0D01*
G01*
X71431500Y-90617000D01*
G75*
G02*
X71296500Y-90482000I0J135000D01*
G01*
G37*
%TD.AperFunction*%
%TO.P,R110,1*%
%TO.N,/MUX_VCC*%
%TA.AperFunction,SMDPad,CuDef*%
G36*
G01*
X70276500Y-90482000D02*
X70276500Y-90112000D01*
G75*
G02*
X70411500Y-89977000I135000J0D01*
G01*
X70681500Y-89977000D01*
G75*
G02*
X70816500Y-90112000I0J-135000D01*
G01*
X70816500Y-90482000D01*
G75*
G02*
X70681500Y-90617000I-135000J0D01*
G01*
X70411500Y-90617000D01*
G75*
G02*
X70276500Y-90482000I0J135000D01*
G01*
G37*
%TD.AperFunction*%
%TD*%
%TO.P,R107,2*%
%TO.N,GND*%
%TA.AperFunction,SMDPad,CuDef*%
G36*
G01*
X97776000Y-78226500D02*
X97776000Y-77856500D01*
G75*
G02*
X97911000Y-77721500I135000J0D01*
G01*
X98181000Y-77721500D01*
G75*
G02*
X98316000Y-77856500I0J-135000D01*
G01*
X98316000Y-78226500D01*
G75*
G02*
X98181000Y-78361500I-135000J0D01*
G01*
X97911000Y-78361500D01*
G75*
G02*
X97776000Y-78226500I0J135000D01*
G01*
G37*
%TD.AperFunction*%
%TO.P,R107,1*%
%TO.N,Net-(R107-Pad1)*%
%TA.AperFunction,SMDPad,CuDef*%
G36*
G01*
X96756000Y-78226500D02*
X96756000Y-77856500D01*
G75*
G02*
X96891000Y-77721500I135000J0D01*
G01*
X97161000Y-77721500D01*
G75*
G02*
X97296000Y-77856500I0J-135000D01*
G01*
X97296000Y-78226500D01*
G75*
G02*
X97161000Y-78361500I-135000J0D01*
G01*
X96891000Y-78361500D01*
G75*
G02*
X96756000Y-78226500I0J135000D01*
G01*
G37*
%TD.AperFunction*%
%TD*%
%TO.P,R105,2*%
%TO.N,Net-(C108-Pad1)*%
%TA.AperFunction,SMDPad,CuDef*%
G36*
G01*
X89096000Y-78345000D02*
X89466000Y-78345000D01*
G75*
G02*
X89601000Y-78480000I0J-135000D01*
G01*
X89601000Y-78750000D01*
G75*
G02*
X89466000Y-78885000I-135000J0D01*
G01*
X89096000Y-78885000D01*
G75*
G02*
X88961000Y-78750000I0J135000D01*
G01*
X88961000Y-78480000D01*
G75*
G02*
X89096000Y-78345000I135000J0D01*
G01*
G37*
%TD.AperFunction*%
%TO.P,R105,1*%
%TO.N,/RD2-*%
%TA.AperFunction,SMDPad,CuDef*%
G36*
G01*
X89096000Y-77325000D02*
X89466000Y-77325000D01*
G75*
G02*
X89601000Y-77460000I0J-135000D01*
G01*
X89601000Y-77730000D01*
G75*
G02*
X89466000Y-77865000I-135000J0D01*
G01*
X89096000Y-77865000D01*
G75*
G02*
X88961000Y-77730000I0J135000D01*
G01*
X88961000Y-77460000D01*
G75*
G02*
X89096000Y-77325000I135000J0D01*
G01*
G37*
%TD.AperFunction*%
%TD*%
%TO.P,R104,2*%
%TO.N,/RD2+*%
%TA.AperFunction,SMDPad,CuDef*%
G36*
G01*
X89096000Y-76313000D02*
X89466000Y-76313000D01*
G75*
G02*
X89601000Y-76448000I0J-135000D01*
G01*
X89601000Y-76718000D01*
G75*
G02*
X89466000Y-76853000I-135000J0D01*
G01*
X89096000Y-76853000D01*
G75*
G02*
X88961000Y-76718000I0J135000D01*
G01*
X88961000Y-76448000D01*
G75*
G02*
X89096000Y-76313000I135000J0D01*
G01*
G37*
%TD.AperFunction*%
%TO.P,R104,1*%
%TO.N,Net-(C108-Pad1)*%
%TA.AperFunction,SMDPad,CuDef*%
G36*
G01*
X89096000Y-75293000D02*
X89466000Y-75293000D01*
G75*
G02*
X89601000Y-75428000I0J-135000D01*
G01*
X89601000Y-75698000D01*
G75*
G02*
X89466000Y-75833000I-135000J0D01*
G01*
X89096000Y-75833000D01*
G75*
G02*
X88961000Y-75698000I0J135000D01*
G01*
X88961000Y-75428000D01*
G75*
G02*
X89096000Y-75293000I135000J0D01*
G01*
G37*
%TD.AperFunction*%
%TD*%
%TO.P,L104,2*%
%TO.N,Net-(C111-Pad1)*%
%TA.AperFunction,SMDPad,CuDef*%
G36*
G01*
X94850000Y-71558999D02*
X94850000Y-72459001D01*
G75*
G02*
X94600001Y-72709000I-249999J0D01*
G01*
X94074999Y-72709000D01*
G75*
G02*
X93825000Y-72459001I0J249999D01*
G01*
X93825000Y-71558999D01*
G75*
G02*
X94074999Y-71309000I249999J0D01*
G01*
X94600001Y-71309000D01*
G75*
G02*
X94850000Y-71558999I0J-249999D01*
G01*
G37*
%TD.AperFunction*%
%TO.P,L104,1*%
%TO.N,/SDO2+*%
%TA.AperFunction,SMDPad,CuDef*%
G36*
G01*
X96675000Y-71558999D02*
X96675000Y-72459001D01*
G75*
G02*
X96425001Y-72709000I-249999J0D01*
G01*
X95899999Y-72709000D01*
G75*
G02*
X95650000Y-72459001I0J249999D01*
G01*
X95650000Y-71558999D01*
G75*
G02*
X95899999Y-71309000I249999J0D01*
G01*
X96425001Y-71309000D01*
G75*
G02*
X96675000Y-71558999I0J-249999D01*
G01*
G37*
%TD.AperFunction*%
%TD*%
D19*
%TO.P,J106,2*%
%TO.N,GND*%
X90678000Y-63500000D03*
%TO.P,J106,1*%
%TO.N,Net-(C111-Pad2)*%
X93218000Y-63500000D03*
D20*
%TO.P,J106,2*%
%TO.N,GND*%
X98298000Y-58420000D03*
X88138000Y-58420000D03*
%TD*%
%TO.P,C110,2*%
%TO.N,/CD2_VCC*%
%TA.AperFunction,SMDPad,CuDef*%
G36*
G01*
X98013500Y-71697000D02*
X98963500Y-71697000D01*
G75*
G02*
X99213500Y-71947000I0J-250000D01*
G01*
X99213500Y-72447000D01*
G75*
G02*
X98963500Y-72697000I-250000J0D01*
G01*
X98013500Y-72697000D01*
G75*
G02*
X97763500Y-72447000I0J250000D01*
G01*
X97763500Y-71947000D01*
G75*
G02*
X98013500Y-71697000I250000J0D01*
G01*
G37*
%TD.AperFunction*%
%TO.P,C110,1*%
%TO.N,GND*%
%TA.AperFunction,SMDPad,CuDef*%
G36*
G01*
X98013500Y-69797000D02*
X98963500Y-69797000D01*
G75*
G02*
X99213500Y-70047000I0J-250000D01*
G01*
X99213500Y-70547000D01*
G75*
G02*
X98963500Y-70797000I-250000J0D01*
G01*
X98013500Y-70797000D01*
G75*
G02*
X97763500Y-70547000I0J250000D01*
G01*
X97763500Y-70047000D01*
G75*
G02*
X98013500Y-69797000I250000J0D01*
G01*
G37*
%TD.AperFunction*%
%TD*%
%TO.P,C109,2*%
%TO.N,/CD2_VCC*%
%TA.AperFunction,SMDPad,CuDef*%
G36*
G01*
X97467000Y-79154000D02*
X97467000Y-80104000D01*
G75*
G02*
X97217000Y-80354000I-250000J0D01*
G01*
X96717000Y-80354000D01*
G75*
G02*
X96467000Y-80104000I0J250000D01*
G01*
X96467000Y-79154000D01*
G75*
G02*
X96717000Y-78904000I250000J0D01*
G01*
X97217000Y-78904000D01*
G75*
G02*
X97467000Y-79154000I0J-250000D01*
G01*
G37*
%TD.AperFunction*%
%TO.P,C109,1*%
%TO.N,GND*%
%TA.AperFunction,SMDPad,CuDef*%
G36*
G01*
X99367000Y-79154000D02*
X99367000Y-80104000D01*
G75*
G02*
X99117000Y-80354000I-250000J0D01*
G01*
X98617000Y-80354000D01*
G75*
G02*
X98367000Y-80104000I0J250000D01*
G01*
X98367000Y-79154000D01*
G75*
G02*
X98617000Y-78904000I250000J0D01*
G01*
X99117000Y-78904000D01*
G75*
G02*
X99367000Y-79154000I0J-250000D01*
G01*
G37*
%TD.AperFunction*%
%TD*%
%TO.P,C108,2*%
%TO.N,GND*%
%TA.AperFunction,SMDPad,CuDef*%
G36*
G01*
X90620000Y-74135000D02*
X90620000Y-73185000D01*
G75*
G02*
X90870000Y-72935000I250000J0D01*
G01*
X91370000Y-72935000D01*
G75*
G02*
X91620000Y-73185000I0J-250000D01*
G01*
X91620000Y-74135000D01*
G75*
G02*
X91370000Y-74385000I-250000J0D01*
G01*
X90870000Y-74385000D01*
G75*
G02*
X90620000Y-74135000I0J250000D01*
G01*
G37*
%TD.AperFunction*%
%TO.P,C108,1*%
%TO.N,Net-(C108-Pad1)*%
%TA.AperFunction,SMDPad,CuDef*%
G36*
G01*
X88720000Y-74135000D02*
X88720000Y-73185000D01*
G75*
G02*
X88970000Y-72935000I250000J0D01*
G01*
X89470000Y-72935000D01*
G75*
G02*
X89720000Y-73185000I0J-250000D01*
G01*
X89720000Y-74135000D01*
G75*
G02*
X89470000Y-74385000I-250000J0D01*
G01*
X88970000Y-74385000D01*
G75*
G02*
X88720000Y-74135000I0J250000D01*
G01*
G37*
%TD.AperFunction*%
%TD*%
D14*
%TO.P,U2,17*%
%TO.N,GND*%
X59702000Y-80252000D03*
X59702000Y-79502000D03*
X59702000Y-78752000D03*
X60452000Y-80252000D03*
X60452000Y-79502000D03*
X60452000Y-78752000D03*
X61202000Y-80252000D03*
X61202000Y-79502000D03*
X61202000Y-78752000D03*
D15*
X60452000Y-79502000D03*
%TO.P,U2,16*%
%TO.N,/EQ_VCC*%
%TA.AperFunction,SMDPad,CuDef*%
G36*
G01*
X62052000Y-78377000D02*
X62752000Y-78377000D01*
G75*
G02*
X62827000Y-78452000I0J-75000D01*
G01*
X62827000Y-78602000D01*
G75*
G02*
X62752000Y-78677000I-75000J0D01*
G01*
X62052000Y-78677000D01*
G75*
G02*
X61977000Y-78602000I0J75000D01*
G01*
X61977000Y-78452000D01*
G75*
G02*
X62052000Y-78377000I75000J0D01*
G01*
G37*
%TD.AperFunction*%
%TO.P,U2,15*%
%TO.N,/IN_CD*%
%TA.AperFunction,SMDPad,CuDef*%
G36*
G01*
X62052000Y-79027000D02*
X62752000Y-79027000D01*
G75*
G02*
X62827000Y-79102000I0J-75000D01*
G01*
X62827000Y-79252000D01*
G75*
G02*
X62752000Y-79327000I-75000J0D01*
G01*
X62052000Y-79327000D01*
G75*
G02*
X61977000Y-79252000I0J75000D01*
G01*
X61977000Y-79102000D01*
G75*
G02*
X62052000Y-79027000I75000J0D01*
G01*
G37*
%TD.AperFunction*%
%TO.P,U2,14*%
%TO.N,GND*%
%TA.AperFunction,SMDPad,CuDef*%
G36*
G01*
X62052000Y-79677000D02*
X62752000Y-79677000D01*
G75*
G02*
X62827000Y-79752000I0J-75000D01*
G01*
X62827000Y-79902000D01*
G75*
G02*
X62752000Y-79977000I-75000J0D01*
G01*
X62052000Y-79977000D01*
G75*
G02*
X61977000Y-79902000I0J75000D01*
G01*
X61977000Y-79752000D01*
G75*
G02*
X62052000Y-79677000I75000J0D01*
G01*
G37*
%TD.AperFunction*%
%TO.P,U2,13*%
%TO.N,/EQ_VCC*%
%TA.AperFunction,SMDPad,CuDef*%
G36*
G01*
X62052000Y-80327000D02*
X62752000Y-80327000D01*
G75*
G02*
X62827000Y-80402000I0J-75000D01*
G01*
X62827000Y-80552000D01*
G75*
G02*
X62752000Y-80627000I-75000J0D01*
G01*
X62052000Y-80627000D01*
G75*
G02*
X61977000Y-80552000I0J75000D01*
G01*
X61977000Y-80402000D01*
G75*
G02*
X62052000Y-80327000I75000J0D01*
G01*
G37*
%TD.AperFunction*%
%TO.P,U2,12*%
%TO.N,GND*%
%TA.AperFunction,SMDPad,CuDef*%
G36*
G01*
X61352000Y-81027000D02*
X61502000Y-81027000D01*
G75*
G02*
X61577000Y-81102000I0J-75000D01*
G01*
X61577000Y-81802000D01*
G75*
G02*
X61502000Y-81877000I-75000J0D01*
G01*
X61352000Y-81877000D01*
G75*
G02*
X61277000Y-81802000I0J75000D01*
G01*
X61277000Y-81102000D01*
G75*
G02*
X61352000Y-81027000I75000J0D01*
G01*
G37*
%TD.AperFunction*%
%TO.P,U2,11*%
%TO.N,/IN+*%
%TA.AperFunction,SMDPad,CuDef*%
G36*
G01*
X60702000Y-81027000D02*
X60852000Y-81027000D01*
G75*
G02*
X60927000Y-81102000I0J-75000D01*
G01*
X60927000Y-81802000D01*
G75*
G02*
X60852000Y-81877000I-75000J0D01*
G01*
X60702000Y-81877000D01*
G75*
G02*
X60627000Y-81802000I0J75000D01*
G01*
X60627000Y-81102000D01*
G75*
G02*
X60702000Y-81027000I75000J0D01*
G01*
G37*
%TD.AperFunction*%
%TO.P,U2,10*%
%TO.N,/IN-*%
%TA.AperFunction,SMDPad,CuDef*%
G36*
G01*
X60052000Y-81027000D02*
X60202000Y-81027000D01*
G75*
G02*
X60277000Y-81102000I0J-75000D01*
G01*
X60277000Y-81802000D01*
G75*
G02*
X60202000Y-81877000I-75000J0D01*
G01*
X60052000Y-81877000D01*
G75*
G02*
X59977000Y-81802000I0J75000D01*
G01*
X59977000Y-81102000D01*
G75*
G02*
X60052000Y-81027000I75000J0D01*
G01*
G37*
%TD.AperFunction*%
%TO.P,U2,9*%
%TO.N,GND*%
%TA.AperFunction,SMDPad,CuDef*%
G36*
G01*
X59402000Y-81027000D02*
X59552000Y-81027000D01*
G75*
G02*
X59627000Y-81102000I0J-75000D01*
G01*
X59627000Y-81802000D01*
G75*
G02*
X59552000Y-81877000I-75000J0D01*
G01*
X59402000Y-81877000D01*
G75*
G02*
X59327000Y-81802000I0J75000D01*
G01*
X59327000Y-81102000D01*
G75*
G02*
X59402000Y-81027000I75000J0D01*
G01*
G37*
%TD.AperFunction*%
%TO.P,U2,8*%
%TA.AperFunction,SMDPad,CuDef*%
G36*
G01*
X58152000Y-80327000D02*
X58852000Y-80327000D01*
G75*
G02*
X58927000Y-80402000I0J-75000D01*
G01*
X58927000Y-80552000D01*
G75*
G02*
X58852000Y-80627000I-75000J0D01*
G01*
X58152000Y-80627000D01*
G75*
G02*
X58077000Y-80552000I0J75000D01*
G01*
X58077000Y-80402000D01*
G75*
G02*
X58152000Y-80327000I75000J0D01*
G01*
G37*
%TD.AperFunction*%
%TO.P,U2,7*%
%TA.AperFunction,SMDPad,CuDef*%
G36*
G01*
X58152000Y-79677000D02*
X58852000Y-79677000D01*
G75*
G02*
X58927000Y-79752000I0J-75000D01*
G01*
X58927000Y-79902000D01*
G75*
G02*
X58852000Y-79977000I-75000J0D01*
G01*
X58152000Y-79977000D01*
G75*
G02*
X58077000Y-79902000I0J75000D01*
G01*
X58077000Y-79752000D01*
G75*
G02*
X58152000Y-79677000I75000J0D01*
G01*
G37*
%TD.AperFunction*%
%TO.P,U2,6*%
%TO.N,Net-(C9-Pad2)*%
%TA.AperFunction,SMDPad,CuDef*%
G36*
G01*
X58152000Y-79027000D02*
X58852000Y-79027000D01*
G75*
G02*
X58927000Y-79102000I0J-75000D01*
G01*
X58927000Y-79252000D01*
G75*
G02*
X58852000Y-79327000I-75000J0D01*
G01*
X58152000Y-79327000D01*
G75*
G02*
X58077000Y-79252000I0J75000D01*
G01*
X58077000Y-79102000D01*
G75*
G02*
X58152000Y-79027000I75000J0D01*
G01*
G37*
%TD.AperFunction*%
%TO.P,U2,5*%
%TO.N,Net-(C9-Pad1)*%
%TA.AperFunction,SMDPad,CuDef*%
G36*
G01*
X58152000Y-78377000D02*
X58852000Y-78377000D01*
G75*
G02*
X58927000Y-78452000I0J-75000D01*
G01*
X58927000Y-78602000D01*
G75*
G02*
X58852000Y-78677000I-75000J0D01*
G01*
X58152000Y-78677000D01*
G75*
G02*
X58077000Y-78602000I0J75000D01*
G01*
X58077000Y-78452000D01*
G75*
G02*
X58152000Y-78377000I75000J0D01*
G01*
G37*
%TD.AperFunction*%
%TO.P,U2,4*%
%TO.N,GND*%
%TA.AperFunction,SMDPad,CuDef*%
G36*
G01*
X59402000Y-77127000D02*
X59552000Y-77127000D01*
G75*
G02*
X59627000Y-77202000I0J-75000D01*
G01*
X59627000Y-77902000D01*
G75*
G02*
X59552000Y-77977000I-75000J0D01*
G01*
X59402000Y-77977000D01*
G75*
G02*
X59327000Y-77902000I0J75000D01*
G01*
X59327000Y-77202000D01*
G75*
G02*
X59402000Y-77127000I75000J0D01*
G01*
G37*
%TD.AperFunction*%
%TO.P,U2,3*%
%TO.N,Net-(C2-Pad1)*%
%TA.AperFunction,SMDPad,CuDef*%
G36*
G01*
X60052000Y-77127000D02*
X60202000Y-77127000D01*
G75*
G02*
X60277000Y-77202000I0J-75000D01*
G01*
X60277000Y-77902000D01*
G75*
G02*
X60202000Y-77977000I-75000J0D01*
G01*
X60052000Y-77977000D01*
G75*
G02*
X59977000Y-77902000I0J75000D01*
G01*
X59977000Y-77202000D01*
G75*
G02*
X60052000Y-77127000I75000J0D01*
G01*
G37*
%TD.AperFunction*%
%TO.P,U2,2*%
%TO.N,Net-(C1-Pad1)*%
%TA.AperFunction,SMDPad,CuDef*%
G36*
G01*
X60702000Y-77127000D02*
X60852000Y-77127000D01*
G75*
G02*
X60927000Y-77202000I0J-75000D01*
G01*
X60927000Y-77902000D01*
G75*
G02*
X60852000Y-77977000I-75000J0D01*
G01*
X60702000Y-77977000D01*
G75*
G02*
X60627000Y-77902000I0J75000D01*
G01*
X60627000Y-77202000D01*
G75*
G02*
X60702000Y-77127000I75000J0D01*
G01*
G37*
%TD.AperFunction*%
%TO.P,U2,1*%
%TO.N,GND*%
%TA.AperFunction,SMDPad,CuDef*%
G36*
G01*
X61352000Y-77127000D02*
X61502000Y-77127000D01*
G75*
G02*
X61577000Y-77202000I0J-75000D01*
G01*
X61577000Y-77902000D01*
G75*
G02*
X61502000Y-77977000I-75000J0D01*
G01*
X61352000Y-77977000D01*
G75*
G02*
X61277000Y-77902000I0J75000D01*
G01*
X61277000Y-77202000D01*
G75*
G02*
X61352000Y-77127000I75000J0D01*
G01*
G37*
%TD.AperFunction*%
%TD*%
D26*
%TO.P,Y101,4*%
%TO.N,N/C*%
X56594500Y-91566000D03*
%TO.P,Y101,3*%
X56594500Y-88266000D03*
%TO.P,Y101,2*%
%TO.N,Net-(C103-Pad1)*%
X58594500Y-88266000D03*
%TO.P,Y101,1*%
%TO.N,Net-(C104-Pad1)*%
X58594500Y-91566000D03*
%TD*%
D16*
%TO.P,J104,5*%
%TO.N,/LEDF*%
X109220000Y-94234000D03*
%TO.P,J104,4*%
%TO.N,/LEDC*%
X109220000Y-91694000D03*
%TO.P,J104,3*%
%TO.N,/PWRLED*%
X109220000Y-89154000D03*
%TO.P,J104,2*%
%TO.N,/BTN*%
X109220000Y-86614000D03*
D17*
%TO.P,J104,1*%
%TO.N,GND*%
X109220000Y-84074000D03*
%TD*%
%TO.P,D104,2*%
%TO.N,/PWRLED*%
%TA.AperFunction,SMDPad,CuDef*%
G36*
G01*
X109961500Y-51613750D02*
X109961500Y-52526250D01*
G75*
G02*
X109717750Y-52770000I-243750J0D01*
G01*
X109230250Y-52770000D01*
G75*
G02*
X108986500Y-52526250I0J243750D01*
G01*
X108986500Y-51613750D01*
G75*
G02*
X109230250Y-51370000I243750J0D01*
G01*
X109717750Y-51370000D01*
G75*
G02*
X109961500Y-51613750I0J-243750D01*
G01*
G37*
%TD.AperFunction*%
%TO.P,D104,1*%
%TO.N,GND*%
%TA.AperFunction,SMDPad,CuDef*%
G36*
G01*
X111836500Y-51613750D02*
X111836500Y-52526250D01*
G75*
G02*
X111592750Y-52770000I-243750J0D01*
G01*
X111105250Y-52770000D01*
G75*
G02*
X110861500Y-52526250I0J243750D01*
G01*
X110861500Y-51613750D01*
G75*
G02*
X111105250Y-51370000I243750J0D01*
G01*
X111592750Y-51370000D01*
G75*
G02*
X111836500Y-51613750I0J-243750D01*
G01*
G37*
%TD.AperFunction*%
%TD*%
%TO.P,D103,2*%
%TO.N,/LEDC*%
%TA.AperFunction,SMDPad,CuDef*%
G36*
G01*
X102752500Y-51613750D02*
X102752500Y-52526250D01*
G75*
G02*
X102508750Y-52770000I-243750J0D01*
G01*
X102021250Y-52770000D01*
G75*
G02*
X101777500Y-52526250I0J243750D01*
G01*
X101777500Y-51613750D01*
G75*
G02*
X102021250Y-51370000I243750J0D01*
G01*
X102508750Y-51370000D01*
G75*
G02*
X102752500Y-51613750I0J-243750D01*
G01*
G37*
%TD.AperFunction*%
%TO.P,D103,1*%
%TO.N,GND*%
%TA.AperFunction,SMDPad,CuDef*%
G36*
G01*
X104627500Y-51613750D02*
X104627500Y-52526250D01*
G75*
G02*
X104383750Y-52770000I-243750J0D01*
G01*
X103896250Y-52770000D01*
G75*
G02*
X103652500Y-52526250I0J243750D01*
G01*
X103652500Y-51613750D01*
G75*
G02*
X103896250Y-51370000I243750J0D01*
G01*
X104383750Y-51370000D01*
G75*
G02*
X104627500Y-51613750I0J-243750D01*
G01*
G37*
%TD.AperFunction*%
%TD*%
%TO.P,D102,2*%
%TO.N,/LEDF*%
%TA.AperFunction,SMDPad,CuDef*%
G36*
G01*
X106405500Y-51613750D02*
X106405500Y-52526250D01*
G75*
G02*
X106161750Y-52770000I-243750J0D01*
G01*
X105674250Y-52770000D01*
G75*
G02*
X105430500Y-52526250I0J243750D01*
G01*
X105430500Y-51613750D01*
G75*
G02*
X105674250Y-51370000I243750J0D01*
G01*
X106161750Y-51370000D01*
G75*
G02*
X106405500Y-51613750I0J-243750D01*
G01*
G37*
%TD.AperFunction*%
%TO.P,D102,1*%
%TO.N,GND*%
%TA.AperFunction,SMDPad,CuDef*%
G36*
G01*
X108280500Y-51613750D02*
X108280500Y-52526250D01*
G75*
G02*
X108036750Y-52770000I-243750J0D01*
G01*
X107549250Y-52770000D01*
G75*
G02*
X107305500Y-52526250I0J243750D01*
G01*
X107305500Y-51613750D01*
G75*
G02*
X107549250Y-51370000I243750J0D01*
G01*
X108036750Y-51370000D01*
G75*
G02*
X108280500Y-51613750I0J-243750D01*
G01*
G37*
%TD.AperFunction*%
%TD*%
%TO.P,D101,2*%
%TO.N,Net-(D101-Pad2)*%
%TA.AperFunction,SMDPad,CuDef*%
G36*
G01*
X93959500Y-86157750D02*
X93959500Y-87070250D01*
G75*
G02*
X93715750Y-87314000I-243750J0D01*
G01*
X93228250Y-87314000D01*
G75*
G02*
X92984500Y-87070250I0J243750D01*
G01*
X92984500Y-86157750D01*
G75*
G02*
X93228250Y-85914000I243750J0D01*
G01*
X93715750Y-85914000D01*
G75*
G02*
X93959500Y-86157750I0J-243750D01*
G01*
G37*
%TD.AperFunction*%
%TO.P,D101,1*%
%TO.N,/BTN*%
%TA.AperFunction,SMDPad,CuDef*%
G36*
G01*
X95834500Y-86157750D02*
X95834500Y-87070250D01*
G75*
G02*
X95590750Y-87314000I-243750J0D01*
G01*
X95103250Y-87314000D01*
G75*
G02*
X94859500Y-87070250I0J243750D01*
G01*
X94859500Y-86157750D01*
G75*
G02*
X95103250Y-85914000I243750J0D01*
G01*
X95590750Y-85914000D01*
G75*
G02*
X95834500Y-86157750I0J-243750D01*
G01*
G37*
%TD.AperFunction*%
%TD*%
%TO.P,C105,2*%
%TO.N,GND*%
%TA.AperFunction,SMDPad,CuDef*%
G36*
G01*
X59750500Y-84170500D02*
X59750500Y-85120500D01*
G75*
G02*
X59500500Y-85370500I-250000J0D01*
G01*
X59000500Y-85370500D01*
G75*
G02*
X58750500Y-85120500I0J250000D01*
G01*
X58750500Y-84170500D01*
G75*
G02*
X59000500Y-83920500I250000J0D01*
G01*
X59500500Y-83920500D01*
G75*
G02*
X59750500Y-84170500I0J-250000D01*
G01*
G37*
%TD.AperFunction*%
%TO.P,C105,1*%
%TO.N,/RCVCC*%
%TA.AperFunction,SMDPad,CuDef*%
G36*
G01*
X61650500Y-84170500D02*
X61650500Y-85120500D01*
G75*
G02*
X61400500Y-85370500I-250000J0D01*
G01*
X60900500Y-85370500D01*
G75*
G02*
X60650500Y-85120500I0J250000D01*
G01*
X60650500Y-84170500D01*
G75*
G02*
X60900500Y-83920500I250000J0D01*
G01*
X61400500Y-83920500D01*
G75*
G02*
X61650500Y-84170500I0J-250000D01*
G01*
G37*
%TD.AperFunction*%
%TD*%
%TO.P,C104,2*%
%TO.N,GND*%
%TA.AperFunction,SMDPad,CuDef*%
G36*
G01*
X54894500Y-91310000D02*
X53944500Y-91310000D01*
G75*
G02*
X53694500Y-91060000I0J250000D01*
G01*
X53694500Y-90560000D01*
G75*
G02*
X53944500Y-90310000I250000J0D01*
G01*
X54894500Y-90310000D01*
G75*
G02*
X55144500Y-90560000I0J-250000D01*
G01*
X55144500Y-91060000D01*
G75*
G02*
X54894500Y-91310000I-250000J0D01*
G01*
G37*
%TD.AperFunction*%
%TO.P,C104,1*%
%TO.N,Net-(C104-Pad1)*%
%TA.AperFunction,SMDPad,CuDef*%
G36*
G01*
X54894500Y-93210000D02*
X53944500Y-93210000D01*
G75*
G02*
X53694500Y-92960000I0J250000D01*
G01*
X53694500Y-92460000D01*
G75*
G02*
X53944500Y-92210000I250000J0D01*
G01*
X54894500Y-92210000D01*
G75*
G02*
X55144500Y-92460000I0J-250000D01*
G01*
X55144500Y-92960000D01*
G75*
G02*
X54894500Y-93210000I-250000J0D01*
G01*
G37*
%TD.AperFunction*%
%TD*%
%TO.P,C103,2*%
%TO.N,GND*%
%TA.AperFunction,SMDPad,CuDef*%
G36*
G01*
X53944500Y-88527000D02*
X54894500Y-88527000D01*
G75*
G02*
X55144500Y-88777000I0J-250000D01*
G01*
X55144500Y-89277000D01*
G75*
G02*
X54894500Y-89527000I-250000J0D01*
G01*
X53944500Y-89527000D01*
G75*
G02*
X53694500Y-89277000I0J250000D01*
G01*
X53694500Y-88777000D01*
G75*
G02*
X53944500Y-88527000I250000J0D01*
G01*
G37*
%TD.AperFunction*%
%TO.P,C103,1*%
%TO.N,Net-(C103-Pad1)*%
%TA.AperFunction,SMDPad,CuDef*%
G36*
G01*
X53944500Y-86627000D02*
X54894500Y-86627000D01*
G75*
G02*
X55144500Y-86877000I0J-250000D01*
G01*
X55144500Y-87377000D01*
G75*
G02*
X54894500Y-87627000I-250000J0D01*
G01*
X53944500Y-87627000D01*
G75*
G02*
X53694500Y-87377000I0J250000D01*
G01*
X53694500Y-86877000D01*
G75*
G02*
X53944500Y-86627000I250000J0D01*
G01*
G37*
%TD.AperFunction*%
%TD*%
%TO.P,C101,2*%
%TO.N,/RCVCC*%
%TA.AperFunction,SMDPad,CuDef*%
G36*
G01*
X68232000Y-93350500D02*
X69182000Y-93350500D01*
G75*
G02*
X69432000Y-93600500I0J-250000D01*
G01*
X69432000Y-94100500D01*
G75*
G02*
X69182000Y-94350500I-250000J0D01*
G01*
X68232000Y-94350500D01*
G75*
G02*
X67982000Y-94100500I0J250000D01*
G01*
X67982000Y-93600500D01*
G75*
G02*
X68232000Y-93350500I250000J0D01*
G01*
G37*
%TD.AperFunction*%
%TO.P,C101,1*%
%TO.N,GND*%
%TA.AperFunction,SMDPad,CuDef*%
G36*
G01*
X68232000Y-91450500D02*
X69182000Y-91450500D01*
G75*
G02*
X69432000Y-91700500I0J-250000D01*
G01*
X69432000Y-92200500D01*
G75*
G02*
X69182000Y-92450500I-250000J0D01*
G01*
X68232000Y-92450500D01*
G75*
G02*
X67982000Y-92200500I0J250000D01*
G01*
X67982000Y-91700500D01*
G75*
G02*
X68232000Y-91450500I250000J0D01*
G01*
G37*
%TD.AperFunction*%
%TD*%
D27*
%TO.P,J4,1*%
%TO.N,GND*%
X57623500Y-109106000D03*
%TO.P,J4,2*%
%TO.N,/SFP_TXFAULT*%
X58423500Y-109106000D03*
%TO.P,J4,3*%
%TO.N,/SFP_TXDIS*%
X59223500Y-109106000D03*
%TO.P,J4,4*%
%TO.N,Net-(J4-Pad4)*%
X60023500Y-109106000D03*
%TO.P,J4,5*%
%TO.N,Net-(J4-Pad5)*%
X60823500Y-109106000D03*
%TO.P,J4,6*%
%TO.N,/SFP_MABS*%
X61623500Y-109106000D03*
%TO.P,J4,7*%
%TO.N,Net-(J4-Pad7)*%
X62423500Y-109106000D03*
%TO.P,J4,8*%
%TO.N,/SFP_RXLOS*%
X63223500Y-109106000D03*
%TO.P,J4,9*%
%TO.N,Net-(J4-Pad9)*%
X64023500Y-109106000D03*
%TO.P,J4,10*%
%TO.N,GND*%
X64823500Y-109106000D03*
%TO.P,J4,11*%
X64423500Y-100906000D03*
%TO.P,J4,12*%
%TO.N,/SFPRX-*%
X63623500Y-100906000D03*
%TO.P,J4,13*%
%TO.N,/SFPRX+*%
X62823500Y-100906000D03*
%TO.P,J4,14*%
%TO.N,GND*%
X62023500Y-100906000D03*
%TO.P,J4,15*%
%TO.N,/SFP_VCC*%
X61223500Y-100906000D03*
%TO.P,J4,16*%
X60423500Y-100906000D03*
%TO.P,J4,17*%
%TO.N,GND*%
X59623500Y-100906000D03*
%TO.P,J4,18*%
%TO.N,/TD+*%
X58823500Y-100906000D03*
%TO.P,J4,19*%
%TO.N,/TD-*%
X58023500Y-100906000D03*
%TO.P,J4,20*%
%TO.N,GND*%
X57223500Y-100906000D03*
D28*
%TO.P,J4,*%
%TO.N,*%
X65823500Y-105006000D03*
X56223500Y-105006000D03*
D29*
%TO.P,J4,CAGE*%
%TO.N,GND*%
X53898500Y-105906000D03*
X53898500Y-115906000D03*
X53898500Y-125906000D03*
X53898500Y-135906000D03*
D30*
X61023500Y-98806000D03*
X56223500Y-98806000D03*
X65823500Y-98806000D03*
D29*
X68148500Y-100906000D03*
X68148500Y-110906000D03*
X68148500Y-120906000D03*
X68148500Y-130906000D03*
X62473500Y-135906000D03*
X64973500Y-115906000D03*
X59573500Y-115906000D03*
D30*
X68148500Y-103406000D03*
X53898500Y-103406000D03*
X53898500Y-108406000D03*
X53898500Y-113106000D03*
X68148500Y-113106000D03*
X68148500Y-108406000D03*
%TD*%
%TO.P,C12,2*%
%TO.N,GND*%
%TA.AperFunction,SMDPad,CuDef*%
G36*
G01*
X74176000Y-74135000D02*
X74176000Y-73185000D01*
G75*
G02*
X74426000Y-72935000I250000J0D01*
G01*
X74926000Y-72935000D01*
G75*
G02*
X75176000Y-73185000I0J-250000D01*
G01*
X75176000Y-74135000D01*
G75*
G02*
X74926000Y-74385000I-250000J0D01*
G01*
X74426000Y-74385000D01*
G75*
G02*
X74176000Y-74135000I0J250000D01*
G01*
G37*
%TD.AperFunction*%
%TO.P,C12,1*%
%TO.N,Net-(C12-Pad1)*%
%TA.AperFunction,SMDPad,CuDef*%
G36*
G01*
X72276000Y-74135000D02*
X72276000Y-73185000D01*
G75*
G02*
X72526000Y-72935000I250000J0D01*
G01*
X73026000Y-72935000D01*
G75*
G02*
X73276000Y-73185000I0J-250000D01*
G01*
X73276000Y-74135000D01*
G75*
G02*
X73026000Y-74385000I-250000J0D01*
G01*
X72526000Y-74385000D01*
G75*
G02*
X72276000Y-74135000I0J250000D01*
G01*
G37*
%TD.AperFunction*%
%TD*%
D14*
%TO.P,U3,17*%
%TO.N,GND*%
X77458000Y-78474000D03*
X76708000Y-78474000D03*
X75958000Y-78474000D03*
X77458000Y-77724000D03*
X76708000Y-77724000D03*
X75958000Y-77724000D03*
X77458000Y-76974000D03*
X76708000Y-76974000D03*
X75958000Y-76974000D03*
D15*
X76708000Y-77724000D03*
%TO.P,U3,16*%
%TO.N,Net-(U3-Pad16)*%
%TA.AperFunction,SMDPad,CuDef*%
G36*
G01*
X75583000Y-76124000D02*
X75583000Y-75424000D01*
G75*
G02*
X75658000Y-75349000I75000J0D01*
G01*
X75808000Y-75349000D01*
G75*
G02*
X75883000Y-75424000I0J-75000D01*
G01*
X75883000Y-76124000D01*
G75*
G02*
X75808000Y-76199000I-75000J0D01*
G01*
X75658000Y-76199000D01*
G75*
G02*
X75583000Y-76124000I0J75000D01*
G01*
G37*
%TD.AperFunction*%
%TO.P,U3,15*%
%TO.N,N/C*%
%TA.AperFunction,SMDPad,CuDef*%
G36*
G01*
X76233000Y-76124000D02*
X76233000Y-75424000D01*
G75*
G02*
X76308000Y-75349000I75000J0D01*
G01*
X76458000Y-75349000D01*
G75*
G02*
X76533000Y-75424000I0J-75000D01*
G01*
X76533000Y-76124000D01*
G75*
G02*
X76458000Y-76199000I-75000J0D01*
G01*
X76308000Y-76199000D01*
G75*
G02*
X76233000Y-76124000I0J75000D01*
G01*
G37*
%TD.AperFunction*%
%TO.P,U3,14*%
%TA.AperFunction,SMDPad,CuDef*%
G36*
G01*
X76883000Y-76124000D02*
X76883000Y-75424000D01*
G75*
G02*
X76958000Y-75349000I75000J0D01*
G01*
X77108000Y-75349000D01*
G75*
G02*
X77183000Y-75424000I0J-75000D01*
G01*
X77183000Y-76124000D01*
G75*
G02*
X77108000Y-76199000I-75000J0D01*
G01*
X76958000Y-76199000D01*
G75*
G02*
X76883000Y-76124000I0J75000D01*
G01*
G37*
%TD.AperFunction*%
%TO.P,U3,13*%
%TO.N,Net-(U3-Pad13)*%
%TA.AperFunction,SMDPad,CuDef*%
G36*
G01*
X77533000Y-76124000D02*
X77533000Y-75424000D01*
G75*
G02*
X77608000Y-75349000I75000J0D01*
G01*
X77758000Y-75349000D01*
G75*
G02*
X77833000Y-75424000I0J-75000D01*
G01*
X77833000Y-76124000D01*
G75*
G02*
X77758000Y-76199000I-75000J0D01*
G01*
X77608000Y-76199000D01*
G75*
G02*
X77533000Y-76124000I0J75000D01*
G01*
G37*
%TD.AperFunction*%
%TO.P,U3,12*%
%TO.N,/SDO+*%
%TA.AperFunction,SMDPad,CuDef*%
G36*
G01*
X78233000Y-76824000D02*
X78233000Y-76674000D01*
G75*
G02*
X78308000Y-76599000I75000J0D01*
G01*
X79008000Y-76599000D01*
G75*
G02*
X79083000Y-76674000I0J-75000D01*
G01*
X79083000Y-76824000D01*
G75*
G02*
X79008000Y-76899000I-75000J0D01*
G01*
X78308000Y-76899000D01*
G75*
G02*
X78233000Y-76824000I0J75000D01*
G01*
G37*
%TD.AperFunction*%
%TO.P,U3,11*%
%TO.N,/SDO-*%
%TA.AperFunction,SMDPad,CuDef*%
G36*
G01*
X78233000Y-77474000D02*
X78233000Y-77324000D01*
G75*
G02*
X78308000Y-77249000I75000J0D01*
G01*
X79008000Y-77249000D01*
G75*
G02*
X79083000Y-77324000I0J-75000D01*
G01*
X79083000Y-77474000D01*
G75*
G02*
X79008000Y-77549000I-75000J0D01*
G01*
X78308000Y-77549000D01*
G75*
G02*
X78233000Y-77474000I0J75000D01*
G01*
G37*
%TD.AperFunction*%
%TO.P,U3,10*%
%TO.N,Net-(R11-Pad1)*%
%TA.AperFunction,SMDPad,CuDef*%
G36*
G01*
X78233000Y-78124000D02*
X78233000Y-77974000D01*
G75*
G02*
X78308000Y-77899000I75000J0D01*
G01*
X79008000Y-77899000D01*
G75*
G02*
X79083000Y-77974000I0J-75000D01*
G01*
X79083000Y-78124000D01*
G75*
G02*
X79008000Y-78199000I-75000J0D01*
G01*
X78308000Y-78199000D01*
G75*
G02*
X78233000Y-78124000I0J75000D01*
G01*
G37*
%TD.AperFunction*%
%TO.P,U3,9*%
%TO.N,/CD_VCC*%
%TA.AperFunction,SMDPad,CuDef*%
G36*
G01*
X78233000Y-78774000D02*
X78233000Y-78624000D01*
G75*
G02*
X78308000Y-78549000I75000J0D01*
G01*
X79008000Y-78549000D01*
G75*
G02*
X79083000Y-78624000I0J-75000D01*
G01*
X79083000Y-78774000D01*
G75*
G02*
X79008000Y-78849000I-75000J0D01*
G01*
X78308000Y-78849000D01*
G75*
G02*
X78233000Y-78774000I0J75000D01*
G01*
G37*
%TD.AperFunction*%
%TO.P,U3,8*%
%TO.N,Net-(U3-Pad8)*%
%TA.AperFunction,SMDPad,CuDef*%
G36*
G01*
X77533000Y-80024000D02*
X77533000Y-79324000D01*
G75*
G02*
X77608000Y-79249000I75000J0D01*
G01*
X77758000Y-79249000D01*
G75*
G02*
X77833000Y-79324000I0J-75000D01*
G01*
X77833000Y-80024000D01*
G75*
G02*
X77758000Y-80099000I-75000J0D01*
G01*
X77608000Y-80099000D01*
G75*
G02*
X77533000Y-80024000I0J75000D01*
G01*
G37*
%TD.AperFunction*%
%TO.P,U3,7*%
%TO.N,Net-(U3-Pad7)*%
%TA.AperFunction,SMDPad,CuDef*%
G36*
G01*
X76883000Y-80024000D02*
X76883000Y-79324000D01*
G75*
G02*
X76958000Y-79249000I75000J0D01*
G01*
X77108000Y-79249000D01*
G75*
G02*
X77183000Y-79324000I0J-75000D01*
G01*
X77183000Y-80024000D01*
G75*
G02*
X77108000Y-80099000I-75000J0D01*
G01*
X76958000Y-80099000D01*
G75*
G02*
X76883000Y-80024000I0J75000D01*
G01*
G37*
%TD.AperFunction*%
%TO.P,U3,6*%
%TO.N,/OUT_EN*%
%TA.AperFunction,SMDPad,CuDef*%
G36*
G01*
X76233000Y-80024000D02*
X76233000Y-79324000D01*
G75*
G02*
X76308000Y-79249000I75000J0D01*
G01*
X76458000Y-79249000D01*
G75*
G02*
X76533000Y-79324000I0J-75000D01*
G01*
X76533000Y-80024000D01*
G75*
G02*
X76458000Y-80099000I-75000J0D01*
G01*
X76308000Y-80099000D01*
G75*
G02*
X76233000Y-80024000I0J75000D01*
G01*
G37*
%TD.AperFunction*%
%TO.P,U3,5*%
%TO.N,Net-(U3-Pad5)*%
%TA.AperFunction,SMDPad,CuDef*%
G36*
G01*
X75583000Y-80024000D02*
X75583000Y-79324000D01*
G75*
G02*
X75658000Y-79249000I75000J0D01*
G01*
X75808000Y-79249000D01*
G75*
G02*
X75883000Y-79324000I0J-75000D01*
G01*
X75883000Y-80024000D01*
G75*
G02*
X75808000Y-80099000I-75000J0D01*
G01*
X75658000Y-80099000D01*
G75*
G02*
X75583000Y-80024000I0J75000D01*
G01*
G37*
%TD.AperFunction*%
%TO.P,U3,4*%
%TO.N,Net-(R10-Pad1)*%
%TA.AperFunction,SMDPad,CuDef*%
G36*
G01*
X74333000Y-78774000D02*
X74333000Y-78624000D01*
G75*
G02*
X74408000Y-78549000I75000J0D01*
G01*
X75108000Y-78549000D01*
G75*
G02*
X75183000Y-78624000I0J-75000D01*
G01*
X75183000Y-78774000D01*
G75*
G02*
X75108000Y-78849000I-75000J0D01*
G01*
X74408000Y-78849000D01*
G75*
G02*
X74333000Y-78774000I0J75000D01*
G01*
G37*
%TD.AperFunction*%
%TO.P,U3,3*%
%TO.N,GND*%
%TA.AperFunction,SMDPad,CuDef*%
G36*
G01*
X74333000Y-78124000D02*
X74333000Y-77974000D01*
G75*
G02*
X74408000Y-77899000I75000J0D01*
G01*
X75108000Y-77899000D01*
G75*
G02*
X75183000Y-77974000I0J-75000D01*
G01*
X75183000Y-78124000D01*
G75*
G02*
X75108000Y-78199000I-75000J0D01*
G01*
X74408000Y-78199000D01*
G75*
G02*
X74333000Y-78124000I0J75000D01*
G01*
G37*
%TD.AperFunction*%
%TO.P,U3,2*%
%TO.N,/RD-*%
%TA.AperFunction,SMDPad,CuDef*%
G36*
G01*
X74333000Y-77474000D02*
X74333000Y-77324000D01*
G75*
G02*
X74408000Y-77249000I75000J0D01*
G01*
X75108000Y-77249000D01*
G75*
G02*
X75183000Y-77324000I0J-75000D01*
G01*
X75183000Y-77474000D01*
G75*
G02*
X75108000Y-77549000I-75000J0D01*
G01*
X74408000Y-77549000D01*
G75*
G02*
X74333000Y-77474000I0J75000D01*
G01*
G37*
%TD.AperFunction*%
%TO.P,U3,1*%
%TO.N,/RD+*%
%TA.AperFunction,SMDPad,CuDef*%
G36*
G01*
X74333000Y-76824000D02*
X74333000Y-76674000D01*
G75*
G02*
X74408000Y-76599000I75000J0D01*
G01*
X75108000Y-76599000D01*
G75*
G02*
X75183000Y-76674000I0J-75000D01*
G01*
X75183000Y-76824000D01*
G75*
G02*
X75108000Y-76899000I-75000J0D01*
G01*
X74408000Y-76899000D01*
G75*
G02*
X74333000Y-76824000I0J75000D01*
G01*
G37*
%TD.AperFunction*%
%TD*%
D19*
%TO.P,J6,2*%
%TO.N,GND*%
X74168000Y-63500000D03*
%TO.P,J6,1*%
%TO.N,Net-(C15-Pad2)*%
X76708000Y-63500000D03*
D20*
%TO.P,J6,2*%
%TO.N,GND*%
X81788000Y-58420000D03*
X71628000Y-58420000D03*
%TD*%
%TO.P,C14,2*%
%TO.N,/CD_VCC*%
%TA.AperFunction,SMDPad,CuDef*%
G36*
G01*
X80957000Y-79154000D02*
X80957000Y-80104000D01*
G75*
G02*
X80707000Y-80354000I-250000J0D01*
G01*
X80207000Y-80354000D01*
G75*
G02*
X79957000Y-80104000I0J250000D01*
G01*
X79957000Y-79154000D01*
G75*
G02*
X80207000Y-78904000I250000J0D01*
G01*
X80707000Y-78904000D01*
G75*
G02*
X80957000Y-79154000I0J-250000D01*
G01*
G37*
%TD.AperFunction*%
%TO.P,C14,1*%
%TO.N,GND*%
%TA.AperFunction,SMDPad,CuDef*%
G36*
G01*
X82857000Y-79154000D02*
X82857000Y-80104000D01*
G75*
G02*
X82607000Y-80354000I-250000J0D01*
G01*
X82107000Y-80354000D01*
G75*
G02*
X81857000Y-80104000I0J250000D01*
G01*
X81857000Y-79154000D01*
G75*
G02*
X82107000Y-78904000I250000J0D01*
G01*
X82607000Y-78904000D01*
G75*
G02*
X82857000Y-79154000I0J-250000D01*
G01*
G37*
%TD.AperFunction*%
%TD*%
%TO.P,C13,1*%
%TO.N,GND*%
%TA.AperFunction,SMDPad,CuDef*%
G36*
G01*
X81503500Y-69606500D02*
X82453500Y-69606500D01*
G75*
G02*
X82703500Y-69856500I0J-250000D01*
G01*
X82703500Y-70356500D01*
G75*
G02*
X82453500Y-70606500I-250000J0D01*
G01*
X81503500Y-70606500D01*
G75*
G02*
X81253500Y-70356500I0J250000D01*
G01*
X81253500Y-69856500D01*
G75*
G02*
X81503500Y-69606500I250000J0D01*
G01*
G37*
%TD.AperFunction*%
%TO.P,C13,2*%
%TO.N,/CD_VCC*%
%TA.AperFunction,SMDPad,CuDef*%
G36*
G01*
X81503500Y-71506500D02*
X82453500Y-71506500D01*
G75*
G02*
X82703500Y-71756500I0J-250000D01*
G01*
X82703500Y-72256500D01*
G75*
G02*
X82453500Y-72506500I-250000J0D01*
G01*
X81503500Y-72506500D01*
G75*
G02*
X81253500Y-72256500I0J250000D01*
G01*
X81253500Y-71756500D01*
G75*
G02*
X81503500Y-71506500I250000J0D01*
G01*
G37*
%TD.AperFunction*%
%TD*%
%TO.P,C11,2*%
%TO.N,GND*%
%TA.AperFunction,SMDPad,CuDef*%
G36*
G01*
X55623000Y-95791000D02*
X55623000Y-96741000D01*
G75*
G02*
X55373000Y-96991000I-250000J0D01*
G01*
X54873000Y-96991000D01*
G75*
G02*
X54623000Y-96741000I0J250000D01*
G01*
X54623000Y-95791000D01*
G75*
G02*
X54873000Y-95541000I250000J0D01*
G01*
X55373000Y-95541000D01*
G75*
G02*
X55623000Y-95791000I0J-250000D01*
G01*
G37*
%TD.AperFunction*%
%TO.P,C11,1*%
%TO.N,/SFP_VCC*%
%TA.AperFunction,SMDPad,CuDef*%
G36*
G01*
X57523000Y-95791000D02*
X57523000Y-96741000D01*
G75*
G02*
X57273000Y-96991000I-250000J0D01*
G01*
X56773000Y-96991000D01*
G75*
G02*
X56523000Y-96741000I0J250000D01*
G01*
X56523000Y-95791000D01*
G75*
G02*
X56773000Y-95541000I250000J0D01*
G01*
X57273000Y-95541000D01*
G75*
G02*
X57523000Y-95791000I0J-250000D01*
G01*
G37*
%TD.AperFunction*%
%TD*%
%TO.P,C9,2*%
%TO.N,Net-(C9-Pad2)*%
%TA.AperFunction,SMDPad,CuDef*%
G36*
G01*
X54135000Y-79190000D02*
X55085000Y-79190000D01*
G75*
G02*
X55335000Y-79440000I0J-250000D01*
G01*
X55335000Y-79940000D01*
G75*
G02*
X55085000Y-80190000I-250000J0D01*
G01*
X54135000Y-80190000D01*
G75*
G02*
X53885000Y-79940000I0J250000D01*
G01*
X53885000Y-79440000D01*
G75*
G02*
X54135000Y-79190000I250000J0D01*
G01*
G37*
%TD.AperFunction*%
%TO.P,C9,1*%
%TO.N,Net-(C9-Pad1)*%
%TA.AperFunction,SMDPad,CuDef*%
G36*
G01*
X54135000Y-77290000D02*
X55085000Y-77290000D01*
G75*
G02*
X55335000Y-77540000I0J-250000D01*
G01*
X55335000Y-78040000D01*
G75*
G02*
X55085000Y-78290000I-250000J0D01*
G01*
X54135000Y-78290000D01*
G75*
G02*
X53885000Y-78040000I0J250000D01*
G01*
X53885000Y-77540000D01*
G75*
G02*
X54135000Y-77290000I250000J0D01*
G01*
G37*
%TD.AperFunction*%
%TD*%
%TO.P,C7,2*%
%TO.N,/EQ_VCC*%
%TA.AperFunction,SMDPad,CuDef*%
G36*
G01*
X64041000Y-77478000D02*
X64991000Y-77478000D01*
G75*
G02*
X65241000Y-77728000I0J-250000D01*
G01*
X65241000Y-78228000D01*
G75*
G02*
X64991000Y-78478000I-250000J0D01*
G01*
X64041000Y-78478000D01*
G75*
G02*
X63791000Y-78228000I0J250000D01*
G01*
X63791000Y-77728000D01*
G75*
G02*
X64041000Y-77478000I250000J0D01*
G01*
G37*
%TD.AperFunction*%
%TO.P,C7,1*%
%TO.N,GND*%
%TA.AperFunction,SMDPad,CuDef*%
G36*
G01*
X64041000Y-75578000D02*
X64991000Y-75578000D01*
G75*
G02*
X65241000Y-75828000I0J-250000D01*
G01*
X65241000Y-76328000D01*
G75*
G02*
X64991000Y-76578000I-250000J0D01*
G01*
X64041000Y-76578000D01*
G75*
G02*
X63791000Y-76328000I0J250000D01*
G01*
X63791000Y-75828000D01*
G75*
G02*
X64041000Y-75578000I250000J0D01*
G01*
G37*
%TD.AperFunction*%
%TD*%
%TO.P,C6,2*%
%TO.N,/EQ_VCC*%
%TA.AperFunction,SMDPad,CuDef*%
G36*
G01*
X64991000Y-81526000D02*
X64041000Y-81526000D01*
G75*
G02*
X63791000Y-81276000I0J250000D01*
G01*
X63791000Y-80776000D01*
G75*
G02*
X64041000Y-80526000I250000J0D01*
G01*
X64991000Y-80526000D01*
G75*
G02*
X65241000Y-80776000I0J-250000D01*
G01*
X65241000Y-81276000D01*
G75*
G02*
X64991000Y-81526000I-250000J0D01*
G01*
G37*
%TD.AperFunction*%
%TO.P,C6,1*%
%TO.N,GND*%
%TA.AperFunction,SMDPad,CuDef*%
G36*
G01*
X64991000Y-83426000D02*
X64041000Y-83426000D01*
G75*
G02*
X63791000Y-83176000I0J250000D01*
G01*
X63791000Y-82676000D01*
G75*
G02*
X64041000Y-82426000I250000J0D01*
G01*
X64991000Y-82426000D01*
G75*
G02*
X65241000Y-82676000I0J-250000D01*
G01*
X65241000Y-83176000D01*
G75*
G02*
X64991000Y-83426000I-250000J0D01*
G01*
G37*
%TD.AperFunction*%
%TD*%
%TO.P,C2,2*%
%TO.N,Net-(C2-Pad2)*%
%TA.AperFunction,SMDPad,CuDef*%
G36*
G01*
X59911000Y-73972000D02*
X58961000Y-73972000D01*
G75*
G02*
X58711000Y-73722000I0J250000D01*
G01*
X58711000Y-73222000D01*
G75*
G02*
X58961000Y-72972000I250000J0D01*
G01*
X59911000Y-72972000D01*
G75*
G02*
X60161000Y-73222000I0J-250000D01*
G01*
X60161000Y-73722000D01*
G75*
G02*
X59911000Y-73972000I-250000J0D01*
G01*
G37*
%TD.AperFunction*%
%TO.P,C2,1*%
%TO.N,Net-(C2-Pad1)*%
%TA.AperFunction,SMDPad,CuDef*%
G36*
G01*
X59911000Y-75872000D02*
X58961000Y-75872000D01*
G75*
G02*
X58711000Y-75622000I0J250000D01*
G01*
X58711000Y-75122000D01*
G75*
G02*
X58961000Y-74872000I250000J0D01*
G01*
X59911000Y-74872000D01*
G75*
G02*
X60161000Y-75122000I0J-250000D01*
G01*
X60161000Y-75622000D01*
G75*
G02*
X59911000Y-75872000I-250000J0D01*
G01*
G37*
%TD.AperFunction*%
%TD*%
%TO.P,C1,2*%
%TO.N,Net-(C1-Pad2)*%
%TA.AperFunction,SMDPad,CuDef*%
G36*
G01*
X61943000Y-73972000D02*
X60993000Y-73972000D01*
G75*
G02*
X60743000Y-73722000I0J250000D01*
G01*
X60743000Y-73222000D01*
G75*
G02*
X60993000Y-72972000I250000J0D01*
G01*
X61943000Y-72972000D01*
G75*
G02*
X62193000Y-73222000I0J-250000D01*
G01*
X62193000Y-73722000D01*
G75*
G02*
X61943000Y-73972000I-250000J0D01*
G01*
G37*
%TD.AperFunction*%
%TO.P,C1,1*%
%TO.N,Net-(C1-Pad1)*%
%TA.AperFunction,SMDPad,CuDef*%
G36*
G01*
X61943000Y-75872000D02*
X60993000Y-75872000D01*
G75*
G02*
X60743000Y-75622000I0J250000D01*
G01*
X60743000Y-75122000D01*
G75*
G02*
X60993000Y-74872000I250000J0D01*
G01*
X61943000Y-74872000D01*
G75*
G02*
X62193000Y-75122000I0J-250000D01*
G01*
X62193000Y-75622000D01*
G75*
G02*
X61943000Y-75872000I-250000J0D01*
G01*
G37*
%TD.AperFunction*%
%TD*%
%TO.P,R8,1*%
%TO.N,Net-(C12-Pad1)*%
%TA.AperFunction,SMDPad,CuDef*%
G36*
G01*
X72459000Y-75291000D02*
X72829000Y-75291000D01*
G75*
G02*
X72964000Y-75426000I0J-135000D01*
G01*
X72964000Y-75696000D01*
G75*
G02*
X72829000Y-75831000I-135000J0D01*
G01*
X72459000Y-75831000D01*
G75*
G02*
X72324000Y-75696000I0J135000D01*
G01*
X72324000Y-75426000D01*
G75*
G02*
X72459000Y-75291000I135000J0D01*
G01*
G37*
%TD.AperFunction*%
%TO.P,R8,2*%
%TO.N,/RD+*%
%TA.AperFunction,SMDPad,CuDef*%
G36*
G01*
X72459000Y-76311000D02*
X72829000Y-76311000D01*
G75*
G02*
X72964000Y-76446000I0J-135000D01*
G01*
X72964000Y-76716000D01*
G75*
G02*
X72829000Y-76851000I-135000J0D01*
G01*
X72459000Y-76851000D01*
G75*
G02*
X72324000Y-76716000I0J135000D01*
G01*
X72324000Y-76446000D01*
G75*
G02*
X72459000Y-76311000I135000J0D01*
G01*
G37*
%TD.AperFunction*%
%TD*%
%TO.P,R9,2*%
%TO.N,Net-(C12-Pad1)*%
%TA.AperFunction,SMDPad,CuDef*%
G36*
G01*
X72459000Y-78347000D02*
X72829000Y-78347000D01*
G75*
G02*
X72964000Y-78482000I0J-135000D01*
G01*
X72964000Y-78752000D01*
G75*
G02*
X72829000Y-78887000I-135000J0D01*
G01*
X72459000Y-78887000D01*
G75*
G02*
X72324000Y-78752000I0J135000D01*
G01*
X72324000Y-78482000D01*
G75*
G02*
X72459000Y-78347000I135000J0D01*
G01*
G37*
%TD.AperFunction*%
%TO.P,R9,1*%
%TO.N,/RD-*%
%TA.AperFunction,SMDPad,CuDef*%
G36*
G01*
X72459000Y-77327000D02*
X72829000Y-77327000D01*
G75*
G02*
X72964000Y-77462000I0J-135000D01*
G01*
X72964000Y-77732000D01*
G75*
G02*
X72829000Y-77867000I-135000J0D01*
G01*
X72459000Y-77867000D01*
G75*
G02*
X72324000Y-77732000I0J135000D01*
G01*
X72324000Y-77462000D01*
G75*
G02*
X72459000Y-77327000I135000J0D01*
G01*
G37*
%TD.AperFunction*%
%TD*%
%TO.P,R11,1*%
%TO.N,Net-(R11-Pad1)*%
%TA.AperFunction,SMDPad,CuDef*%
G36*
G01*
X80244000Y-78163000D02*
X80244000Y-77793000D01*
G75*
G02*
X80379000Y-77658000I135000J0D01*
G01*
X80649000Y-77658000D01*
G75*
G02*
X80784000Y-77793000I0J-135000D01*
G01*
X80784000Y-78163000D01*
G75*
G02*
X80649000Y-78298000I-135000J0D01*
G01*
X80379000Y-78298000D01*
G75*
G02*
X80244000Y-78163000I0J135000D01*
G01*
G37*
%TD.AperFunction*%
%TO.P,R11,2*%
%TO.N,GND*%
%TA.AperFunction,SMDPad,CuDef*%
G36*
G01*
X81264000Y-78163000D02*
X81264000Y-77793000D01*
G75*
G02*
X81399000Y-77658000I135000J0D01*
G01*
X81669000Y-77658000D01*
G75*
G02*
X81804000Y-77793000I0J-135000D01*
G01*
X81804000Y-78163000D01*
G75*
G02*
X81669000Y-78298000I-135000J0D01*
G01*
X81399000Y-78298000D01*
G75*
G02*
X81264000Y-78163000I0J135000D01*
G01*
G37*
%TD.AperFunction*%
%TD*%
D17*
%TO.P,J2,1*%
%TO.N,GND*%
X73215500Y-119761000D03*
D16*
%TO.P,J2,2*%
%TO.N,/JTCK*%
X73215500Y-117221000D03*
%TO.P,J2,3*%
%TO.N,/JTMS*%
X73215500Y-114681000D03*
%TO.P,J2,4*%
%TO.N,/MCU_VCC*%
X73215500Y-112141000D03*
%TD*%
%TO.P,J3,4*%
%TO.N,/MCU_VCC*%
X73215500Y-133477000D03*
%TO.P,J3,3*%
%TO.N,/TX*%
X73215500Y-130937000D03*
%TO.P,J3,2*%
%TO.N,/RX*%
X73215500Y-128397000D03*
D17*
%TO.P,J3,1*%
%TO.N,GND*%
X73215500Y-125857000D03*
%TD*%
%TO.P,C10,1*%
%TO.N,GND*%
%TA.AperFunction,SMDPad,CuDef*%
G36*
G01*
X71341000Y-101587000D02*
X70391000Y-101587000D01*
G75*
G02*
X70141000Y-101337000I0J250000D01*
G01*
X70141000Y-100837000D01*
G75*
G02*
X70391000Y-100587000I250000J0D01*
G01*
X71341000Y-100587000D01*
G75*
G02*
X71591000Y-100837000I0J-250000D01*
G01*
X71591000Y-101337000D01*
G75*
G02*
X71341000Y-101587000I-250000J0D01*
G01*
G37*
%TD.AperFunction*%
%TO.P,C10,2*%
%TO.N,/SFP_VCC*%
%TA.AperFunction,SMDPad,CuDef*%
G36*
G01*
X71341000Y-99687000D02*
X70391000Y-99687000D01*
G75*
G02*
X70141000Y-99437000I0J250000D01*
G01*
X70141000Y-98937000D01*
G75*
G02*
X70391000Y-98687000I250000J0D01*
G01*
X71341000Y-98687000D01*
G75*
G02*
X71591000Y-98937000I0J-250000D01*
G01*
X71591000Y-99437000D01*
G75*
G02*
X71341000Y-99687000I-250000J0D01*
G01*
G37*
%TD.AperFunction*%
%TD*%
D18*
%TO.P,J8,1*%
%TO.N,Net-(J8-Pad1)*%
X107188000Y-134620000D03*
%TD*%
%TO.P,J10,1*%
%TO.N,Net-(J10-Pad1)*%
X107188000Y-72009000D03*
%TD*%
D31*
%TO.N,GND*%
X75565000Y-73660000D03*
X92202000Y-73469500D03*
X59283600Y-104241600D03*
X62128400Y-104190800D03*
X83058000Y-93726000D03*
X83058000Y-96774000D03*
X81534000Y-95250000D03*
X84836000Y-95250000D03*
X109474000Y-115570000D03*
X109474000Y-116586000D03*
X96266000Y-116078000D03*
X87884000Y-110490000D03*
X92964000Y-91440000D03*
X104140000Y-53340000D03*
X107696000Y-53340000D03*
X111506000Y-53340000D03*
X88392000Y-115316000D03*
X62992000Y-72136000D03*
X82042000Y-68580000D03*
X98552000Y-69088000D03*
X82550000Y-78232000D03*
X71374000Y-92964000D03*
X72898000Y-87717800D03*
X76708000Y-91948000D03*
X99060000Y-78232000D03*
X58420000Y-69850000D03*
X93091000Y-109220000D03*
X95250000Y-100584000D03*
X100584000Y-101092000D03*
X86995000Y-96901000D03*
X90043000Y-98425000D03*
X90043000Y-102870000D03*
X94615000Y-102870000D03*
X77216000Y-87630000D03*
X100330000Y-117983000D03*
%TO.N,+3V3*%
X76454000Y-95250000D03*
X79756000Y-94742000D03*
X93218000Y-113284000D03*
X78079600Y-97028000D03*
X93980000Y-114554000D03*
X77216000Y-97028000D03*
X78994000Y-97028000D03*
X92964000Y-114300000D03*
%TO.N,/IN_CD*%
X64960500Y-79502000D03*
X71310500Y-84137500D03*
X81851500Y-85026500D03*
X83375500Y-87122000D03*
%TO.N,/SFP_RXLOS*%
X66421000Y-108395910D03*
X63223500Y-110594500D03*
%TO.N,/OUT_EN*%
X82994500Y-84201000D03*
X84836000Y-86042500D03*
%TO.N,Net-(C12-Pad1)*%
X71882000Y-78613000D03*
X71882000Y-75565000D03*
%TO.N,/MCU_VCC*%
X77216000Y-112014000D03*
X95377000Y-107950000D03*
X97917000Y-100076000D03*
X86106000Y-97790000D03*
X85344000Y-104521000D03*
X89154000Y-106934000D03*
%TO.N,/EQ_VCC*%
X67106800Y-77724000D03*
%TO.N,/SFP_VCC*%
X61214000Y-102131500D03*
X71882000Y-99187000D03*
X57150000Y-97155000D03*
X59563000Y-97282000D03*
X57531000Y-96139000D03*
%TO.N,/CD_VCC*%
X80454500Y-81153000D03*
%TO.N,/RCVCC*%
X63436500Y-94107000D03*
X67881500Y-94107000D03*
X70102765Y-93818409D03*
X58928000Y-83058000D03*
%TO.N,/MUX_VCC*%
X72263000Y-91694000D03*
X79603600Y-90627200D03*
X69977000Y-87376000D03*
%TO.N,/LOCKED*%
X60515500Y-88773000D03*
X60515500Y-90741500D03*
X60515500Y-90741500D03*
X79248000Y-92710000D03*
X64567118Y-84291962D03*
X69088000Y-90170000D03*
%TO.N,/FET*%
X92964000Y-98806000D03*
X91663298Y-91597702D03*
%TO.N,/LEDC*%
X105913347Y-54360653D03*
%TO.N,Net-(C108-Pad1)*%
X88455500Y-78613000D03*
X88455500Y-75628500D03*
%TO.N,/CD2_VCC*%
X96901000Y-81089500D03*
%TO.N,/OUT2_EN*%
X92773500Y-83121500D03*
X92773500Y-81128500D03*
%TO.N,Net-(C204-Pad1)*%
X80213200Y-123088400D03*
X83718400Y-124053600D03*
%TO.N,/Power/GATE*%
X99187000Y-90932000D03*
X99187000Y-94996000D03*
X101854000Y-101219000D03*
X100965000Y-105537000D03*
%TO.N,GND*%
X100520500Y-84074000D03*
X107442000Y-58420000D03*
X107442000Y-61468000D03*
X101727000Y-61468000D03*
X101727000Y-66103500D03*
X107378500Y-66103500D03*
%TO.N,+3V3*%
X78041500Y-93726000D03*
X76555600Y-96367600D03*
X76555600Y-93726000D03*
%TO.N,/CD_VCC*%
X75184000Y-81483200D03*
%TO.N,/LEDF*%
X106680000Y-56007000D03*
%TD*%
D32*
%TO.N,GND*%
X59477000Y-80477000D02*
X59702000Y-80252000D01*
X59477000Y-81452000D02*
X59477000Y-80477000D01*
X59477000Y-80477000D02*
X60452000Y-79502000D01*
X58502000Y-80477000D02*
X59477000Y-80477000D01*
X61427000Y-80477000D02*
X60452000Y-79502000D01*
X61427000Y-81452000D02*
X61427000Y-80477000D01*
X61427000Y-78527000D02*
X60452000Y-79502000D01*
X61427000Y-77552000D02*
X61427000Y-78527000D01*
X59477000Y-78527000D02*
X60452000Y-79502000D01*
X59477000Y-77552000D02*
X59477000Y-78527000D01*
X61427000Y-77552000D02*
X61427000Y-76877410D01*
X61427000Y-76877410D02*
X62104410Y-76200000D01*
X64394000Y-76200000D02*
X64516000Y-76078000D01*
X62104410Y-76200000D02*
X64394000Y-76200000D01*
X74676000Y-73660000D02*
X75565000Y-73660000D01*
X75633000Y-78049000D02*
X75958000Y-77724000D01*
X74758000Y-78049000D02*
X75633000Y-78049000D01*
X81534000Y-77978000D02*
X82042000Y-77978000D01*
X82357000Y-78293000D02*
X82357000Y-79629000D01*
X82042000Y-77978000D02*
X82357000Y-78293000D01*
X98867000Y-78862500D02*
X98046000Y-78041500D01*
X98867000Y-79629000D02*
X98867000Y-78862500D01*
X92011500Y-73660000D02*
X92202000Y-73469500D01*
X91120000Y-73660000D02*
X92011500Y-73660000D01*
X54419500Y-89027000D02*
X54419500Y-89916000D01*
X54419500Y-89916000D02*
X54419500Y-90810000D01*
X62145000Y-88291000D02*
X63770000Y-89916000D01*
X62145000Y-87053500D02*
X62145000Y-88291000D01*
X64745000Y-88941000D02*
X63770000Y-89916000D01*
X64745000Y-87053500D02*
X64745000Y-88941000D01*
X65395000Y-88291000D02*
X63770000Y-89916000D01*
X65395000Y-87053500D02*
X65395000Y-88291000D01*
X66695000Y-92778500D02*
X66695000Y-91206000D01*
X65405000Y-89916000D02*
X63770000Y-89916000D01*
X66695000Y-91206000D02*
X65405000Y-89916000D01*
X61427000Y-81452000D02*
X61894000Y-81452000D01*
X63368000Y-82926000D02*
X64516000Y-82926000D01*
X61894000Y-81452000D02*
X63368000Y-82926000D01*
X62145000Y-86316000D02*
X61808000Y-85979000D01*
X62145000Y-87053500D02*
X62145000Y-86316000D01*
X61808000Y-85979000D02*
X60134500Y-85979000D01*
X59250500Y-85095000D02*
X59250500Y-84645500D01*
X60134500Y-85979000D02*
X59250500Y-85095000D01*
X68707000Y-91950500D02*
X67371000Y-90614500D01*
X67371000Y-90614500D02*
X67119500Y-90614500D01*
X66421000Y-89916000D02*
X63770000Y-89916000D01*
X67119500Y-90614500D02*
X66421000Y-89916000D01*
X62023500Y-99806000D02*
X61023500Y-98806000D01*
X62023500Y-100906000D02*
X62023500Y-99806000D01*
X64423500Y-100206000D02*
X65823500Y-98806000D01*
X64423500Y-100906000D02*
X64423500Y-100206000D01*
X57223500Y-99806000D02*
X56223500Y-98806000D01*
X57223500Y-100906000D02*
X57223500Y-99806000D01*
X59623500Y-102746000D02*
X59563000Y-102806500D01*
X59623500Y-100906000D02*
X59623500Y-102746000D01*
X62023500Y-102790500D02*
X62039500Y-102806500D01*
X62023500Y-100906000D02*
X62023500Y-102790500D01*
X59563000Y-102806500D02*
X62039500Y-102806500D01*
X54598500Y-109106000D02*
X53898500Y-108406000D01*
X57623500Y-109106000D02*
X54598500Y-109106000D01*
X73215500Y-119761000D02*
X73215500Y-125857000D01*
X58502000Y-79827000D02*
X58046500Y-79827000D01*
X58046500Y-79827000D02*
X57269500Y-79827000D01*
X58046500Y-79827000D02*
X57587000Y-79827000D01*
X57269500Y-79827000D02*
X57086500Y-80010000D01*
X57086500Y-80010000D02*
X57086500Y-80327500D01*
X57236000Y-80477000D02*
X58502000Y-80477000D01*
X57086500Y-80327500D02*
X57236000Y-80477000D01*
X61627000Y-79827000D02*
X61202000Y-80252000D01*
X62402000Y-79827000D02*
X61627000Y-79827000D01*
X59690000Y-89916000D02*
X63770000Y-89916000D01*
X54419500Y-89916000D02*
X59690000Y-89916000D01*
X64823500Y-109106000D02*
X64846500Y-109106000D01*
X66646500Y-110906000D02*
X68148500Y-110906000D01*
X64846500Y-109106000D02*
X66646500Y-110906000D01*
X57223500Y-102181500D02*
X57223500Y-100906000D01*
X64423500Y-101895700D02*
X64423500Y-100906000D01*
X63512700Y-102806500D02*
X63652400Y-102666800D01*
X62598300Y-102806500D02*
X63512700Y-102806500D01*
X62039500Y-102806500D02*
X62598300Y-102806500D01*
X63652400Y-102666800D02*
X64423500Y-101895700D01*
X62128400Y-104190800D02*
X63652400Y-102666800D01*
X57480200Y-102438200D02*
X57223500Y-102181500D01*
X58940700Y-102806500D02*
X57848500Y-102806500D01*
X57848500Y-102806500D02*
X57480200Y-102438200D01*
X59283600Y-104241600D02*
X57480200Y-102438200D01*
X58940700Y-102806500D02*
X59563000Y-102806500D01*
X74818000Y-90058000D02*
X74818000Y-90108800D01*
X74818000Y-90108800D02*
X75517200Y-90808000D01*
X71619001Y-92419001D02*
X73036599Y-92419001D01*
X71501000Y-92301000D02*
X71619001Y-92419001D01*
X73036599Y-92419001D02*
X73036599Y-91839401D01*
D33*
X84861400Y-121689600D02*
X85091800Y-121920000D01*
X84861400Y-118045000D02*
X84861400Y-121689600D01*
X88646000Y-116230400D02*
X90625400Y-116230400D01*
X87985600Y-115570000D02*
X88646000Y-116230400D01*
X83361400Y-115570000D02*
X82956400Y-115570000D01*
X84861400Y-117070000D02*
X83361400Y-115570000D01*
X84861400Y-118045000D02*
X84861400Y-117070000D01*
D32*
X79451200Y-114018000D02*
X79451200Y-115112800D01*
X79908400Y-115570000D02*
X82956400Y-115570000D01*
X79451200Y-115112800D02*
X79908400Y-115570000D01*
X86614000Y-114044000D02*
X86815200Y-113842800D01*
X86614000Y-115570000D02*
X86614000Y-114044000D01*
D33*
X82956400Y-115570000D02*
X86614000Y-115570000D01*
X86614000Y-115570000D02*
X87985600Y-115570000D01*
D32*
X83078000Y-95250000D02*
X83078000Y-94722000D01*
D34*
X83078000Y-93746000D02*
X83058000Y-93726000D01*
X83078000Y-95250000D02*
X83078000Y-93746000D01*
X83058000Y-95270000D02*
X83078000Y-95250000D01*
X83058000Y-96774000D02*
X83058000Y-95270000D01*
X83078000Y-95250000D02*
X81534000Y-95250000D01*
D32*
X92143000Y-78049000D02*
X92468000Y-77724000D01*
X91268000Y-78049000D02*
X92143000Y-78049000D01*
D33*
X108966000Y-116078000D02*
X109474000Y-115570000D01*
X108155000Y-116078000D02*
X108966000Y-116078000D01*
X108966000Y-116078000D02*
X109474000Y-116586000D01*
D32*
X96264000Y-116076000D02*
X96266000Y-116078000D01*
X96264000Y-115316000D02*
X96264000Y-116076000D01*
X87126000Y-110490000D02*
X87884000Y-110490000D01*
X93152000Y-91252000D02*
X92964000Y-91440000D01*
X93152000Y-90408000D02*
X93152000Y-91252000D01*
X104140000Y-52070000D02*
X104140000Y-53340000D01*
X107793000Y-53243000D02*
X107696000Y-53340000D01*
X107793000Y-52070000D02*
X107793000Y-53243000D01*
X111349000Y-53183000D02*
X111506000Y-53340000D01*
X111349000Y-52070000D02*
X111349000Y-53183000D01*
X88138000Y-115570000D02*
X88392000Y-115316000D01*
X87985600Y-115570000D02*
X88138000Y-115570000D01*
X62869000Y-72013000D02*
X62992000Y-72136000D01*
X62869000Y-71374000D02*
X62869000Y-72013000D01*
X81978500Y-68643500D02*
X82042000Y-68580000D01*
X81978500Y-70106500D02*
X81978500Y-68643500D01*
X98488500Y-69151500D02*
X98552000Y-69088000D01*
X98488500Y-70297000D02*
X98488500Y-69151500D01*
D34*
X82489000Y-78293000D02*
X82550000Y-78232000D01*
X82357000Y-78293000D02*
X82489000Y-78293000D01*
D32*
X71501000Y-92837000D02*
X71374000Y-92964000D01*
X71501000Y-92301000D02*
X71501000Y-92837000D01*
X74818000Y-90058000D02*
X76708000Y-91948000D01*
D33*
X98867000Y-78425000D02*
X99060000Y-78232000D01*
X98867000Y-79629000D02*
X98867000Y-78425000D01*
X110617000Y-116586000D02*
X109474000Y-116586000D01*
X111125000Y-117094000D02*
X110617000Y-116586000D01*
X111125000Y-117094000D02*
X111125000Y-116459000D01*
X110236000Y-115570000D02*
X109474000Y-115570000D01*
X111125000Y-116459000D02*
X110236000Y-115570000D01*
X111125000Y-117729000D02*
X111125000Y-116459000D01*
X109220000Y-119634000D02*
X111125000Y-117729000D01*
D32*
X59436000Y-70864000D02*
X59434000Y-70864000D01*
X59434000Y-70864000D02*
X58420000Y-69850000D01*
X75793000Y-91033000D02*
X74818000Y-90058000D01*
X76768000Y-91033000D02*
X75793000Y-91033000D01*
X93091000Y-108589000D02*
X93091000Y-109220000D01*
X94389000Y-107569000D02*
X94389000Y-108049000D01*
X93849000Y-108589000D02*
X93091000Y-108589000D01*
X94389000Y-108049000D02*
X93849000Y-108589000D01*
X94389000Y-107569000D02*
X94389000Y-106906000D01*
X94579000Y-106716000D02*
X94579000Y-105508500D01*
X94389000Y-106906000D02*
X94579000Y-106716000D01*
X95262000Y-100596000D02*
X95250000Y-100584000D01*
X96491500Y-100596000D02*
X95262000Y-100596000D01*
X100556000Y-101064000D02*
X100584000Y-101092000D01*
X99822000Y-101064000D02*
X100556000Y-101064000D01*
X87503000Y-96901000D02*
X86995000Y-96901000D01*
X90079000Y-98389000D02*
X90043000Y-98425000D01*
X90079000Y-97183500D02*
X90079000Y-98389000D01*
X86233000Y-103561000D02*
X86304000Y-103561000D01*
X86339000Y-103596000D02*
X88166500Y-103596000D01*
X86304000Y-103561000D02*
X86339000Y-103596000D01*
X89785000Y-103596000D02*
X88166500Y-103596000D01*
X90043000Y-102870000D02*
X89785000Y-103596000D01*
X94615000Y-102870000D02*
X94579000Y-103414000D01*
X94579000Y-103414000D02*
X94579000Y-105508500D01*
D34*
X68329500Y-101087000D02*
X68148500Y-100906000D01*
X70866000Y-101087000D02*
X68329500Y-101087000D01*
D32*
X55123000Y-97705500D02*
X56223500Y-98806000D01*
X55123000Y-96266000D02*
X55123000Y-97705500D01*
X73036599Y-91839401D02*
X74068000Y-90808000D01*
X72898000Y-88138000D02*
X74068000Y-89308000D01*
X72898000Y-87717800D02*
X72898000Y-88138000D01*
X77216000Y-87660000D02*
X77216000Y-87630000D01*
X74818000Y-90058000D02*
X77216000Y-87660000D01*
D34*
X101424000Y-137160000D02*
X101727000Y-136857000D01*
X93980000Y-137160000D02*
X101424000Y-137160000D01*
D32*
X99181500Y-117983000D02*
X100330000Y-117983000D01*
D33*
%TO.N,+3V3*%
X93624000Y-116279000D02*
X93575400Y-116230400D01*
D32*
X87833200Y-112471200D02*
X91440000Y-112471200D01*
X93575400Y-114606600D02*
X93575400Y-116230400D01*
X91440000Y-112471200D02*
X93575400Y-114606600D01*
D34*
X77978000Y-95250000D02*
X76454000Y-95250000D01*
X78486000Y-94742000D02*
X77978000Y-95250000D01*
X79756000Y-94742000D02*
X78486000Y-94742000D01*
X93575400Y-116435400D02*
X93624000Y-116484000D01*
X93575400Y-116230400D02*
X93575400Y-116435400D01*
D33*
X93624000Y-116484000D02*
X93624000Y-116279000D01*
X93624000Y-124155200D02*
X93624000Y-116484000D01*
D34*
X93575400Y-113641400D02*
X93218000Y-113284000D01*
X93575400Y-116230400D02*
X93575400Y-113641400D01*
X77978000Y-96774000D02*
X77978000Y-95250000D01*
X93575400Y-114958600D02*
X93980000Y-114554000D01*
X93575400Y-116230400D02*
X93575400Y-114958600D01*
X77216000Y-96012000D02*
X77978000Y-95250000D01*
X77216000Y-97028000D02*
X77216000Y-96012000D01*
X78994000Y-96266000D02*
X77978000Y-95250000D01*
X78994000Y-97028000D02*
X78994000Y-96266000D01*
X92964000Y-114300000D02*
X92964000Y-114554000D01*
X93575400Y-115165400D02*
X93575400Y-116230400D01*
X92964000Y-114554000D02*
X93575400Y-115165400D01*
D32*
%TO.N,/IN_CD*%
X64635500Y-79177000D02*
X64960500Y-79502000D01*
X62402000Y-79177000D02*
X64635500Y-79177000D01*
X72199500Y-85026500D02*
X81851500Y-85026500D01*
X71310500Y-84137500D02*
X72199500Y-85026500D01*
X83375500Y-87122000D02*
X86943500Y-90690000D01*
X92079000Y-95773603D02*
X87396147Y-91090750D01*
X87396147Y-91090750D02*
X87344250Y-91090750D01*
X92079000Y-97183500D02*
X92079000Y-95773603D01*
X87344250Y-91090750D02*
X86943500Y-90690000D01*
X87443500Y-91190000D02*
X87344250Y-91090750D01*
%TO.N,/SFP_RXLOS*%
X63223500Y-110594500D02*
X63223500Y-109106000D01*
X67485911Y-107330999D02*
X66866205Y-107950705D01*
X66866205Y-107950705D02*
X66421000Y-108395910D01*
X79355000Y-100096000D02*
X72120001Y-107330999D01*
X72120001Y-107330999D02*
X67485911Y-107330999D01*
X88166500Y-100096000D02*
X79355000Y-100096000D01*
%TO.N,/SFP_MABS*%
X61623500Y-107856000D02*
X61623500Y-109106000D01*
X62026482Y-107453018D02*
X61623500Y-107856000D01*
X66727482Y-107453018D02*
X62026482Y-107453018D01*
X67500500Y-106680000D02*
X66727482Y-107453018D01*
X71818500Y-106680000D02*
X67500500Y-106680000D01*
X78902500Y-99596000D02*
X71818500Y-106680000D01*
X88166500Y-99596000D02*
X78902500Y-99596000D01*
%TO.N,/SFP_TXFAULT*%
X58423500Y-107883000D02*
X58423500Y-109106000D01*
X59753500Y-106553000D02*
X58423500Y-107883000D01*
X78124500Y-98596000D02*
X71945500Y-104775000D01*
X68072000Y-104775000D02*
X66294000Y-106553000D01*
X66294000Y-106553000D02*
X59753500Y-106553000D01*
X71945500Y-104775000D02*
X68072000Y-104775000D01*
X88166500Y-98596000D02*
X78124500Y-98596000D01*
%TO.N,/SFP_TXDIS*%
X59939900Y-107003010D02*
X59223500Y-107719410D01*
X66480401Y-107003009D02*
X59939900Y-107003010D01*
X67755910Y-105727500D02*
X66480401Y-107003009D01*
X71882000Y-105727500D02*
X67755910Y-105727500D01*
X59223500Y-107719410D02*
X59223500Y-109106000D01*
X78513500Y-99096000D02*
X78200250Y-99409250D01*
X88166500Y-99096000D02*
X78513500Y-99096000D01*
X78200250Y-99409250D02*
X71882000Y-105727500D01*
X78298010Y-99311490D02*
X78200250Y-99409250D01*
%TO.N,/TX*%
X74993500Y-105283000D02*
X74993500Y-105346500D01*
X74993500Y-105346500D02*
X70231000Y-110109000D01*
X70231000Y-110109000D02*
X70231000Y-129794000D01*
X71374000Y-130937000D02*
X73215500Y-130937000D01*
X70231000Y-129794000D02*
X71374000Y-130937000D01*
X88166500Y-101096000D02*
X79180500Y-101096000D01*
X79180500Y-101096000D02*
X78898750Y-101377750D01*
X78898750Y-101377750D02*
X74993500Y-105283000D01*
X78990000Y-101286500D02*
X78898750Y-101377750D01*
%TO.N,/RX*%
X70866000Y-127444500D02*
X71818500Y-128397000D01*
X79834990Y-101521010D02*
X70866000Y-110490000D01*
X88166500Y-101571500D02*
X88116010Y-101521010D01*
X70866000Y-110490000D02*
X70866000Y-127444500D01*
X88116010Y-101521010D02*
X79834990Y-101521010D01*
X71818500Y-128397000D02*
X73215500Y-128397000D01*
X88166500Y-101596000D02*
X88166500Y-101571500D01*
%TO.N,/JTMS*%
X74104500Y-114681000D02*
X73215500Y-114681000D01*
X75692000Y-113093500D02*
X74104500Y-114681000D01*
X87343998Y-103005990D02*
X79429510Y-103005990D01*
X79429510Y-103005990D02*
X75692000Y-106743500D01*
X75692000Y-106743500D02*
X75692000Y-113093500D01*
X87434008Y-103096000D02*
X87343998Y-103005990D01*
X88166500Y-103096000D02*
X87434008Y-103096000D01*
%TO.N,/JTCK*%
X76403200Y-114033300D02*
X73215500Y-117221000D01*
X76403200Y-107238800D02*
X76403200Y-114033300D01*
X78133500Y-105508500D02*
X77597000Y-106045000D01*
X89579000Y-105508500D02*
X78133500Y-105508500D01*
X77597000Y-106045000D02*
X76403200Y-107238800D01*
%TO.N,/OUT_EN*%
X76383000Y-79763500D02*
X76383000Y-80014702D01*
X76383000Y-79674000D02*
X76383000Y-79763500D01*
X81534000Y-82740500D02*
X82994500Y-84201000D01*
X84836000Y-86042500D02*
X87443500Y-88650000D01*
X87943500Y-89150000D02*
X87443500Y-88650000D01*
X92579000Y-97183500D02*
X92579000Y-94992000D01*
X87943500Y-90356500D02*
X87943500Y-89150000D01*
X92579000Y-94992000D02*
X87943500Y-90356500D01*
%TO.N,Net-(C1-Pad2)*%
X61468000Y-71755000D02*
X61849000Y-71374000D01*
X61468000Y-73472000D02*
X61468000Y-71755000D01*
X61849000Y-71374000D02*
X61849000Y-69469000D01*
X61218000Y-67945000D02*
X61218000Y-67949000D01*
X61849000Y-68580000D02*
X61849000Y-69469000D01*
X61218000Y-67949000D02*
X61849000Y-68580000D01*
%TO.N,Net-(C1-Pad1)*%
X60777000Y-77552000D02*
X60777000Y-76891000D01*
X61468000Y-76200000D02*
X61468000Y-75372000D01*
X60777000Y-76891000D02*
X61468000Y-76200000D01*
%TO.N,Net-(C2-Pad2)*%
X59436000Y-73472000D02*
X59436000Y-71884000D01*
%TO.N,Net-(C2-Pad1)*%
X60127000Y-77552000D02*
X60127000Y-76891000D01*
X59436000Y-76200000D02*
X59436000Y-75372000D01*
X60127000Y-76891000D02*
X59436000Y-76200000D01*
%TO.N,Net-(C9-Pad2)*%
X58502000Y-79177000D02*
X56967000Y-79177000D01*
X56454000Y-79690000D02*
X54610000Y-79690000D01*
X56967000Y-79177000D02*
X56454000Y-79690000D01*
%TO.N,Net-(C9-Pad1)*%
X58502000Y-78527000D02*
X57953000Y-78527000D01*
X57216000Y-77790000D02*
X54610000Y-77790000D01*
X57953000Y-78527000D02*
X57216000Y-77790000D01*
%TO.N,Net-(C12-Pad1)*%
X71886000Y-78617000D02*
X71882000Y-78613000D01*
X72644000Y-78617000D02*
X71886000Y-78617000D01*
X72640000Y-75565000D02*
X72644000Y-75561000D01*
X71882000Y-75565000D02*
X72640000Y-75565000D01*
X71882000Y-74554000D02*
X72776000Y-73660000D01*
X71882000Y-75565000D02*
X71882000Y-74554000D01*
%TO.N,Net-(C15-Pad2)*%
X76708000Y-63500000D02*
X76708000Y-68707000D01*
%TO.N,Net-(C15-Pad1)*%
X78608000Y-70480000D02*
X78613000Y-70485000D01*
X78608000Y-68707000D02*
X78608000Y-70480000D01*
X77978000Y-72009000D02*
X77978000Y-70929500D01*
X78422500Y-70485000D02*
X78613000Y-70485000D01*
X77978000Y-70929500D02*
X78422500Y-70485000D01*
%TO.N,Net-(J1-Pad1)*%
X60199000Y-67946000D02*
X60198000Y-67945000D01*
X60199000Y-69469000D02*
X60199000Y-67946000D01*
X60198000Y-67945000D02*
X60198000Y-63500000D01*
%TO.N,/RD+*%
X74758000Y-76749000D02*
X73574000Y-76749000D01*
X73406000Y-76581000D02*
X72644000Y-76581000D01*
X73574000Y-76749000D02*
X73406000Y-76581000D01*
D35*
X69434500Y-78519800D02*
X71090300Y-76864000D01*
X71661800Y-86458000D02*
X69434500Y-84230700D01*
X72361000Y-76864000D02*
X72644000Y-76581000D01*
X71090300Y-76864000D02*
X72361000Y-76864000D01*
X69434500Y-84230700D02*
X69434500Y-78519800D01*
X73943000Y-88008000D02*
X73943000Y-87469200D01*
X73843000Y-88108000D02*
X73943000Y-88008000D01*
X72931800Y-86458000D02*
X71661800Y-86458000D01*
X73943000Y-87469200D02*
X72931800Y-86458000D01*
D32*
%TO.N,/RD-*%
X74758000Y-77399000D02*
X73477000Y-77399000D01*
X73279000Y-77597000D02*
X72644000Y-77597000D01*
X73477000Y-77399000D02*
X73279000Y-77597000D01*
D35*
X72361000Y-77314000D02*
X72644000Y-77597000D01*
X71276700Y-77314000D02*
X72361000Y-77314000D01*
X69884500Y-84044300D02*
X69884500Y-78706200D01*
X69884500Y-78706200D02*
X71276700Y-77314000D01*
X71848200Y-86008000D02*
X69884500Y-84044300D01*
X74393000Y-88008000D02*
X74393000Y-87282800D01*
X74493000Y-88108000D02*
X74393000Y-88008000D01*
X74393000Y-87282800D02*
X73118200Y-86008000D01*
X73118200Y-86008000D02*
X71848200Y-86008000D01*
D32*
%TO.N,Net-(R10-Pad1)*%
X74758000Y-78699000D02*
X74082000Y-78699000D01*
X73152000Y-79629000D02*
X73152000Y-80833500D01*
X74082000Y-78699000D02*
X73152000Y-79629000D01*
D35*
%TO.N,Net-(R11-Pad1)*%
X80443000Y-78049000D02*
X80514000Y-77978000D01*
X78658000Y-78049000D02*
X80443000Y-78049000D01*
%TO.N,/TD+*%
X58823500Y-99405999D02*
X58823500Y-100906000D01*
X58648500Y-96800200D02*
X58648500Y-99230999D01*
X61434200Y-95284500D02*
X60164200Y-95284500D01*
X62695000Y-94023700D02*
X61434200Y-95284500D01*
X62695000Y-92878500D02*
X62695000Y-94023700D01*
X60164200Y-95284500D02*
X58648500Y-96800200D01*
X62795000Y-92778500D02*
X62695000Y-92878500D01*
X58648500Y-99230999D02*
X58823500Y-99405999D01*
%TO.N,/TD-*%
X58023500Y-99405999D02*
X58023500Y-100906000D01*
X58198500Y-99230999D02*
X58023500Y-99405999D01*
X61247800Y-94834500D02*
X59977800Y-94834500D01*
X62245000Y-92878500D02*
X62245000Y-93837300D01*
X62145000Y-92778500D02*
X62245000Y-92878500D01*
X58198500Y-96613800D02*
X58198500Y-99230999D01*
X62245000Y-93837300D02*
X61247800Y-94834500D01*
X59977800Y-94834500D02*
X58198500Y-96613800D01*
D32*
%TO.N,/SDO+*%
X79633000Y-72004000D02*
X79628000Y-72009000D01*
X79633000Y-70485000D02*
X79633000Y-72004000D01*
X78658000Y-76155000D02*
X80518000Y-74295000D01*
X78658000Y-76749000D02*
X78658000Y-76155000D01*
X79628000Y-73405000D02*
X80518000Y-74295000D01*
X79628000Y-72009000D02*
X79628000Y-73405000D01*
%TO.N,/SDO-*%
X80514000Y-75968000D02*
X80514000Y-75819000D01*
X79083000Y-77399000D02*
X80514000Y-75968000D01*
X78658000Y-77399000D02*
X79083000Y-77399000D01*
%TO.N,/MCU_VCC*%
X77216000Y-108204000D02*
X77216000Y-112014000D01*
X78740000Y-106680000D02*
X77216000Y-108204000D01*
X77216000Y-112014000D02*
X77216000Y-131318000D01*
X75057000Y-133477000D02*
X73215500Y-133477000D01*
X77216000Y-131318000D02*
X75057000Y-133477000D01*
X88166500Y-104096000D02*
X87420000Y-104096000D01*
X86995000Y-104521000D02*
X86233000Y-104521000D01*
X87420000Y-104096000D02*
X86995000Y-104521000D01*
X95349000Y-107569000D02*
X95349000Y-106581000D01*
X95079000Y-106311000D02*
X95079000Y-105508500D01*
X95349000Y-106581000D02*
X95079000Y-106311000D01*
X95349000Y-107922000D02*
X95377000Y-107950000D01*
X95349000Y-107569000D02*
X95349000Y-107922000D01*
X98655000Y-100096000D02*
X98679000Y-100072000D01*
X98711000Y-100104000D02*
X98679000Y-100072000D01*
X99822000Y-100104000D02*
X98711000Y-100104000D01*
X88745500Y-97183500D02*
X88463000Y-96901000D01*
X89579000Y-97183500D02*
X88745500Y-97183500D01*
X78740000Y-106680000D02*
X82804000Y-106680000D01*
X97937000Y-100096000D02*
X97917000Y-100076000D01*
X98151000Y-100096000D02*
X97937000Y-100096000D01*
X96491500Y-100096000D02*
X98151000Y-100096000D01*
X98151000Y-100096000D02*
X98655000Y-100096000D01*
X88463000Y-96901000D02*
X88463000Y-97338000D01*
X88011000Y-97790000D02*
X86106000Y-97790000D01*
X88463000Y-97338000D02*
X88011000Y-97790000D01*
X85344000Y-104521000D02*
X86233000Y-104521000D01*
X88900000Y-106680000D02*
X89154000Y-106934000D01*
X87249000Y-106680000D02*
X88900000Y-106680000D01*
X82804000Y-106680000D02*
X87249000Y-106680000D01*
%TO.N,/EQ_VCC*%
X63967000Y-78527000D02*
X64516000Y-77978000D01*
X62402000Y-78527000D02*
X63967000Y-78527000D01*
X63967000Y-80477000D02*
X64516000Y-81026000D01*
X62402000Y-80477000D02*
X63967000Y-80477000D01*
X65659000Y-81026000D02*
X64516000Y-81026000D01*
X66040000Y-80645000D02*
X65659000Y-81026000D01*
X64516000Y-77978000D02*
X65659000Y-77978000D01*
X66040000Y-78994000D02*
X66040000Y-80645000D01*
X66040000Y-78359000D02*
X66040000Y-78994000D01*
X65659000Y-77978000D02*
X66040000Y-78359000D01*
X66471800Y-78359000D02*
X66040000Y-78359000D01*
X67106800Y-77724000D02*
X66471800Y-78359000D01*
%TO.N,/SFP_VCC*%
X60841200Y-100906000D02*
X60423500Y-100906000D01*
X61223500Y-100906000D02*
X60841200Y-100906000D01*
X61223500Y-102122000D02*
X61214000Y-102131500D01*
X61223500Y-100906000D02*
X61223500Y-102122000D01*
X71882000Y-99187000D02*
X70866000Y-99187000D01*
X60423500Y-99960998D02*
X60093501Y-99630999D01*
X60423500Y-100906000D02*
X60423500Y-99960998D01*
X60093501Y-99630999D02*
X59563000Y-99100498D01*
X59563000Y-99100498D02*
X59563000Y-97282000D01*
X57150000Y-96393000D02*
X57023000Y-96266000D01*
X57150000Y-97155000D02*
X57150000Y-96393000D01*
X57150000Y-96139000D02*
X57023000Y-96266000D01*
X57531000Y-96139000D02*
X57150000Y-96139000D01*
D35*
%TO.N,/CD_VCC*%
X79527000Y-78699000D02*
X80457000Y-79629000D01*
X78658000Y-78699000D02*
X79527000Y-78699000D01*
D32*
X81978500Y-73854500D02*
X81538000Y-74295000D01*
X81978500Y-72006500D02*
X81978500Y-73854500D01*
X81538000Y-75815000D02*
X81534000Y-75819000D01*
X81538000Y-74295000D02*
X81538000Y-75815000D01*
X80454500Y-79631500D02*
X80457000Y-79629000D01*
X80454500Y-81153000D02*
X80454500Y-79631500D01*
X81534000Y-75819000D02*
X81661000Y-75819000D01*
X81661000Y-75819000D02*
X83566000Y-77724000D01*
X83566000Y-77724000D02*
X83566000Y-80518000D01*
X82931000Y-81153000D02*
X80454500Y-81153000D01*
X83566000Y-80518000D02*
X82931000Y-81153000D01*
D35*
%TO.N,/SFPRX-*%
X73943700Y-96999000D02*
X64672700Y-96999000D01*
X63623500Y-99405999D02*
X63623500Y-100906000D01*
X64672700Y-96999000D02*
X63448500Y-98223200D01*
X63448500Y-99230999D02*
X63623500Y-99405999D01*
X75693000Y-95249700D02*
X75693000Y-92108000D01*
X73943700Y-96999000D02*
X75693000Y-95249700D01*
X75693000Y-92108000D02*
X75793000Y-92008000D01*
X63448500Y-98223200D02*
X63448500Y-99230999D01*
%TO.N,/SFPRX+*%
X75068000Y-91995500D02*
X75093000Y-92020500D01*
X73757300Y-96549000D02*
X64486300Y-96549000D01*
X64486300Y-96549000D02*
X62998500Y-98036800D01*
X62823500Y-99405999D02*
X62823500Y-100906000D01*
X62998500Y-99230999D02*
X62823500Y-99405999D01*
X62998500Y-98036800D02*
X62998500Y-99230999D01*
X75243000Y-92108000D02*
X75143000Y-92008000D01*
X75243000Y-95063300D02*
X75243000Y-92108000D01*
X73757300Y-96549000D02*
X75243000Y-95063300D01*
D32*
%TO.N,/RCVCC*%
X61150500Y-84645500D02*
X61912500Y-84645500D01*
X62795000Y-85528000D02*
X62795000Y-87053500D01*
X65395000Y-92778500D02*
X65395000Y-93843000D01*
X65395000Y-93843000D02*
X65849500Y-94297500D01*
X68260000Y-94297500D02*
X68707000Y-93850500D01*
X65849500Y-94297500D02*
X68260000Y-94297500D01*
X63445000Y-94098500D02*
X63436500Y-94107000D01*
X63445000Y-92778500D02*
X63445000Y-94098500D01*
X68138000Y-93850500D02*
X67881500Y-94107000D01*
X68707000Y-93850500D02*
X68138000Y-93850500D01*
X68739091Y-93818409D02*
X68707000Y-93850500D01*
X70102765Y-93818409D02*
X68739091Y-93818409D01*
X62420500Y-85153500D02*
X62795000Y-85528000D01*
X61912500Y-84645500D02*
X62420500Y-85153500D01*
D34*
X59563000Y-83058000D02*
X61150500Y-84645500D01*
X58928000Y-83058000D02*
X59563000Y-83058000D01*
D32*
%TO.N,/MUX_VCC*%
X72048054Y-89808000D02*
X71711554Y-89471500D01*
X72880500Y-89808000D02*
X72048054Y-89808000D01*
X71711554Y-89471500D02*
X70612000Y-89471500D01*
X70612000Y-90231500D02*
X70546500Y-90297000D01*
X70612000Y-89471500D02*
X70612000Y-90231500D01*
X70546500Y-89406000D02*
X70612000Y-89471500D01*
X70546500Y-90297000D02*
X70546500Y-90866500D01*
X71021000Y-91341000D02*
X71501000Y-91341000D01*
X70546500Y-90866500D02*
X71021000Y-91341000D01*
X71910000Y-91341000D02*
X72263000Y-91694000D01*
X71501000Y-91341000D02*
X71910000Y-91341000D01*
X79402400Y-90627200D02*
X79603600Y-90627200D01*
X70546500Y-88732900D02*
X70546500Y-89406000D01*
X70546500Y-87693500D02*
X70546500Y-88732900D01*
X71809000Y-91033000D02*
X71501000Y-91341000D01*
X72868000Y-91033000D02*
X71809000Y-91033000D01*
X70229000Y-87376000D02*
X70546500Y-87693500D01*
X69977000Y-87376000D02*
X70229000Y-87376000D01*
%TO.N,/LOCKED*%
X61495000Y-87793500D02*
X60515500Y-88773000D01*
X61495000Y-87053500D02*
X61495000Y-87793500D01*
X61495000Y-91721000D02*
X61495000Y-92778500D01*
X60515500Y-90741500D02*
X61495000Y-91721000D01*
X64567118Y-84291962D02*
X68035962Y-84291962D01*
X68035962Y-84291962D02*
X68834000Y-85090000D01*
X68834000Y-85090000D02*
X68834000Y-89916000D01*
X68834000Y-89916000D02*
X69088000Y-90170000D01*
X86995000Y-95377000D02*
X84328000Y-92710000D01*
X89789000Y-95377000D02*
X86995000Y-95377000D01*
X90579000Y-96167000D02*
X89789000Y-95377000D01*
X84328000Y-92710000D02*
X79248000Y-92710000D01*
X90579000Y-97183500D02*
X90579000Y-96167000D01*
%TO.N,Net-(R102-Pad2)*%
X95079000Y-97183500D02*
X95079000Y-95675000D01*
X96520000Y-94234000D02*
X104392000Y-94234000D01*
X95079000Y-95675000D02*
X96520000Y-94234000D01*
%TO.N,Net-(R101-Pad2)*%
X94579000Y-97183500D02*
X94579000Y-94651000D01*
X94579000Y-94651000D02*
X96774000Y-92456000D01*
X96774000Y-92456000D02*
X102743000Y-92456000D01*
X103505000Y-91694000D02*
X104392000Y-91694000D01*
X102743000Y-92456000D02*
X103505000Y-91694000D01*
%TO.N,Net-(R103-Pad2)*%
X94079000Y-97183500D02*
X94079000Y-94262000D01*
X94079000Y-94262000D02*
X96647000Y-91694000D01*
X101850000Y-91694000D02*
X104390000Y-89154000D01*
X96647000Y-91694000D02*
X101850000Y-91694000D01*
%TO.N,Net-(D101-Pad2)*%
X88900000Y-88900000D02*
X91186000Y-86614000D01*
X88900000Y-89789000D02*
X88900000Y-88900000D01*
X93579000Y-94468000D02*
X88900000Y-89789000D01*
X91186000Y-86614000D02*
X93472000Y-86614000D01*
X93579000Y-97183500D02*
X93579000Y-94468000D01*
%TO.N,/FET*%
X93174000Y-98596000D02*
X92964000Y-98806000D01*
X96491500Y-98596000D02*
X93174000Y-98596000D01*
X91663298Y-90819298D02*
X91252000Y-90408000D01*
X91663298Y-91597702D02*
X91663298Y-90819298D01*
D35*
%TO.N,/IN+*%
X63995000Y-86953500D02*
X63995000Y-84695300D01*
X64095000Y-87053500D02*
X63995000Y-86953500D01*
X63995000Y-84695300D02*
X62196200Y-82896500D01*
X62196200Y-82896500D02*
X60862700Y-82896500D01*
X60677000Y-81552000D02*
X60777000Y-81452000D01*
X60677000Y-82710800D02*
X60677000Y-81552000D01*
X60862700Y-82896500D02*
X60677000Y-82710800D01*
%TO.N,/IN-*%
X63545000Y-86953500D02*
X63545000Y-84881700D01*
X63445000Y-87053500D02*
X63545000Y-86953500D01*
X63545000Y-84881700D02*
X62009800Y-83346500D01*
X62009800Y-83346500D02*
X60676300Y-83346500D01*
X60227000Y-81552000D02*
X60127000Y-81452000D01*
X60227000Y-82897200D02*
X60227000Y-81552000D01*
X60676300Y-83346500D02*
X60227000Y-82897200D01*
D32*
%TO.N,Net-(C102-Pad2)*%
X66695000Y-87053500D02*
X66695000Y-86213000D01*
X66875600Y-86032400D02*
X66875600Y-85242400D01*
X66695000Y-86213000D02*
X66875600Y-86032400D01*
%TO.N,Net-(C102-Pad1)*%
X66045000Y-87053500D02*
X66045000Y-86060200D01*
X65915600Y-85930800D02*
X65915600Y-85242400D01*
X66045000Y-86060200D02*
X65915600Y-85930800D01*
%TO.N,Net-(C103-Pad1)*%
X57455500Y-87127000D02*
X58594500Y-88266000D01*
X54419500Y-87127000D02*
X57455500Y-87127000D01*
X59807000Y-87053500D02*
X58594500Y-88266000D01*
X60845000Y-87053500D02*
X59807000Y-87053500D01*
%TO.N,Net-(C104-Pad1)*%
X59807000Y-92778500D02*
X58594500Y-91566000D01*
X60845000Y-92778500D02*
X59807000Y-92778500D01*
X57450500Y-92710000D02*
X58594500Y-91566000D01*
X54419500Y-92710000D02*
X57450500Y-92710000D01*
%TO.N,/BTN*%
X109220000Y-86614000D02*
X100838000Y-86614000D01*
X100838000Y-86614000D02*
X95347000Y-86614000D01*
%TO.N,/LEDF*%
X105412000Y-94234000D02*
X109220000Y-94234000D01*
X105918000Y-52070000D02*
X105918000Y-53340000D01*
%TO.N,/LEDC*%
X105412000Y-91694000D02*
X109220000Y-91694000D01*
X105913347Y-54360653D02*
X103382653Y-54360653D01*
X102265000Y-53243000D02*
X102265000Y-52070000D01*
X103382653Y-54360653D02*
X102265000Y-53243000D01*
%TO.N,/PWRLED*%
X105410000Y-89154000D02*
X109220000Y-89154000D01*
D35*
%TO.N,/TD2+*%
X73843000Y-92008000D02*
X73943000Y-92108000D01*
X73943000Y-94373841D02*
X73355341Y-94961500D01*
X64645000Y-94489300D02*
X64645000Y-92878500D01*
X73355341Y-94961500D02*
X65117200Y-94961500D01*
X65117200Y-94961500D02*
X64645000Y-94489300D01*
X64645000Y-92878500D02*
X64745000Y-92778500D01*
X73943000Y-92108000D02*
X73943000Y-94373841D01*
%TO.N,/TD2-*%
X64195000Y-94675700D02*
X64195000Y-92878500D01*
X73541741Y-95411500D02*
X64930800Y-95411500D01*
X64930800Y-95411500D02*
X64195000Y-94675700D01*
X74393000Y-94560241D02*
X73541741Y-95411500D01*
X64195000Y-92878500D02*
X64095000Y-92778500D01*
X74393000Y-92108000D02*
X74393000Y-94560241D01*
X74493000Y-92008000D02*
X74393000Y-92108000D01*
D32*
%TO.N,Net-(C108-Pad1)*%
X88457500Y-78615000D02*
X88455500Y-78613000D01*
X89281000Y-78615000D02*
X88457500Y-78615000D01*
X89215500Y-75628500D02*
X89281000Y-75563000D01*
X88455500Y-75628500D02*
X89215500Y-75628500D01*
X88455500Y-74424500D02*
X89220000Y-73660000D01*
X88455500Y-75628500D02*
X88455500Y-74424500D01*
%TO.N,/CD2_VCC*%
X96901000Y-79695000D02*
X96967000Y-79629000D01*
X96901000Y-81089500D02*
X96901000Y-79695000D01*
X96037000Y-78699000D02*
X96967000Y-79629000D01*
X95168000Y-78699000D02*
X96037000Y-78699000D01*
X94742500Y-81853500D02*
X96967000Y-79629000D01*
X89725500Y-81853500D02*
X94742500Y-81853500D01*
X98046000Y-74295000D02*
X98046000Y-75819000D01*
X98488500Y-73852500D02*
X98046000Y-74295000D01*
X98488500Y-72197000D02*
X98488500Y-73852500D01*
X98046000Y-75819000D02*
X98425000Y-75819000D01*
X98425000Y-75819000D02*
X100076000Y-77470000D01*
X100076000Y-77470000D02*
X100076000Y-80518000D01*
X99504500Y-81089500D02*
X96901000Y-81089500D01*
X100076000Y-80518000D02*
X99504500Y-81089500D01*
%TO.N,Net-(C111-Pad2)*%
X93218000Y-68704500D02*
X93220500Y-68707000D01*
X93218000Y-63500000D02*
X93218000Y-68704500D01*
%TO.N,Net-(C111-Pad1)*%
X95120500Y-70484500D02*
X95121000Y-70485000D01*
X95120500Y-68707000D02*
X95120500Y-70484500D01*
X94337500Y-71268500D02*
X95121000Y-70485000D01*
X94337500Y-72009000D02*
X94337500Y-71268500D01*
%TO.N,/SDO2+*%
X96141000Y-71987500D02*
X96162500Y-72009000D01*
X96141000Y-70485000D02*
X96141000Y-71987500D01*
X95168000Y-76153000D02*
X97026000Y-74295000D01*
X95168000Y-76749000D02*
X95168000Y-76153000D01*
X96162500Y-73431500D02*
X97026000Y-74295000D01*
X96162500Y-72009000D02*
X96162500Y-73431500D01*
%TO.N,/RD2+*%
X91268000Y-76749000D02*
X90401500Y-76749000D01*
X90235500Y-76583000D02*
X89281000Y-76583000D01*
X90401500Y-76749000D02*
X90235500Y-76583000D01*
D35*
X89000000Y-76864000D02*
X87409800Y-76864000D01*
X89281000Y-76583000D02*
X89000000Y-76864000D01*
X87409800Y-76864000D02*
X85754000Y-78519800D01*
X85754000Y-78519800D02*
X85754000Y-82837800D01*
X85754000Y-82837800D02*
X82583800Y-86008000D01*
X76170300Y-86008000D02*
X82583800Y-86008000D01*
X75243000Y-88008000D02*
X75243000Y-86935300D01*
X75243000Y-86935300D02*
X76170300Y-86008000D01*
X75143000Y-88108000D02*
X75243000Y-88008000D01*
D32*
%TO.N,/RD2-*%
X91268000Y-77399000D02*
X90304500Y-77399000D01*
X90108500Y-77595000D02*
X89281000Y-77595000D01*
X90304500Y-77399000D02*
X90108500Y-77595000D01*
D35*
X89000000Y-77314000D02*
X87596200Y-77314000D01*
X89281000Y-77595000D02*
X89000000Y-77314000D01*
X87596200Y-77314000D02*
X86204000Y-78706200D01*
X86204000Y-78706200D02*
X86204000Y-83024200D01*
X86204000Y-83024200D02*
X82770200Y-86458000D01*
X76356700Y-86458000D02*
X82770200Y-86458000D01*
X75693000Y-87121700D02*
X76356700Y-86458000D01*
X75693000Y-88008000D02*
X75693000Y-87121700D01*
X75793000Y-88108000D02*
X75693000Y-88008000D01*
D32*
%TO.N,Net-(R106-Pad1)*%
X89725500Y-80833500D02*
X89725500Y-79502000D01*
X90528500Y-78699000D02*
X91268000Y-78699000D01*
X89725500Y-79502000D02*
X90528500Y-78699000D01*
%TO.N,Net-(R107-Pad1)*%
X97018500Y-78049000D02*
X97026000Y-78041500D01*
X95168000Y-78049000D02*
X97018500Y-78049000D01*
%TO.N,/SDO2-*%
X97026000Y-75966000D02*
X97026000Y-75819000D01*
X95593000Y-77399000D02*
X97026000Y-75966000D01*
X95168000Y-77399000D02*
X95593000Y-77399000D01*
%TO.N,Net-(R110-Pad2)*%
X71652500Y-90383000D02*
X71566500Y-90297000D01*
X72868000Y-90383000D02*
X71652500Y-90383000D01*
%TO.N,Net-(R111-Pad2)*%
X78138200Y-90383000D02*
X78382400Y-90627200D01*
X76768000Y-90383000D02*
X78138200Y-90383000D01*
%TO.N,Net-(R113-Pad2)*%
X72009000Y-88136000D02*
X71566500Y-87693500D01*
X72868000Y-89083000D02*
X72065000Y-89083000D01*
X72009000Y-89027000D02*
X72009000Y-88136000D01*
X72065000Y-89083000D02*
X72009000Y-89027000D01*
%TO.N,/OUT_SEL1*%
X82479000Y-89083000D02*
X82931000Y-89535000D01*
X76768000Y-89083000D02*
X82479000Y-89083000D01*
X87757000Y-94361000D02*
X86804500Y-93408500D01*
X90100699Y-94361000D02*
X87757000Y-94361000D01*
X86804500Y-93408500D02*
X82931000Y-89535000D01*
X86943500Y-93547500D02*
X86804500Y-93408500D01*
X91579000Y-95839302D02*
X91341849Y-95602151D01*
X91579000Y-97183500D02*
X91579000Y-95839302D01*
X91341849Y-95602151D02*
X90100699Y-94361000D01*
%TO.N,/OUT_SEL0*%
X76768000Y-89733000D02*
X82163800Y-89733000D01*
X91079000Y-97183500D02*
X91079000Y-95905000D01*
X91079000Y-95905000D02*
X90043000Y-94869000D01*
X90043000Y-94869000D02*
X87299800Y-94869000D01*
X86321900Y-93891100D02*
X86443500Y-94012700D01*
X87299800Y-94869000D02*
X86321900Y-93891100D01*
X82163800Y-89733000D02*
X86321900Y-93891100D01*
%TO.N,/OUT2_EN*%
X92893000Y-79674000D02*
X92919000Y-79674000D01*
X92773500Y-81128500D02*
X92773500Y-80835500D01*
X92893000Y-80716000D02*
X92893000Y-79674000D01*
X92773500Y-80835500D02*
X92893000Y-80716000D01*
X88443500Y-86689500D02*
X92011500Y-83121500D01*
X92011500Y-83121500D02*
X92773500Y-83121500D01*
X93079000Y-95770000D02*
X93079000Y-94603000D01*
X93079000Y-97183500D02*
X93079000Y-95770000D01*
X88443500Y-89967500D02*
X88443500Y-88848500D01*
X93079000Y-94603000D02*
X88443500Y-89967500D01*
X88443500Y-88848500D02*
X88443500Y-86689500D01*
%TO.N,Net-(J7-Pad1)*%
X56997500Y-71628000D02*
X56515000Y-71628000D01*
X56515000Y-71628000D02*
X55372000Y-71628000D01*
X56595000Y-71628000D02*
X56515000Y-71628000D01*
%TO.N,Net-(C202-Pad1)*%
X81014400Y-113058000D02*
X81051400Y-113095000D01*
X79451200Y-113058000D02*
X81014400Y-113058000D01*
%TO.N,Net-(C204-Pad2)*%
X81051400Y-118045000D02*
X81051400Y-118084600D01*
X80162400Y-118934000D02*
X81051400Y-118045000D01*
X80162400Y-120360400D02*
X80162400Y-118934000D01*
D33*
%TO.N,Net-(C204-Pad1)*%
X83591400Y-118045000D02*
X83591400Y-123215400D01*
X84531200Y-124155200D02*
X87224000Y-124155200D01*
D32*
X80162400Y-123037600D02*
X80213200Y-123088400D01*
X80162400Y-122260400D02*
X80162400Y-123037600D01*
X83718400Y-124002800D02*
X84048600Y-123672600D01*
D33*
X84048600Y-123672600D02*
X84531200Y-124155200D01*
D32*
X83718400Y-124053600D02*
X83718400Y-124002800D01*
D33*
X83591400Y-123215400D02*
X84048600Y-123672600D01*
D32*
%TO.N,Net-(C205-Pad2)*%
X83594000Y-113092400D02*
X83591400Y-113095000D01*
X83594000Y-110490000D02*
X83594000Y-113092400D01*
%TO.N,Net-(C205-Pad1)*%
X84554000Y-110490000D02*
X86106000Y-110490000D01*
%TO.N,/Power/GATE*%
X97709000Y-88408000D02*
X97790000Y-88489000D01*
X95266000Y-88408000D02*
X97709000Y-88408000D01*
X92202000Y-88408000D02*
X95266000Y-88408000D01*
X97790000Y-89535000D02*
X99187000Y-90932000D01*
X97790000Y-88489000D02*
X97790000Y-89535000D01*
X99187000Y-94996000D02*
X101981000Y-97790000D01*
X101981000Y-101092000D02*
X101854000Y-101219000D01*
X101981000Y-97790000D02*
X101981000Y-101092000D01*
X95250000Y-111252000D02*
X100965000Y-105537000D01*
X92329000Y-130302000D02*
X94488000Y-130302000D01*
X91710000Y-130921000D02*
X92329000Y-130302000D01*
X94488000Y-130302000D02*
X95885000Y-128905000D01*
X91710000Y-131638000D02*
X91710000Y-130921000D01*
X95885000Y-128905000D02*
X95885000Y-123317000D01*
X95885000Y-123317000D02*
X95885000Y-121793000D01*
X95885000Y-121793000D02*
X95250000Y-121158000D01*
X95250000Y-121158000D02*
X95250000Y-115062000D01*
X95250000Y-115062000D02*
X95250000Y-111252000D01*
D33*
%TO.N,/Power/VBAT*%
X91440000Y-133808000D02*
X91710000Y-133538000D01*
X91440000Y-137160000D02*
X91440000Y-133808000D01*
D32*
%TO.N,Net-(R201-Pad1)*%
X82321400Y-110771400D02*
X82346800Y-110746000D01*
X82321400Y-113095000D02*
X82321400Y-110771400D01*
%TO.N,Net-(R203-Pad1)*%
X85485200Y-112471200D02*
X84861400Y-113095000D01*
X86813200Y-112471200D02*
X85485200Y-112471200D01*
X87835200Y-113842800D02*
X87835200Y-113743200D01*
X86813200Y-112721200D02*
X86813200Y-112471200D01*
X87835200Y-113743200D02*
X86813200Y-112721200D01*
D33*
%TO.N,+5V*%
X82321400Y-121740400D02*
X82141800Y-121920000D01*
X82321400Y-118045000D02*
X82321400Y-121740400D01*
D32*
X79298800Y-124155200D02*
X81737200Y-124155200D01*
X78536800Y-123393200D02*
X79298800Y-124155200D01*
X78536800Y-111658400D02*
X78536800Y-123393200D01*
X82141800Y-123750600D02*
X82141800Y-121920000D01*
X80469200Y-109726000D02*
X78536800Y-111658400D01*
X81737200Y-124155200D02*
X82141800Y-123750600D01*
X82346800Y-109726000D02*
X80469200Y-109726000D01*
X99822000Y-115316000D02*
X100076000Y-115316000D01*
X100076000Y-115316000D02*
X100584000Y-114808000D01*
X103935000Y-114808000D02*
X105205000Y-116078000D01*
X100584000Y-114808000D02*
X103935000Y-114808000D01*
D33*
%TO.N,GND*%
X109220000Y-84074000D02*
X100520500Y-84074000D01*
X98298000Y-58420000D02*
X107442000Y-58420000D01*
X107442000Y-61468000D02*
X101727000Y-61468000D01*
X101727000Y-66103500D02*
X107378500Y-66103500D01*
%TO.N,+3V3*%
X78041500Y-95186500D02*
X77978000Y-95250000D01*
X78041500Y-93726000D02*
X78041500Y-95186500D01*
D34*
X76708000Y-96520000D02*
X77978000Y-95250000D01*
X76555600Y-96367600D02*
X76708000Y-96520000D01*
D33*
X77978000Y-95059500D02*
X77978000Y-95250000D01*
X76555600Y-93726000D02*
X77978000Y-95059500D01*
D32*
%TO.N,/OUT_EN*%
X78244700Y-82740500D02*
X77660500Y-82740500D01*
X78244700Y-82740500D02*
X81534000Y-82740500D01*
X76383000Y-81463000D02*
X76383000Y-79674000D01*
X77660500Y-82740500D02*
X76383000Y-81463000D01*
%TO.N,/CD_VCC*%
X74813700Y-81853500D02*
X75184000Y-81483200D01*
X73152000Y-81853500D02*
X74813700Y-81853500D01*
%TO.N,/LEDF*%
X106680000Y-54102000D02*
X105918000Y-53340000D01*
X106680000Y-56007000D02*
X106680000Y-54102000D01*
%TO.N,/PWRLED*%
X110553500Y-87820500D02*
X109220000Y-89154000D01*
X110553500Y-55689500D02*
X109474000Y-54610000D01*
X110553500Y-67373500D02*
X110553500Y-55689500D01*
X109474000Y-52070000D02*
X109474000Y-54610000D01*
X110553500Y-67373500D02*
X110553500Y-87820500D01*
D33*
%TO.N,+5V*%
X105205000Y-118159000D02*
X105205000Y-116078000D01*
X109220000Y-122174000D02*
X105205000Y-118159000D01*
D34*
X101854000Y-115646000D02*
X103200000Y-115646000D01*
X103632000Y-116078000D02*
X105205000Y-116078000D01*
X103200000Y-115646000D02*
X103632000Y-116078000D01*
D33*
X82141800Y-121920000D02*
X82141800Y-124868200D01*
X80899000Y-126111000D02*
X80899000Y-129540000D01*
X82141800Y-124868200D02*
X80899000Y-126111000D01*
%TO.N,/Power/VBATSW*%
X109220000Y-126619000D02*
X109220000Y-124714000D01*
X103759000Y-132080000D02*
X109220000Y-126619000D01*
X103759000Y-133223000D02*
X103759000Y-132080000D01*
X103075000Y-133907000D02*
X103759000Y-133223000D01*
X101727000Y-133907000D02*
X103075000Y-133907000D01*
X101727000Y-129855000D02*
X101854000Y-129728000D01*
X101727000Y-133907000D02*
X101727000Y-129855000D01*
X93710000Y-132588000D02*
X97536000Y-132588000D01*
X98855000Y-133907000D02*
X101727000Y-133907000D01*
X97536000Y-132588000D02*
X98855000Y-133907000D01*
D32*
X96774000Y-131826000D02*
X97536000Y-132588000D01*
X96774000Y-122174000D02*
X96774000Y-121285000D01*
X96774000Y-122174000D02*
X96774000Y-131826000D01*
X95885000Y-120396000D02*
X95885000Y-117983000D01*
X96774000Y-121285000D02*
X95885000Y-120396000D01*
X96906500Y-117983000D02*
X95885000Y-117983000D01*
X95885000Y-117099000D02*
X95951000Y-117033000D01*
X95885000Y-117983000D02*
X95885000Y-117099000D01*
X95951000Y-117033000D02*
X96906500Y-117033000D01*
D34*
%TO.N,Net-(D202-Pad2)*%
X101854000Y-118796000D02*
X101854000Y-121428000D01*
X99181500Y-118933000D02*
X100650000Y-118933000D01*
X100787000Y-118796000D02*
X101854000Y-118796000D01*
X100650000Y-118933000D02*
X100787000Y-118796000D01*
D32*
%TO.N,Net-(R205-Pad2)*%
X98044000Y-115316000D02*
X98044000Y-116078000D01*
X97284000Y-115316000D02*
X98044000Y-115316000D01*
X98044000Y-115316000D02*
X98802000Y-115316000D01*
X98999000Y-117033000D02*
X99181500Y-117033000D01*
X98044000Y-116078000D02*
X98999000Y-117033000D01*
%TO.N,/RST*%
X98675000Y-101096000D02*
X98679000Y-101092000D01*
X96491500Y-101096000D02*
X98675000Y-101096000D01*
%TO.N,/BOOT0*%
X93091000Y-105520500D02*
X93079000Y-105508500D01*
X93091000Y-107569000D02*
X93091000Y-105520500D01*
%TO.N,/LED1*%
X96491500Y-102596000D02*
X101874000Y-102596000D01*
X102616000Y-101854000D02*
X104900000Y-101854000D01*
X101874000Y-102596000D02*
X102616000Y-101854000D01*
%TO.N,/BTN2*%
X96491500Y-103096000D02*
X101318000Y-103096000D01*
X102616000Y-104394000D02*
X104900000Y-104394000D01*
X101318000Y-103096000D02*
X102616000Y-104394000D01*
%TO.N,/BTN1*%
X96491500Y-103596000D02*
X100040000Y-103596000D01*
X103378000Y-106934000D02*
X104900000Y-106934000D01*
X100040000Y-103596000D02*
X103378000Y-106934000D01*
%TO.N,Net-(J101-Pad3)*%
X105920000Y-101854000D02*
X109220000Y-101854000D01*
%TO.N,Net-(J101-Pad2)*%
X105920000Y-104394000D02*
X109220000Y-104394000D01*
%TO.N,Net-(J101-Pad1)*%
X105920000Y-106934000D02*
X109220000Y-106934000D01*
%TD*%
M02*
