%TF.GenerationSoftware,KiCad,Pcbnew,(5.1.7-0-10_14)*%
%TF.CreationDate,2021-07-25T17:44:21+03:00*%
%TF.ProjectId,sdisfp,73646973-6670-42e6-9b69-6361645f7063,rev?*%
%TF.SameCoordinates,Original*%
%TF.FileFunction,Soldermask,Top*%
%TF.FilePolarity,Negative*%
%FSLAX46Y46*%
G04 Gerber Fmt 4.6, Leading zero omitted, Abs format (unit mm)*
G04 Created by KiCad (PCBNEW (5.1.7-0-10_14)) date 2021-07-25 17:44:21*
%MOMM*%
%LPD*%
G01*
G04 APERTURE LIST*
%ADD10R,3.500000X3.500000*%
%ADD11R,3.600000X2.700000*%
%ADD12R,4.000000X2.850000*%
%ADD13C,1.270000*%
%ADD14R,2.100000X2.100000*%
%ADD15O,1.700000X1.700000*%
%ADD16R,1.700000X1.700000*%
%ADD17C,5.600000*%
%ADD18O,1.600000X2.500000*%
%ADD19O,3.500000X7.000000*%
%ADD20R,3.000000X2.290000*%
%ADD21R,0.900000X0.800000*%
%ADD22R,0.800000X0.900000*%
%ADD23R,1.500000X2.200000*%
%ADD24R,1.300000X1.600000*%
%ADD25R,0.500000X2.000000*%
%ADD26C,2.000000*%
%ADD27R,2.000000X2.000000*%
%ADD28C,1.500000*%
G04 APERTURE END LIST*
%TO.C,J204*%
G36*
G01*
X86474000Y-134226500D02*
X84724000Y-134226500D01*
G75*
G02*
X83849000Y-133351500I0J875000D01*
G01*
X83849000Y-131601500D01*
G75*
G02*
X84724000Y-130726500I875000J0D01*
G01*
X86474000Y-130726500D01*
G75*
G02*
X87349000Y-131601500I0J-875000D01*
G01*
X87349000Y-133351500D01*
G75*
G02*
X86474000Y-134226500I-875000J0D01*
G01*
G37*
G36*
G01*
X81899000Y-136976500D02*
X79899000Y-136976500D01*
G75*
G02*
X79149000Y-136226500I0J750000D01*
G01*
X79149000Y-134726500D01*
G75*
G02*
X79899000Y-133976500I750000J0D01*
G01*
X81899000Y-133976500D01*
G75*
G02*
X82649000Y-134726500I0J-750000D01*
G01*
X82649000Y-136226500D01*
G75*
G02*
X81899000Y-136976500I-750000J0D01*
G01*
G37*
D10*
X80899000Y-129476500D03*
%TD*%
D11*
%TO.C,L202*%
X101854000Y-129728000D03*
X101854000Y-121428000D03*
%TD*%
D12*
%TO.C,U101*%
X63770000Y-89916000D03*
G36*
G01*
X66595000Y-92041000D02*
X66795000Y-92041000D01*
G75*
G02*
X66895000Y-92141000I0J-100000D01*
G01*
X66895000Y-93416000D01*
G75*
G02*
X66795000Y-93516000I-100000J0D01*
G01*
X66595000Y-93516000D01*
G75*
G02*
X66495000Y-93416000I0J100000D01*
G01*
X66495000Y-92141000D01*
G75*
G02*
X66595000Y-92041000I100000J0D01*
G01*
G37*
G36*
G01*
X65945000Y-92041000D02*
X66145000Y-92041000D01*
G75*
G02*
X66245000Y-92141000I0J-100000D01*
G01*
X66245000Y-93416000D01*
G75*
G02*
X66145000Y-93516000I-100000J0D01*
G01*
X65945000Y-93516000D01*
G75*
G02*
X65845000Y-93416000I0J100000D01*
G01*
X65845000Y-92141000D01*
G75*
G02*
X65945000Y-92041000I100000J0D01*
G01*
G37*
G36*
G01*
X65295000Y-92041000D02*
X65495000Y-92041000D01*
G75*
G02*
X65595000Y-92141000I0J-100000D01*
G01*
X65595000Y-93416000D01*
G75*
G02*
X65495000Y-93516000I-100000J0D01*
G01*
X65295000Y-93516000D01*
G75*
G02*
X65195000Y-93416000I0J100000D01*
G01*
X65195000Y-92141000D01*
G75*
G02*
X65295000Y-92041000I100000J0D01*
G01*
G37*
G36*
G01*
X64645000Y-92041000D02*
X64845000Y-92041000D01*
G75*
G02*
X64945000Y-92141000I0J-100000D01*
G01*
X64945000Y-93416000D01*
G75*
G02*
X64845000Y-93516000I-100000J0D01*
G01*
X64645000Y-93516000D01*
G75*
G02*
X64545000Y-93416000I0J100000D01*
G01*
X64545000Y-92141000D01*
G75*
G02*
X64645000Y-92041000I100000J0D01*
G01*
G37*
G36*
G01*
X63995000Y-92041000D02*
X64195000Y-92041000D01*
G75*
G02*
X64295000Y-92141000I0J-100000D01*
G01*
X64295000Y-93416000D01*
G75*
G02*
X64195000Y-93516000I-100000J0D01*
G01*
X63995000Y-93516000D01*
G75*
G02*
X63895000Y-93416000I0J100000D01*
G01*
X63895000Y-92141000D01*
G75*
G02*
X63995000Y-92041000I100000J0D01*
G01*
G37*
G36*
G01*
X63345000Y-92041000D02*
X63545000Y-92041000D01*
G75*
G02*
X63645000Y-92141000I0J-100000D01*
G01*
X63645000Y-93416000D01*
G75*
G02*
X63545000Y-93516000I-100000J0D01*
G01*
X63345000Y-93516000D01*
G75*
G02*
X63245000Y-93416000I0J100000D01*
G01*
X63245000Y-92141000D01*
G75*
G02*
X63345000Y-92041000I100000J0D01*
G01*
G37*
G36*
G01*
X62695000Y-92041000D02*
X62895000Y-92041000D01*
G75*
G02*
X62995000Y-92141000I0J-100000D01*
G01*
X62995000Y-93416000D01*
G75*
G02*
X62895000Y-93516000I-100000J0D01*
G01*
X62695000Y-93516000D01*
G75*
G02*
X62595000Y-93416000I0J100000D01*
G01*
X62595000Y-92141000D01*
G75*
G02*
X62695000Y-92041000I100000J0D01*
G01*
G37*
G36*
G01*
X62045000Y-92041000D02*
X62245000Y-92041000D01*
G75*
G02*
X62345000Y-92141000I0J-100000D01*
G01*
X62345000Y-93416000D01*
G75*
G02*
X62245000Y-93516000I-100000J0D01*
G01*
X62045000Y-93516000D01*
G75*
G02*
X61945000Y-93416000I0J100000D01*
G01*
X61945000Y-92141000D01*
G75*
G02*
X62045000Y-92041000I100000J0D01*
G01*
G37*
G36*
G01*
X61395000Y-92041000D02*
X61595000Y-92041000D01*
G75*
G02*
X61695000Y-92141000I0J-100000D01*
G01*
X61695000Y-93416000D01*
G75*
G02*
X61595000Y-93516000I-100000J0D01*
G01*
X61395000Y-93516000D01*
G75*
G02*
X61295000Y-93416000I0J100000D01*
G01*
X61295000Y-92141000D01*
G75*
G02*
X61395000Y-92041000I100000J0D01*
G01*
G37*
G36*
G01*
X60745000Y-92041000D02*
X60945000Y-92041000D01*
G75*
G02*
X61045000Y-92141000I0J-100000D01*
G01*
X61045000Y-93416000D01*
G75*
G02*
X60945000Y-93516000I-100000J0D01*
G01*
X60745000Y-93516000D01*
G75*
G02*
X60645000Y-93416000I0J100000D01*
G01*
X60645000Y-92141000D01*
G75*
G02*
X60745000Y-92041000I100000J0D01*
G01*
G37*
G36*
G01*
X60745000Y-86316000D02*
X60945000Y-86316000D01*
G75*
G02*
X61045000Y-86416000I0J-100000D01*
G01*
X61045000Y-87691000D01*
G75*
G02*
X60945000Y-87791000I-100000J0D01*
G01*
X60745000Y-87791000D01*
G75*
G02*
X60645000Y-87691000I0J100000D01*
G01*
X60645000Y-86416000D01*
G75*
G02*
X60745000Y-86316000I100000J0D01*
G01*
G37*
G36*
G01*
X61395000Y-86316000D02*
X61595000Y-86316000D01*
G75*
G02*
X61695000Y-86416000I0J-100000D01*
G01*
X61695000Y-87691000D01*
G75*
G02*
X61595000Y-87791000I-100000J0D01*
G01*
X61395000Y-87791000D01*
G75*
G02*
X61295000Y-87691000I0J100000D01*
G01*
X61295000Y-86416000D01*
G75*
G02*
X61395000Y-86316000I100000J0D01*
G01*
G37*
G36*
G01*
X62045000Y-86316000D02*
X62245000Y-86316000D01*
G75*
G02*
X62345000Y-86416000I0J-100000D01*
G01*
X62345000Y-87691000D01*
G75*
G02*
X62245000Y-87791000I-100000J0D01*
G01*
X62045000Y-87791000D01*
G75*
G02*
X61945000Y-87691000I0J100000D01*
G01*
X61945000Y-86416000D01*
G75*
G02*
X62045000Y-86316000I100000J0D01*
G01*
G37*
G36*
G01*
X62695000Y-86316000D02*
X62895000Y-86316000D01*
G75*
G02*
X62995000Y-86416000I0J-100000D01*
G01*
X62995000Y-87691000D01*
G75*
G02*
X62895000Y-87791000I-100000J0D01*
G01*
X62695000Y-87791000D01*
G75*
G02*
X62595000Y-87691000I0J100000D01*
G01*
X62595000Y-86416000D01*
G75*
G02*
X62695000Y-86316000I100000J0D01*
G01*
G37*
G36*
G01*
X63345000Y-86316000D02*
X63545000Y-86316000D01*
G75*
G02*
X63645000Y-86416000I0J-100000D01*
G01*
X63645000Y-87691000D01*
G75*
G02*
X63545000Y-87791000I-100000J0D01*
G01*
X63345000Y-87791000D01*
G75*
G02*
X63245000Y-87691000I0J100000D01*
G01*
X63245000Y-86416000D01*
G75*
G02*
X63345000Y-86316000I100000J0D01*
G01*
G37*
G36*
G01*
X63995000Y-86316000D02*
X64195000Y-86316000D01*
G75*
G02*
X64295000Y-86416000I0J-100000D01*
G01*
X64295000Y-87691000D01*
G75*
G02*
X64195000Y-87791000I-100000J0D01*
G01*
X63995000Y-87791000D01*
G75*
G02*
X63895000Y-87691000I0J100000D01*
G01*
X63895000Y-86416000D01*
G75*
G02*
X63995000Y-86316000I100000J0D01*
G01*
G37*
G36*
G01*
X64645000Y-86316000D02*
X64845000Y-86316000D01*
G75*
G02*
X64945000Y-86416000I0J-100000D01*
G01*
X64945000Y-87691000D01*
G75*
G02*
X64845000Y-87791000I-100000J0D01*
G01*
X64645000Y-87791000D01*
G75*
G02*
X64545000Y-87691000I0J100000D01*
G01*
X64545000Y-86416000D01*
G75*
G02*
X64645000Y-86316000I100000J0D01*
G01*
G37*
G36*
G01*
X65295000Y-86316000D02*
X65495000Y-86316000D01*
G75*
G02*
X65595000Y-86416000I0J-100000D01*
G01*
X65595000Y-87691000D01*
G75*
G02*
X65495000Y-87791000I-100000J0D01*
G01*
X65295000Y-87791000D01*
G75*
G02*
X65195000Y-87691000I0J100000D01*
G01*
X65195000Y-86416000D01*
G75*
G02*
X65295000Y-86316000I100000J0D01*
G01*
G37*
G36*
G01*
X65945000Y-86316000D02*
X66145000Y-86316000D01*
G75*
G02*
X66245000Y-86416000I0J-100000D01*
G01*
X66245000Y-87691000D01*
G75*
G02*
X66145000Y-87791000I-100000J0D01*
G01*
X65945000Y-87791000D01*
G75*
G02*
X65845000Y-87691000I0J100000D01*
G01*
X65845000Y-86416000D01*
G75*
G02*
X65945000Y-86316000I100000J0D01*
G01*
G37*
G36*
G01*
X66595000Y-86316000D02*
X66795000Y-86316000D01*
G75*
G02*
X66895000Y-86416000I0J-100000D01*
G01*
X66895000Y-87691000D01*
G75*
G02*
X66795000Y-87791000I-100000J0D01*
G01*
X66595000Y-87791000D01*
G75*
G02*
X66495000Y-87691000I0J100000D01*
G01*
X66495000Y-86416000D01*
G75*
G02*
X66595000Y-86316000I100000J0D01*
G01*
G37*
D13*
X65040000Y-89154000D03*
X63770000Y-90678000D03*
X62500000Y-89154000D03*
X65040000Y-90678000D03*
X62500000Y-90678000D03*
X63770000Y-89154000D03*
%TD*%
%TO.C,C8*%
G36*
G01*
X94669000Y-107399000D02*
X94669000Y-107739000D01*
G75*
G02*
X94529000Y-107879000I-140000J0D01*
G01*
X94249000Y-107879000D01*
G75*
G02*
X94109000Y-107739000I0J140000D01*
G01*
X94109000Y-107399000D01*
G75*
G02*
X94249000Y-107259000I140000J0D01*
G01*
X94529000Y-107259000D01*
G75*
G02*
X94669000Y-107399000I0J-140000D01*
G01*
G37*
G36*
G01*
X95629000Y-107399000D02*
X95629000Y-107739000D01*
G75*
G02*
X95489000Y-107879000I-140000J0D01*
G01*
X95209000Y-107879000D01*
G75*
G02*
X95069000Y-107739000I0J140000D01*
G01*
X95069000Y-107399000D01*
G75*
G02*
X95209000Y-107259000I140000J0D01*
G01*
X95489000Y-107259000D01*
G75*
G02*
X95629000Y-107399000I0J-140000D01*
G01*
G37*
%TD*%
%TO.C,C5*%
G36*
G01*
X99652000Y-100784000D02*
X99992000Y-100784000D01*
G75*
G02*
X100132000Y-100924000I0J-140000D01*
G01*
X100132000Y-101204000D01*
G75*
G02*
X99992000Y-101344000I-140000J0D01*
G01*
X99652000Y-101344000D01*
G75*
G02*
X99512000Y-101204000I0J140000D01*
G01*
X99512000Y-100924000D01*
G75*
G02*
X99652000Y-100784000I140000J0D01*
G01*
G37*
G36*
G01*
X99652000Y-99824000D02*
X99992000Y-99824000D01*
G75*
G02*
X100132000Y-99964000I0J-140000D01*
G01*
X100132000Y-100244000D01*
G75*
G02*
X99992000Y-100384000I-140000J0D01*
G01*
X99652000Y-100384000D01*
G75*
G02*
X99512000Y-100244000I0J140000D01*
G01*
X99512000Y-99964000D01*
G75*
G02*
X99652000Y-99824000I140000J0D01*
G01*
G37*
%TD*%
%TO.C,C4*%
G36*
G01*
X86403000Y-103841000D02*
X86063000Y-103841000D01*
G75*
G02*
X85923000Y-103701000I0J140000D01*
G01*
X85923000Y-103421000D01*
G75*
G02*
X86063000Y-103281000I140000J0D01*
G01*
X86403000Y-103281000D01*
G75*
G02*
X86543000Y-103421000I0J-140000D01*
G01*
X86543000Y-103701000D01*
G75*
G02*
X86403000Y-103841000I-140000J0D01*
G01*
G37*
G36*
G01*
X86403000Y-104801000D02*
X86063000Y-104801000D01*
G75*
G02*
X85923000Y-104661000I0J140000D01*
G01*
X85923000Y-104381000D01*
G75*
G02*
X86063000Y-104241000I140000J0D01*
G01*
X86403000Y-104241000D01*
G75*
G02*
X86543000Y-104381000I0J-140000D01*
G01*
X86543000Y-104661000D01*
G75*
G02*
X86403000Y-104801000I-140000J0D01*
G01*
G37*
%TD*%
%TO.C,C3*%
G36*
G01*
X87783000Y-96731000D02*
X87783000Y-97071000D01*
G75*
G02*
X87643000Y-97211000I-140000J0D01*
G01*
X87363000Y-97211000D01*
G75*
G02*
X87223000Y-97071000I0J140000D01*
G01*
X87223000Y-96731000D01*
G75*
G02*
X87363000Y-96591000I140000J0D01*
G01*
X87643000Y-96591000D01*
G75*
G02*
X87783000Y-96731000I0J-140000D01*
G01*
G37*
G36*
G01*
X88743000Y-96731000D02*
X88743000Y-97071000D01*
G75*
G02*
X88603000Y-97211000I-140000J0D01*
G01*
X88323000Y-97211000D01*
G75*
G02*
X88183000Y-97071000I0J140000D01*
G01*
X88183000Y-96731000D01*
G75*
G02*
X88323000Y-96591000I140000J0D01*
G01*
X88603000Y-96591000D01*
G75*
G02*
X88743000Y-96731000I0J-140000D01*
G01*
G37*
%TD*%
D14*
%TO.C,U102*%
X74818000Y-90058000D03*
G36*
G01*
X73218000Y-91183000D02*
X72518000Y-91183000D01*
G75*
G02*
X72443000Y-91108000I0J75000D01*
G01*
X72443000Y-90958000D01*
G75*
G02*
X72518000Y-90883000I75000J0D01*
G01*
X73218000Y-90883000D01*
G75*
G02*
X73293000Y-90958000I0J-75000D01*
G01*
X73293000Y-91108000D01*
G75*
G02*
X73218000Y-91183000I-75000J0D01*
G01*
G37*
G36*
G01*
X73218000Y-90533000D02*
X72518000Y-90533000D01*
G75*
G02*
X72443000Y-90458000I0J75000D01*
G01*
X72443000Y-90308000D01*
G75*
G02*
X72518000Y-90233000I75000J0D01*
G01*
X73218000Y-90233000D01*
G75*
G02*
X73293000Y-90308000I0J-75000D01*
G01*
X73293000Y-90458000D01*
G75*
G02*
X73218000Y-90533000I-75000J0D01*
G01*
G37*
G36*
G01*
X73218000Y-89883000D02*
X72518000Y-89883000D01*
G75*
G02*
X72443000Y-89808000I0J75000D01*
G01*
X72443000Y-89658000D01*
G75*
G02*
X72518000Y-89583000I75000J0D01*
G01*
X73218000Y-89583000D01*
G75*
G02*
X73293000Y-89658000I0J-75000D01*
G01*
X73293000Y-89808000D01*
G75*
G02*
X73218000Y-89883000I-75000J0D01*
G01*
G37*
G36*
G01*
X73218000Y-89233000D02*
X72518000Y-89233000D01*
G75*
G02*
X72443000Y-89158000I0J75000D01*
G01*
X72443000Y-89008000D01*
G75*
G02*
X72518000Y-88933000I75000J0D01*
G01*
X73218000Y-88933000D01*
G75*
G02*
X73293000Y-89008000I0J-75000D01*
G01*
X73293000Y-89158000D01*
G75*
G02*
X73218000Y-89233000I-75000J0D01*
G01*
G37*
G36*
G01*
X73918000Y-88533000D02*
X73768000Y-88533000D01*
G75*
G02*
X73693000Y-88458000I0J75000D01*
G01*
X73693000Y-87758000D01*
G75*
G02*
X73768000Y-87683000I75000J0D01*
G01*
X73918000Y-87683000D01*
G75*
G02*
X73993000Y-87758000I0J-75000D01*
G01*
X73993000Y-88458000D01*
G75*
G02*
X73918000Y-88533000I-75000J0D01*
G01*
G37*
G36*
G01*
X74568000Y-88533000D02*
X74418000Y-88533000D01*
G75*
G02*
X74343000Y-88458000I0J75000D01*
G01*
X74343000Y-87758000D01*
G75*
G02*
X74418000Y-87683000I75000J0D01*
G01*
X74568000Y-87683000D01*
G75*
G02*
X74643000Y-87758000I0J-75000D01*
G01*
X74643000Y-88458000D01*
G75*
G02*
X74568000Y-88533000I-75000J0D01*
G01*
G37*
G36*
G01*
X75218000Y-88533000D02*
X75068000Y-88533000D01*
G75*
G02*
X74993000Y-88458000I0J75000D01*
G01*
X74993000Y-87758000D01*
G75*
G02*
X75068000Y-87683000I75000J0D01*
G01*
X75218000Y-87683000D01*
G75*
G02*
X75293000Y-87758000I0J-75000D01*
G01*
X75293000Y-88458000D01*
G75*
G02*
X75218000Y-88533000I-75000J0D01*
G01*
G37*
G36*
G01*
X75868000Y-88533000D02*
X75718000Y-88533000D01*
G75*
G02*
X75643000Y-88458000I0J75000D01*
G01*
X75643000Y-87758000D01*
G75*
G02*
X75718000Y-87683000I75000J0D01*
G01*
X75868000Y-87683000D01*
G75*
G02*
X75943000Y-87758000I0J-75000D01*
G01*
X75943000Y-88458000D01*
G75*
G02*
X75868000Y-88533000I-75000J0D01*
G01*
G37*
G36*
G01*
X77118000Y-89233000D02*
X76418000Y-89233000D01*
G75*
G02*
X76343000Y-89158000I0J75000D01*
G01*
X76343000Y-89008000D01*
G75*
G02*
X76418000Y-88933000I75000J0D01*
G01*
X77118000Y-88933000D01*
G75*
G02*
X77193000Y-89008000I0J-75000D01*
G01*
X77193000Y-89158000D01*
G75*
G02*
X77118000Y-89233000I-75000J0D01*
G01*
G37*
G36*
G01*
X77118000Y-89883000D02*
X76418000Y-89883000D01*
G75*
G02*
X76343000Y-89808000I0J75000D01*
G01*
X76343000Y-89658000D01*
G75*
G02*
X76418000Y-89583000I75000J0D01*
G01*
X77118000Y-89583000D01*
G75*
G02*
X77193000Y-89658000I0J-75000D01*
G01*
X77193000Y-89808000D01*
G75*
G02*
X77118000Y-89883000I-75000J0D01*
G01*
G37*
G36*
G01*
X77118000Y-90533000D02*
X76418000Y-90533000D01*
G75*
G02*
X76343000Y-90458000I0J75000D01*
G01*
X76343000Y-90308000D01*
G75*
G02*
X76418000Y-90233000I75000J0D01*
G01*
X77118000Y-90233000D01*
G75*
G02*
X77193000Y-90308000I0J-75000D01*
G01*
X77193000Y-90458000D01*
G75*
G02*
X77118000Y-90533000I-75000J0D01*
G01*
G37*
G36*
G01*
X77118000Y-91183000D02*
X76418000Y-91183000D01*
G75*
G02*
X76343000Y-91108000I0J75000D01*
G01*
X76343000Y-90958000D01*
G75*
G02*
X76418000Y-90883000I75000J0D01*
G01*
X77118000Y-90883000D01*
G75*
G02*
X77193000Y-90958000I0J-75000D01*
G01*
X77193000Y-91108000D01*
G75*
G02*
X77118000Y-91183000I-75000J0D01*
G01*
G37*
G36*
G01*
X75868000Y-92433000D02*
X75718000Y-92433000D01*
G75*
G02*
X75643000Y-92358000I0J75000D01*
G01*
X75643000Y-91658000D01*
G75*
G02*
X75718000Y-91583000I75000J0D01*
G01*
X75868000Y-91583000D01*
G75*
G02*
X75943000Y-91658000I0J-75000D01*
G01*
X75943000Y-92358000D01*
G75*
G02*
X75868000Y-92433000I-75000J0D01*
G01*
G37*
G36*
G01*
X75218000Y-92433000D02*
X75068000Y-92433000D01*
G75*
G02*
X74993000Y-92358000I0J75000D01*
G01*
X74993000Y-91658000D01*
G75*
G02*
X75068000Y-91583000I75000J0D01*
G01*
X75218000Y-91583000D01*
G75*
G02*
X75293000Y-91658000I0J-75000D01*
G01*
X75293000Y-92358000D01*
G75*
G02*
X75218000Y-92433000I-75000J0D01*
G01*
G37*
G36*
G01*
X74568000Y-92433000D02*
X74418000Y-92433000D01*
G75*
G02*
X74343000Y-92358000I0J75000D01*
G01*
X74343000Y-91658000D01*
G75*
G02*
X74418000Y-91583000I75000J0D01*
G01*
X74568000Y-91583000D01*
G75*
G02*
X74643000Y-91658000I0J-75000D01*
G01*
X74643000Y-92358000D01*
G75*
G02*
X74568000Y-92433000I-75000J0D01*
G01*
G37*
G36*
G01*
X73918000Y-92433000D02*
X73768000Y-92433000D01*
G75*
G02*
X73693000Y-92358000I0J75000D01*
G01*
X73693000Y-91658000D01*
G75*
G02*
X73768000Y-91583000I75000J0D01*
G01*
X73918000Y-91583000D01*
G75*
G02*
X73993000Y-91658000I0J-75000D01*
G01*
X73993000Y-92358000D01*
G75*
G02*
X73918000Y-92433000I-75000J0D01*
G01*
G37*
%TD*%
%TO.C,R116*%
G36*
G01*
X105650000Y-102039000D02*
X105650000Y-101669000D01*
G75*
G02*
X105785000Y-101534000I135000J0D01*
G01*
X106055000Y-101534000D01*
G75*
G02*
X106190000Y-101669000I0J-135000D01*
G01*
X106190000Y-102039000D01*
G75*
G02*
X106055000Y-102174000I-135000J0D01*
G01*
X105785000Y-102174000D01*
G75*
G02*
X105650000Y-102039000I0J135000D01*
G01*
G37*
G36*
G01*
X104630000Y-102039000D02*
X104630000Y-101669000D01*
G75*
G02*
X104765000Y-101534000I135000J0D01*
G01*
X105035000Y-101534000D01*
G75*
G02*
X105170000Y-101669000I0J-135000D01*
G01*
X105170000Y-102039000D01*
G75*
G02*
X105035000Y-102174000I-135000J0D01*
G01*
X104765000Y-102174000D01*
G75*
G02*
X104630000Y-102039000I0J135000D01*
G01*
G37*
%TD*%
%TO.C,R115*%
G36*
G01*
X105650000Y-104579000D02*
X105650000Y-104209000D01*
G75*
G02*
X105785000Y-104074000I135000J0D01*
G01*
X106055000Y-104074000D01*
G75*
G02*
X106190000Y-104209000I0J-135000D01*
G01*
X106190000Y-104579000D01*
G75*
G02*
X106055000Y-104714000I-135000J0D01*
G01*
X105785000Y-104714000D01*
G75*
G02*
X105650000Y-104579000I0J135000D01*
G01*
G37*
G36*
G01*
X104630000Y-104579000D02*
X104630000Y-104209000D01*
G75*
G02*
X104765000Y-104074000I135000J0D01*
G01*
X105035000Y-104074000D01*
G75*
G02*
X105170000Y-104209000I0J-135000D01*
G01*
X105170000Y-104579000D01*
G75*
G02*
X105035000Y-104714000I-135000J0D01*
G01*
X104765000Y-104714000D01*
G75*
G02*
X104630000Y-104579000I0J135000D01*
G01*
G37*
%TD*%
%TO.C,R114*%
G36*
G01*
X105650000Y-107119000D02*
X105650000Y-106749000D01*
G75*
G02*
X105785000Y-106614000I135000J0D01*
G01*
X106055000Y-106614000D01*
G75*
G02*
X106190000Y-106749000I0J-135000D01*
G01*
X106190000Y-107119000D01*
G75*
G02*
X106055000Y-107254000I-135000J0D01*
G01*
X105785000Y-107254000D01*
G75*
G02*
X105650000Y-107119000I0J135000D01*
G01*
G37*
G36*
G01*
X104630000Y-107119000D02*
X104630000Y-106749000D01*
G75*
G02*
X104765000Y-106614000I135000J0D01*
G01*
X105035000Y-106614000D01*
G75*
G02*
X105170000Y-106749000I0J-135000D01*
G01*
X105170000Y-107119000D01*
G75*
G02*
X105035000Y-107254000I-135000J0D01*
G01*
X104765000Y-107254000D01*
G75*
G02*
X104630000Y-107119000I0J135000D01*
G01*
G37*
%TD*%
D15*
%TO.C,J101*%
X109220000Y-99314000D03*
X109220000Y-101854000D03*
X109220000Y-104394000D03*
D16*
X109220000Y-106934000D03*
%TD*%
%TO.C,C203*%
G36*
G01*
X84516800Y-122570001D02*
X84516800Y-121269999D01*
G75*
G02*
X84766799Y-121020000I249999J0D01*
G01*
X85416801Y-121020000D01*
G75*
G02*
X85666800Y-121269999I0J-249999D01*
G01*
X85666800Y-122570001D01*
G75*
G02*
X85416801Y-122820000I-249999J0D01*
G01*
X84766799Y-122820000D01*
G75*
G02*
X84516800Y-122570001I0J249999D01*
G01*
G37*
G36*
G01*
X81566800Y-122570001D02*
X81566800Y-121269999D01*
G75*
G02*
X81816799Y-121020000I249999J0D01*
G01*
X82466801Y-121020000D01*
G75*
G02*
X82716800Y-121269999I0J-249999D01*
G01*
X82716800Y-122570001D01*
G75*
G02*
X82466801Y-122820000I-249999J0D01*
G01*
X81816799Y-122820000D01*
G75*
G02*
X81566800Y-122570001I0J249999D01*
G01*
G37*
%TD*%
%TO.C,C206*%
G36*
G01*
X91200400Y-115580399D02*
X91200400Y-116880401D01*
G75*
G02*
X90950401Y-117130400I-249999J0D01*
G01*
X90300399Y-117130400D01*
G75*
G02*
X90050400Y-116880401I0J249999D01*
G01*
X90050400Y-115580399D01*
G75*
G02*
X90300399Y-115330400I249999J0D01*
G01*
X90950401Y-115330400D01*
G75*
G02*
X91200400Y-115580399I0J-249999D01*
G01*
G37*
G36*
G01*
X94150400Y-115580399D02*
X94150400Y-116880401D01*
G75*
G02*
X93900401Y-117130400I-249999J0D01*
G01*
X93250399Y-117130400D01*
G75*
G02*
X93000400Y-116880401I0J249999D01*
G01*
X93000400Y-115580399D01*
G75*
G02*
X93250399Y-115330400I249999J0D01*
G01*
X93900401Y-115330400D01*
G75*
G02*
X94150400Y-115580399I0J-249999D01*
G01*
G37*
%TD*%
%TO.C,C102*%
G36*
G01*
X66595600Y-85412400D02*
X66595600Y-85072400D01*
G75*
G02*
X66735600Y-84932400I140000J0D01*
G01*
X67015600Y-84932400D01*
G75*
G02*
X67155600Y-85072400I0J-140000D01*
G01*
X67155600Y-85412400D01*
G75*
G02*
X67015600Y-85552400I-140000J0D01*
G01*
X66735600Y-85552400D01*
G75*
G02*
X66595600Y-85412400I0J140000D01*
G01*
G37*
G36*
G01*
X65635600Y-85412400D02*
X65635600Y-85072400D01*
G75*
G02*
X65775600Y-84932400I140000J0D01*
G01*
X66055600Y-84932400D01*
G75*
G02*
X66195600Y-85072400I0J-140000D01*
G01*
X66195600Y-85412400D01*
G75*
G02*
X66055600Y-85552400I-140000J0D01*
G01*
X65775600Y-85552400D01*
G75*
G02*
X65635600Y-85412400I0J140000D01*
G01*
G37*
%TD*%
%TO.C,C107*%
G36*
G01*
X71671000Y-91621000D02*
X71331000Y-91621000D01*
G75*
G02*
X71191000Y-91481000I0J140000D01*
G01*
X71191000Y-91201000D01*
G75*
G02*
X71331000Y-91061000I140000J0D01*
G01*
X71671000Y-91061000D01*
G75*
G02*
X71811000Y-91201000I0J-140000D01*
G01*
X71811000Y-91481000D01*
G75*
G02*
X71671000Y-91621000I-140000J0D01*
G01*
G37*
G36*
G01*
X71671000Y-92581000D02*
X71331000Y-92581000D01*
G75*
G02*
X71191000Y-92441000I0J140000D01*
G01*
X71191000Y-92161000D01*
G75*
G02*
X71331000Y-92021000I140000J0D01*
G01*
X71671000Y-92021000D01*
G75*
G02*
X71811000Y-92161000I0J-140000D01*
G01*
X71811000Y-92441000D01*
G75*
G02*
X71671000Y-92581000I-140000J0D01*
G01*
G37*
%TD*%
%TO.C,U202*%
G36*
G01*
X97569000Y-118783000D02*
X97569000Y-119083000D01*
G75*
G02*
X97419000Y-119233000I-150000J0D01*
G01*
X96394000Y-119233000D01*
G75*
G02*
X96244000Y-119083000I0J150000D01*
G01*
X96244000Y-118783000D01*
G75*
G02*
X96394000Y-118633000I150000J0D01*
G01*
X97419000Y-118633000D01*
G75*
G02*
X97569000Y-118783000I0J-150000D01*
G01*
G37*
G36*
G01*
X97569000Y-117833000D02*
X97569000Y-118133000D01*
G75*
G02*
X97419000Y-118283000I-150000J0D01*
G01*
X96394000Y-118283000D01*
G75*
G02*
X96244000Y-118133000I0J150000D01*
G01*
X96244000Y-117833000D01*
G75*
G02*
X96394000Y-117683000I150000J0D01*
G01*
X97419000Y-117683000D01*
G75*
G02*
X97569000Y-117833000I0J-150000D01*
G01*
G37*
G36*
G01*
X97569000Y-116883000D02*
X97569000Y-117183000D01*
G75*
G02*
X97419000Y-117333000I-150000J0D01*
G01*
X96394000Y-117333000D01*
G75*
G02*
X96244000Y-117183000I0J150000D01*
G01*
X96244000Y-116883000D01*
G75*
G02*
X96394000Y-116733000I150000J0D01*
G01*
X97419000Y-116733000D01*
G75*
G02*
X97569000Y-116883000I0J-150000D01*
G01*
G37*
G36*
G01*
X99844000Y-116883000D02*
X99844000Y-117183000D01*
G75*
G02*
X99694000Y-117333000I-150000J0D01*
G01*
X98669000Y-117333000D01*
G75*
G02*
X98519000Y-117183000I0J150000D01*
G01*
X98519000Y-116883000D01*
G75*
G02*
X98669000Y-116733000I150000J0D01*
G01*
X99694000Y-116733000D01*
G75*
G02*
X99844000Y-116883000I0J-150000D01*
G01*
G37*
G36*
G01*
X99844000Y-117833000D02*
X99844000Y-118133000D01*
G75*
G02*
X99694000Y-118283000I-150000J0D01*
G01*
X98669000Y-118283000D01*
G75*
G02*
X98519000Y-118133000I0J150000D01*
G01*
X98519000Y-117833000D01*
G75*
G02*
X98669000Y-117683000I150000J0D01*
G01*
X99694000Y-117683000D01*
G75*
G02*
X99844000Y-117833000I0J-150000D01*
G01*
G37*
G36*
G01*
X99844000Y-118783000D02*
X99844000Y-119083000D01*
G75*
G02*
X99694000Y-119233000I-150000J0D01*
G01*
X98669000Y-119233000D01*
G75*
G02*
X98519000Y-119083000I0J150000D01*
G01*
X98519000Y-118783000D01*
G75*
G02*
X98669000Y-118633000I150000J0D01*
G01*
X99694000Y-118633000D01*
G75*
G02*
X99844000Y-118783000I0J-150000D01*
G01*
G37*
%TD*%
%TO.C,R206*%
G36*
G01*
X96534000Y-115131000D02*
X96534000Y-115501000D01*
G75*
G02*
X96399000Y-115636000I-135000J0D01*
G01*
X96129000Y-115636000D01*
G75*
G02*
X95994000Y-115501000I0J135000D01*
G01*
X95994000Y-115131000D01*
G75*
G02*
X96129000Y-114996000I135000J0D01*
G01*
X96399000Y-114996000D01*
G75*
G02*
X96534000Y-115131000I0J-135000D01*
G01*
G37*
G36*
G01*
X97554000Y-115131000D02*
X97554000Y-115501000D01*
G75*
G02*
X97419000Y-115636000I-135000J0D01*
G01*
X97149000Y-115636000D01*
G75*
G02*
X97014000Y-115501000I0J135000D01*
G01*
X97014000Y-115131000D01*
G75*
G02*
X97149000Y-114996000I135000J0D01*
G01*
X97419000Y-114996000D01*
G75*
G02*
X97554000Y-115131000I0J-135000D01*
G01*
G37*
%TD*%
%TO.C,R205*%
G36*
G01*
X99072000Y-115131000D02*
X99072000Y-115501000D01*
G75*
G02*
X98937000Y-115636000I-135000J0D01*
G01*
X98667000Y-115636000D01*
G75*
G02*
X98532000Y-115501000I0J135000D01*
G01*
X98532000Y-115131000D01*
G75*
G02*
X98667000Y-114996000I135000J0D01*
G01*
X98937000Y-114996000D01*
G75*
G02*
X99072000Y-115131000I0J-135000D01*
G01*
G37*
G36*
G01*
X100092000Y-115131000D02*
X100092000Y-115501000D01*
G75*
G02*
X99957000Y-115636000I-135000J0D01*
G01*
X99687000Y-115636000D01*
G75*
G02*
X99552000Y-115501000I0J135000D01*
G01*
X99552000Y-115131000D01*
G75*
G02*
X99687000Y-114996000I135000J0D01*
G01*
X99957000Y-114996000D01*
G75*
G02*
X100092000Y-115131000I0J-135000D01*
G01*
G37*
%TD*%
%TO.C,D202*%
G36*
G01*
X101153999Y-118271000D02*
X102554001Y-118271000D01*
G75*
G02*
X102804000Y-118520999I0J-249999D01*
G01*
X102804000Y-119071001D01*
G75*
G02*
X102554001Y-119321000I-249999J0D01*
G01*
X101153999Y-119321000D01*
G75*
G02*
X100904000Y-119071001I0J249999D01*
G01*
X100904000Y-118520999D01*
G75*
G02*
X101153999Y-118271000I249999J0D01*
G01*
G37*
G36*
G01*
X101153999Y-115121000D02*
X102554001Y-115121000D01*
G75*
G02*
X102804000Y-115370999I0J-249999D01*
G01*
X102804000Y-115921001D01*
G75*
G02*
X102554001Y-116171000I-249999J0D01*
G01*
X101153999Y-116171000D01*
G75*
G02*
X100904000Y-115921001I0J249999D01*
G01*
X100904000Y-115370999D01*
G75*
G02*
X101153999Y-115121000I249999J0D01*
G01*
G37*
%TD*%
%TO.C,C209*%
G36*
G01*
X101076999Y-136282000D02*
X102377001Y-136282000D01*
G75*
G02*
X102627000Y-136531999I0J-249999D01*
G01*
X102627000Y-137182001D01*
G75*
G02*
X102377001Y-137432000I-249999J0D01*
G01*
X101076999Y-137432000D01*
G75*
G02*
X100827000Y-137182001I0J249999D01*
G01*
X100827000Y-136531999D01*
G75*
G02*
X101076999Y-136282000I249999J0D01*
G01*
G37*
G36*
G01*
X101076999Y-133332000D02*
X102377001Y-133332000D01*
G75*
G02*
X102627000Y-133581999I0J-249999D01*
G01*
X102627000Y-134232001D01*
G75*
G02*
X102377001Y-134482000I-249999J0D01*
G01*
X101076999Y-134482000D01*
G75*
G02*
X100827000Y-134232001I0J249999D01*
G01*
X100827000Y-133581999D01*
G75*
G02*
X101076999Y-133332000I249999J0D01*
G01*
G37*
%TD*%
%TO.C,C208*%
G36*
G01*
X107580000Y-116728001D02*
X107580000Y-115427999D01*
G75*
G02*
X107829999Y-115178000I249999J0D01*
G01*
X108480001Y-115178000D01*
G75*
G02*
X108730000Y-115427999I0J-249999D01*
G01*
X108730000Y-116728001D01*
G75*
G02*
X108480001Y-116978000I-249999J0D01*
G01*
X107829999Y-116978000D01*
G75*
G02*
X107580000Y-116728001I0J249999D01*
G01*
G37*
G36*
G01*
X104630000Y-116728001D02*
X104630000Y-115427999D01*
G75*
G02*
X104879999Y-115178000I249999J0D01*
G01*
X105530001Y-115178000D01*
G75*
G02*
X105780000Y-115427999I0J-249999D01*
G01*
X105780000Y-116728001D01*
G75*
G02*
X105530001Y-116978000I-249999J0D01*
G01*
X104879999Y-116978000D01*
G75*
G02*
X104630000Y-116728001I0J249999D01*
G01*
G37*
%TD*%
D17*
%TO.C,J7*%
X54610000Y-72009000D03*
%TD*%
D18*
%TO.C,J1*%
X57658000Y-63500000D03*
X60198000Y-63500000D03*
D19*
X65278000Y-58420000D03*
X55118000Y-58420000D03*
%TD*%
%TO.C,R112*%
G36*
G01*
X95871000Y-70670000D02*
X95871000Y-70300000D01*
G75*
G02*
X96006000Y-70165000I135000J0D01*
G01*
X96276000Y-70165000D01*
G75*
G02*
X96411000Y-70300000I0J-135000D01*
G01*
X96411000Y-70670000D01*
G75*
G02*
X96276000Y-70805000I-135000J0D01*
G01*
X96006000Y-70805000D01*
G75*
G02*
X95871000Y-70670000I0J135000D01*
G01*
G37*
G36*
G01*
X94851000Y-70670000D02*
X94851000Y-70300000D01*
G75*
G02*
X94986000Y-70165000I135000J0D01*
G01*
X95256000Y-70165000D01*
G75*
G02*
X95391000Y-70300000I0J-135000D01*
G01*
X95391000Y-70670000D01*
G75*
G02*
X95256000Y-70805000I-135000J0D01*
G01*
X94986000Y-70805000D01*
G75*
G02*
X94851000Y-70670000I0J135000D01*
G01*
G37*
%TD*%
%TO.C,R109*%
G36*
G01*
X97296000Y-75634000D02*
X97296000Y-76004000D01*
G75*
G02*
X97161000Y-76139000I-135000J0D01*
G01*
X96891000Y-76139000D01*
G75*
G02*
X96756000Y-76004000I0J135000D01*
G01*
X96756000Y-75634000D01*
G75*
G02*
X96891000Y-75499000I135000J0D01*
G01*
X97161000Y-75499000D01*
G75*
G02*
X97296000Y-75634000I0J-135000D01*
G01*
G37*
G36*
G01*
X98316000Y-75634000D02*
X98316000Y-76004000D01*
G75*
G02*
X98181000Y-76139000I-135000J0D01*
G01*
X97911000Y-76139000D01*
G75*
G02*
X97776000Y-76004000I0J135000D01*
G01*
X97776000Y-75634000D01*
G75*
G02*
X97911000Y-75499000I135000J0D01*
G01*
X98181000Y-75499000D01*
G75*
G02*
X98316000Y-75634000I0J-135000D01*
G01*
G37*
%TD*%
%TO.C,R108*%
G36*
G01*
X97296000Y-74110000D02*
X97296000Y-74480000D01*
G75*
G02*
X97161000Y-74615000I-135000J0D01*
G01*
X96891000Y-74615000D01*
G75*
G02*
X96756000Y-74480000I0J135000D01*
G01*
X96756000Y-74110000D01*
G75*
G02*
X96891000Y-73975000I135000J0D01*
G01*
X97161000Y-73975000D01*
G75*
G02*
X97296000Y-74110000I0J-135000D01*
G01*
G37*
G36*
G01*
X98316000Y-74110000D02*
X98316000Y-74480000D01*
G75*
G02*
X98181000Y-74615000I-135000J0D01*
G01*
X97911000Y-74615000D01*
G75*
G02*
X97776000Y-74480000I0J135000D01*
G01*
X97776000Y-74110000D01*
G75*
G02*
X97911000Y-73975000I135000J0D01*
G01*
X98181000Y-73975000D01*
G75*
G02*
X98316000Y-74110000I0J-135000D01*
G01*
G37*
%TD*%
%TO.C,R106*%
G36*
G01*
X89540500Y-81583500D02*
X89910500Y-81583500D01*
G75*
G02*
X90045500Y-81718500I0J-135000D01*
G01*
X90045500Y-81988500D01*
G75*
G02*
X89910500Y-82123500I-135000J0D01*
G01*
X89540500Y-82123500D01*
G75*
G02*
X89405500Y-81988500I0J135000D01*
G01*
X89405500Y-81718500D01*
G75*
G02*
X89540500Y-81583500I135000J0D01*
G01*
G37*
G36*
G01*
X89540500Y-80563500D02*
X89910500Y-80563500D01*
G75*
G02*
X90045500Y-80698500I0J-135000D01*
G01*
X90045500Y-80968500D01*
G75*
G02*
X89910500Y-81103500I-135000J0D01*
G01*
X89540500Y-81103500D01*
G75*
G02*
X89405500Y-80968500I0J135000D01*
G01*
X89405500Y-80698500D01*
G75*
G02*
X89540500Y-80563500I135000J0D01*
G01*
G37*
%TD*%
%TO.C,R103*%
G36*
G01*
X104660000Y-88969000D02*
X104660000Y-89339000D01*
G75*
G02*
X104525000Y-89474000I-135000J0D01*
G01*
X104255000Y-89474000D01*
G75*
G02*
X104120000Y-89339000I0J135000D01*
G01*
X104120000Y-88969000D01*
G75*
G02*
X104255000Y-88834000I135000J0D01*
G01*
X104525000Y-88834000D01*
G75*
G02*
X104660000Y-88969000I0J-135000D01*
G01*
G37*
G36*
G01*
X105680000Y-88969000D02*
X105680000Y-89339000D01*
G75*
G02*
X105545000Y-89474000I-135000J0D01*
G01*
X105275000Y-89474000D01*
G75*
G02*
X105140000Y-89339000I0J135000D01*
G01*
X105140000Y-88969000D01*
G75*
G02*
X105275000Y-88834000I135000J0D01*
G01*
X105545000Y-88834000D01*
G75*
G02*
X105680000Y-88969000I0J-135000D01*
G01*
G37*
%TD*%
%TO.C,R102*%
G36*
G01*
X104662000Y-94049000D02*
X104662000Y-94419000D01*
G75*
G02*
X104527000Y-94554000I-135000J0D01*
G01*
X104257000Y-94554000D01*
G75*
G02*
X104122000Y-94419000I0J135000D01*
G01*
X104122000Y-94049000D01*
G75*
G02*
X104257000Y-93914000I135000J0D01*
G01*
X104527000Y-93914000D01*
G75*
G02*
X104662000Y-94049000I0J-135000D01*
G01*
G37*
G36*
G01*
X105682000Y-94049000D02*
X105682000Y-94419000D01*
G75*
G02*
X105547000Y-94554000I-135000J0D01*
G01*
X105277000Y-94554000D01*
G75*
G02*
X105142000Y-94419000I0J135000D01*
G01*
X105142000Y-94049000D01*
G75*
G02*
X105277000Y-93914000I135000J0D01*
G01*
X105547000Y-93914000D01*
G75*
G02*
X105682000Y-94049000I0J-135000D01*
G01*
G37*
%TD*%
%TO.C,R101*%
G36*
G01*
X104662000Y-91509000D02*
X104662000Y-91879000D01*
G75*
G02*
X104527000Y-92014000I-135000J0D01*
G01*
X104257000Y-92014000D01*
G75*
G02*
X104122000Y-91879000I0J135000D01*
G01*
X104122000Y-91509000D01*
G75*
G02*
X104257000Y-91374000I135000J0D01*
G01*
X104527000Y-91374000D01*
G75*
G02*
X104662000Y-91509000I0J-135000D01*
G01*
G37*
G36*
G01*
X105682000Y-91509000D02*
X105682000Y-91879000D01*
G75*
G02*
X105547000Y-92014000I-135000J0D01*
G01*
X105277000Y-92014000D01*
G75*
G02*
X105142000Y-91879000I0J135000D01*
G01*
X105142000Y-91509000D01*
G75*
G02*
X105277000Y-91374000I135000J0D01*
G01*
X105547000Y-91374000D01*
G75*
G02*
X105682000Y-91509000I0J-135000D01*
G01*
G37*
%TD*%
%TO.C,R14*%
G36*
G01*
X79363000Y-70670000D02*
X79363000Y-70300000D01*
G75*
G02*
X79498000Y-70165000I135000J0D01*
G01*
X79768000Y-70165000D01*
G75*
G02*
X79903000Y-70300000I0J-135000D01*
G01*
X79903000Y-70670000D01*
G75*
G02*
X79768000Y-70805000I-135000J0D01*
G01*
X79498000Y-70805000D01*
G75*
G02*
X79363000Y-70670000I0J135000D01*
G01*
G37*
G36*
G01*
X78343000Y-70670000D02*
X78343000Y-70300000D01*
G75*
G02*
X78478000Y-70165000I135000J0D01*
G01*
X78748000Y-70165000D01*
G75*
G02*
X78883000Y-70300000I0J-135000D01*
G01*
X78883000Y-70670000D01*
G75*
G02*
X78748000Y-70805000I-135000J0D01*
G01*
X78478000Y-70805000D01*
G75*
G02*
X78343000Y-70670000I0J135000D01*
G01*
G37*
%TD*%
%TO.C,R13*%
G36*
G01*
X80784000Y-75634000D02*
X80784000Y-76004000D01*
G75*
G02*
X80649000Y-76139000I-135000J0D01*
G01*
X80379000Y-76139000D01*
G75*
G02*
X80244000Y-76004000I0J135000D01*
G01*
X80244000Y-75634000D01*
G75*
G02*
X80379000Y-75499000I135000J0D01*
G01*
X80649000Y-75499000D01*
G75*
G02*
X80784000Y-75634000I0J-135000D01*
G01*
G37*
G36*
G01*
X81804000Y-75634000D02*
X81804000Y-76004000D01*
G75*
G02*
X81669000Y-76139000I-135000J0D01*
G01*
X81399000Y-76139000D01*
G75*
G02*
X81264000Y-76004000I0J135000D01*
G01*
X81264000Y-75634000D01*
G75*
G02*
X81399000Y-75499000I135000J0D01*
G01*
X81669000Y-75499000D01*
G75*
G02*
X81804000Y-75634000I0J-135000D01*
G01*
G37*
%TD*%
%TO.C,R12*%
G36*
G01*
X80788000Y-74110000D02*
X80788000Y-74480000D01*
G75*
G02*
X80653000Y-74615000I-135000J0D01*
G01*
X80383000Y-74615000D01*
G75*
G02*
X80248000Y-74480000I0J135000D01*
G01*
X80248000Y-74110000D01*
G75*
G02*
X80383000Y-73975000I135000J0D01*
G01*
X80653000Y-73975000D01*
G75*
G02*
X80788000Y-74110000I0J-135000D01*
G01*
G37*
G36*
G01*
X81808000Y-74110000D02*
X81808000Y-74480000D01*
G75*
G02*
X81673000Y-74615000I-135000J0D01*
G01*
X81403000Y-74615000D01*
G75*
G02*
X81268000Y-74480000I0J135000D01*
G01*
X81268000Y-74110000D01*
G75*
G02*
X81403000Y-73975000I135000J0D01*
G01*
X81673000Y-73975000D01*
G75*
G02*
X81808000Y-74110000I0J-135000D01*
G01*
G37*
%TD*%
%TO.C,R10*%
G36*
G01*
X72967000Y-81583500D02*
X73337000Y-81583500D01*
G75*
G02*
X73472000Y-81718500I0J-135000D01*
G01*
X73472000Y-81988500D01*
G75*
G02*
X73337000Y-82123500I-135000J0D01*
G01*
X72967000Y-82123500D01*
G75*
G02*
X72832000Y-81988500I0J135000D01*
G01*
X72832000Y-81718500D01*
G75*
G02*
X72967000Y-81583500I135000J0D01*
G01*
G37*
G36*
G01*
X72967000Y-80563500D02*
X73337000Y-80563500D01*
G75*
G02*
X73472000Y-80698500I0J-135000D01*
G01*
X73472000Y-80968500D01*
G75*
G02*
X73337000Y-81103500I-135000J0D01*
G01*
X72967000Y-81103500D01*
G75*
G02*
X72832000Y-80968500I0J135000D01*
G01*
X72832000Y-80698500D01*
G75*
G02*
X72967000Y-80563500I135000J0D01*
G01*
G37*
%TD*%
%TO.C,R5*%
G36*
G01*
X59621000Y-71134000D02*
X59251000Y-71134000D01*
G75*
G02*
X59116000Y-70999000I0J135000D01*
G01*
X59116000Y-70729000D01*
G75*
G02*
X59251000Y-70594000I135000J0D01*
G01*
X59621000Y-70594000D01*
G75*
G02*
X59756000Y-70729000I0J-135000D01*
G01*
X59756000Y-70999000D01*
G75*
G02*
X59621000Y-71134000I-135000J0D01*
G01*
G37*
G36*
G01*
X59621000Y-72154000D02*
X59251000Y-72154000D01*
G75*
G02*
X59116000Y-72019000I0J135000D01*
G01*
X59116000Y-71749000D01*
G75*
G02*
X59251000Y-71614000I135000J0D01*
G01*
X59621000Y-71614000D01*
G75*
G02*
X59756000Y-71749000I0J-135000D01*
G01*
X59756000Y-72019000D01*
G75*
G02*
X59621000Y-72154000I-135000J0D01*
G01*
G37*
%TD*%
%TO.C,R4*%
G36*
G01*
X62599000Y-71559000D02*
X62599000Y-71189000D01*
G75*
G02*
X62734000Y-71054000I135000J0D01*
G01*
X63004000Y-71054000D01*
G75*
G02*
X63139000Y-71189000I0J-135000D01*
G01*
X63139000Y-71559000D01*
G75*
G02*
X63004000Y-71694000I-135000J0D01*
G01*
X62734000Y-71694000D01*
G75*
G02*
X62599000Y-71559000I0J135000D01*
G01*
G37*
G36*
G01*
X61579000Y-71559000D02*
X61579000Y-71189000D01*
G75*
G02*
X61714000Y-71054000I135000J0D01*
G01*
X61984000Y-71054000D01*
G75*
G02*
X62119000Y-71189000I0J-135000D01*
G01*
X62119000Y-71559000D01*
G75*
G02*
X61984000Y-71694000I-135000J0D01*
G01*
X61714000Y-71694000D01*
G75*
G02*
X61579000Y-71559000I0J135000D01*
G01*
G37*
%TD*%
%TO.C,R3*%
G36*
G01*
X60468000Y-67760000D02*
X60468000Y-68130000D01*
G75*
G02*
X60333000Y-68265000I-135000J0D01*
G01*
X60063000Y-68265000D01*
G75*
G02*
X59928000Y-68130000I0J135000D01*
G01*
X59928000Y-67760000D01*
G75*
G02*
X60063000Y-67625000I135000J0D01*
G01*
X60333000Y-67625000D01*
G75*
G02*
X60468000Y-67760000I0J-135000D01*
G01*
G37*
G36*
G01*
X61488000Y-67760000D02*
X61488000Y-68130000D01*
G75*
G02*
X61353000Y-68265000I-135000J0D01*
G01*
X61083000Y-68265000D01*
G75*
G02*
X60948000Y-68130000I0J135000D01*
G01*
X60948000Y-67760000D01*
G75*
G02*
X61083000Y-67625000I135000J0D01*
G01*
X61353000Y-67625000D01*
G75*
G02*
X61488000Y-67760000I0J-135000D01*
G01*
G37*
%TD*%
%TO.C,R2*%
G36*
G01*
X92906000Y-108319000D02*
X93276000Y-108319000D01*
G75*
G02*
X93411000Y-108454000I0J-135000D01*
G01*
X93411000Y-108724000D01*
G75*
G02*
X93276000Y-108859000I-135000J0D01*
G01*
X92906000Y-108859000D01*
G75*
G02*
X92771000Y-108724000I0J135000D01*
G01*
X92771000Y-108454000D01*
G75*
G02*
X92906000Y-108319000I135000J0D01*
G01*
G37*
G36*
G01*
X92906000Y-107299000D02*
X93276000Y-107299000D01*
G75*
G02*
X93411000Y-107434000I0J-135000D01*
G01*
X93411000Y-107704000D01*
G75*
G02*
X93276000Y-107839000I-135000J0D01*
G01*
X92906000Y-107839000D01*
G75*
G02*
X92771000Y-107704000I0J135000D01*
G01*
X92771000Y-107434000D01*
G75*
G02*
X92906000Y-107299000I135000J0D01*
G01*
G37*
%TD*%
%TO.C,R1*%
G36*
G01*
X98494000Y-100822000D02*
X98864000Y-100822000D01*
G75*
G02*
X98999000Y-100957000I0J-135000D01*
G01*
X98999000Y-101227000D01*
G75*
G02*
X98864000Y-101362000I-135000J0D01*
G01*
X98494000Y-101362000D01*
G75*
G02*
X98359000Y-101227000I0J135000D01*
G01*
X98359000Y-100957000D01*
G75*
G02*
X98494000Y-100822000I135000J0D01*
G01*
G37*
G36*
G01*
X98494000Y-99802000D02*
X98864000Y-99802000D01*
G75*
G02*
X98999000Y-99937000I0J-135000D01*
G01*
X98999000Y-100207000D01*
G75*
G02*
X98864000Y-100342000I-135000J0D01*
G01*
X98494000Y-100342000D01*
G75*
G02*
X98359000Y-100207000I0J135000D01*
G01*
X98359000Y-99937000D01*
G75*
G02*
X98494000Y-99802000I135000J0D01*
G01*
G37*
%TD*%
%TO.C,L2*%
G36*
G01*
X78378000Y-71734000D02*
X78378000Y-72284000D01*
G75*
G02*
X78178000Y-72484000I-200000J0D01*
G01*
X77778000Y-72484000D01*
G75*
G02*
X77578000Y-72284000I0J200000D01*
G01*
X77578000Y-71734000D01*
G75*
G02*
X77778000Y-71534000I200000J0D01*
G01*
X78178000Y-71534000D01*
G75*
G02*
X78378000Y-71734000I0J-200000D01*
G01*
G37*
G36*
G01*
X80028000Y-71734000D02*
X80028000Y-72284000D01*
G75*
G02*
X79828000Y-72484000I-200000J0D01*
G01*
X79428000Y-72484000D01*
G75*
G02*
X79228000Y-72284000I0J200000D01*
G01*
X79228000Y-71734000D01*
G75*
G02*
X79428000Y-71534000I200000J0D01*
G01*
X79828000Y-71534000D01*
G75*
G02*
X80028000Y-71734000I0J-200000D01*
G01*
G37*
%TD*%
%TO.C,L1*%
G36*
G01*
X61449000Y-69744000D02*
X61449000Y-69194000D01*
G75*
G02*
X61649000Y-68994000I200000J0D01*
G01*
X62049000Y-68994000D01*
G75*
G02*
X62249000Y-69194000I0J-200000D01*
G01*
X62249000Y-69744000D01*
G75*
G02*
X62049000Y-69944000I-200000J0D01*
G01*
X61649000Y-69944000D01*
G75*
G02*
X61449000Y-69744000I0J200000D01*
G01*
G37*
G36*
G01*
X59799000Y-69744000D02*
X59799000Y-69194000D01*
G75*
G02*
X59999000Y-68994000I200000J0D01*
G01*
X60399000Y-68994000D01*
G75*
G02*
X60599000Y-69194000I0J-200000D01*
G01*
X60599000Y-69744000D01*
G75*
G02*
X60399000Y-69944000I-200000J0D01*
G01*
X59999000Y-69944000D01*
G75*
G02*
X59799000Y-69744000I0J200000D01*
G01*
G37*
%TD*%
%TO.C,C111*%
G36*
G01*
X93720500Y-68232000D02*
X93720500Y-69182000D01*
G75*
G02*
X93470500Y-69432000I-250000J0D01*
G01*
X92970500Y-69432000D01*
G75*
G02*
X92720500Y-69182000I0J250000D01*
G01*
X92720500Y-68232000D01*
G75*
G02*
X92970500Y-67982000I250000J0D01*
G01*
X93470500Y-67982000D01*
G75*
G02*
X93720500Y-68232000I0J-250000D01*
G01*
G37*
G36*
G01*
X95620500Y-68232000D02*
X95620500Y-69182000D01*
G75*
G02*
X95370500Y-69432000I-250000J0D01*
G01*
X94870500Y-69432000D01*
G75*
G02*
X94620500Y-69182000I0J250000D01*
G01*
X94620500Y-68232000D01*
G75*
G02*
X94870500Y-67982000I250000J0D01*
G01*
X95370500Y-67982000D01*
G75*
G02*
X95620500Y-68232000I0J-250000D01*
G01*
G37*
%TD*%
%TO.C,C15*%
G36*
G01*
X77208000Y-68232000D02*
X77208000Y-69182000D01*
G75*
G02*
X76958000Y-69432000I-250000J0D01*
G01*
X76458000Y-69432000D01*
G75*
G02*
X76208000Y-69182000I0J250000D01*
G01*
X76208000Y-68232000D01*
G75*
G02*
X76458000Y-67982000I250000J0D01*
G01*
X76958000Y-67982000D01*
G75*
G02*
X77208000Y-68232000I0J-250000D01*
G01*
G37*
G36*
G01*
X79108000Y-68232000D02*
X79108000Y-69182000D01*
G75*
G02*
X78858000Y-69432000I-250000J0D01*
G01*
X78358000Y-69432000D01*
G75*
G02*
X78108000Y-69182000I0J250000D01*
G01*
X78108000Y-68232000D01*
G75*
G02*
X78358000Y-67982000I250000J0D01*
G01*
X78858000Y-67982000D01*
G75*
G02*
X79108000Y-68232000I0J-250000D01*
G01*
G37*
%TD*%
D20*
%TO.C,U201*%
X82956400Y-115570000D03*
G36*
G01*
X81201400Y-114070000D02*
X80901400Y-114070000D01*
G75*
G02*
X80751400Y-113920000I0J150000D01*
G01*
X80751400Y-112270000D01*
G75*
G02*
X80901400Y-112120000I150000J0D01*
G01*
X81201400Y-112120000D01*
G75*
G02*
X81351400Y-112270000I0J-150000D01*
G01*
X81351400Y-113920000D01*
G75*
G02*
X81201400Y-114070000I-150000J0D01*
G01*
G37*
G36*
G01*
X82471400Y-114070000D02*
X82171400Y-114070000D01*
G75*
G02*
X82021400Y-113920000I0J150000D01*
G01*
X82021400Y-112270000D01*
G75*
G02*
X82171400Y-112120000I150000J0D01*
G01*
X82471400Y-112120000D01*
G75*
G02*
X82621400Y-112270000I0J-150000D01*
G01*
X82621400Y-113920000D01*
G75*
G02*
X82471400Y-114070000I-150000J0D01*
G01*
G37*
G36*
G01*
X83741400Y-114070000D02*
X83441400Y-114070000D01*
G75*
G02*
X83291400Y-113920000I0J150000D01*
G01*
X83291400Y-112270000D01*
G75*
G02*
X83441400Y-112120000I150000J0D01*
G01*
X83741400Y-112120000D01*
G75*
G02*
X83891400Y-112270000I0J-150000D01*
G01*
X83891400Y-113920000D01*
G75*
G02*
X83741400Y-114070000I-150000J0D01*
G01*
G37*
G36*
G01*
X85011400Y-114070000D02*
X84711400Y-114070000D01*
G75*
G02*
X84561400Y-113920000I0J150000D01*
G01*
X84561400Y-112270000D01*
G75*
G02*
X84711400Y-112120000I150000J0D01*
G01*
X85011400Y-112120000D01*
G75*
G02*
X85161400Y-112270000I0J-150000D01*
G01*
X85161400Y-113920000D01*
G75*
G02*
X85011400Y-114070000I-150000J0D01*
G01*
G37*
G36*
G01*
X85011400Y-119020000D02*
X84711400Y-119020000D01*
G75*
G02*
X84561400Y-118870000I0J150000D01*
G01*
X84561400Y-117220000D01*
G75*
G02*
X84711400Y-117070000I150000J0D01*
G01*
X85011400Y-117070000D01*
G75*
G02*
X85161400Y-117220000I0J-150000D01*
G01*
X85161400Y-118870000D01*
G75*
G02*
X85011400Y-119020000I-150000J0D01*
G01*
G37*
G36*
G01*
X83741400Y-119020000D02*
X83441400Y-119020000D01*
G75*
G02*
X83291400Y-118870000I0J150000D01*
G01*
X83291400Y-117220000D01*
G75*
G02*
X83441400Y-117070000I150000J0D01*
G01*
X83741400Y-117070000D01*
G75*
G02*
X83891400Y-117220000I0J-150000D01*
G01*
X83891400Y-118870000D01*
G75*
G02*
X83741400Y-119020000I-150000J0D01*
G01*
G37*
G36*
G01*
X82471400Y-119020000D02*
X82171400Y-119020000D01*
G75*
G02*
X82021400Y-118870000I0J150000D01*
G01*
X82021400Y-117220000D01*
G75*
G02*
X82171400Y-117070000I150000J0D01*
G01*
X82471400Y-117070000D01*
G75*
G02*
X82621400Y-117220000I0J-150000D01*
G01*
X82621400Y-118870000D01*
G75*
G02*
X82471400Y-119020000I-150000J0D01*
G01*
G37*
G36*
G01*
X81201400Y-119020000D02*
X80901400Y-119020000D01*
G75*
G02*
X80751400Y-118870000I0J150000D01*
G01*
X80751400Y-117220000D01*
G75*
G02*
X80901400Y-117070000I150000J0D01*
G01*
X81201400Y-117070000D01*
G75*
G02*
X81351400Y-117220000I0J-150000D01*
G01*
X81351400Y-118870000D01*
G75*
G02*
X81201400Y-119020000I-150000J0D01*
G01*
G37*
%TD*%
%TO.C,R204*%
G36*
G01*
X87565200Y-114027800D02*
X87565200Y-113657800D01*
G75*
G02*
X87700200Y-113522800I135000J0D01*
G01*
X87970200Y-113522800D01*
G75*
G02*
X88105200Y-113657800I0J-135000D01*
G01*
X88105200Y-114027800D01*
G75*
G02*
X87970200Y-114162800I-135000J0D01*
G01*
X87700200Y-114162800D01*
G75*
G02*
X87565200Y-114027800I0J135000D01*
G01*
G37*
G36*
G01*
X86545200Y-114027800D02*
X86545200Y-113657800D01*
G75*
G02*
X86680200Y-113522800I135000J0D01*
G01*
X86950200Y-113522800D01*
G75*
G02*
X87085200Y-113657800I0J-135000D01*
G01*
X87085200Y-114027800D01*
G75*
G02*
X86950200Y-114162800I-135000J0D01*
G01*
X86680200Y-114162800D01*
G75*
G02*
X86545200Y-114027800I0J135000D01*
G01*
G37*
%TD*%
%TO.C,R203*%
G36*
G01*
X87563200Y-112656200D02*
X87563200Y-112286200D01*
G75*
G02*
X87698200Y-112151200I135000J0D01*
G01*
X87968200Y-112151200D01*
G75*
G02*
X88103200Y-112286200I0J-135000D01*
G01*
X88103200Y-112656200D01*
G75*
G02*
X87968200Y-112791200I-135000J0D01*
G01*
X87698200Y-112791200D01*
G75*
G02*
X87563200Y-112656200I0J135000D01*
G01*
G37*
G36*
G01*
X86543200Y-112656200D02*
X86543200Y-112286200D01*
G75*
G02*
X86678200Y-112151200I135000J0D01*
G01*
X86948200Y-112151200D01*
G75*
G02*
X87083200Y-112286200I0J-135000D01*
G01*
X87083200Y-112656200D01*
G75*
G02*
X86948200Y-112791200I-135000J0D01*
G01*
X86678200Y-112791200D01*
G75*
G02*
X86543200Y-112656200I0J135000D01*
G01*
G37*
%TD*%
%TO.C,R202*%
G36*
G01*
X86376000Y-110305000D02*
X86376000Y-110675000D01*
G75*
G02*
X86241000Y-110810000I-135000J0D01*
G01*
X85971000Y-110810000D01*
G75*
G02*
X85836000Y-110675000I0J135000D01*
G01*
X85836000Y-110305000D01*
G75*
G02*
X85971000Y-110170000I135000J0D01*
G01*
X86241000Y-110170000D01*
G75*
G02*
X86376000Y-110305000I0J-135000D01*
G01*
G37*
G36*
G01*
X87396000Y-110305000D02*
X87396000Y-110675000D01*
G75*
G02*
X87261000Y-110810000I-135000J0D01*
G01*
X86991000Y-110810000D01*
G75*
G02*
X86856000Y-110675000I0J135000D01*
G01*
X86856000Y-110305000D01*
G75*
G02*
X86991000Y-110170000I135000J0D01*
G01*
X87261000Y-110170000D01*
G75*
G02*
X87396000Y-110305000I0J-135000D01*
G01*
G37*
%TD*%
%TO.C,R201*%
G36*
G01*
X82531800Y-109996000D02*
X82161800Y-109996000D01*
G75*
G02*
X82026800Y-109861000I0J135000D01*
G01*
X82026800Y-109591000D01*
G75*
G02*
X82161800Y-109456000I135000J0D01*
G01*
X82531800Y-109456000D01*
G75*
G02*
X82666800Y-109591000I0J-135000D01*
G01*
X82666800Y-109861000D01*
G75*
G02*
X82531800Y-109996000I-135000J0D01*
G01*
G37*
G36*
G01*
X82531800Y-111016000D02*
X82161800Y-111016000D01*
G75*
G02*
X82026800Y-110881000I0J135000D01*
G01*
X82026800Y-110611000D01*
G75*
G02*
X82161800Y-110476000I135000J0D01*
G01*
X82531800Y-110476000D01*
G75*
G02*
X82666800Y-110611000I0J-135000D01*
G01*
X82666800Y-110881000D01*
G75*
G02*
X82531800Y-111016000I-135000J0D01*
G01*
G37*
%TD*%
D21*
%TO.C,Q202*%
X93710000Y-132588000D03*
X91710000Y-133538000D03*
X91710000Y-131638000D03*
%TD*%
D22*
%TO.C,Q201*%
X92202000Y-88408000D03*
X93152000Y-90408000D03*
X91252000Y-90408000D03*
%TD*%
D23*
%TO.C,L201*%
X93624000Y-124155200D03*
X87224000Y-124155200D03*
%TD*%
D15*
%TO.C,J202*%
X93980000Y-137160000D03*
X91440000Y-137160000D03*
D16*
X88900000Y-137160000D03*
%TD*%
D15*
%TO.C,J201*%
X109220000Y-124714000D03*
X109220000Y-122174000D03*
D16*
X109220000Y-119634000D03*
%TD*%
%TO.C,D201*%
G36*
G01*
X97333750Y-88001500D02*
X98246250Y-88001500D01*
G75*
G02*
X98490000Y-88245250I0J-243750D01*
G01*
X98490000Y-88732750D01*
G75*
G02*
X98246250Y-88976500I-243750J0D01*
G01*
X97333750Y-88976500D01*
G75*
G02*
X97090000Y-88732750I0J243750D01*
G01*
X97090000Y-88245250D01*
G75*
G02*
X97333750Y-88001500I243750J0D01*
G01*
G37*
G36*
G01*
X97333750Y-86126500D02*
X98246250Y-86126500D01*
G75*
G02*
X98490000Y-86370250I0J-243750D01*
G01*
X98490000Y-86857750D01*
G75*
G02*
X98246250Y-87101500I-243750J0D01*
G01*
X97333750Y-87101500D01*
G75*
G02*
X97090000Y-86857750I0J243750D01*
G01*
X97090000Y-86370250D01*
G75*
G02*
X97333750Y-86126500I243750J0D01*
G01*
G37*
%TD*%
%TO.C,C207*%
G36*
G01*
X81953000Y-96175001D02*
X81953000Y-94324999D01*
G75*
G02*
X82202999Y-94075000I249999J0D01*
G01*
X83953001Y-94075000D01*
G75*
G02*
X84203000Y-94324999I0J-249999D01*
G01*
X84203000Y-96175001D01*
G75*
G02*
X83953001Y-96425000I-249999J0D01*
G01*
X82202999Y-96425000D01*
G75*
G02*
X81953000Y-96175001I0J249999D01*
G01*
G37*
G36*
G01*
X76853000Y-96175001D02*
X76853000Y-94324999D01*
G75*
G02*
X77102999Y-94075000I249999J0D01*
G01*
X78853001Y-94075000D01*
G75*
G02*
X79103000Y-94324999I0J-249999D01*
G01*
X79103000Y-96175001D01*
G75*
G02*
X78853001Y-96425000I-249999J0D01*
G01*
X77102999Y-96425000D01*
G75*
G02*
X76853000Y-96175001I0J249999D01*
G01*
G37*
%TD*%
%TO.C,C205*%
G36*
G01*
X83874000Y-110320000D02*
X83874000Y-110660000D01*
G75*
G02*
X83734000Y-110800000I-140000J0D01*
G01*
X83454000Y-110800000D01*
G75*
G02*
X83314000Y-110660000I0J140000D01*
G01*
X83314000Y-110320000D01*
G75*
G02*
X83454000Y-110180000I140000J0D01*
G01*
X83734000Y-110180000D01*
G75*
G02*
X83874000Y-110320000I0J-140000D01*
G01*
G37*
G36*
G01*
X84834000Y-110320000D02*
X84834000Y-110660000D01*
G75*
G02*
X84694000Y-110800000I-140000J0D01*
G01*
X84414000Y-110800000D01*
G75*
G02*
X84274000Y-110660000I0J140000D01*
G01*
X84274000Y-110320000D01*
G75*
G02*
X84414000Y-110180000I140000J0D01*
G01*
X84694000Y-110180000D01*
G75*
G02*
X84834000Y-110320000I0J-140000D01*
G01*
G37*
%TD*%
%TO.C,C204*%
G36*
G01*
X80637400Y-120860400D02*
X79687400Y-120860400D01*
G75*
G02*
X79437400Y-120610400I0J250000D01*
G01*
X79437400Y-120110400D01*
G75*
G02*
X79687400Y-119860400I250000J0D01*
G01*
X80637400Y-119860400D01*
G75*
G02*
X80887400Y-120110400I0J-250000D01*
G01*
X80887400Y-120610400D01*
G75*
G02*
X80637400Y-120860400I-250000J0D01*
G01*
G37*
G36*
G01*
X80637400Y-122760400D02*
X79687400Y-122760400D01*
G75*
G02*
X79437400Y-122510400I0J250000D01*
G01*
X79437400Y-122010400D01*
G75*
G02*
X79687400Y-121760400I250000J0D01*
G01*
X80637400Y-121760400D01*
G75*
G02*
X80887400Y-122010400I0J-250000D01*
G01*
X80887400Y-122510400D01*
G75*
G02*
X80637400Y-122760400I-250000J0D01*
G01*
G37*
%TD*%
%TO.C,C202*%
G36*
G01*
X79281200Y-113738000D02*
X79621200Y-113738000D01*
G75*
G02*
X79761200Y-113878000I0J-140000D01*
G01*
X79761200Y-114158000D01*
G75*
G02*
X79621200Y-114298000I-140000J0D01*
G01*
X79281200Y-114298000D01*
G75*
G02*
X79141200Y-114158000I0J140000D01*
G01*
X79141200Y-113878000D01*
G75*
G02*
X79281200Y-113738000I140000J0D01*
G01*
G37*
G36*
G01*
X79281200Y-112778000D02*
X79621200Y-112778000D01*
G75*
G02*
X79761200Y-112918000I0J-140000D01*
G01*
X79761200Y-113198000D01*
G75*
G02*
X79621200Y-113338000I-140000J0D01*
G01*
X79281200Y-113338000D01*
G75*
G02*
X79141200Y-113198000I0J140000D01*
G01*
X79141200Y-112918000D01*
G75*
G02*
X79281200Y-112778000I140000J0D01*
G01*
G37*
%TD*%
%TO.C,U1*%
G36*
G01*
X95229000Y-104846000D02*
X95229000Y-106171000D01*
G75*
G02*
X95154000Y-106246000I-75000J0D01*
G01*
X95004000Y-106246000D01*
G75*
G02*
X94929000Y-106171000I0J75000D01*
G01*
X94929000Y-104846000D01*
G75*
G02*
X95004000Y-104771000I75000J0D01*
G01*
X95154000Y-104771000D01*
G75*
G02*
X95229000Y-104846000I0J-75000D01*
G01*
G37*
G36*
G01*
X94729000Y-104846000D02*
X94729000Y-106171000D01*
G75*
G02*
X94654000Y-106246000I-75000J0D01*
G01*
X94504000Y-106246000D01*
G75*
G02*
X94429000Y-106171000I0J75000D01*
G01*
X94429000Y-104846000D01*
G75*
G02*
X94504000Y-104771000I75000J0D01*
G01*
X94654000Y-104771000D01*
G75*
G02*
X94729000Y-104846000I0J-75000D01*
G01*
G37*
G36*
G01*
X94229000Y-104846000D02*
X94229000Y-106171000D01*
G75*
G02*
X94154000Y-106246000I-75000J0D01*
G01*
X94004000Y-106246000D01*
G75*
G02*
X93929000Y-106171000I0J75000D01*
G01*
X93929000Y-104846000D01*
G75*
G02*
X94004000Y-104771000I75000J0D01*
G01*
X94154000Y-104771000D01*
G75*
G02*
X94229000Y-104846000I0J-75000D01*
G01*
G37*
G36*
G01*
X93729000Y-104846000D02*
X93729000Y-106171000D01*
G75*
G02*
X93654000Y-106246000I-75000J0D01*
G01*
X93504000Y-106246000D01*
G75*
G02*
X93429000Y-106171000I0J75000D01*
G01*
X93429000Y-104846000D01*
G75*
G02*
X93504000Y-104771000I75000J0D01*
G01*
X93654000Y-104771000D01*
G75*
G02*
X93729000Y-104846000I0J-75000D01*
G01*
G37*
G36*
G01*
X93229000Y-104846000D02*
X93229000Y-106171000D01*
G75*
G02*
X93154000Y-106246000I-75000J0D01*
G01*
X93004000Y-106246000D01*
G75*
G02*
X92929000Y-106171000I0J75000D01*
G01*
X92929000Y-104846000D01*
G75*
G02*
X93004000Y-104771000I75000J0D01*
G01*
X93154000Y-104771000D01*
G75*
G02*
X93229000Y-104846000I0J-75000D01*
G01*
G37*
G36*
G01*
X92729000Y-104846000D02*
X92729000Y-106171000D01*
G75*
G02*
X92654000Y-106246000I-75000J0D01*
G01*
X92504000Y-106246000D01*
G75*
G02*
X92429000Y-106171000I0J75000D01*
G01*
X92429000Y-104846000D01*
G75*
G02*
X92504000Y-104771000I75000J0D01*
G01*
X92654000Y-104771000D01*
G75*
G02*
X92729000Y-104846000I0J-75000D01*
G01*
G37*
G36*
G01*
X92229000Y-104846000D02*
X92229000Y-106171000D01*
G75*
G02*
X92154000Y-106246000I-75000J0D01*
G01*
X92004000Y-106246000D01*
G75*
G02*
X91929000Y-106171000I0J75000D01*
G01*
X91929000Y-104846000D01*
G75*
G02*
X92004000Y-104771000I75000J0D01*
G01*
X92154000Y-104771000D01*
G75*
G02*
X92229000Y-104846000I0J-75000D01*
G01*
G37*
G36*
G01*
X91729000Y-104846000D02*
X91729000Y-106171000D01*
G75*
G02*
X91654000Y-106246000I-75000J0D01*
G01*
X91504000Y-106246000D01*
G75*
G02*
X91429000Y-106171000I0J75000D01*
G01*
X91429000Y-104846000D01*
G75*
G02*
X91504000Y-104771000I75000J0D01*
G01*
X91654000Y-104771000D01*
G75*
G02*
X91729000Y-104846000I0J-75000D01*
G01*
G37*
G36*
G01*
X91229000Y-104846000D02*
X91229000Y-106171000D01*
G75*
G02*
X91154000Y-106246000I-75000J0D01*
G01*
X91004000Y-106246000D01*
G75*
G02*
X90929000Y-106171000I0J75000D01*
G01*
X90929000Y-104846000D01*
G75*
G02*
X91004000Y-104771000I75000J0D01*
G01*
X91154000Y-104771000D01*
G75*
G02*
X91229000Y-104846000I0J-75000D01*
G01*
G37*
G36*
G01*
X90729000Y-104846000D02*
X90729000Y-106171000D01*
G75*
G02*
X90654000Y-106246000I-75000J0D01*
G01*
X90504000Y-106246000D01*
G75*
G02*
X90429000Y-106171000I0J75000D01*
G01*
X90429000Y-104846000D01*
G75*
G02*
X90504000Y-104771000I75000J0D01*
G01*
X90654000Y-104771000D01*
G75*
G02*
X90729000Y-104846000I0J-75000D01*
G01*
G37*
G36*
G01*
X90229000Y-104846000D02*
X90229000Y-106171000D01*
G75*
G02*
X90154000Y-106246000I-75000J0D01*
G01*
X90004000Y-106246000D01*
G75*
G02*
X89929000Y-106171000I0J75000D01*
G01*
X89929000Y-104846000D01*
G75*
G02*
X90004000Y-104771000I75000J0D01*
G01*
X90154000Y-104771000D01*
G75*
G02*
X90229000Y-104846000I0J-75000D01*
G01*
G37*
G36*
G01*
X89729000Y-104846000D02*
X89729000Y-106171000D01*
G75*
G02*
X89654000Y-106246000I-75000J0D01*
G01*
X89504000Y-106246000D01*
G75*
G02*
X89429000Y-106171000I0J75000D01*
G01*
X89429000Y-104846000D01*
G75*
G02*
X89504000Y-104771000I75000J0D01*
G01*
X89654000Y-104771000D01*
G75*
G02*
X89729000Y-104846000I0J-75000D01*
G01*
G37*
G36*
G01*
X88904000Y-104021000D02*
X88904000Y-104171000D01*
G75*
G02*
X88829000Y-104246000I-75000J0D01*
G01*
X87504000Y-104246000D01*
G75*
G02*
X87429000Y-104171000I0J75000D01*
G01*
X87429000Y-104021000D01*
G75*
G02*
X87504000Y-103946000I75000J0D01*
G01*
X88829000Y-103946000D01*
G75*
G02*
X88904000Y-104021000I0J-75000D01*
G01*
G37*
G36*
G01*
X88904000Y-103521000D02*
X88904000Y-103671000D01*
G75*
G02*
X88829000Y-103746000I-75000J0D01*
G01*
X87504000Y-103746000D01*
G75*
G02*
X87429000Y-103671000I0J75000D01*
G01*
X87429000Y-103521000D01*
G75*
G02*
X87504000Y-103446000I75000J0D01*
G01*
X88829000Y-103446000D01*
G75*
G02*
X88904000Y-103521000I0J-75000D01*
G01*
G37*
G36*
G01*
X88904000Y-103021000D02*
X88904000Y-103171000D01*
G75*
G02*
X88829000Y-103246000I-75000J0D01*
G01*
X87504000Y-103246000D01*
G75*
G02*
X87429000Y-103171000I0J75000D01*
G01*
X87429000Y-103021000D01*
G75*
G02*
X87504000Y-102946000I75000J0D01*
G01*
X88829000Y-102946000D01*
G75*
G02*
X88904000Y-103021000I0J-75000D01*
G01*
G37*
G36*
G01*
X88904000Y-102521000D02*
X88904000Y-102671000D01*
G75*
G02*
X88829000Y-102746000I-75000J0D01*
G01*
X87504000Y-102746000D01*
G75*
G02*
X87429000Y-102671000I0J75000D01*
G01*
X87429000Y-102521000D01*
G75*
G02*
X87504000Y-102446000I75000J0D01*
G01*
X88829000Y-102446000D01*
G75*
G02*
X88904000Y-102521000I0J-75000D01*
G01*
G37*
G36*
G01*
X88904000Y-102021000D02*
X88904000Y-102171000D01*
G75*
G02*
X88829000Y-102246000I-75000J0D01*
G01*
X87504000Y-102246000D01*
G75*
G02*
X87429000Y-102171000I0J75000D01*
G01*
X87429000Y-102021000D01*
G75*
G02*
X87504000Y-101946000I75000J0D01*
G01*
X88829000Y-101946000D01*
G75*
G02*
X88904000Y-102021000I0J-75000D01*
G01*
G37*
G36*
G01*
X88904000Y-101521000D02*
X88904000Y-101671000D01*
G75*
G02*
X88829000Y-101746000I-75000J0D01*
G01*
X87504000Y-101746000D01*
G75*
G02*
X87429000Y-101671000I0J75000D01*
G01*
X87429000Y-101521000D01*
G75*
G02*
X87504000Y-101446000I75000J0D01*
G01*
X88829000Y-101446000D01*
G75*
G02*
X88904000Y-101521000I0J-75000D01*
G01*
G37*
G36*
G01*
X88904000Y-101021000D02*
X88904000Y-101171000D01*
G75*
G02*
X88829000Y-101246000I-75000J0D01*
G01*
X87504000Y-101246000D01*
G75*
G02*
X87429000Y-101171000I0J75000D01*
G01*
X87429000Y-101021000D01*
G75*
G02*
X87504000Y-100946000I75000J0D01*
G01*
X88829000Y-100946000D01*
G75*
G02*
X88904000Y-101021000I0J-75000D01*
G01*
G37*
G36*
G01*
X88904000Y-100521000D02*
X88904000Y-100671000D01*
G75*
G02*
X88829000Y-100746000I-75000J0D01*
G01*
X87504000Y-100746000D01*
G75*
G02*
X87429000Y-100671000I0J75000D01*
G01*
X87429000Y-100521000D01*
G75*
G02*
X87504000Y-100446000I75000J0D01*
G01*
X88829000Y-100446000D01*
G75*
G02*
X88904000Y-100521000I0J-75000D01*
G01*
G37*
G36*
G01*
X88904000Y-100021000D02*
X88904000Y-100171000D01*
G75*
G02*
X88829000Y-100246000I-75000J0D01*
G01*
X87504000Y-100246000D01*
G75*
G02*
X87429000Y-100171000I0J75000D01*
G01*
X87429000Y-100021000D01*
G75*
G02*
X87504000Y-99946000I75000J0D01*
G01*
X88829000Y-99946000D01*
G75*
G02*
X88904000Y-100021000I0J-75000D01*
G01*
G37*
G36*
G01*
X88904000Y-99521000D02*
X88904000Y-99671000D01*
G75*
G02*
X88829000Y-99746000I-75000J0D01*
G01*
X87504000Y-99746000D01*
G75*
G02*
X87429000Y-99671000I0J75000D01*
G01*
X87429000Y-99521000D01*
G75*
G02*
X87504000Y-99446000I75000J0D01*
G01*
X88829000Y-99446000D01*
G75*
G02*
X88904000Y-99521000I0J-75000D01*
G01*
G37*
G36*
G01*
X88904000Y-99021000D02*
X88904000Y-99171000D01*
G75*
G02*
X88829000Y-99246000I-75000J0D01*
G01*
X87504000Y-99246000D01*
G75*
G02*
X87429000Y-99171000I0J75000D01*
G01*
X87429000Y-99021000D01*
G75*
G02*
X87504000Y-98946000I75000J0D01*
G01*
X88829000Y-98946000D01*
G75*
G02*
X88904000Y-99021000I0J-75000D01*
G01*
G37*
G36*
G01*
X88904000Y-98521000D02*
X88904000Y-98671000D01*
G75*
G02*
X88829000Y-98746000I-75000J0D01*
G01*
X87504000Y-98746000D01*
G75*
G02*
X87429000Y-98671000I0J75000D01*
G01*
X87429000Y-98521000D01*
G75*
G02*
X87504000Y-98446000I75000J0D01*
G01*
X88829000Y-98446000D01*
G75*
G02*
X88904000Y-98521000I0J-75000D01*
G01*
G37*
G36*
G01*
X89729000Y-96521000D02*
X89729000Y-97846000D01*
G75*
G02*
X89654000Y-97921000I-75000J0D01*
G01*
X89504000Y-97921000D01*
G75*
G02*
X89429000Y-97846000I0J75000D01*
G01*
X89429000Y-96521000D01*
G75*
G02*
X89504000Y-96446000I75000J0D01*
G01*
X89654000Y-96446000D01*
G75*
G02*
X89729000Y-96521000I0J-75000D01*
G01*
G37*
G36*
G01*
X90229000Y-96521000D02*
X90229000Y-97846000D01*
G75*
G02*
X90154000Y-97921000I-75000J0D01*
G01*
X90004000Y-97921000D01*
G75*
G02*
X89929000Y-97846000I0J75000D01*
G01*
X89929000Y-96521000D01*
G75*
G02*
X90004000Y-96446000I75000J0D01*
G01*
X90154000Y-96446000D01*
G75*
G02*
X90229000Y-96521000I0J-75000D01*
G01*
G37*
G36*
G01*
X90729000Y-96521000D02*
X90729000Y-97846000D01*
G75*
G02*
X90654000Y-97921000I-75000J0D01*
G01*
X90504000Y-97921000D01*
G75*
G02*
X90429000Y-97846000I0J75000D01*
G01*
X90429000Y-96521000D01*
G75*
G02*
X90504000Y-96446000I75000J0D01*
G01*
X90654000Y-96446000D01*
G75*
G02*
X90729000Y-96521000I0J-75000D01*
G01*
G37*
G36*
G01*
X91229000Y-96521000D02*
X91229000Y-97846000D01*
G75*
G02*
X91154000Y-97921000I-75000J0D01*
G01*
X91004000Y-97921000D01*
G75*
G02*
X90929000Y-97846000I0J75000D01*
G01*
X90929000Y-96521000D01*
G75*
G02*
X91004000Y-96446000I75000J0D01*
G01*
X91154000Y-96446000D01*
G75*
G02*
X91229000Y-96521000I0J-75000D01*
G01*
G37*
G36*
G01*
X91729000Y-96521000D02*
X91729000Y-97846000D01*
G75*
G02*
X91654000Y-97921000I-75000J0D01*
G01*
X91504000Y-97921000D01*
G75*
G02*
X91429000Y-97846000I0J75000D01*
G01*
X91429000Y-96521000D01*
G75*
G02*
X91504000Y-96446000I75000J0D01*
G01*
X91654000Y-96446000D01*
G75*
G02*
X91729000Y-96521000I0J-75000D01*
G01*
G37*
G36*
G01*
X92229000Y-96521000D02*
X92229000Y-97846000D01*
G75*
G02*
X92154000Y-97921000I-75000J0D01*
G01*
X92004000Y-97921000D01*
G75*
G02*
X91929000Y-97846000I0J75000D01*
G01*
X91929000Y-96521000D01*
G75*
G02*
X92004000Y-96446000I75000J0D01*
G01*
X92154000Y-96446000D01*
G75*
G02*
X92229000Y-96521000I0J-75000D01*
G01*
G37*
G36*
G01*
X92729000Y-96521000D02*
X92729000Y-97846000D01*
G75*
G02*
X92654000Y-97921000I-75000J0D01*
G01*
X92504000Y-97921000D01*
G75*
G02*
X92429000Y-97846000I0J75000D01*
G01*
X92429000Y-96521000D01*
G75*
G02*
X92504000Y-96446000I75000J0D01*
G01*
X92654000Y-96446000D01*
G75*
G02*
X92729000Y-96521000I0J-75000D01*
G01*
G37*
G36*
G01*
X93229000Y-96521000D02*
X93229000Y-97846000D01*
G75*
G02*
X93154000Y-97921000I-75000J0D01*
G01*
X93004000Y-97921000D01*
G75*
G02*
X92929000Y-97846000I0J75000D01*
G01*
X92929000Y-96521000D01*
G75*
G02*
X93004000Y-96446000I75000J0D01*
G01*
X93154000Y-96446000D01*
G75*
G02*
X93229000Y-96521000I0J-75000D01*
G01*
G37*
G36*
G01*
X93729000Y-96521000D02*
X93729000Y-97846000D01*
G75*
G02*
X93654000Y-97921000I-75000J0D01*
G01*
X93504000Y-97921000D01*
G75*
G02*
X93429000Y-97846000I0J75000D01*
G01*
X93429000Y-96521000D01*
G75*
G02*
X93504000Y-96446000I75000J0D01*
G01*
X93654000Y-96446000D01*
G75*
G02*
X93729000Y-96521000I0J-75000D01*
G01*
G37*
G36*
G01*
X94229000Y-96521000D02*
X94229000Y-97846000D01*
G75*
G02*
X94154000Y-97921000I-75000J0D01*
G01*
X94004000Y-97921000D01*
G75*
G02*
X93929000Y-97846000I0J75000D01*
G01*
X93929000Y-96521000D01*
G75*
G02*
X94004000Y-96446000I75000J0D01*
G01*
X94154000Y-96446000D01*
G75*
G02*
X94229000Y-96521000I0J-75000D01*
G01*
G37*
G36*
G01*
X94729000Y-96521000D02*
X94729000Y-97846000D01*
G75*
G02*
X94654000Y-97921000I-75000J0D01*
G01*
X94504000Y-97921000D01*
G75*
G02*
X94429000Y-97846000I0J75000D01*
G01*
X94429000Y-96521000D01*
G75*
G02*
X94504000Y-96446000I75000J0D01*
G01*
X94654000Y-96446000D01*
G75*
G02*
X94729000Y-96521000I0J-75000D01*
G01*
G37*
G36*
G01*
X95229000Y-96521000D02*
X95229000Y-97846000D01*
G75*
G02*
X95154000Y-97921000I-75000J0D01*
G01*
X95004000Y-97921000D01*
G75*
G02*
X94929000Y-97846000I0J75000D01*
G01*
X94929000Y-96521000D01*
G75*
G02*
X95004000Y-96446000I75000J0D01*
G01*
X95154000Y-96446000D01*
G75*
G02*
X95229000Y-96521000I0J-75000D01*
G01*
G37*
G36*
G01*
X97229000Y-98521000D02*
X97229000Y-98671000D01*
G75*
G02*
X97154000Y-98746000I-75000J0D01*
G01*
X95829000Y-98746000D01*
G75*
G02*
X95754000Y-98671000I0J75000D01*
G01*
X95754000Y-98521000D01*
G75*
G02*
X95829000Y-98446000I75000J0D01*
G01*
X97154000Y-98446000D01*
G75*
G02*
X97229000Y-98521000I0J-75000D01*
G01*
G37*
G36*
G01*
X97229000Y-99021000D02*
X97229000Y-99171000D01*
G75*
G02*
X97154000Y-99246000I-75000J0D01*
G01*
X95829000Y-99246000D01*
G75*
G02*
X95754000Y-99171000I0J75000D01*
G01*
X95754000Y-99021000D01*
G75*
G02*
X95829000Y-98946000I75000J0D01*
G01*
X97154000Y-98946000D01*
G75*
G02*
X97229000Y-99021000I0J-75000D01*
G01*
G37*
G36*
G01*
X97229000Y-99521000D02*
X97229000Y-99671000D01*
G75*
G02*
X97154000Y-99746000I-75000J0D01*
G01*
X95829000Y-99746000D01*
G75*
G02*
X95754000Y-99671000I0J75000D01*
G01*
X95754000Y-99521000D01*
G75*
G02*
X95829000Y-99446000I75000J0D01*
G01*
X97154000Y-99446000D01*
G75*
G02*
X97229000Y-99521000I0J-75000D01*
G01*
G37*
G36*
G01*
X97229000Y-100021000D02*
X97229000Y-100171000D01*
G75*
G02*
X97154000Y-100246000I-75000J0D01*
G01*
X95829000Y-100246000D01*
G75*
G02*
X95754000Y-100171000I0J75000D01*
G01*
X95754000Y-100021000D01*
G75*
G02*
X95829000Y-99946000I75000J0D01*
G01*
X97154000Y-99946000D01*
G75*
G02*
X97229000Y-100021000I0J-75000D01*
G01*
G37*
G36*
G01*
X97229000Y-100521000D02*
X97229000Y-100671000D01*
G75*
G02*
X97154000Y-100746000I-75000J0D01*
G01*
X95829000Y-100746000D01*
G75*
G02*
X95754000Y-100671000I0J75000D01*
G01*
X95754000Y-100521000D01*
G75*
G02*
X95829000Y-100446000I75000J0D01*
G01*
X97154000Y-100446000D01*
G75*
G02*
X97229000Y-100521000I0J-75000D01*
G01*
G37*
G36*
G01*
X97229000Y-101021000D02*
X97229000Y-101171000D01*
G75*
G02*
X97154000Y-101246000I-75000J0D01*
G01*
X95829000Y-101246000D01*
G75*
G02*
X95754000Y-101171000I0J75000D01*
G01*
X95754000Y-101021000D01*
G75*
G02*
X95829000Y-100946000I75000J0D01*
G01*
X97154000Y-100946000D01*
G75*
G02*
X97229000Y-101021000I0J-75000D01*
G01*
G37*
G36*
G01*
X97229000Y-101521000D02*
X97229000Y-101671000D01*
G75*
G02*
X97154000Y-101746000I-75000J0D01*
G01*
X95829000Y-101746000D01*
G75*
G02*
X95754000Y-101671000I0J75000D01*
G01*
X95754000Y-101521000D01*
G75*
G02*
X95829000Y-101446000I75000J0D01*
G01*
X97154000Y-101446000D01*
G75*
G02*
X97229000Y-101521000I0J-75000D01*
G01*
G37*
G36*
G01*
X97229000Y-102021000D02*
X97229000Y-102171000D01*
G75*
G02*
X97154000Y-102246000I-75000J0D01*
G01*
X95829000Y-102246000D01*
G75*
G02*
X95754000Y-102171000I0J75000D01*
G01*
X95754000Y-102021000D01*
G75*
G02*
X95829000Y-101946000I75000J0D01*
G01*
X97154000Y-101946000D01*
G75*
G02*
X97229000Y-102021000I0J-75000D01*
G01*
G37*
G36*
G01*
X97229000Y-102521000D02*
X97229000Y-102671000D01*
G75*
G02*
X97154000Y-102746000I-75000J0D01*
G01*
X95829000Y-102746000D01*
G75*
G02*
X95754000Y-102671000I0J75000D01*
G01*
X95754000Y-102521000D01*
G75*
G02*
X95829000Y-102446000I75000J0D01*
G01*
X97154000Y-102446000D01*
G75*
G02*
X97229000Y-102521000I0J-75000D01*
G01*
G37*
G36*
G01*
X97229000Y-103021000D02*
X97229000Y-103171000D01*
G75*
G02*
X97154000Y-103246000I-75000J0D01*
G01*
X95829000Y-103246000D01*
G75*
G02*
X95754000Y-103171000I0J75000D01*
G01*
X95754000Y-103021000D01*
G75*
G02*
X95829000Y-102946000I75000J0D01*
G01*
X97154000Y-102946000D01*
G75*
G02*
X97229000Y-103021000I0J-75000D01*
G01*
G37*
G36*
G01*
X97229000Y-103521000D02*
X97229000Y-103671000D01*
G75*
G02*
X97154000Y-103746000I-75000J0D01*
G01*
X95829000Y-103746000D01*
G75*
G02*
X95754000Y-103671000I0J75000D01*
G01*
X95754000Y-103521000D01*
G75*
G02*
X95829000Y-103446000I75000J0D01*
G01*
X97154000Y-103446000D01*
G75*
G02*
X97229000Y-103521000I0J-75000D01*
G01*
G37*
G36*
G01*
X97229000Y-104021000D02*
X97229000Y-104171000D01*
G75*
G02*
X97154000Y-104246000I-75000J0D01*
G01*
X95829000Y-104246000D01*
G75*
G02*
X95754000Y-104171000I0J75000D01*
G01*
X95754000Y-104021000D01*
G75*
G02*
X95829000Y-103946000I75000J0D01*
G01*
X97154000Y-103946000D01*
G75*
G02*
X97229000Y-104021000I0J-75000D01*
G01*
G37*
%TD*%
D14*
%TO.C,U103*%
X93218000Y-77724000D03*
G36*
G01*
X92093000Y-76124000D02*
X92093000Y-75424000D01*
G75*
G02*
X92168000Y-75349000I75000J0D01*
G01*
X92318000Y-75349000D01*
G75*
G02*
X92393000Y-75424000I0J-75000D01*
G01*
X92393000Y-76124000D01*
G75*
G02*
X92318000Y-76199000I-75000J0D01*
G01*
X92168000Y-76199000D01*
G75*
G02*
X92093000Y-76124000I0J75000D01*
G01*
G37*
G36*
G01*
X92743000Y-76124000D02*
X92743000Y-75424000D01*
G75*
G02*
X92818000Y-75349000I75000J0D01*
G01*
X92968000Y-75349000D01*
G75*
G02*
X93043000Y-75424000I0J-75000D01*
G01*
X93043000Y-76124000D01*
G75*
G02*
X92968000Y-76199000I-75000J0D01*
G01*
X92818000Y-76199000D01*
G75*
G02*
X92743000Y-76124000I0J75000D01*
G01*
G37*
G36*
G01*
X93393000Y-76124000D02*
X93393000Y-75424000D01*
G75*
G02*
X93468000Y-75349000I75000J0D01*
G01*
X93618000Y-75349000D01*
G75*
G02*
X93693000Y-75424000I0J-75000D01*
G01*
X93693000Y-76124000D01*
G75*
G02*
X93618000Y-76199000I-75000J0D01*
G01*
X93468000Y-76199000D01*
G75*
G02*
X93393000Y-76124000I0J75000D01*
G01*
G37*
G36*
G01*
X94043000Y-76124000D02*
X94043000Y-75424000D01*
G75*
G02*
X94118000Y-75349000I75000J0D01*
G01*
X94268000Y-75349000D01*
G75*
G02*
X94343000Y-75424000I0J-75000D01*
G01*
X94343000Y-76124000D01*
G75*
G02*
X94268000Y-76199000I-75000J0D01*
G01*
X94118000Y-76199000D01*
G75*
G02*
X94043000Y-76124000I0J75000D01*
G01*
G37*
G36*
G01*
X94743000Y-76824000D02*
X94743000Y-76674000D01*
G75*
G02*
X94818000Y-76599000I75000J0D01*
G01*
X95518000Y-76599000D01*
G75*
G02*
X95593000Y-76674000I0J-75000D01*
G01*
X95593000Y-76824000D01*
G75*
G02*
X95518000Y-76899000I-75000J0D01*
G01*
X94818000Y-76899000D01*
G75*
G02*
X94743000Y-76824000I0J75000D01*
G01*
G37*
G36*
G01*
X94743000Y-77474000D02*
X94743000Y-77324000D01*
G75*
G02*
X94818000Y-77249000I75000J0D01*
G01*
X95518000Y-77249000D01*
G75*
G02*
X95593000Y-77324000I0J-75000D01*
G01*
X95593000Y-77474000D01*
G75*
G02*
X95518000Y-77549000I-75000J0D01*
G01*
X94818000Y-77549000D01*
G75*
G02*
X94743000Y-77474000I0J75000D01*
G01*
G37*
G36*
G01*
X94743000Y-78124000D02*
X94743000Y-77974000D01*
G75*
G02*
X94818000Y-77899000I75000J0D01*
G01*
X95518000Y-77899000D01*
G75*
G02*
X95593000Y-77974000I0J-75000D01*
G01*
X95593000Y-78124000D01*
G75*
G02*
X95518000Y-78199000I-75000J0D01*
G01*
X94818000Y-78199000D01*
G75*
G02*
X94743000Y-78124000I0J75000D01*
G01*
G37*
G36*
G01*
X94743000Y-78774000D02*
X94743000Y-78624000D01*
G75*
G02*
X94818000Y-78549000I75000J0D01*
G01*
X95518000Y-78549000D01*
G75*
G02*
X95593000Y-78624000I0J-75000D01*
G01*
X95593000Y-78774000D01*
G75*
G02*
X95518000Y-78849000I-75000J0D01*
G01*
X94818000Y-78849000D01*
G75*
G02*
X94743000Y-78774000I0J75000D01*
G01*
G37*
G36*
G01*
X94043000Y-80024000D02*
X94043000Y-79324000D01*
G75*
G02*
X94118000Y-79249000I75000J0D01*
G01*
X94268000Y-79249000D01*
G75*
G02*
X94343000Y-79324000I0J-75000D01*
G01*
X94343000Y-80024000D01*
G75*
G02*
X94268000Y-80099000I-75000J0D01*
G01*
X94118000Y-80099000D01*
G75*
G02*
X94043000Y-80024000I0J75000D01*
G01*
G37*
G36*
G01*
X93393000Y-80024000D02*
X93393000Y-79324000D01*
G75*
G02*
X93468000Y-79249000I75000J0D01*
G01*
X93618000Y-79249000D01*
G75*
G02*
X93693000Y-79324000I0J-75000D01*
G01*
X93693000Y-80024000D01*
G75*
G02*
X93618000Y-80099000I-75000J0D01*
G01*
X93468000Y-80099000D01*
G75*
G02*
X93393000Y-80024000I0J75000D01*
G01*
G37*
G36*
G01*
X92743000Y-80024000D02*
X92743000Y-79324000D01*
G75*
G02*
X92818000Y-79249000I75000J0D01*
G01*
X92968000Y-79249000D01*
G75*
G02*
X93043000Y-79324000I0J-75000D01*
G01*
X93043000Y-80024000D01*
G75*
G02*
X92968000Y-80099000I-75000J0D01*
G01*
X92818000Y-80099000D01*
G75*
G02*
X92743000Y-80024000I0J75000D01*
G01*
G37*
G36*
G01*
X92093000Y-80024000D02*
X92093000Y-79324000D01*
G75*
G02*
X92168000Y-79249000I75000J0D01*
G01*
X92318000Y-79249000D01*
G75*
G02*
X92393000Y-79324000I0J-75000D01*
G01*
X92393000Y-80024000D01*
G75*
G02*
X92318000Y-80099000I-75000J0D01*
G01*
X92168000Y-80099000D01*
G75*
G02*
X92093000Y-80024000I0J75000D01*
G01*
G37*
G36*
G01*
X90843000Y-78774000D02*
X90843000Y-78624000D01*
G75*
G02*
X90918000Y-78549000I75000J0D01*
G01*
X91618000Y-78549000D01*
G75*
G02*
X91693000Y-78624000I0J-75000D01*
G01*
X91693000Y-78774000D01*
G75*
G02*
X91618000Y-78849000I-75000J0D01*
G01*
X90918000Y-78849000D01*
G75*
G02*
X90843000Y-78774000I0J75000D01*
G01*
G37*
G36*
G01*
X90843000Y-78124000D02*
X90843000Y-77974000D01*
G75*
G02*
X90918000Y-77899000I75000J0D01*
G01*
X91618000Y-77899000D01*
G75*
G02*
X91693000Y-77974000I0J-75000D01*
G01*
X91693000Y-78124000D01*
G75*
G02*
X91618000Y-78199000I-75000J0D01*
G01*
X90918000Y-78199000D01*
G75*
G02*
X90843000Y-78124000I0J75000D01*
G01*
G37*
G36*
G01*
X90843000Y-77474000D02*
X90843000Y-77324000D01*
G75*
G02*
X90918000Y-77249000I75000J0D01*
G01*
X91618000Y-77249000D01*
G75*
G02*
X91693000Y-77324000I0J-75000D01*
G01*
X91693000Y-77474000D01*
G75*
G02*
X91618000Y-77549000I-75000J0D01*
G01*
X90918000Y-77549000D01*
G75*
G02*
X90843000Y-77474000I0J75000D01*
G01*
G37*
G36*
G01*
X90843000Y-76824000D02*
X90843000Y-76674000D01*
G75*
G02*
X90918000Y-76599000I75000J0D01*
G01*
X91618000Y-76599000D01*
G75*
G02*
X91693000Y-76674000I0J-75000D01*
G01*
X91693000Y-76824000D01*
G75*
G02*
X91618000Y-76899000I-75000J0D01*
G01*
X90918000Y-76899000D01*
G75*
G02*
X90843000Y-76824000I0J75000D01*
G01*
G37*
%TD*%
%TO.C,R113*%
G36*
G01*
X71296500Y-87878500D02*
X71296500Y-87508500D01*
G75*
G02*
X71431500Y-87373500I135000J0D01*
G01*
X71701500Y-87373500D01*
G75*
G02*
X71836500Y-87508500I0J-135000D01*
G01*
X71836500Y-87878500D01*
G75*
G02*
X71701500Y-88013500I-135000J0D01*
G01*
X71431500Y-88013500D01*
G75*
G02*
X71296500Y-87878500I0J135000D01*
G01*
G37*
G36*
G01*
X70276500Y-87878500D02*
X70276500Y-87508500D01*
G75*
G02*
X70411500Y-87373500I135000J0D01*
G01*
X70681500Y-87373500D01*
G75*
G02*
X70816500Y-87508500I0J-135000D01*
G01*
X70816500Y-87878500D01*
G75*
G02*
X70681500Y-88013500I-135000J0D01*
G01*
X70411500Y-88013500D01*
G75*
G02*
X70276500Y-87878500I0J135000D01*
G01*
G37*
%TD*%
%TO.C,R111*%
G36*
G01*
X78652400Y-90442200D02*
X78652400Y-90812200D01*
G75*
G02*
X78517400Y-90947200I-135000J0D01*
G01*
X78247400Y-90947200D01*
G75*
G02*
X78112400Y-90812200I0J135000D01*
G01*
X78112400Y-90442200D01*
G75*
G02*
X78247400Y-90307200I135000J0D01*
G01*
X78517400Y-90307200D01*
G75*
G02*
X78652400Y-90442200I0J-135000D01*
G01*
G37*
G36*
G01*
X79672400Y-90442200D02*
X79672400Y-90812200D01*
G75*
G02*
X79537400Y-90947200I-135000J0D01*
G01*
X79267400Y-90947200D01*
G75*
G02*
X79132400Y-90812200I0J135000D01*
G01*
X79132400Y-90442200D01*
G75*
G02*
X79267400Y-90307200I135000J0D01*
G01*
X79537400Y-90307200D01*
G75*
G02*
X79672400Y-90442200I0J-135000D01*
G01*
G37*
%TD*%
%TO.C,R110*%
G36*
G01*
X71296500Y-90482000D02*
X71296500Y-90112000D01*
G75*
G02*
X71431500Y-89977000I135000J0D01*
G01*
X71701500Y-89977000D01*
G75*
G02*
X71836500Y-90112000I0J-135000D01*
G01*
X71836500Y-90482000D01*
G75*
G02*
X71701500Y-90617000I-135000J0D01*
G01*
X71431500Y-90617000D01*
G75*
G02*
X71296500Y-90482000I0J135000D01*
G01*
G37*
G36*
G01*
X70276500Y-90482000D02*
X70276500Y-90112000D01*
G75*
G02*
X70411500Y-89977000I135000J0D01*
G01*
X70681500Y-89977000D01*
G75*
G02*
X70816500Y-90112000I0J-135000D01*
G01*
X70816500Y-90482000D01*
G75*
G02*
X70681500Y-90617000I-135000J0D01*
G01*
X70411500Y-90617000D01*
G75*
G02*
X70276500Y-90482000I0J135000D01*
G01*
G37*
%TD*%
%TO.C,R107*%
G36*
G01*
X97776000Y-78226500D02*
X97776000Y-77856500D01*
G75*
G02*
X97911000Y-77721500I135000J0D01*
G01*
X98181000Y-77721500D01*
G75*
G02*
X98316000Y-77856500I0J-135000D01*
G01*
X98316000Y-78226500D01*
G75*
G02*
X98181000Y-78361500I-135000J0D01*
G01*
X97911000Y-78361500D01*
G75*
G02*
X97776000Y-78226500I0J135000D01*
G01*
G37*
G36*
G01*
X96756000Y-78226500D02*
X96756000Y-77856500D01*
G75*
G02*
X96891000Y-77721500I135000J0D01*
G01*
X97161000Y-77721500D01*
G75*
G02*
X97296000Y-77856500I0J-135000D01*
G01*
X97296000Y-78226500D01*
G75*
G02*
X97161000Y-78361500I-135000J0D01*
G01*
X96891000Y-78361500D01*
G75*
G02*
X96756000Y-78226500I0J135000D01*
G01*
G37*
%TD*%
%TO.C,R105*%
G36*
G01*
X89096000Y-78345000D02*
X89466000Y-78345000D01*
G75*
G02*
X89601000Y-78480000I0J-135000D01*
G01*
X89601000Y-78750000D01*
G75*
G02*
X89466000Y-78885000I-135000J0D01*
G01*
X89096000Y-78885000D01*
G75*
G02*
X88961000Y-78750000I0J135000D01*
G01*
X88961000Y-78480000D01*
G75*
G02*
X89096000Y-78345000I135000J0D01*
G01*
G37*
G36*
G01*
X89096000Y-77325000D02*
X89466000Y-77325000D01*
G75*
G02*
X89601000Y-77460000I0J-135000D01*
G01*
X89601000Y-77730000D01*
G75*
G02*
X89466000Y-77865000I-135000J0D01*
G01*
X89096000Y-77865000D01*
G75*
G02*
X88961000Y-77730000I0J135000D01*
G01*
X88961000Y-77460000D01*
G75*
G02*
X89096000Y-77325000I135000J0D01*
G01*
G37*
%TD*%
%TO.C,R104*%
G36*
G01*
X89096000Y-76313000D02*
X89466000Y-76313000D01*
G75*
G02*
X89601000Y-76448000I0J-135000D01*
G01*
X89601000Y-76718000D01*
G75*
G02*
X89466000Y-76853000I-135000J0D01*
G01*
X89096000Y-76853000D01*
G75*
G02*
X88961000Y-76718000I0J135000D01*
G01*
X88961000Y-76448000D01*
G75*
G02*
X89096000Y-76313000I135000J0D01*
G01*
G37*
G36*
G01*
X89096000Y-75293000D02*
X89466000Y-75293000D01*
G75*
G02*
X89601000Y-75428000I0J-135000D01*
G01*
X89601000Y-75698000D01*
G75*
G02*
X89466000Y-75833000I-135000J0D01*
G01*
X89096000Y-75833000D01*
G75*
G02*
X88961000Y-75698000I0J135000D01*
G01*
X88961000Y-75428000D01*
G75*
G02*
X89096000Y-75293000I135000J0D01*
G01*
G37*
%TD*%
%TO.C,L104*%
G36*
G01*
X94850000Y-71558999D02*
X94850000Y-72459001D01*
G75*
G02*
X94600001Y-72709000I-249999J0D01*
G01*
X94074999Y-72709000D01*
G75*
G02*
X93825000Y-72459001I0J249999D01*
G01*
X93825000Y-71558999D01*
G75*
G02*
X94074999Y-71309000I249999J0D01*
G01*
X94600001Y-71309000D01*
G75*
G02*
X94850000Y-71558999I0J-249999D01*
G01*
G37*
G36*
G01*
X96675000Y-71558999D02*
X96675000Y-72459001D01*
G75*
G02*
X96425001Y-72709000I-249999J0D01*
G01*
X95899999Y-72709000D01*
G75*
G02*
X95650000Y-72459001I0J249999D01*
G01*
X95650000Y-71558999D01*
G75*
G02*
X95899999Y-71309000I249999J0D01*
G01*
X96425001Y-71309000D01*
G75*
G02*
X96675000Y-71558999I0J-249999D01*
G01*
G37*
%TD*%
D18*
%TO.C,J106*%
X90678000Y-63500000D03*
X93218000Y-63500000D03*
D19*
X98298000Y-58420000D03*
X88138000Y-58420000D03*
%TD*%
%TO.C,C110*%
G36*
G01*
X98013500Y-71697000D02*
X98963500Y-71697000D01*
G75*
G02*
X99213500Y-71947000I0J-250000D01*
G01*
X99213500Y-72447000D01*
G75*
G02*
X98963500Y-72697000I-250000J0D01*
G01*
X98013500Y-72697000D01*
G75*
G02*
X97763500Y-72447000I0J250000D01*
G01*
X97763500Y-71947000D01*
G75*
G02*
X98013500Y-71697000I250000J0D01*
G01*
G37*
G36*
G01*
X98013500Y-69797000D02*
X98963500Y-69797000D01*
G75*
G02*
X99213500Y-70047000I0J-250000D01*
G01*
X99213500Y-70547000D01*
G75*
G02*
X98963500Y-70797000I-250000J0D01*
G01*
X98013500Y-70797000D01*
G75*
G02*
X97763500Y-70547000I0J250000D01*
G01*
X97763500Y-70047000D01*
G75*
G02*
X98013500Y-69797000I250000J0D01*
G01*
G37*
%TD*%
%TO.C,C109*%
G36*
G01*
X97467000Y-79154000D02*
X97467000Y-80104000D01*
G75*
G02*
X97217000Y-80354000I-250000J0D01*
G01*
X96717000Y-80354000D01*
G75*
G02*
X96467000Y-80104000I0J250000D01*
G01*
X96467000Y-79154000D01*
G75*
G02*
X96717000Y-78904000I250000J0D01*
G01*
X97217000Y-78904000D01*
G75*
G02*
X97467000Y-79154000I0J-250000D01*
G01*
G37*
G36*
G01*
X99367000Y-79154000D02*
X99367000Y-80104000D01*
G75*
G02*
X99117000Y-80354000I-250000J0D01*
G01*
X98617000Y-80354000D01*
G75*
G02*
X98367000Y-80104000I0J250000D01*
G01*
X98367000Y-79154000D01*
G75*
G02*
X98617000Y-78904000I250000J0D01*
G01*
X99117000Y-78904000D01*
G75*
G02*
X99367000Y-79154000I0J-250000D01*
G01*
G37*
%TD*%
%TO.C,C108*%
G36*
G01*
X90620000Y-74135000D02*
X90620000Y-73185000D01*
G75*
G02*
X90870000Y-72935000I250000J0D01*
G01*
X91370000Y-72935000D01*
G75*
G02*
X91620000Y-73185000I0J-250000D01*
G01*
X91620000Y-74135000D01*
G75*
G02*
X91370000Y-74385000I-250000J0D01*
G01*
X90870000Y-74385000D01*
G75*
G02*
X90620000Y-74135000I0J250000D01*
G01*
G37*
G36*
G01*
X88720000Y-74135000D02*
X88720000Y-73185000D01*
G75*
G02*
X88970000Y-72935000I250000J0D01*
G01*
X89470000Y-72935000D01*
G75*
G02*
X89720000Y-73185000I0J-250000D01*
G01*
X89720000Y-74135000D01*
G75*
G02*
X89470000Y-74385000I-250000J0D01*
G01*
X88970000Y-74385000D01*
G75*
G02*
X88720000Y-74135000I0J250000D01*
G01*
G37*
%TD*%
D14*
%TO.C,U2*%
X60452000Y-79502000D03*
G36*
G01*
X62052000Y-78377000D02*
X62752000Y-78377000D01*
G75*
G02*
X62827000Y-78452000I0J-75000D01*
G01*
X62827000Y-78602000D01*
G75*
G02*
X62752000Y-78677000I-75000J0D01*
G01*
X62052000Y-78677000D01*
G75*
G02*
X61977000Y-78602000I0J75000D01*
G01*
X61977000Y-78452000D01*
G75*
G02*
X62052000Y-78377000I75000J0D01*
G01*
G37*
G36*
G01*
X62052000Y-79027000D02*
X62752000Y-79027000D01*
G75*
G02*
X62827000Y-79102000I0J-75000D01*
G01*
X62827000Y-79252000D01*
G75*
G02*
X62752000Y-79327000I-75000J0D01*
G01*
X62052000Y-79327000D01*
G75*
G02*
X61977000Y-79252000I0J75000D01*
G01*
X61977000Y-79102000D01*
G75*
G02*
X62052000Y-79027000I75000J0D01*
G01*
G37*
G36*
G01*
X62052000Y-79677000D02*
X62752000Y-79677000D01*
G75*
G02*
X62827000Y-79752000I0J-75000D01*
G01*
X62827000Y-79902000D01*
G75*
G02*
X62752000Y-79977000I-75000J0D01*
G01*
X62052000Y-79977000D01*
G75*
G02*
X61977000Y-79902000I0J75000D01*
G01*
X61977000Y-79752000D01*
G75*
G02*
X62052000Y-79677000I75000J0D01*
G01*
G37*
G36*
G01*
X62052000Y-80327000D02*
X62752000Y-80327000D01*
G75*
G02*
X62827000Y-80402000I0J-75000D01*
G01*
X62827000Y-80552000D01*
G75*
G02*
X62752000Y-80627000I-75000J0D01*
G01*
X62052000Y-80627000D01*
G75*
G02*
X61977000Y-80552000I0J75000D01*
G01*
X61977000Y-80402000D01*
G75*
G02*
X62052000Y-80327000I75000J0D01*
G01*
G37*
G36*
G01*
X61352000Y-81027000D02*
X61502000Y-81027000D01*
G75*
G02*
X61577000Y-81102000I0J-75000D01*
G01*
X61577000Y-81802000D01*
G75*
G02*
X61502000Y-81877000I-75000J0D01*
G01*
X61352000Y-81877000D01*
G75*
G02*
X61277000Y-81802000I0J75000D01*
G01*
X61277000Y-81102000D01*
G75*
G02*
X61352000Y-81027000I75000J0D01*
G01*
G37*
G36*
G01*
X60702000Y-81027000D02*
X60852000Y-81027000D01*
G75*
G02*
X60927000Y-81102000I0J-75000D01*
G01*
X60927000Y-81802000D01*
G75*
G02*
X60852000Y-81877000I-75000J0D01*
G01*
X60702000Y-81877000D01*
G75*
G02*
X60627000Y-81802000I0J75000D01*
G01*
X60627000Y-81102000D01*
G75*
G02*
X60702000Y-81027000I75000J0D01*
G01*
G37*
G36*
G01*
X60052000Y-81027000D02*
X60202000Y-81027000D01*
G75*
G02*
X60277000Y-81102000I0J-75000D01*
G01*
X60277000Y-81802000D01*
G75*
G02*
X60202000Y-81877000I-75000J0D01*
G01*
X60052000Y-81877000D01*
G75*
G02*
X59977000Y-81802000I0J75000D01*
G01*
X59977000Y-81102000D01*
G75*
G02*
X60052000Y-81027000I75000J0D01*
G01*
G37*
G36*
G01*
X59402000Y-81027000D02*
X59552000Y-81027000D01*
G75*
G02*
X59627000Y-81102000I0J-75000D01*
G01*
X59627000Y-81802000D01*
G75*
G02*
X59552000Y-81877000I-75000J0D01*
G01*
X59402000Y-81877000D01*
G75*
G02*
X59327000Y-81802000I0J75000D01*
G01*
X59327000Y-81102000D01*
G75*
G02*
X59402000Y-81027000I75000J0D01*
G01*
G37*
G36*
G01*
X58152000Y-80327000D02*
X58852000Y-80327000D01*
G75*
G02*
X58927000Y-80402000I0J-75000D01*
G01*
X58927000Y-80552000D01*
G75*
G02*
X58852000Y-80627000I-75000J0D01*
G01*
X58152000Y-80627000D01*
G75*
G02*
X58077000Y-80552000I0J75000D01*
G01*
X58077000Y-80402000D01*
G75*
G02*
X58152000Y-80327000I75000J0D01*
G01*
G37*
G36*
G01*
X58152000Y-79677000D02*
X58852000Y-79677000D01*
G75*
G02*
X58927000Y-79752000I0J-75000D01*
G01*
X58927000Y-79902000D01*
G75*
G02*
X58852000Y-79977000I-75000J0D01*
G01*
X58152000Y-79977000D01*
G75*
G02*
X58077000Y-79902000I0J75000D01*
G01*
X58077000Y-79752000D01*
G75*
G02*
X58152000Y-79677000I75000J0D01*
G01*
G37*
G36*
G01*
X58152000Y-79027000D02*
X58852000Y-79027000D01*
G75*
G02*
X58927000Y-79102000I0J-75000D01*
G01*
X58927000Y-79252000D01*
G75*
G02*
X58852000Y-79327000I-75000J0D01*
G01*
X58152000Y-79327000D01*
G75*
G02*
X58077000Y-79252000I0J75000D01*
G01*
X58077000Y-79102000D01*
G75*
G02*
X58152000Y-79027000I75000J0D01*
G01*
G37*
G36*
G01*
X58152000Y-78377000D02*
X58852000Y-78377000D01*
G75*
G02*
X58927000Y-78452000I0J-75000D01*
G01*
X58927000Y-78602000D01*
G75*
G02*
X58852000Y-78677000I-75000J0D01*
G01*
X58152000Y-78677000D01*
G75*
G02*
X58077000Y-78602000I0J75000D01*
G01*
X58077000Y-78452000D01*
G75*
G02*
X58152000Y-78377000I75000J0D01*
G01*
G37*
G36*
G01*
X59402000Y-77127000D02*
X59552000Y-77127000D01*
G75*
G02*
X59627000Y-77202000I0J-75000D01*
G01*
X59627000Y-77902000D01*
G75*
G02*
X59552000Y-77977000I-75000J0D01*
G01*
X59402000Y-77977000D01*
G75*
G02*
X59327000Y-77902000I0J75000D01*
G01*
X59327000Y-77202000D01*
G75*
G02*
X59402000Y-77127000I75000J0D01*
G01*
G37*
G36*
G01*
X60052000Y-77127000D02*
X60202000Y-77127000D01*
G75*
G02*
X60277000Y-77202000I0J-75000D01*
G01*
X60277000Y-77902000D01*
G75*
G02*
X60202000Y-77977000I-75000J0D01*
G01*
X60052000Y-77977000D01*
G75*
G02*
X59977000Y-77902000I0J75000D01*
G01*
X59977000Y-77202000D01*
G75*
G02*
X60052000Y-77127000I75000J0D01*
G01*
G37*
G36*
G01*
X60702000Y-77127000D02*
X60852000Y-77127000D01*
G75*
G02*
X60927000Y-77202000I0J-75000D01*
G01*
X60927000Y-77902000D01*
G75*
G02*
X60852000Y-77977000I-75000J0D01*
G01*
X60702000Y-77977000D01*
G75*
G02*
X60627000Y-77902000I0J75000D01*
G01*
X60627000Y-77202000D01*
G75*
G02*
X60702000Y-77127000I75000J0D01*
G01*
G37*
G36*
G01*
X61352000Y-77127000D02*
X61502000Y-77127000D01*
G75*
G02*
X61577000Y-77202000I0J-75000D01*
G01*
X61577000Y-77902000D01*
G75*
G02*
X61502000Y-77977000I-75000J0D01*
G01*
X61352000Y-77977000D01*
G75*
G02*
X61277000Y-77902000I0J75000D01*
G01*
X61277000Y-77202000D01*
G75*
G02*
X61352000Y-77127000I75000J0D01*
G01*
G37*
%TD*%
D24*
%TO.C,Y101*%
X56594500Y-91566000D03*
X56594500Y-88266000D03*
X58594500Y-88266000D03*
X58594500Y-91566000D03*
%TD*%
D15*
%TO.C,J104*%
X109220000Y-94234000D03*
X109220000Y-91694000D03*
X109220000Y-89154000D03*
X109220000Y-86614000D03*
D16*
X109220000Y-84074000D03*
%TD*%
%TO.C,D104*%
G36*
G01*
X109961500Y-51613750D02*
X109961500Y-52526250D01*
G75*
G02*
X109717750Y-52770000I-243750J0D01*
G01*
X109230250Y-52770000D01*
G75*
G02*
X108986500Y-52526250I0J243750D01*
G01*
X108986500Y-51613750D01*
G75*
G02*
X109230250Y-51370000I243750J0D01*
G01*
X109717750Y-51370000D01*
G75*
G02*
X109961500Y-51613750I0J-243750D01*
G01*
G37*
G36*
G01*
X111836500Y-51613750D02*
X111836500Y-52526250D01*
G75*
G02*
X111592750Y-52770000I-243750J0D01*
G01*
X111105250Y-52770000D01*
G75*
G02*
X110861500Y-52526250I0J243750D01*
G01*
X110861500Y-51613750D01*
G75*
G02*
X111105250Y-51370000I243750J0D01*
G01*
X111592750Y-51370000D01*
G75*
G02*
X111836500Y-51613750I0J-243750D01*
G01*
G37*
%TD*%
%TO.C,D103*%
G36*
G01*
X102752500Y-51613750D02*
X102752500Y-52526250D01*
G75*
G02*
X102508750Y-52770000I-243750J0D01*
G01*
X102021250Y-52770000D01*
G75*
G02*
X101777500Y-52526250I0J243750D01*
G01*
X101777500Y-51613750D01*
G75*
G02*
X102021250Y-51370000I243750J0D01*
G01*
X102508750Y-51370000D01*
G75*
G02*
X102752500Y-51613750I0J-243750D01*
G01*
G37*
G36*
G01*
X104627500Y-51613750D02*
X104627500Y-52526250D01*
G75*
G02*
X104383750Y-52770000I-243750J0D01*
G01*
X103896250Y-52770000D01*
G75*
G02*
X103652500Y-52526250I0J243750D01*
G01*
X103652500Y-51613750D01*
G75*
G02*
X103896250Y-51370000I243750J0D01*
G01*
X104383750Y-51370000D01*
G75*
G02*
X104627500Y-51613750I0J-243750D01*
G01*
G37*
%TD*%
%TO.C,D102*%
G36*
G01*
X106405500Y-51613750D02*
X106405500Y-52526250D01*
G75*
G02*
X106161750Y-52770000I-243750J0D01*
G01*
X105674250Y-52770000D01*
G75*
G02*
X105430500Y-52526250I0J243750D01*
G01*
X105430500Y-51613750D01*
G75*
G02*
X105674250Y-51370000I243750J0D01*
G01*
X106161750Y-51370000D01*
G75*
G02*
X106405500Y-51613750I0J-243750D01*
G01*
G37*
G36*
G01*
X108280500Y-51613750D02*
X108280500Y-52526250D01*
G75*
G02*
X108036750Y-52770000I-243750J0D01*
G01*
X107549250Y-52770000D01*
G75*
G02*
X107305500Y-52526250I0J243750D01*
G01*
X107305500Y-51613750D01*
G75*
G02*
X107549250Y-51370000I243750J0D01*
G01*
X108036750Y-51370000D01*
G75*
G02*
X108280500Y-51613750I0J-243750D01*
G01*
G37*
%TD*%
%TO.C,D101*%
G36*
G01*
X93959500Y-86157750D02*
X93959500Y-87070250D01*
G75*
G02*
X93715750Y-87314000I-243750J0D01*
G01*
X93228250Y-87314000D01*
G75*
G02*
X92984500Y-87070250I0J243750D01*
G01*
X92984500Y-86157750D01*
G75*
G02*
X93228250Y-85914000I243750J0D01*
G01*
X93715750Y-85914000D01*
G75*
G02*
X93959500Y-86157750I0J-243750D01*
G01*
G37*
G36*
G01*
X95834500Y-86157750D02*
X95834500Y-87070250D01*
G75*
G02*
X95590750Y-87314000I-243750J0D01*
G01*
X95103250Y-87314000D01*
G75*
G02*
X94859500Y-87070250I0J243750D01*
G01*
X94859500Y-86157750D01*
G75*
G02*
X95103250Y-85914000I243750J0D01*
G01*
X95590750Y-85914000D01*
G75*
G02*
X95834500Y-86157750I0J-243750D01*
G01*
G37*
%TD*%
%TO.C,C105*%
G36*
G01*
X59750500Y-84170500D02*
X59750500Y-85120500D01*
G75*
G02*
X59500500Y-85370500I-250000J0D01*
G01*
X59000500Y-85370500D01*
G75*
G02*
X58750500Y-85120500I0J250000D01*
G01*
X58750500Y-84170500D01*
G75*
G02*
X59000500Y-83920500I250000J0D01*
G01*
X59500500Y-83920500D01*
G75*
G02*
X59750500Y-84170500I0J-250000D01*
G01*
G37*
G36*
G01*
X61650500Y-84170500D02*
X61650500Y-85120500D01*
G75*
G02*
X61400500Y-85370500I-250000J0D01*
G01*
X60900500Y-85370500D01*
G75*
G02*
X60650500Y-85120500I0J250000D01*
G01*
X60650500Y-84170500D01*
G75*
G02*
X60900500Y-83920500I250000J0D01*
G01*
X61400500Y-83920500D01*
G75*
G02*
X61650500Y-84170500I0J-250000D01*
G01*
G37*
%TD*%
%TO.C,C104*%
G36*
G01*
X54894500Y-91310000D02*
X53944500Y-91310000D01*
G75*
G02*
X53694500Y-91060000I0J250000D01*
G01*
X53694500Y-90560000D01*
G75*
G02*
X53944500Y-90310000I250000J0D01*
G01*
X54894500Y-90310000D01*
G75*
G02*
X55144500Y-90560000I0J-250000D01*
G01*
X55144500Y-91060000D01*
G75*
G02*
X54894500Y-91310000I-250000J0D01*
G01*
G37*
G36*
G01*
X54894500Y-93210000D02*
X53944500Y-93210000D01*
G75*
G02*
X53694500Y-92960000I0J250000D01*
G01*
X53694500Y-92460000D01*
G75*
G02*
X53944500Y-92210000I250000J0D01*
G01*
X54894500Y-92210000D01*
G75*
G02*
X55144500Y-92460000I0J-250000D01*
G01*
X55144500Y-92960000D01*
G75*
G02*
X54894500Y-93210000I-250000J0D01*
G01*
G37*
%TD*%
%TO.C,C103*%
G36*
G01*
X53944500Y-88527000D02*
X54894500Y-88527000D01*
G75*
G02*
X55144500Y-88777000I0J-250000D01*
G01*
X55144500Y-89277000D01*
G75*
G02*
X54894500Y-89527000I-250000J0D01*
G01*
X53944500Y-89527000D01*
G75*
G02*
X53694500Y-89277000I0J250000D01*
G01*
X53694500Y-88777000D01*
G75*
G02*
X53944500Y-88527000I250000J0D01*
G01*
G37*
G36*
G01*
X53944500Y-86627000D02*
X54894500Y-86627000D01*
G75*
G02*
X55144500Y-86877000I0J-250000D01*
G01*
X55144500Y-87377000D01*
G75*
G02*
X54894500Y-87627000I-250000J0D01*
G01*
X53944500Y-87627000D01*
G75*
G02*
X53694500Y-87377000I0J250000D01*
G01*
X53694500Y-86877000D01*
G75*
G02*
X53944500Y-86627000I250000J0D01*
G01*
G37*
%TD*%
%TO.C,C101*%
G36*
G01*
X68232000Y-93350500D02*
X69182000Y-93350500D01*
G75*
G02*
X69432000Y-93600500I0J-250000D01*
G01*
X69432000Y-94100500D01*
G75*
G02*
X69182000Y-94350500I-250000J0D01*
G01*
X68232000Y-94350500D01*
G75*
G02*
X67982000Y-94100500I0J250000D01*
G01*
X67982000Y-93600500D01*
G75*
G02*
X68232000Y-93350500I250000J0D01*
G01*
G37*
G36*
G01*
X68232000Y-91450500D02*
X69182000Y-91450500D01*
G75*
G02*
X69432000Y-91700500I0J-250000D01*
G01*
X69432000Y-92200500D01*
G75*
G02*
X69182000Y-92450500I-250000J0D01*
G01*
X68232000Y-92450500D01*
G75*
G02*
X67982000Y-92200500I0J250000D01*
G01*
X67982000Y-91700500D01*
G75*
G02*
X68232000Y-91450500I250000J0D01*
G01*
G37*
%TD*%
D25*
%TO.C,J4*%
X57623500Y-109106000D03*
X58423500Y-109106000D03*
X59223500Y-109106000D03*
X60023500Y-109106000D03*
X60823500Y-109106000D03*
X61623500Y-109106000D03*
X62423500Y-109106000D03*
X63223500Y-109106000D03*
X64023500Y-109106000D03*
X64823500Y-109106000D03*
X64423500Y-100906000D03*
X63623500Y-100906000D03*
X62823500Y-100906000D03*
X62023500Y-100906000D03*
X61223500Y-100906000D03*
X60423500Y-100906000D03*
X59623500Y-100906000D03*
X58823500Y-100906000D03*
X58023500Y-100906000D03*
X57223500Y-100906000D03*
D26*
X65823500Y-105006000D03*
X56223500Y-105006000D03*
D27*
X53898500Y-105906000D03*
X53898500Y-115906000D03*
X53898500Y-125906000D03*
X53898500Y-135906000D03*
D28*
X61023500Y-98806000D03*
X56223500Y-98806000D03*
X65823500Y-98806000D03*
D27*
X68148500Y-100906000D03*
X68148500Y-110906000D03*
X68148500Y-120906000D03*
X68148500Y-130906000D03*
X62473500Y-135906000D03*
X64973500Y-115906000D03*
X59573500Y-115906000D03*
D28*
X68148500Y-103406000D03*
X53898500Y-103406000D03*
X53898500Y-108406000D03*
X53898500Y-113106000D03*
X68148500Y-113106000D03*
X68148500Y-108406000D03*
%TD*%
%TO.C,C12*%
G36*
G01*
X74176000Y-74135000D02*
X74176000Y-73185000D01*
G75*
G02*
X74426000Y-72935000I250000J0D01*
G01*
X74926000Y-72935000D01*
G75*
G02*
X75176000Y-73185000I0J-250000D01*
G01*
X75176000Y-74135000D01*
G75*
G02*
X74926000Y-74385000I-250000J0D01*
G01*
X74426000Y-74385000D01*
G75*
G02*
X74176000Y-74135000I0J250000D01*
G01*
G37*
G36*
G01*
X72276000Y-74135000D02*
X72276000Y-73185000D01*
G75*
G02*
X72526000Y-72935000I250000J0D01*
G01*
X73026000Y-72935000D01*
G75*
G02*
X73276000Y-73185000I0J-250000D01*
G01*
X73276000Y-74135000D01*
G75*
G02*
X73026000Y-74385000I-250000J0D01*
G01*
X72526000Y-74385000D01*
G75*
G02*
X72276000Y-74135000I0J250000D01*
G01*
G37*
%TD*%
D14*
%TO.C,U3*%
X76708000Y-77724000D03*
G36*
G01*
X75583000Y-76124000D02*
X75583000Y-75424000D01*
G75*
G02*
X75658000Y-75349000I75000J0D01*
G01*
X75808000Y-75349000D01*
G75*
G02*
X75883000Y-75424000I0J-75000D01*
G01*
X75883000Y-76124000D01*
G75*
G02*
X75808000Y-76199000I-75000J0D01*
G01*
X75658000Y-76199000D01*
G75*
G02*
X75583000Y-76124000I0J75000D01*
G01*
G37*
G36*
G01*
X76233000Y-76124000D02*
X76233000Y-75424000D01*
G75*
G02*
X76308000Y-75349000I75000J0D01*
G01*
X76458000Y-75349000D01*
G75*
G02*
X76533000Y-75424000I0J-75000D01*
G01*
X76533000Y-76124000D01*
G75*
G02*
X76458000Y-76199000I-75000J0D01*
G01*
X76308000Y-76199000D01*
G75*
G02*
X76233000Y-76124000I0J75000D01*
G01*
G37*
G36*
G01*
X76883000Y-76124000D02*
X76883000Y-75424000D01*
G75*
G02*
X76958000Y-75349000I75000J0D01*
G01*
X77108000Y-75349000D01*
G75*
G02*
X77183000Y-75424000I0J-75000D01*
G01*
X77183000Y-76124000D01*
G75*
G02*
X77108000Y-76199000I-75000J0D01*
G01*
X76958000Y-76199000D01*
G75*
G02*
X76883000Y-76124000I0J75000D01*
G01*
G37*
G36*
G01*
X77533000Y-76124000D02*
X77533000Y-75424000D01*
G75*
G02*
X77608000Y-75349000I75000J0D01*
G01*
X77758000Y-75349000D01*
G75*
G02*
X77833000Y-75424000I0J-75000D01*
G01*
X77833000Y-76124000D01*
G75*
G02*
X77758000Y-76199000I-75000J0D01*
G01*
X77608000Y-76199000D01*
G75*
G02*
X77533000Y-76124000I0J75000D01*
G01*
G37*
G36*
G01*
X78233000Y-76824000D02*
X78233000Y-76674000D01*
G75*
G02*
X78308000Y-76599000I75000J0D01*
G01*
X79008000Y-76599000D01*
G75*
G02*
X79083000Y-76674000I0J-75000D01*
G01*
X79083000Y-76824000D01*
G75*
G02*
X79008000Y-76899000I-75000J0D01*
G01*
X78308000Y-76899000D01*
G75*
G02*
X78233000Y-76824000I0J75000D01*
G01*
G37*
G36*
G01*
X78233000Y-77474000D02*
X78233000Y-77324000D01*
G75*
G02*
X78308000Y-77249000I75000J0D01*
G01*
X79008000Y-77249000D01*
G75*
G02*
X79083000Y-77324000I0J-75000D01*
G01*
X79083000Y-77474000D01*
G75*
G02*
X79008000Y-77549000I-75000J0D01*
G01*
X78308000Y-77549000D01*
G75*
G02*
X78233000Y-77474000I0J75000D01*
G01*
G37*
G36*
G01*
X78233000Y-78124000D02*
X78233000Y-77974000D01*
G75*
G02*
X78308000Y-77899000I75000J0D01*
G01*
X79008000Y-77899000D01*
G75*
G02*
X79083000Y-77974000I0J-75000D01*
G01*
X79083000Y-78124000D01*
G75*
G02*
X79008000Y-78199000I-75000J0D01*
G01*
X78308000Y-78199000D01*
G75*
G02*
X78233000Y-78124000I0J75000D01*
G01*
G37*
G36*
G01*
X78233000Y-78774000D02*
X78233000Y-78624000D01*
G75*
G02*
X78308000Y-78549000I75000J0D01*
G01*
X79008000Y-78549000D01*
G75*
G02*
X79083000Y-78624000I0J-75000D01*
G01*
X79083000Y-78774000D01*
G75*
G02*
X79008000Y-78849000I-75000J0D01*
G01*
X78308000Y-78849000D01*
G75*
G02*
X78233000Y-78774000I0J75000D01*
G01*
G37*
G36*
G01*
X77533000Y-80024000D02*
X77533000Y-79324000D01*
G75*
G02*
X77608000Y-79249000I75000J0D01*
G01*
X77758000Y-79249000D01*
G75*
G02*
X77833000Y-79324000I0J-75000D01*
G01*
X77833000Y-80024000D01*
G75*
G02*
X77758000Y-80099000I-75000J0D01*
G01*
X77608000Y-80099000D01*
G75*
G02*
X77533000Y-80024000I0J75000D01*
G01*
G37*
G36*
G01*
X76883000Y-80024000D02*
X76883000Y-79324000D01*
G75*
G02*
X76958000Y-79249000I75000J0D01*
G01*
X77108000Y-79249000D01*
G75*
G02*
X77183000Y-79324000I0J-75000D01*
G01*
X77183000Y-80024000D01*
G75*
G02*
X77108000Y-80099000I-75000J0D01*
G01*
X76958000Y-80099000D01*
G75*
G02*
X76883000Y-80024000I0J75000D01*
G01*
G37*
G36*
G01*
X76233000Y-80024000D02*
X76233000Y-79324000D01*
G75*
G02*
X76308000Y-79249000I75000J0D01*
G01*
X76458000Y-79249000D01*
G75*
G02*
X76533000Y-79324000I0J-75000D01*
G01*
X76533000Y-80024000D01*
G75*
G02*
X76458000Y-80099000I-75000J0D01*
G01*
X76308000Y-80099000D01*
G75*
G02*
X76233000Y-80024000I0J75000D01*
G01*
G37*
G36*
G01*
X75583000Y-80024000D02*
X75583000Y-79324000D01*
G75*
G02*
X75658000Y-79249000I75000J0D01*
G01*
X75808000Y-79249000D01*
G75*
G02*
X75883000Y-79324000I0J-75000D01*
G01*
X75883000Y-80024000D01*
G75*
G02*
X75808000Y-80099000I-75000J0D01*
G01*
X75658000Y-80099000D01*
G75*
G02*
X75583000Y-80024000I0J75000D01*
G01*
G37*
G36*
G01*
X74333000Y-78774000D02*
X74333000Y-78624000D01*
G75*
G02*
X74408000Y-78549000I75000J0D01*
G01*
X75108000Y-78549000D01*
G75*
G02*
X75183000Y-78624000I0J-75000D01*
G01*
X75183000Y-78774000D01*
G75*
G02*
X75108000Y-78849000I-75000J0D01*
G01*
X74408000Y-78849000D01*
G75*
G02*
X74333000Y-78774000I0J75000D01*
G01*
G37*
G36*
G01*
X74333000Y-78124000D02*
X74333000Y-77974000D01*
G75*
G02*
X74408000Y-77899000I75000J0D01*
G01*
X75108000Y-77899000D01*
G75*
G02*
X75183000Y-77974000I0J-75000D01*
G01*
X75183000Y-78124000D01*
G75*
G02*
X75108000Y-78199000I-75000J0D01*
G01*
X74408000Y-78199000D01*
G75*
G02*
X74333000Y-78124000I0J75000D01*
G01*
G37*
G36*
G01*
X74333000Y-77474000D02*
X74333000Y-77324000D01*
G75*
G02*
X74408000Y-77249000I75000J0D01*
G01*
X75108000Y-77249000D01*
G75*
G02*
X75183000Y-77324000I0J-75000D01*
G01*
X75183000Y-77474000D01*
G75*
G02*
X75108000Y-77549000I-75000J0D01*
G01*
X74408000Y-77549000D01*
G75*
G02*
X74333000Y-77474000I0J75000D01*
G01*
G37*
G36*
G01*
X74333000Y-76824000D02*
X74333000Y-76674000D01*
G75*
G02*
X74408000Y-76599000I75000J0D01*
G01*
X75108000Y-76599000D01*
G75*
G02*
X75183000Y-76674000I0J-75000D01*
G01*
X75183000Y-76824000D01*
G75*
G02*
X75108000Y-76899000I-75000J0D01*
G01*
X74408000Y-76899000D01*
G75*
G02*
X74333000Y-76824000I0J75000D01*
G01*
G37*
%TD*%
D18*
%TO.C,J6*%
X74168000Y-63500000D03*
X76708000Y-63500000D03*
D19*
X81788000Y-58420000D03*
X71628000Y-58420000D03*
%TD*%
%TO.C,C14*%
G36*
G01*
X80957000Y-79154000D02*
X80957000Y-80104000D01*
G75*
G02*
X80707000Y-80354000I-250000J0D01*
G01*
X80207000Y-80354000D01*
G75*
G02*
X79957000Y-80104000I0J250000D01*
G01*
X79957000Y-79154000D01*
G75*
G02*
X80207000Y-78904000I250000J0D01*
G01*
X80707000Y-78904000D01*
G75*
G02*
X80957000Y-79154000I0J-250000D01*
G01*
G37*
G36*
G01*
X82857000Y-79154000D02*
X82857000Y-80104000D01*
G75*
G02*
X82607000Y-80354000I-250000J0D01*
G01*
X82107000Y-80354000D01*
G75*
G02*
X81857000Y-80104000I0J250000D01*
G01*
X81857000Y-79154000D01*
G75*
G02*
X82107000Y-78904000I250000J0D01*
G01*
X82607000Y-78904000D01*
G75*
G02*
X82857000Y-79154000I0J-250000D01*
G01*
G37*
%TD*%
%TO.C,C13*%
G36*
G01*
X81503500Y-69606500D02*
X82453500Y-69606500D01*
G75*
G02*
X82703500Y-69856500I0J-250000D01*
G01*
X82703500Y-70356500D01*
G75*
G02*
X82453500Y-70606500I-250000J0D01*
G01*
X81503500Y-70606500D01*
G75*
G02*
X81253500Y-70356500I0J250000D01*
G01*
X81253500Y-69856500D01*
G75*
G02*
X81503500Y-69606500I250000J0D01*
G01*
G37*
G36*
G01*
X81503500Y-71506500D02*
X82453500Y-71506500D01*
G75*
G02*
X82703500Y-71756500I0J-250000D01*
G01*
X82703500Y-72256500D01*
G75*
G02*
X82453500Y-72506500I-250000J0D01*
G01*
X81503500Y-72506500D01*
G75*
G02*
X81253500Y-72256500I0J250000D01*
G01*
X81253500Y-71756500D01*
G75*
G02*
X81503500Y-71506500I250000J0D01*
G01*
G37*
%TD*%
%TO.C,C11*%
G36*
G01*
X55623000Y-95791000D02*
X55623000Y-96741000D01*
G75*
G02*
X55373000Y-96991000I-250000J0D01*
G01*
X54873000Y-96991000D01*
G75*
G02*
X54623000Y-96741000I0J250000D01*
G01*
X54623000Y-95791000D01*
G75*
G02*
X54873000Y-95541000I250000J0D01*
G01*
X55373000Y-95541000D01*
G75*
G02*
X55623000Y-95791000I0J-250000D01*
G01*
G37*
G36*
G01*
X57523000Y-95791000D02*
X57523000Y-96741000D01*
G75*
G02*
X57273000Y-96991000I-250000J0D01*
G01*
X56773000Y-96991000D01*
G75*
G02*
X56523000Y-96741000I0J250000D01*
G01*
X56523000Y-95791000D01*
G75*
G02*
X56773000Y-95541000I250000J0D01*
G01*
X57273000Y-95541000D01*
G75*
G02*
X57523000Y-95791000I0J-250000D01*
G01*
G37*
%TD*%
%TO.C,C9*%
G36*
G01*
X54135000Y-79190000D02*
X55085000Y-79190000D01*
G75*
G02*
X55335000Y-79440000I0J-250000D01*
G01*
X55335000Y-79940000D01*
G75*
G02*
X55085000Y-80190000I-250000J0D01*
G01*
X54135000Y-80190000D01*
G75*
G02*
X53885000Y-79940000I0J250000D01*
G01*
X53885000Y-79440000D01*
G75*
G02*
X54135000Y-79190000I250000J0D01*
G01*
G37*
G36*
G01*
X54135000Y-77290000D02*
X55085000Y-77290000D01*
G75*
G02*
X55335000Y-77540000I0J-250000D01*
G01*
X55335000Y-78040000D01*
G75*
G02*
X55085000Y-78290000I-250000J0D01*
G01*
X54135000Y-78290000D01*
G75*
G02*
X53885000Y-78040000I0J250000D01*
G01*
X53885000Y-77540000D01*
G75*
G02*
X54135000Y-77290000I250000J0D01*
G01*
G37*
%TD*%
%TO.C,C7*%
G36*
G01*
X64041000Y-77478000D02*
X64991000Y-77478000D01*
G75*
G02*
X65241000Y-77728000I0J-250000D01*
G01*
X65241000Y-78228000D01*
G75*
G02*
X64991000Y-78478000I-250000J0D01*
G01*
X64041000Y-78478000D01*
G75*
G02*
X63791000Y-78228000I0J250000D01*
G01*
X63791000Y-77728000D01*
G75*
G02*
X64041000Y-77478000I250000J0D01*
G01*
G37*
G36*
G01*
X64041000Y-75578000D02*
X64991000Y-75578000D01*
G75*
G02*
X65241000Y-75828000I0J-250000D01*
G01*
X65241000Y-76328000D01*
G75*
G02*
X64991000Y-76578000I-250000J0D01*
G01*
X64041000Y-76578000D01*
G75*
G02*
X63791000Y-76328000I0J250000D01*
G01*
X63791000Y-75828000D01*
G75*
G02*
X64041000Y-75578000I250000J0D01*
G01*
G37*
%TD*%
%TO.C,C6*%
G36*
G01*
X64991000Y-81526000D02*
X64041000Y-81526000D01*
G75*
G02*
X63791000Y-81276000I0J250000D01*
G01*
X63791000Y-80776000D01*
G75*
G02*
X64041000Y-80526000I250000J0D01*
G01*
X64991000Y-80526000D01*
G75*
G02*
X65241000Y-80776000I0J-250000D01*
G01*
X65241000Y-81276000D01*
G75*
G02*
X64991000Y-81526000I-250000J0D01*
G01*
G37*
G36*
G01*
X64991000Y-83426000D02*
X64041000Y-83426000D01*
G75*
G02*
X63791000Y-83176000I0J250000D01*
G01*
X63791000Y-82676000D01*
G75*
G02*
X64041000Y-82426000I250000J0D01*
G01*
X64991000Y-82426000D01*
G75*
G02*
X65241000Y-82676000I0J-250000D01*
G01*
X65241000Y-83176000D01*
G75*
G02*
X64991000Y-83426000I-250000J0D01*
G01*
G37*
%TD*%
%TO.C,C2*%
G36*
G01*
X59911000Y-73972000D02*
X58961000Y-73972000D01*
G75*
G02*
X58711000Y-73722000I0J250000D01*
G01*
X58711000Y-73222000D01*
G75*
G02*
X58961000Y-72972000I250000J0D01*
G01*
X59911000Y-72972000D01*
G75*
G02*
X60161000Y-73222000I0J-250000D01*
G01*
X60161000Y-73722000D01*
G75*
G02*
X59911000Y-73972000I-250000J0D01*
G01*
G37*
G36*
G01*
X59911000Y-75872000D02*
X58961000Y-75872000D01*
G75*
G02*
X58711000Y-75622000I0J250000D01*
G01*
X58711000Y-75122000D01*
G75*
G02*
X58961000Y-74872000I250000J0D01*
G01*
X59911000Y-74872000D01*
G75*
G02*
X60161000Y-75122000I0J-250000D01*
G01*
X60161000Y-75622000D01*
G75*
G02*
X59911000Y-75872000I-250000J0D01*
G01*
G37*
%TD*%
%TO.C,C1*%
G36*
G01*
X61943000Y-73972000D02*
X60993000Y-73972000D01*
G75*
G02*
X60743000Y-73722000I0J250000D01*
G01*
X60743000Y-73222000D01*
G75*
G02*
X60993000Y-72972000I250000J0D01*
G01*
X61943000Y-72972000D01*
G75*
G02*
X62193000Y-73222000I0J-250000D01*
G01*
X62193000Y-73722000D01*
G75*
G02*
X61943000Y-73972000I-250000J0D01*
G01*
G37*
G36*
G01*
X61943000Y-75872000D02*
X60993000Y-75872000D01*
G75*
G02*
X60743000Y-75622000I0J250000D01*
G01*
X60743000Y-75122000D01*
G75*
G02*
X60993000Y-74872000I250000J0D01*
G01*
X61943000Y-74872000D01*
G75*
G02*
X62193000Y-75122000I0J-250000D01*
G01*
X62193000Y-75622000D01*
G75*
G02*
X61943000Y-75872000I-250000J0D01*
G01*
G37*
%TD*%
%TO.C,R8*%
G36*
G01*
X72459000Y-75291000D02*
X72829000Y-75291000D01*
G75*
G02*
X72964000Y-75426000I0J-135000D01*
G01*
X72964000Y-75696000D01*
G75*
G02*
X72829000Y-75831000I-135000J0D01*
G01*
X72459000Y-75831000D01*
G75*
G02*
X72324000Y-75696000I0J135000D01*
G01*
X72324000Y-75426000D01*
G75*
G02*
X72459000Y-75291000I135000J0D01*
G01*
G37*
G36*
G01*
X72459000Y-76311000D02*
X72829000Y-76311000D01*
G75*
G02*
X72964000Y-76446000I0J-135000D01*
G01*
X72964000Y-76716000D01*
G75*
G02*
X72829000Y-76851000I-135000J0D01*
G01*
X72459000Y-76851000D01*
G75*
G02*
X72324000Y-76716000I0J135000D01*
G01*
X72324000Y-76446000D01*
G75*
G02*
X72459000Y-76311000I135000J0D01*
G01*
G37*
%TD*%
%TO.C,R9*%
G36*
G01*
X72459000Y-78347000D02*
X72829000Y-78347000D01*
G75*
G02*
X72964000Y-78482000I0J-135000D01*
G01*
X72964000Y-78752000D01*
G75*
G02*
X72829000Y-78887000I-135000J0D01*
G01*
X72459000Y-78887000D01*
G75*
G02*
X72324000Y-78752000I0J135000D01*
G01*
X72324000Y-78482000D01*
G75*
G02*
X72459000Y-78347000I135000J0D01*
G01*
G37*
G36*
G01*
X72459000Y-77327000D02*
X72829000Y-77327000D01*
G75*
G02*
X72964000Y-77462000I0J-135000D01*
G01*
X72964000Y-77732000D01*
G75*
G02*
X72829000Y-77867000I-135000J0D01*
G01*
X72459000Y-77867000D01*
G75*
G02*
X72324000Y-77732000I0J135000D01*
G01*
X72324000Y-77462000D01*
G75*
G02*
X72459000Y-77327000I135000J0D01*
G01*
G37*
%TD*%
%TO.C,R11*%
G36*
G01*
X80244000Y-78163000D02*
X80244000Y-77793000D01*
G75*
G02*
X80379000Y-77658000I135000J0D01*
G01*
X80649000Y-77658000D01*
G75*
G02*
X80784000Y-77793000I0J-135000D01*
G01*
X80784000Y-78163000D01*
G75*
G02*
X80649000Y-78298000I-135000J0D01*
G01*
X80379000Y-78298000D01*
G75*
G02*
X80244000Y-78163000I0J135000D01*
G01*
G37*
G36*
G01*
X81264000Y-78163000D02*
X81264000Y-77793000D01*
G75*
G02*
X81399000Y-77658000I135000J0D01*
G01*
X81669000Y-77658000D01*
G75*
G02*
X81804000Y-77793000I0J-135000D01*
G01*
X81804000Y-78163000D01*
G75*
G02*
X81669000Y-78298000I-135000J0D01*
G01*
X81399000Y-78298000D01*
G75*
G02*
X81264000Y-78163000I0J135000D01*
G01*
G37*
%TD*%
D16*
%TO.C,J2*%
X73215500Y-119761000D03*
D15*
X73215500Y-117221000D03*
X73215500Y-114681000D03*
X73215500Y-112141000D03*
%TD*%
%TO.C,J3*%
X73215500Y-133477000D03*
X73215500Y-130937000D03*
X73215500Y-128397000D03*
D16*
X73215500Y-125857000D03*
%TD*%
%TO.C,C10*%
G36*
G01*
X71341000Y-101587000D02*
X70391000Y-101587000D01*
G75*
G02*
X70141000Y-101337000I0J250000D01*
G01*
X70141000Y-100837000D01*
G75*
G02*
X70391000Y-100587000I250000J0D01*
G01*
X71341000Y-100587000D01*
G75*
G02*
X71591000Y-100837000I0J-250000D01*
G01*
X71591000Y-101337000D01*
G75*
G02*
X71341000Y-101587000I-250000J0D01*
G01*
G37*
G36*
G01*
X71341000Y-99687000D02*
X70391000Y-99687000D01*
G75*
G02*
X70141000Y-99437000I0J250000D01*
G01*
X70141000Y-98937000D01*
G75*
G02*
X70391000Y-98687000I250000J0D01*
G01*
X71341000Y-98687000D01*
G75*
G02*
X71591000Y-98937000I0J-250000D01*
G01*
X71591000Y-99437000D01*
G75*
G02*
X71341000Y-99687000I-250000J0D01*
G01*
G37*
%TD*%
D17*
%TO.C,J8*%
X107188000Y-134620000D03*
%TD*%
%TO.C,J10*%
X107188000Y-72009000D03*
%TD*%
M02*
