%TF.GenerationSoftware,KiCad,Pcbnew,(5.1.7-0-10_14)*%
%TF.CreationDate,2021-07-25T17:44:21+03:00*%
%TF.ProjectId,sdisfp,73646973-6670-42e6-9b69-6361645f7063,rev?*%
%TF.SameCoordinates,Original*%
%TF.FileFunction,Soldermask,Bot*%
%TF.FilePolarity,Negative*%
%FSLAX46Y46*%
G04 Gerber Fmt 4.6, Leading zero omitted, Abs format (unit mm)*
G04 Created by KiCad (PCBNEW (5.1.7-0-10_14)) date 2021-07-25 17:44:21*
%MOMM*%
%LPD*%
G01*
G04 APERTURE LIST*
%ADD10R,3.500000X3.500000*%
%ADD11O,1.700000X1.700000*%
%ADD12R,1.700000X1.700000*%
%ADD13C,0.100000*%
%ADD14C,5.600000*%
%ADD15O,1.600000X2.500000*%
%ADD16O,3.500000X7.000000*%
%ADD17C,2.000000*%
%ADD18R,2.000000X2.000000*%
%ADD19C,1.500000*%
G04 APERTURE END LIST*
%TO.C,J204*%
G36*
G01*
X86474000Y-134226500D02*
X84724000Y-134226500D01*
G75*
G02*
X83849000Y-133351500I0J875000D01*
G01*
X83849000Y-131601500D01*
G75*
G02*
X84724000Y-130726500I875000J0D01*
G01*
X86474000Y-130726500D01*
G75*
G02*
X87349000Y-131601500I0J-875000D01*
G01*
X87349000Y-133351500D01*
G75*
G02*
X86474000Y-134226500I-875000J0D01*
G01*
G37*
G36*
G01*
X81899000Y-136976500D02*
X79899000Y-136976500D01*
G75*
G02*
X79149000Y-136226500I0J750000D01*
G01*
X79149000Y-134726500D01*
G75*
G02*
X79899000Y-133976500I750000J0D01*
G01*
X81899000Y-133976500D01*
G75*
G02*
X82649000Y-134726500I0J-750000D01*
G01*
X82649000Y-136226500D01*
G75*
G02*
X81899000Y-136976500I-750000J0D01*
G01*
G37*
D10*
X80899000Y-129476500D03*
%TD*%
D11*
%TO.C,J101*%
X109220000Y-99314000D03*
X109220000Y-101854000D03*
X109220000Y-104394000D03*
D12*
X109220000Y-106934000D03*
%TD*%
D13*
%TO.C,L102*%
G36*
X72644000Y-95559500D02*
G01*
X72144000Y-96059500D01*
X72144000Y-95059500D01*
X72519151Y-95059500D01*
X72519151Y-95053367D01*
X72520353Y-95041159D01*
X72522746Y-95029127D01*
X72526307Y-95017389D01*
X72531001Y-95006056D01*
X72536784Y-94995237D01*
X72543599Y-94985038D01*
X72551381Y-94975555D01*
X72560055Y-94966881D01*
X72569538Y-94959099D01*
X72579737Y-94952284D01*
X72590556Y-94946501D01*
X72601889Y-94941807D01*
X72613627Y-94938246D01*
X72625659Y-94935853D01*
X72637867Y-94934651D01*
X72650133Y-94934651D01*
X72662341Y-94935853D01*
X72674373Y-94938246D01*
X72686111Y-94941807D01*
X72697444Y-94946501D01*
X72708263Y-94952284D01*
X72718462Y-94959099D01*
X72727945Y-94966881D01*
X72736619Y-94975555D01*
X72744401Y-94985038D01*
X72751216Y-94995237D01*
X72756999Y-95006056D01*
X72761693Y-95017389D01*
X72765254Y-95029127D01*
X72767647Y-95041159D01*
X72768849Y-95053367D01*
X72768849Y-95059500D01*
X73144000Y-95059500D01*
X73144000Y-96059500D01*
X72644000Y-95559500D01*
G37*
G36*
X72644000Y-95837500D02*
G01*
X73144000Y-96337500D01*
X73144000Y-96837500D01*
X72768849Y-96837500D01*
X72768849Y-96843633D01*
X72767647Y-96855841D01*
X72765254Y-96867873D01*
X72761693Y-96879611D01*
X72756999Y-96890944D01*
X72751216Y-96901763D01*
X72744401Y-96911962D01*
X72736619Y-96921445D01*
X72727945Y-96930119D01*
X72718462Y-96937901D01*
X72708263Y-96944716D01*
X72697444Y-96950499D01*
X72686111Y-96955193D01*
X72674373Y-96958754D01*
X72662341Y-96961147D01*
X72650133Y-96962349D01*
X72637867Y-96962349D01*
X72625659Y-96961147D01*
X72613627Y-96958754D01*
X72601889Y-96955193D01*
X72590556Y-96950499D01*
X72579737Y-96944716D01*
X72569538Y-96937901D01*
X72560055Y-96930119D01*
X72551381Y-96921445D01*
X72543599Y-96911962D01*
X72536784Y-96901763D01*
X72531001Y-96890944D01*
X72526307Y-96879611D01*
X72522746Y-96867873D01*
X72520353Y-96855841D01*
X72519151Y-96843633D01*
X72519151Y-96837500D01*
X72144000Y-96837500D01*
X72144000Y-96337500D01*
X72644000Y-95837500D01*
G37*
%TD*%
D14*
%TO.C,J7*%
X54610000Y-72009000D03*
%TD*%
D13*
%TO.C,L103*%
G36*
X96901000Y-82415000D02*
G01*
X96401000Y-82915000D01*
X96401000Y-81915000D01*
X96776151Y-81915000D01*
X96776151Y-81908867D01*
X96777353Y-81896659D01*
X96779746Y-81884627D01*
X96783307Y-81872889D01*
X96788001Y-81861556D01*
X96793784Y-81850737D01*
X96800599Y-81840538D01*
X96808381Y-81831055D01*
X96817055Y-81822381D01*
X96826538Y-81814599D01*
X96836737Y-81807784D01*
X96847556Y-81802001D01*
X96858889Y-81797307D01*
X96870627Y-81793746D01*
X96882659Y-81791353D01*
X96894867Y-81790151D01*
X96907133Y-81790151D01*
X96919341Y-81791353D01*
X96931373Y-81793746D01*
X96943111Y-81797307D01*
X96954444Y-81802001D01*
X96965263Y-81807784D01*
X96975462Y-81814599D01*
X96984945Y-81822381D01*
X96993619Y-81831055D01*
X97001401Y-81840538D01*
X97008216Y-81850737D01*
X97013999Y-81861556D01*
X97018693Y-81872889D01*
X97022254Y-81884627D01*
X97024647Y-81896659D01*
X97025849Y-81908867D01*
X97025849Y-81915000D01*
X97401000Y-81915000D01*
X97401000Y-82915000D01*
X96901000Y-82415000D01*
G37*
G36*
X96901000Y-82693000D02*
G01*
X97401000Y-83193000D01*
X97401000Y-83693000D01*
X97025849Y-83693000D01*
X97025849Y-83699133D01*
X97024647Y-83711341D01*
X97022254Y-83723373D01*
X97018693Y-83735111D01*
X97013999Y-83746444D01*
X97008216Y-83757263D01*
X97001401Y-83767462D01*
X96993619Y-83776945D01*
X96984945Y-83785619D01*
X96975462Y-83793401D01*
X96965263Y-83800216D01*
X96954444Y-83805999D01*
X96943111Y-83810693D01*
X96931373Y-83814254D01*
X96919341Y-83816647D01*
X96907133Y-83817849D01*
X96894867Y-83817849D01*
X96882659Y-83816647D01*
X96870627Y-83814254D01*
X96858889Y-83810693D01*
X96847556Y-83805999D01*
X96836737Y-83800216D01*
X96826538Y-83793401D01*
X96817055Y-83785619D01*
X96808381Y-83776945D01*
X96800599Y-83767462D01*
X96793784Y-83757263D01*
X96788001Y-83746444D01*
X96783307Y-83735111D01*
X96779746Y-83723373D01*
X96777353Y-83711341D01*
X96776151Y-83699133D01*
X96776151Y-83693000D01*
X96401000Y-83693000D01*
X96401000Y-83193000D01*
X96901000Y-82693000D01*
G37*
%TD*%
D15*
%TO.C,J1*%
X57658000Y-63500000D03*
X60198000Y-63500000D03*
D16*
X65278000Y-58420000D03*
X55118000Y-58420000D03*
%TD*%
D13*
%TO.C,L101*%
G36*
X70612000Y-95559500D02*
G01*
X70112000Y-96059500D01*
X70112000Y-95059500D01*
X70487151Y-95059500D01*
X70487151Y-95053367D01*
X70488353Y-95041159D01*
X70490746Y-95029127D01*
X70494307Y-95017389D01*
X70499001Y-95006056D01*
X70504784Y-94995237D01*
X70511599Y-94985038D01*
X70519381Y-94975555D01*
X70528055Y-94966881D01*
X70537538Y-94959099D01*
X70547737Y-94952284D01*
X70558556Y-94946501D01*
X70569889Y-94941807D01*
X70581627Y-94938246D01*
X70593659Y-94935853D01*
X70605867Y-94934651D01*
X70618133Y-94934651D01*
X70630341Y-94935853D01*
X70642373Y-94938246D01*
X70654111Y-94941807D01*
X70665444Y-94946501D01*
X70676263Y-94952284D01*
X70686462Y-94959099D01*
X70695945Y-94966881D01*
X70704619Y-94975555D01*
X70712401Y-94985038D01*
X70719216Y-94995237D01*
X70724999Y-95006056D01*
X70729693Y-95017389D01*
X70733254Y-95029127D01*
X70735647Y-95041159D01*
X70736849Y-95053367D01*
X70736849Y-95059500D01*
X71112000Y-95059500D01*
X71112000Y-96059500D01*
X70612000Y-95559500D01*
G37*
G36*
X70612000Y-95837500D02*
G01*
X71112000Y-96337500D01*
X71112000Y-96837500D01*
X70736849Y-96837500D01*
X70736849Y-96843633D01*
X70735647Y-96855841D01*
X70733254Y-96867873D01*
X70729693Y-96879611D01*
X70724999Y-96890944D01*
X70719216Y-96901763D01*
X70712401Y-96911962D01*
X70704619Y-96921445D01*
X70695945Y-96930119D01*
X70686462Y-96937901D01*
X70676263Y-96944716D01*
X70665444Y-96950499D01*
X70654111Y-96955193D01*
X70642373Y-96958754D01*
X70630341Y-96961147D01*
X70618133Y-96962349D01*
X70605867Y-96962349D01*
X70593659Y-96961147D01*
X70581627Y-96958754D01*
X70569889Y-96955193D01*
X70558556Y-96950499D01*
X70547737Y-96944716D01*
X70537538Y-96937901D01*
X70528055Y-96930119D01*
X70519381Y-96921445D01*
X70511599Y-96911962D01*
X70504784Y-96901763D01*
X70499001Y-96890944D01*
X70494307Y-96879611D01*
X70490746Y-96867873D01*
X70488353Y-96855841D01*
X70487151Y-96843633D01*
X70487151Y-96837500D01*
X70112000Y-96837500D01*
X70112000Y-96337500D01*
X70612000Y-95837500D01*
G37*
%TD*%
%TO.C,L7*%
G36*
X80454500Y-82161000D02*
G01*
X79954500Y-82661000D01*
X79954500Y-81661000D01*
X80329651Y-81661000D01*
X80329651Y-81654867D01*
X80330853Y-81642659D01*
X80333246Y-81630627D01*
X80336807Y-81618889D01*
X80341501Y-81607556D01*
X80347284Y-81596737D01*
X80354099Y-81586538D01*
X80361881Y-81577055D01*
X80370555Y-81568381D01*
X80380038Y-81560599D01*
X80390237Y-81553784D01*
X80401056Y-81548001D01*
X80412389Y-81543307D01*
X80424127Y-81539746D01*
X80436159Y-81537353D01*
X80448367Y-81536151D01*
X80460633Y-81536151D01*
X80472841Y-81537353D01*
X80484873Y-81539746D01*
X80496611Y-81543307D01*
X80507944Y-81548001D01*
X80518763Y-81553784D01*
X80528962Y-81560599D01*
X80538445Y-81568381D01*
X80547119Y-81577055D01*
X80554901Y-81586538D01*
X80561716Y-81596737D01*
X80567499Y-81607556D01*
X80572193Y-81618889D01*
X80575754Y-81630627D01*
X80578147Y-81642659D01*
X80579349Y-81654867D01*
X80579349Y-81661000D01*
X80954500Y-81661000D01*
X80954500Y-82661000D01*
X80454500Y-82161000D01*
G37*
G36*
X80454500Y-82439000D02*
G01*
X80954500Y-82939000D01*
X80954500Y-83439000D01*
X80579349Y-83439000D01*
X80579349Y-83445133D01*
X80578147Y-83457341D01*
X80575754Y-83469373D01*
X80572193Y-83481111D01*
X80567499Y-83492444D01*
X80561716Y-83503263D01*
X80554901Y-83513462D01*
X80547119Y-83522945D01*
X80538445Y-83531619D01*
X80528962Y-83539401D01*
X80518763Y-83546216D01*
X80507944Y-83551999D01*
X80496611Y-83556693D01*
X80484873Y-83560254D01*
X80472841Y-83562647D01*
X80460633Y-83563849D01*
X80448367Y-83563849D01*
X80436159Y-83562647D01*
X80424127Y-83560254D01*
X80412389Y-83556693D01*
X80401056Y-83551999D01*
X80390237Y-83546216D01*
X80380038Y-83539401D01*
X80370555Y-83531619D01*
X80361881Y-83522945D01*
X80354099Y-83513462D01*
X80347284Y-83503263D01*
X80341501Y-83492444D01*
X80336807Y-83481111D01*
X80333246Y-83469373D01*
X80330853Y-83457341D01*
X80329651Y-83445133D01*
X80329651Y-83439000D01*
X79954500Y-83439000D01*
X79954500Y-82939000D01*
X80454500Y-82439000D01*
G37*
%TD*%
%TO.C,L6*%
G36*
X73144000Y-99187000D02*
G01*
X73644000Y-99687000D01*
X72644000Y-99687000D01*
X72644000Y-99311849D01*
X72637867Y-99311849D01*
X72625659Y-99310647D01*
X72613627Y-99308254D01*
X72601889Y-99304693D01*
X72590556Y-99299999D01*
X72579737Y-99294216D01*
X72569538Y-99287401D01*
X72560055Y-99279619D01*
X72551381Y-99270945D01*
X72543599Y-99261462D01*
X72536784Y-99251263D01*
X72531001Y-99240444D01*
X72526307Y-99229111D01*
X72522746Y-99217373D01*
X72520353Y-99205341D01*
X72519151Y-99193133D01*
X72519151Y-99180867D01*
X72520353Y-99168659D01*
X72522746Y-99156627D01*
X72526307Y-99144889D01*
X72531001Y-99133556D01*
X72536784Y-99122737D01*
X72543599Y-99112538D01*
X72551381Y-99103055D01*
X72560055Y-99094381D01*
X72569538Y-99086599D01*
X72579737Y-99079784D01*
X72590556Y-99074001D01*
X72601889Y-99069307D01*
X72613627Y-99065746D01*
X72625659Y-99063353D01*
X72637867Y-99062151D01*
X72644000Y-99062151D01*
X72644000Y-98687000D01*
X73644000Y-98687000D01*
X73144000Y-99187000D01*
G37*
G36*
X73422000Y-99187000D02*
G01*
X73922000Y-98687000D01*
X74422000Y-98687000D01*
X74422000Y-99062151D01*
X74428133Y-99062151D01*
X74440341Y-99063353D01*
X74452373Y-99065746D01*
X74464111Y-99069307D01*
X74475444Y-99074001D01*
X74486263Y-99079784D01*
X74496462Y-99086599D01*
X74505945Y-99094381D01*
X74514619Y-99103055D01*
X74522401Y-99112538D01*
X74529216Y-99122737D01*
X74534999Y-99133556D01*
X74539693Y-99144889D01*
X74543254Y-99156627D01*
X74545647Y-99168659D01*
X74546849Y-99180867D01*
X74546849Y-99193133D01*
X74545647Y-99205341D01*
X74543254Y-99217373D01*
X74539693Y-99229111D01*
X74534999Y-99240444D01*
X74529216Y-99251263D01*
X74522401Y-99261462D01*
X74514619Y-99270945D01*
X74505945Y-99279619D01*
X74496462Y-99287401D01*
X74486263Y-99294216D01*
X74475444Y-99299999D01*
X74464111Y-99304693D01*
X74452373Y-99308254D01*
X74440341Y-99310647D01*
X74428133Y-99311849D01*
X74422000Y-99311849D01*
X74422000Y-99687000D01*
X73922000Y-99687000D01*
X73422000Y-99187000D01*
G37*
%TD*%
%TO.C,L5*%
G36*
X67767200Y-78833600D02*
G01*
X67267200Y-79333600D01*
X67267200Y-78333600D01*
X67642351Y-78333600D01*
X67642351Y-78327467D01*
X67643553Y-78315259D01*
X67645946Y-78303227D01*
X67649507Y-78291489D01*
X67654201Y-78280156D01*
X67659984Y-78269337D01*
X67666799Y-78259138D01*
X67674581Y-78249655D01*
X67683255Y-78240981D01*
X67692738Y-78233199D01*
X67702937Y-78226384D01*
X67713756Y-78220601D01*
X67725089Y-78215907D01*
X67736827Y-78212346D01*
X67748859Y-78209953D01*
X67761067Y-78208751D01*
X67773333Y-78208751D01*
X67785541Y-78209953D01*
X67797573Y-78212346D01*
X67809311Y-78215907D01*
X67820644Y-78220601D01*
X67831463Y-78226384D01*
X67841662Y-78233199D01*
X67851145Y-78240981D01*
X67859819Y-78249655D01*
X67867601Y-78259138D01*
X67874416Y-78269337D01*
X67880199Y-78280156D01*
X67884893Y-78291489D01*
X67888454Y-78303227D01*
X67890847Y-78315259D01*
X67892049Y-78327467D01*
X67892049Y-78333600D01*
X68267200Y-78333600D01*
X68267200Y-79333600D01*
X67767200Y-78833600D01*
G37*
G36*
X67767200Y-79111600D02*
G01*
X68267200Y-79611600D01*
X68267200Y-80111600D01*
X67892049Y-80111600D01*
X67892049Y-80117733D01*
X67890847Y-80129941D01*
X67888454Y-80141973D01*
X67884893Y-80153711D01*
X67880199Y-80165044D01*
X67874416Y-80175863D01*
X67867601Y-80186062D01*
X67859819Y-80195545D01*
X67851145Y-80204219D01*
X67841662Y-80212001D01*
X67831463Y-80218816D01*
X67820644Y-80224599D01*
X67809311Y-80229293D01*
X67797573Y-80232854D01*
X67785541Y-80235247D01*
X67773333Y-80236449D01*
X67761067Y-80236449D01*
X67748859Y-80235247D01*
X67736827Y-80232854D01*
X67725089Y-80229293D01*
X67713756Y-80224599D01*
X67702937Y-80218816D01*
X67692738Y-80212001D01*
X67683255Y-80204219D01*
X67674581Y-80195545D01*
X67666799Y-80186062D01*
X67659984Y-80175863D01*
X67654201Y-80165044D01*
X67649507Y-80153711D01*
X67645946Y-80141973D01*
X67643553Y-80129941D01*
X67642351Y-80117733D01*
X67642351Y-80111600D01*
X67267200Y-80111600D01*
X67267200Y-79611600D01*
X67767200Y-79111600D01*
G37*
%TD*%
%TO.C,L4*%
G36*
X90297000Y-107434000D02*
G01*
X89797000Y-107934000D01*
X89797000Y-106934000D01*
X90172151Y-106934000D01*
X90172151Y-106927867D01*
X90173353Y-106915659D01*
X90175746Y-106903627D01*
X90179307Y-106891889D01*
X90184001Y-106880556D01*
X90189784Y-106869737D01*
X90196599Y-106859538D01*
X90204381Y-106850055D01*
X90213055Y-106841381D01*
X90222538Y-106833599D01*
X90232737Y-106826784D01*
X90243556Y-106821001D01*
X90254889Y-106816307D01*
X90266627Y-106812746D01*
X90278659Y-106810353D01*
X90290867Y-106809151D01*
X90303133Y-106809151D01*
X90315341Y-106810353D01*
X90327373Y-106812746D01*
X90339111Y-106816307D01*
X90350444Y-106821001D01*
X90361263Y-106826784D01*
X90371462Y-106833599D01*
X90380945Y-106841381D01*
X90389619Y-106850055D01*
X90397401Y-106859538D01*
X90404216Y-106869737D01*
X90409999Y-106880556D01*
X90414693Y-106891889D01*
X90418254Y-106903627D01*
X90420647Y-106915659D01*
X90421849Y-106927867D01*
X90421849Y-106934000D01*
X90797000Y-106934000D01*
X90797000Y-107934000D01*
X90297000Y-107434000D01*
G37*
G36*
X90297000Y-107712000D02*
G01*
X90797000Y-108212000D01*
X90797000Y-108712000D01*
X90421849Y-108712000D01*
X90421849Y-108718133D01*
X90420647Y-108730341D01*
X90418254Y-108742373D01*
X90414693Y-108754111D01*
X90409999Y-108765444D01*
X90404216Y-108776263D01*
X90397401Y-108786462D01*
X90389619Y-108795945D01*
X90380945Y-108804619D01*
X90371462Y-108812401D01*
X90361263Y-108819216D01*
X90350444Y-108824999D01*
X90339111Y-108829693D01*
X90327373Y-108833254D01*
X90315341Y-108835647D01*
X90303133Y-108836849D01*
X90290867Y-108836849D01*
X90278659Y-108835647D01*
X90266627Y-108833254D01*
X90254889Y-108829693D01*
X90243556Y-108824999D01*
X90232737Y-108819216D01*
X90222538Y-108812401D01*
X90213055Y-108804619D01*
X90204381Y-108795945D01*
X90196599Y-108786462D01*
X90189784Y-108776263D01*
X90184001Y-108765444D01*
X90179307Y-108754111D01*
X90175746Y-108742373D01*
X90173353Y-108730341D01*
X90172151Y-108718133D01*
X90172151Y-108712000D01*
X89797000Y-108712000D01*
X89797000Y-108212000D01*
X90297000Y-107712000D01*
G37*
%TD*%
D11*
%TO.C,J202*%
X93980000Y-137160000D03*
X91440000Y-137160000D03*
D12*
X88900000Y-137160000D03*
%TD*%
D11*
%TO.C,J201*%
X109220000Y-124714000D03*
X109220000Y-122174000D03*
D12*
X109220000Y-119634000D03*
%TD*%
D15*
%TO.C,J106*%
X90678000Y-63500000D03*
X93218000Y-63500000D03*
D16*
X98298000Y-58420000D03*
X88138000Y-58420000D03*
%TD*%
D11*
%TO.C,J104*%
X109220000Y-94234000D03*
X109220000Y-91694000D03*
X109220000Y-89154000D03*
X109220000Y-86614000D03*
D12*
X109220000Y-84074000D03*
%TD*%
D17*
%TO.C,J4*%
X65823500Y-105006000D03*
X56223500Y-105006000D03*
D18*
X53898500Y-105906000D03*
X53898500Y-115906000D03*
X53898500Y-125906000D03*
X53898500Y-135906000D03*
D19*
X61023500Y-98806000D03*
X56223500Y-98806000D03*
X65823500Y-98806000D03*
D18*
X68148500Y-100906000D03*
X68148500Y-110906000D03*
X68148500Y-120906000D03*
X68148500Y-130906000D03*
X62473500Y-135906000D03*
X64973500Y-115906000D03*
X59573500Y-115906000D03*
D19*
X68148500Y-103406000D03*
X53898500Y-103406000D03*
X53898500Y-108406000D03*
X53898500Y-113106000D03*
X68148500Y-113106000D03*
X68148500Y-108406000D03*
%TD*%
D15*
%TO.C,J6*%
X74168000Y-63500000D03*
X76708000Y-63500000D03*
D16*
X81788000Y-58420000D03*
X71628000Y-58420000D03*
%TD*%
D12*
%TO.C,J2*%
X73215500Y-119761000D03*
D11*
X73215500Y-117221000D03*
X73215500Y-114681000D03*
X73215500Y-112141000D03*
%TD*%
%TO.C,J3*%
X73215500Y-133477000D03*
X73215500Y-130937000D03*
X73215500Y-128397000D03*
D12*
X73215500Y-125857000D03*
%TD*%
D14*
%TO.C,J8*%
X107188000Y-134620000D03*
%TD*%
%TO.C,J10*%
X107188000Y-72009000D03*
%TD*%
M02*
