%TF.GenerationSoftware,KiCad,Pcbnew,(5.1.7-0-10_14)*%
%TF.CreationDate,2021-07-25T17:44:21+03:00*%
%TF.ProjectId,sdisfp,73646973-6670-42e6-9b69-6361645f7063,rev?*%
%TF.SameCoordinates,Original*%
%TF.FileFunction,Legend,Top*%
%TF.FilePolarity,Positive*%
%FSLAX46Y46*%
G04 Gerber Fmt 4.6, Leading zero omitted, Abs format (unit mm)*
G04 Created by KiCad (PCBNEW (5.1.7-0-10_14)) date 2021-07-25 17:44:21*
%MOMM*%
%LPD*%
G01*
G04 APERTURE LIST*
%ADD10C,0.120000*%
%ADD11C,0.150000*%
G04 APERTURE END LIST*
D10*
%TO.C,J204*%
X77149000Y-128376500D02*
X76099000Y-128376500D01*
X76099000Y-129426500D02*
X76099000Y-128376500D01*
X85499000Y-134476500D02*
X85499000Y-143276500D01*
X85499000Y-143276500D02*
X76299000Y-143276500D01*
X82799000Y-128576500D02*
X85499000Y-128576500D01*
X85499000Y-128576500D02*
X85499000Y-130476500D01*
X76299000Y-143276500D02*
X76299000Y-128576500D01*
X76299000Y-128576500D02*
X78899000Y-128576500D01*
%TO.C,L202*%
X99754000Y-130878000D02*
X96554000Y-130878000D01*
X96554000Y-130878000D02*
X96554000Y-120278000D01*
X96554000Y-120278000D02*
X99754000Y-120278000D01*
X103954000Y-120278000D02*
X107154000Y-120278000D01*
X107154000Y-120278000D02*
X107154000Y-130878000D01*
X107154000Y-130878000D02*
X103954000Y-130878000D01*
%TO.C,U101*%
X67155000Y-89916000D02*
X67155000Y-86316000D01*
X67155000Y-89916000D02*
X67155000Y-92116000D01*
X60385000Y-89916000D02*
X60385000Y-87716000D01*
X60385000Y-89916000D02*
X60385000Y-92116000D01*
%TO.C,C8*%
X94976836Y-107209000D02*
X94761164Y-107209000D01*
X94976836Y-107929000D02*
X94761164Y-107929000D01*
%TO.C,C5*%
X99462000Y-100476164D02*
X99462000Y-100691836D01*
X100182000Y-100476164D02*
X100182000Y-100691836D01*
%TO.C,C4*%
X86593000Y-104148836D02*
X86593000Y-103933164D01*
X85873000Y-104148836D02*
X85873000Y-103933164D01*
%TO.C,C3*%
X88090836Y-96541000D02*
X87875164Y-96541000D01*
X88090836Y-97261000D02*
X87875164Y-97261000D01*
%TO.C,U102*%
X72708000Y-91443000D02*
X72708000Y-92168000D01*
X76928000Y-87948000D02*
X76203000Y-87948000D01*
X76928000Y-88673000D02*
X76928000Y-87948000D01*
X76928000Y-92168000D02*
X76203000Y-92168000D01*
X76928000Y-91443000D02*
X76928000Y-92168000D01*
X72708000Y-87948000D02*
X73433000Y-87948000D01*
X72708000Y-88673000D02*
X72708000Y-87948000D01*
%TO.C,R116*%
X105256359Y-102234000D02*
X105563641Y-102234000D01*
X105256359Y-101474000D02*
X105563641Y-101474000D01*
%TO.C,R115*%
X105256359Y-104774000D02*
X105563641Y-104774000D01*
X105256359Y-104014000D02*
X105563641Y-104014000D01*
%TO.C,R114*%
X105256359Y-107314000D02*
X105563641Y-107314000D01*
X105256359Y-106554000D02*
X105563641Y-106554000D01*
%TO.C,J101*%
X110550000Y-108264000D02*
X109220000Y-108264000D01*
X110550000Y-106934000D02*
X110550000Y-108264000D01*
X110550000Y-105664000D02*
X107890000Y-105664000D01*
X107890000Y-105664000D02*
X107890000Y-97984000D01*
X110550000Y-105664000D02*
X110550000Y-97984000D01*
X110550000Y-97984000D02*
X107890000Y-97984000D01*
%TO.C,C203*%
X82905548Y-122830000D02*
X84328052Y-122830000D01*
X82905548Y-121010000D02*
X84328052Y-121010000D01*
%TO.C,C206*%
X92811652Y-115320400D02*
X91389148Y-115320400D01*
X92811652Y-117140400D02*
X91389148Y-117140400D01*
%TO.C,C102*%
X66287764Y-85602400D02*
X66503436Y-85602400D01*
X66287764Y-84882400D02*
X66503436Y-84882400D01*
%TO.C,C107*%
X71861000Y-91928836D02*
X71861000Y-91713164D01*
X71141000Y-91928836D02*
X71141000Y-91713164D01*
%TO.C,U202*%
X98044000Y-119543000D02*
X99844000Y-119543000D01*
X98044000Y-119543000D02*
X97244000Y-119543000D01*
X98044000Y-116423000D02*
X98844000Y-116423000D01*
X98044000Y-116423000D02*
X97244000Y-116423000D01*
%TO.C,R206*%
X96927641Y-114936000D02*
X96620359Y-114936000D01*
X96927641Y-115696000D02*
X96620359Y-115696000D01*
%TO.C,R205*%
X99465641Y-114936000D02*
X99158359Y-114936000D01*
X99465641Y-115696000D02*
X99158359Y-115696000D01*
%TO.C,D202*%
X100944000Y-116385758D02*
X100944000Y-118056242D01*
X102764000Y-116385758D02*
X102764000Y-118056242D01*
%TO.C,C209*%
X100817000Y-134670748D02*
X100817000Y-136093252D01*
X102637000Y-134670748D02*
X102637000Y-136093252D01*
%TO.C,C208*%
X105968748Y-116988000D02*
X107391252Y-116988000D01*
X105968748Y-115168000D02*
X107391252Y-115168000D01*
%TO.C,J1*%
X60198000Y-51000000D02*
X61198000Y-52000000D01*
X60198000Y-51000000D02*
X59198000Y-52000000D01*
X52698000Y-65800000D02*
X52698000Y-50800000D01*
X67698000Y-65800000D02*
X52698000Y-65800000D01*
X67698000Y-50800000D02*
X67698000Y-65800000D01*
X52698000Y-50800000D02*
X67698000Y-50800000D01*
%TO.C,R112*%
X95477359Y-70865000D02*
X95784641Y-70865000D01*
X95477359Y-70105000D02*
X95784641Y-70105000D01*
%TO.C,R109*%
X97689641Y-75439000D02*
X97382359Y-75439000D01*
X97689641Y-76199000D02*
X97382359Y-76199000D01*
%TO.C,R108*%
X97689641Y-73915000D02*
X97382359Y-73915000D01*
X97689641Y-74675000D02*
X97382359Y-74675000D01*
%TO.C,R106*%
X89345500Y-81189859D02*
X89345500Y-81497141D01*
X90105500Y-81189859D02*
X90105500Y-81497141D01*
%TO.C,R103*%
X105053641Y-88774000D02*
X104746359Y-88774000D01*
X105053641Y-89534000D02*
X104746359Y-89534000D01*
%TO.C,R102*%
X105055641Y-93854000D02*
X104748359Y-93854000D01*
X105055641Y-94614000D02*
X104748359Y-94614000D01*
%TO.C,R101*%
X105055641Y-91314000D02*
X104748359Y-91314000D01*
X105055641Y-92074000D02*
X104748359Y-92074000D01*
%TO.C,R14*%
X78969359Y-70865000D02*
X79276641Y-70865000D01*
X78969359Y-70105000D02*
X79276641Y-70105000D01*
%TO.C,R13*%
X81177641Y-75439000D02*
X80870359Y-75439000D01*
X81177641Y-76199000D02*
X80870359Y-76199000D01*
%TO.C,R12*%
X81181641Y-73915000D02*
X80874359Y-73915000D01*
X81181641Y-74675000D02*
X80874359Y-74675000D01*
%TO.C,R10*%
X72772000Y-81189859D02*
X72772000Y-81497141D01*
X73532000Y-81189859D02*
X73532000Y-81497141D01*
%TO.C,R5*%
X59816000Y-71527641D02*
X59816000Y-71220359D01*
X59056000Y-71527641D02*
X59056000Y-71220359D01*
%TO.C,R4*%
X62205359Y-71754000D02*
X62512641Y-71754000D01*
X62205359Y-70994000D02*
X62512641Y-70994000D01*
%TO.C,R3*%
X60861641Y-67565000D02*
X60554359Y-67565000D01*
X60861641Y-68325000D02*
X60554359Y-68325000D01*
%TO.C,R2*%
X92711000Y-107925359D02*
X92711000Y-108232641D01*
X93471000Y-107925359D02*
X93471000Y-108232641D01*
%TO.C,R1*%
X98299000Y-100428359D02*
X98299000Y-100735641D01*
X99059000Y-100428359D02*
X99059000Y-100735641D01*
%TO.C,L2*%
X79040258Y-71486500D02*
X78565742Y-71486500D01*
X79040258Y-72531500D02*
X78565742Y-72531500D01*
%TO.C,L1*%
X60786742Y-69991500D02*
X61261258Y-69991500D01*
X60786742Y-68946500D02*
X61261258Y-68946500D01*
%TO.C,C111*%
X94431752Y-67972000D02*
X93909248Y-67972000D01*
X94431752Y-69442000D02*
X93909248Y-69442000D01*
%TO.C,C15*%
X77919252Y-67972000D02*
X77396748Y-67972000D01*
X77919252Y-69442000D02*
X77396748Y-69442000D01*
%TO.C,U201*%
X80396400Y-115570000D02*
X80396400Y-119020000D01*
X80396400Y-115570000D02*
X80396400Y-113620000D01*
X85516400Y-115570000D02*
X85516400Y-117520000D01*
X85516400Y-115570000D02*
X85516400Y-113620000D01*
%TO.C,R204*%
X87171559Y-114222800D02*
X87478841Y-114222800D01*
X87171559Y-113462800D02*
X87478841Y-113462800D01*
%TO.C,R203*%
X87169559Y-112851200D02*
X87476841Y-112851200D01*
X87169559Y-112091200D02*
X87476841Y-112091200D01*
%TO.C,R202*%
X86769641Y-110110000D02*
X86462359Y-110110000D01*
X86769641Y-110870000D02*
X86462359Y-110870000D01*
%TO.C,R201*%
X82726800Y-110389641D02*
X82726800Y-110082359D01*
X81966800Y-110389641D02*
X81966800Y-110082359D01*
%TO.C,Q202*%
X93470000Y-134168000D02*
X92010000Y-134168000D01*
X93470000Y-131008000D02*
X91310000Y-131008000D01*
X93470000Y-131008000D02*
X93470000Y-131938000D01*
X93470000Y-134168000D02*
X93470000Y-133238000D01*
%TO.C,Q201*%
X93782000Y-88648000D02*
X93782000Y-90108000D01*
X90622000Y-88648000D02*
X90622000Y-90808000D01*
X90622000Y-88648000D02*
X91552000Y-88648000D01*
X93782000Y-88648000D02*
X92852000Y-88648000D01*
%TO.C,L201*%
X94124000Y-120455200D02*
X94124000Y-122755200D01*
X86724000Y-120455200D02*
X94124000Y-120455200D01*
X86724000Y-122755200D02*
X86724000Y-120455200D01*
X86724000Y-127855200D02*
X86724000Y-125555200D01*
X94124000Y-127855200D02*
X86724000Y-127855200D01*
X94124000Y-125555200D02*
X94124000Y-127855200D01*
%TO.C,J202*%
X87570000Y-138490000D02*
X87570000Y-137160000D01*
X88900000Y-138490000D02*
X87570000Y-138490000D01*
X90170000Y-138490000D02*
X90170000Y-135830000D01*
X90170000Y-135830000D02*
X95310000Y-135830000D01*
X90170000Y-138490000D02*
X95310000Y-138490000D01*
X95310000Y-138490000D02*
X95310000Y-135830000D01*
%TO.C,J201*%
X107890000Y-118304000D02*
X109220000Y-118304000D01*
X107890000Y-119634000D02*
X107890000Y-118304000D01*
X107890000Y-120904000D02*
X110550000Y-120904000D01*
X110550000Y-120904000D02*
X110550000Y-126044000D01*
X107890000Y-120904000D02*
X107890000Y-126044000D01*
X107890000Y-126044000D02*
X110550000Y-126044000D01*
%TO.C,D201*%
X96830000Y-85866500D02*
X96830000Y-88551500D01*
X98750000Y-85866500D02*
X96830000Y-85866500D01*
X98750000Y-88551500D02*
X98750000Y-85866500D01*
%TO.C,C207*%
X76593000Y-96960000D02*
X83528000Y-96960000D01*
X76593000Y-93540000D02*
X76593000Y-96960000D01*
X83528000Y-93540000D02*
X76593000Y-93540000D01*
%TO.C,C205*%
X84181836Y-110130000D02*
X83966164Y-110130000D01*
X84181836Y-110850000D02*
X83966164Y-110850000D01*
%TO.C,C204*%
X80897400Y-121571652D02*
X80897400Y-121049148D01*
X79427400Y-121571652D02*
X79427400Y-121049148D01*
%TO.C,C202*%
X79091200Y-113430164D02*
X79091200Y-113645836D01*
X79811200Y-113430164D02*
X79811200Y-113645836D01*
%TO.C,U1*%
X89169000Y-97736000D02*
X88719000Y-97736000D01*
X88719000Y-97736000D02*
X88719000Y-98186000D01*
X95489000Y-97736000D02*
X95939000Y-97736000D01*
X95939000Y-97736000D02*
X95939000Y-98186000D01*
X89169000Y-104956000D02*
X88719000Y-104956000D01*
X88719000Y-104956000D02*
X88719000Y-104506000D01*
X95489000Y-104956000D02*
X95939000Y-104956000D01*
X95939000Y-104956000D02*
X95939000Y-104506000D01*
X95939000Y-104506000D02*
X97229000Y-104506000D01*
%TO.C,U103*%
X94603000Y-75614000D02*
X95328000Y-75614000D01*
X95328000Y-75614000D02*
X95328000Y-76339000D01*
X91833000Y-79834000D02*
X91108000Y-79834000D01*
X91108000Y-79834000D02*
X91108000Y-79109000D01*
X94603000Y-79834000D02*
X95328000Y-79834000D01*
X95328000Y-79834000D02*
X95328000Y-79109000D01*
X91833000Y-75614000D02*
X91108000Y-75614000D01*
%TO.C,R113*%
X70902859Y-87313500D02*
X71210141Y-87313500D01*
X70902859Y-88073500D02*
X71210141Y-88073500D01*
%TO.C,R111*%
X79046041Y-91007200D02*
X78738759Y-91007200D01*
X79046041Y-90247200D02*
X78738759Y-90247200D01*
%TO.C,R110*%
X70902859Y-89917000D02*
X71210141Y-89917000D01*
X70902859Y-90677000D02*
X71210141Y-90677000D01*
%TO.C,R107*%
X97382359Y-77661500D02*
X97689641Y-77661500D01*
X97382359Y-78421500D02*
X97689641Y-78421500D01*
%TO.C,R105*%
X89661000Y-77951359D02*
X89661000Y-78258641D01*
X88901000Y-77951359D02*
X88901000Y-78258641D01*
%TO.C,R104*%
X89661000Y-75919359D02*
X89661000Y-76226641D01*
X88901000Y-75919359D02*
X88901000Y-76226641D01*
%TO.C,L104*%
X95477064Y-72744000D02*
X95022936Y-72744000D01*
X95477064Y-71274000D02*
X95022936Y-71274000D01*
%TO.C,J106*%
X85718000Y-50800000D02*
X100718000Y-50800000D01*
X100718000Y-50800000D02*
X100718000Y-65800000D01*
X100718000Y-65800000D02*
X85718000Y-65800000D01*
X85718000Y-65800000D02*
X85718000Y-50800000D01*
X93218000Y-51000000D02*
X92218000Y-52000000D01*
X93218000Y-51000000D02*
X94218000Y-52000000D01*
%TO.C,C110*%
X99223500Y-70985748D02*
X99223500Y-71508252D01*
X97753500Y-70985748D02*
X97753500Y-71508252D01*
%TO.C,C109*%
X98178252Y-80364000D02*
X97655748Y-80364000D01*
X98178252Y-78894000D02*
X97655748Y-78894000D01*
%TO.C,C108*%
X89908748Y-72925000D02*
X90431252Y-72925000D01*
X89908748Y-74395000D02*
X90431252Y-74395000D01*
%TO.C,U2*%
X62562000Y-78117000D02*
X62562000Y-77392000D01*
X58342000Y-81612000D02*
X59067000Y-81612000D01*
X58342000Y-80887000D02*
X58342000Y-81612000D01*
X58342000Y-77392000D02*
X59067000Y-77392000D01*
X58342000Y-78117000D02*
X58342000Y-77392000D01*
X62562000Y-81612000D02*
X61837000Y-81612000D01*
X62562000Y-80887000D02*
X62562000Y-81612000D01*
%TO.C,Y101*%
X59444500Y-92566000D02*
X59444500Y-87266000D01*
X55744500Y-92566000D02*
X59444500Y-92566000D01*
%TO.C,J104*%
X107890000Y-82744000D02*
X109220000Y-82744000D01*
X107890000Y-84074000D02*
X107890000Y-82744000D01*
X107890000Y-85344000D02*
X110550000Y-85344000D01*
X110550000Y-85344000D02*
X110550000Y-95564000D01*
X107890000Y-85344000D02*
X107890000Y-95564000D01*
X107890000Y-95564000D02*
X110550000Y-95564000D01*
%TO.C,D104*%
X112096500Y-51110000D02*
X109411500Y-51110000D01*
X112096500Y-53030000D02*
X112096500Y-51110000D01*
X109411500Y-53030000D02*
X112096500Y-53030000D01*
%TO.C,D103*%
X104887500Y-51110000D02*
X102202500Y-51110000D01*
X104887500Y-53030000D02*
X104887500Y-51110000D01*
X102202500Y-53030000D02*
X104887500Y-53030000D01*
%TO.C,D102*%
X108540500Y-51110000D02*
X105855500Y-51110000D01*
X108540500Y-53030000D02*
X108540500Y-51110000D01*
X105855500Y-53030000D02*
X108540500Y-53030000D01*
%TO.C,D101*%
X96094500Y-85654000D02*
X93409500Y-85654000D01*
X96094500Y-87574000D02*
X96094500Y-85654000D01*
X93409500Y-87574000D02*
X96094500Y-87574000D01*
%TO.C,C105*%
X60461752Y-83910500D02*
X59939248Y-83910500D01*
X60461752Y-85380500D02*
X59939248Y-85380500D01*
%TO.C,C104*%
X55154500Y-92021252D02*
X55154500Y-91498748D01*
X53684500Y-92021252D02*
X53684500Y-91498748D01*
%TO.C,C103*%
X53684500Y-87815748D02*
X53684500Y-88338252D01*
X55154500Y-87815748D02*
X55154500Y-88338252D01*
%TO.C,C101*%
X67972000Y-92639248D02*
X67972000Y-93161752D01*
X69442000Y-92639248D02*
X69442000Y-93161752D01*
%TO.C,J4*%
X69023500Y-140406000D02*
X53023500Y-140406000D01*
X53023500Y-137806000D02*
X53023500Y-140406000D01*
X53023500Y-127806000D02*
X53023500Y-133806000D01*
X53023500Y-117806000D02*
X53023500Y-123806000D01*
X69023500Y-99506000D02*
X69023500Y-97806000D01*
X69023500Y-97806000D02*
X53023500Y-97806000D01*
X53023500Y-97806000D02*
X53023500Y-103806000D01*
X69023500Y-108806000D02*
X69023500Y-102806000D01*
X69023500Y-118806000D02*
X69023500Y-112806000D01*
X69023500Y-128806000D02*
X69023500Y-122806000D01*
X69023500Y-132806000D02*
X69023500Y-140406000D01*
X61023500Y-111806000D02*
X61023500Y-114806000D01*
X61023500Y-111806000D02*
X62023500Y-112806000D01*
X61023500Y-111806000D02*
X60023500Y-112806000D01*
X53023500Y-107806000D02*
X53023500Y-113806000D01*
X67023500Y-100906000D02*
X67023500Y-109106000D01*
X55023500Y-100906000D02*
X55023500Y-109106000D01*
X55023500Y-109106000D02*
X57023500Y-109106000D01*
X57023500Y-109106000D02*
X57023500Y-110106000D01*
X56623500Y-100906000D02*
X55023500Y-100906000D01*
X65023500Y-100906000D02*
X67023500Y-100906000D01*
X65423500Y-109106000D02*
X67023500Y-109106000D01*
%TO.C,C12*%
X73464748Y-74395000D02*
X73987252Y-74395000D01*
X73464748Y-72925000D02*
X73987252Y-72925000D01*
%TO.C,U3*%
X75323000Y-75614000D02*
X74598000Y-75614000D01*
X78818000Y-79834000D02*
X78818000Y-79109000D01*
X78093000Y-79834000D02*
X78818000Y-79834000D01*
X74598000Y-79834000D02*
X74598000Y-79109000D01*
X75323000Y-79834000D02*
X74598000Y-79834000D01*
X78818000Y-75614000D02*
X78818000Y-76339000D01*
X78093000Y-75614000D02*
X78818000Y-75614000D01*
%TO.C,J6*%
X76708000Y-51000000D02*
X77708000Y-52000000D01*
X76708000Y-51000000D02*
X75708000Y-52000000D01*
X69208000Y-65800000D02*
X69208000Y-50800000D01*
X84208000Y-65800000D02*
X69208000Y-65800000D01*
X84208000Y-50800000D02*
X84208000Y-65800000D01*
X69208000Y-50800000D02*
X84208000Y-50800000D01*
%TO.C,C14*%
X81668252Y-78894000D02*
X81145748Y-78894000D01*
X81668252Y-80364000D02*
X81145748Y-80364000D01*
%TO.C,C13*%
X82713500Y-70795248D02*
X82713500Y-71317752D01*
X81243500Y-70795248D02*
X81243500Y-71317752D01*
%TO.C,C11*%
X56334252Y-95531000D02*
X55811748Y-95531000D01*
X56334252Y-97001000D02*
X55811748Y-97001000D01*
%TO.C,C9*%
X53875000Y-78478748D02*
X53875000Y-79001252D01*
X55345000Y-78478748D02*
X55345000Y-79001252D01*
%TO.C,C7*%
X63781000Y-76766748D02*
X63781000Y-77289252D01*
X65251000Y-76766748D02*
X65251000Y-77289252D01*
%TO.C,C6*%
X65251000Y-82237252D02*
X65251000Y-81714748D01*
X63781000Y-82237252D02*
X63781000Y-81714748D01*
%TO.C,C2*%
X60171000Y-74683252D02*
X60171000Y-74160748D01*
X58701000Y-74683252D02*
X58701000Y-74160748D01*
%TO.C,C1*%
X62203000Y-74683252D02*
X62203000Y-74160748D01*
X60733000Y-74683252D02*
X60733000Y-74160748D01*
%TO.C,R8*%
X73024000Y-75917359D02*
X73024000Y-76224641D01*
X72264000Y-75917359D02*
X72264000Y-76224641D01*
%TO.C,R9*%
X72264000Y-77953359D02*
X72264000Y-78260641D01*
X73024000Y-77953359D02*
X73024000Y-78260641D01*
%TO.C,R11*%
X80870359Y-77598000D02*
X81177641Y-77598000D01*
X80870359Y-78358000D02*
X81177641Y-78358000D01*
%TO.C,J2*%
X74545500Y-110811000D02*
X71885500Y-110811000D01*
X74545500Y-118491000D02*
X74545500Y-110811000D01*
X71885500Y-118491000D02*
X71885500Y-110811000D01*
X74545500Y-118491000D02*
X71885500Y-118491000D01*
X74545500Y-119761000D02*
X74545500Y-121091000D01*
X74545500Y-121091000D02*
X73215500Y-121091000D01*
%TO.C,J3*%
X71885500Y-124527000D02*
X73215500Y-124527000D01*
X71885500Y-125857000D02*
X71885500Y-124527000D01*
X71885500Y-127127000D02*
X74545500Y-127127000D01*
X74545500Y-127127000D02*
X74545500Y-134807000D01*
X71885500Y-127127000D02*
X71885500Y-134807000D01*
X71885500Y-134807000D02*
X74545500Y-134807000D01*
%TO.C,C10*%
X70131000Y-100398252D02*
X70131000Y-99875748D01*
X71601000Y-100398252D02*
X71601000Y-99875748D01*
%TO.C,J204*%
D11*
X86101380Y-139212214D02*
X86815666Y-139212214D01*
X86958523Y-139259833D01*
X87053761Y-139355071D01*
X87101380Y-139497928D01*
X87101380Y-139593166D01*
X86196619Y-138783642D02*
X86149000Y-138736023D01*
X86101380Y-138640785D01*
X86101380Y-138402690D01*
X86149000Y-138307452D01*
X86196619Y-138259833D01*
X86291857Y-138212214D01*
X86387095Y-138212214D01*
X86529952Y-138259833D01*
X87101380Y-138831261D01*
X87101380Y-138212214D01*
X86101380Y-137593166D02*
X86101380Y-137497928D01*
X86149000Y-137402690D01*
X86196619Y-137355071D01*
X86291857Y-137307452D01*
X86482333Y-137259833D01*
X86720428Y-137259833D01*
X86910904Y-137307452D01*
X87006142Y-137355071D01*
X87053761Y-137402690D01*
X87101380Y-137497928D01*
X87101380Y-137593166D01*
X87053761Y-137688404D01*
X87006142Y-137736023D01*
X86910904Y-137783642D01*
X86720428Y-137831261D01*
X86482333Y-137831261D01*
X86291857Y-137783642D01*
X86196619Y-137736023D01*
X86149000Y-137688404D01*
X86101380Y-137593166D01*
X86434714Y-136402690D02*
X87101380Y-136402690D01*
X86053761Y-136640785D02*
X86768047Y-136878880D01*
X86768047Y-136259833D01*
%TO.C,L202*%
X108529380Y-130405047D02*
X108529380Y-130881238D01*
X107529380Y-130881238D01*
X107624619Y-130119333D02*
X107577000Y-130071714D01*
X107529380Y-129976476D01*
X107529380Y-129738380D01*
X107577000Y-129643142D01*
X107624619Y-129595523D01*
X107719857Y-129547904D01*
X107815095Y-129547904D01*
X107957952Y-129595523D01*
X108529380Y-130166952D01*
X108529380Y-129547904D01*
X107529380Y-128928857D02*
X107529380Y-128833619D01*
X107577000Y-128738380D01*
X107624619Y-128690761D01*
X107719857Y-128643142D01*
X107910333Y-128595523D01*
X108148428Y-128595523D01*
X108338904Y-128643142D01*
X108434142Y-128690761D01*
X108481761Y-128738380D01*
X108529380Y-128833619D01*
X108529380Y-128928857D01*
X108481761Y-129024095D01*
X108434142Y-129071714D01*
X108338904Y-129119333D01*
X108148428Y-129166952D01*
X107910333Y-129166952D01*
X107719857Y-129119333D01*
X107624619Y-129071714D01*
X107577000Y-129024095D01*
X107529380Y-128928857D01*
X107624619Y-128214571D02*
X107577000Y-128166952D01*
X107529380Y-128071714D01*
X107529380Y-127833619D01*
X107577000Y-127738380D01*
X107624619Y-127690761D01*
X107719857Y-127643142D01*
X107815095Y-127643142D01*
X107957952Y-127690761D01*
X108529380Y-128262190D01*
X108529380Y-127643142D01*
%TO.C,U101*%
X61785714Y-94321380D02*
X61785714Y-95130904D01*
X61833333Y-95226142D01*
X61880952Y-95273761D01*
X61976190Y-95321380D01*
X62166666Y-95321380D01*
X62261904Y-95273761D01*
X62309523Y-95226142D01*
X62357142Y-95130904D01*
X62357142Y-94321380D01*
X63357142Y-95321380D02*
X62785714Y-95321380D01*
X63071428Y-95321380D02*
X63071428Y-94321380D01*
X62976190Y-94464238D01*
X62880952Y-94559476D01*
X62785714Y-94607095D01*
X63976190Y-94321380D02*
X64071428Y-94321380D01*
X64166666Y-94369000D01*
X64214285Y-94416619D01*
X64261904Y-94511857D01*
X64309523Y-94702333D01*
X64309523Y-94940428D01*
X64261904Y-95130904D01*
X64214285Y-95226142D01*
X64166666Y-95273761D01*
X64071428Y-95321380D01*
X63976190Y-95321380D01*
X63880952Y-95273761D01*
X63833333Y-95226142D01*
X63785714Y-95130904D01*
X63738095Y-94940428D01*
X63738095Y-94702333D01*
X63785714Y-94511857D01*
X63833333Y-94416619D01*
X63880952Y-94369000D01*
X63976190Y-94321380D01*
X65261904Y-95321380D02*
X64690476Y-95321380D01*
X64976190Y-95321380D02*
X64976190Y-94321380D01*
X64880952Y-94464238D01*
X64785714Y-94559476D01*
X64690476Y-94607095D01*
%TO.C,C8*%
X96734333Y-108053142D02*
X96686714Y-108100761D01*
X96543857Y-108148380D01*
X96448619Y-108148380D01*
X96305761Y-108100761D01*
X96210523Y-108005523D01*
X96162904Y-107910285D01*
X96115285Y-107719809D01*
X96115285Y-107576952D01*
X96162904Y-107386476D01*
X96210523Y-107291238D01*
X96305761Y-107196000D01*
X96448619Y-107148380D01*
X96543857Y-107148380D01*
X96686714Y-107196000D01*
X96734333Y-107243619D01*
X97305761Y-107576952D02*
X97210523Y-107529333D01*
X97162904Y-107481714D01*
X97115285Y-107386476D01*
X97115285Y-107338857D01*
X97162904Y-107243619D01*
X97210523Y-107196000D01*
X97305761Y-107148380D01*
X97496238Y-107148380D01*
X97591476Y-107196000D01*
X97639095Y-107243619D01*
X97686714Y-107338857D01*
X97686714Y-107386476D01*
X97639095Y-107481714D01*
X97591476Y-107529333D01*
X97496238Y-107576952D01*
X97305761Y-107576952D01*
X97210523Y-107624571D01*
X97162904Y-107672190D01*
X97115285Y-107767428D01*
X97115285Y-107957904D01*
X97162904Y-108053142D01*
X97210523Y-108100761D01*
X97305761Y-108148380D01*
X97496238Y-108148380D01*
X97591476Y-108100761D01*
X97639095Y-108053142D01*
X97686714Y-107957904D01*
X97686714Y-107767428D01*
X97639095Y-107672190D01*
X97591476Y-107624571D01*
X97496238Y-107576952D01*
%TO.C,C5*%
X100179142Y-98718666D02*
X100226761Y-98766285D01*
X100274380Y-98909142D01*
X100274380Y-99004380D01*
X100226761Y-99147238D01*
X100131523Y-99242476D01*
X100036285Y-99290095D01*
X99845809Y-99337714D01*
X99702952Y-99337714D01*
X99512476Y-99290095D01*
X99417238Y-99242476D01*
X99322000Y-99147238D01*
X99274380Y-99004380D01*
X99274380Y-98909142D01*
X99322000Y-98766285D01*
X99369619Y-98718666D01*
X99274380Y-97813904D02*
X99274380Y-98290095D01*
X99750571Y-98337714D01*
X99702952Y-98290095D01*
X99655333Y-98194857D01*
X99655333Y-97956761D01*
X99702952Y-97861523D01*
X99750571Y-97813904D01*
X99845809Y-97766285D01*
X100083904Y-97766285D01*
X100179142Y-97813904D01*
X100226761Y-97861523D01*
X100274380Y-97956761D01*
X100274380Y-98194857D01*
X100226761Y-98290095D01*
X100179142Y-98337714D01*
%TO.C,C4*%
X85430142Y-103417666D02*
X85477761Y-103465285D01*
X85525380Y-103608142D01*
X85525380Y-103703380D01*
X85477761Y-103846238D01*
X85382523Y-103941476D01*
X85287285Y-103989095D01*
X85096809Y-104036714D01*
X84953952Y-104036714D01*
X84763476Y-103989095D01*
X84668238Y-103941476D01*
X84573000Y-103846238D01*
X84525380Y-103703380D01*
X84525380Y-103608142D01*
X84573000Y-103465285D01*
X84620619Y-103417666D01*
X84858714Y-102560523D02*
X85525380Y-102560523D01*
X84477761Y-102798619D02*
X85192047Y-103036714D01*
X85192047Y-102417666D01*
%TO.C,C3*%
X87816333Y-96115142D02*
X87768714Y-96162761D01*
X87625857Y-96210380D01*
X87530619Y-96210380D01*
X87387761Y-96162761D01*
X87292523Y-96067523D01*
X87244904Y-95972285D01*
X87197285Y-95781809D01*
X87197285Y-95638952D01*
X87244904Y-95448476D01*
X87292523Y-95353238D01*
X87387761Y-95258000D01*
X87530619Y-95210380D01*
X87625857Y-95210380D01*
X87768714Y-95258000D01*
X87816333Y-95305619D01*
X88149666Y-95210380D02*
X88768714Y-95210380D01*
X88435380Y-95591333D01*
X88578238Y-95591333D01*
X88673476Y-95638952D01*
X88721095Y-95686571D01*
X88768714Y-95781809D01*
X88768714Y-96019904D01*
X88721095Y-96115142D01*
X88673476Y-96162761D01*
X88578238Y-96210380D01*
X88292523Y-96210380D01*
X88197285Y-96162761D01*
X88149666Y-96115142D01*
%TO.C,U102*%
X75120714Y-86193380D02*
X75120714Y-87002904D01*
X75168333Y-87098142D01*
X75215952Y-87145761D01*
X75311190Y-87193380D01*
X75501666Y-87193380D01*
X75596904Y-87145761D01*
X75644523Y-87098142D01*
X75692142Y-87002904D01*
X75692142Y-86193380D01*
X76692142Y-87193380D02*
X76120714Y-87193380D01*
X76406428Y-87193380D02*
X76406428Y-86193380D01*
X76311190Y-86336238D01*
X76215952Y-86431476D01*
X76120714Y-86479095D01*
X77311190Y-86193380D02*
X77406428Y-86193380D01*
X77501666Y-86241000D01*
X77549285Y-86288619D01*
X77596904Y-86383857D01*
X77644523Y-86574333D01*
X77644523Y-86812428D01*
X77596904Y-87002904D01*
X77549285Y-87098142D01*
X77501666Y-87145761D01*
X77406428Y-87193380D01*
X77311190Y-87193380D01*
X77215952Y-87145761D01*
X77168333Y-87098142D01*
X77120714Y-87002904D01*
X77073095Y-86812428D01*
X77073095Y-86574333D01*
X77120714Y-86383857D01*
X77168333Y-86288619D01*
X77215952Y-86241000D01*
X77311190Y-86193380D01*
X78025476Y-86288619D02*
X78073095Y-86241000D01*
X78168333Y-86193380D01*
X78406428Y-86193380D01*
X78501666Y-86241000D01*
X78549285Y-86288619D01*
X78596904Y-86383857D01*
X78596904Y-86479095D01*
X78549285Y-86621952D01*
X77977857Y-87193380D01*
X78596904Y-87193380D01*
%TO.C,R116*%
X104290952Y-101136380D02*
X103957619Y-100660190D01*
X103719523Y-101136380D02*
X103719523Y-100136380D01*
X104100476Y-100136380D01*
X104195714Y-100184000D01*
X104243333Y-100231619D01*
X104290952Y-100326857D01*
X104290952Y-100469714D01*
X104243333Y-100564952D01*
X104195714Y-100612571D01*
X104100476Y-100660190D01*
X103719523Y-100660190D01*
X105243333Y-101136380D02*
X104671904Y-101136380D01*
X104957619Y-101136380D02*
X104957619Y-100136380D01*
X104862380Y-100279238D01*
X104767142Y-100374476D01*
X104671904Y-100422095D01*
X106195714Y-101136380D02*
X105624285Y-101136380D01*
X105910000Y-101136380D02*
X105910000Y-100136380D01*
X105814761Y-100279238D01*
X105719523Y-100374476D01*
X105624285Y-100422095D01*
X107052857Y-100136380D02*
X106862380Y-100136380D01*
X106767142Y-100184000D01*
X106719523Y-100231619D01*
X106624285Y-100374476D01*
X106576666Y-100564952D01*
X106576666Y-100945904D01*
X106624285Y-101041142D01*
X106671904Y-101088761D01*
X106767142Y-101136380D01*
X106957619Y-101136380D01*
X107052857Y-101088761D01*
X107100476Y-101041142D01*
X107148095Y-100945904D01*
X107148095Y-100707809D01*
X107100476Y-100612571D01*
X107052857Y-100564952D01*
X106957619Y-100517333D01*
X106767142Y-100517333D01*
X106671904Y-100564952D01*
X106624285Y-100612571D01*
X106576666Y-100707809D01*
%TO.C,R115*%
X104290952Y-103676380D02*
X103957619Y-103200190D01*
X103719523Y-103676380D02*
X103719523Y-102676380D01*
X104100476Y-102676380D01*
X104195714Y-102724000D01*
X104243333Y-102771619D01*
X104290952Y-102866857D01*
X104290952Y-103009714D01*
X104243333Y-103104952D01*
X104195714Y-103152571D01*
X104100476Y-103200190D01*
X103719523Y-103200190D01*
X105243333Y-103676380D02*
X104671904Y-103676380D01*
X104957619Y-103676380D02*
X104957619Y-102676380D01*
X104862380Y-102819238D01*
X104767142Y-102914476D01*
X104671904Y-102962095D01*
X106195714Y-103676380D02*
X105624285Y-103676380D01*
X105910000Y-103676380D02*
X105910000Y-102676380D01*
X105814761Y-102819238D01*
X105719523Y-102914476D01*
X105624285Y-102962095D01*
X107100476Y-102676380D02*
X106624285Y-102676380D01*
X106576666Y-103152571D01*
X106624285Y-103104952D01*
X106719523Y-103057333D01*
X106957619Y-103057333D01*
X107052857Y-103104952D01*
X107100476Y-103152571D01*
X107148095Y-103247809D01*
X107148095Y-103485904D01*
X107100476Y-103581142D01*
X107052857Y-103628761D01*
X106957619Y-103676380D01*
X106719523Y-103676380D01*
X106624285Y-103628761D01*
X106576666Y-103581142D01*
%TO.C,R114*%
X104290952Y-106216380D02*
X103957619Y-105740190D01*
X103719523Y-106216380D02*
X103719523Y-105216380D01*
X104100476Y-105216380D01*
X104195714Y-105264000D01*
X104243333Y-105311619D01*
X104290952Y-105406857D01*
X104290952Y-105549714D01*
X104243333Y-105644952D01*
X104195714Y-105692571D01*
X104100476Y-105740190D01*
X103719523Y-105740190D01*
X105243333Y-106216380D02*
X104671904Y-106216380D01*
X104957619Y-106216380D02*
X104957619Y-105216380D01*
X104862380Y-105359238D01*
X104767142Y-105454476D01*
X104671904Y-105502095D01*
X106195714Y-106216380D02*
X105624285Y-106216380D01*
X105910000Y-106216380D02*
X105910000Y-105216380D01*
X105814761Y-105359238D01*
X105719523Y-105454476D01*
X105624285Y-105502095D01*
X107052857Y-105549714D02*
X107052857Y-106216380D01*
X106814761Y-105168761D02*
X106576666Y-105883047D01*
X107195714Y-105883047D01*
%TO.C,J101*%
X107934285Y-108716380D02*
X107934285Y-109430666D01*
X107886666Y-109573523D01*
X107791428Y-109668761D01*
X107648571Y-109716380D01*
X107553333Y-109716380D01*
X108934285Y-109716380D02*
X108362857Y-109716380D01*
X108648571Y-109716380D02*
X108648571Y-108716380D01*
X108553333Y-108859238D01*
X108458095Y-108954476D01*
X108362857Y-109002095D01*
X109553333Y-108716380D02*
X109648571Y-108716380D01*
X109743809Y-108764000D01*
X109791428Y-108811619D01*
X109839047Y-108906857D01*
X109886666Y-109097333D01*
X109886666Y-109335428D01*
X109839047Y-109525904D01*
X109791428Y-109621142D01*
X109743809Y-109668761D01*
X109648571Y-109716380D01*
X109553333Y-109716380D01*
X109458095Y-109668761D01*
X109410476Y-109621142D01*
X109362857Y-109525904D01*
X109315238Y-109335428D01*
X109315238Y-109097333D01*
X109362857Y-108906857D01*
X109410476Y-108811619D01*
X109458095Y-108764000D01*
X109553333Y-108716380D01*
X110839047Y-109716380D02*
X110267619Y-109716380D01*
X110553333Y-109716380D02*
X110553333Y-108716380D01*
X110458095Y-108859238D01*
X110362857Y-108954476D01*
X110267619Y-109002095D01*
%TO.C,C203*%
X82497752Y-120427142D02*
X82450133Y-120474761D01*
X82307276Y-120522380D01*
X82212038Y-120522380D01*
X82069180Y-120474761D01*
X81973942Y-120379523D01*
X81926323Y-120284285D01*
X81878704Y-120093809D01*
X81878704Y-119950952D01*
X81926323Y-119760476D01*
X81973942Y-119665238D01*
X82069180Y-119570000D01*
X82212038Y-119522380D01*
X82307276Y-119522380D01*
X82450133Y-119570000D01*
X82497752Y-119617619D01*
X82878704Y-119617619D02*
X82926323Y-119570000D01*
X83021561Y-119522380D01*
X83259657Y-119522380D01*
X83354895Y-119570000D01*
X83402514Y-119617619D01*
X83450133Y-119712857D01*
X83450133Y-119808095D01*
X83402514Y-119950952D01*
X82831085Y-120522380D01*
X83450133Y-120522380D01*
X84069180Y-119522380D02*
X84164419Y-119522380D01*
X84259657Y-119570000D01*
X84307276Y-119617619D01*
X84354895Y-119712857D01*
X84402514Y-119903333D01*
X84402514Y-120141428D01*
X84354895Y-120331904D01*
X84307276Y-120427142D01*
X84259657Y-120474761D01*
X84164419Y-120522380D01*
X84069180Y-120522380D01*
X83973942Y-120474761D01*
X83926323Y-120427142D01*
X83878704Y-120331904D01*
X83831085Y-120141428D01*
X83831085Y-119903333D01*
X83878704Y-119712857D01*
X83926323Y-119617619D01*
X83973942Y-119570000D01*
X84069180Y-119522380D01*
X84735847Y-119522380D02*
X85354895Y-119522380D01*
X85021561Y-119903333D01*
X85164419Y-119903333D01*
X85259657Y-119950952D01*
X85307276Y-119998571D01*
X85354895Y-120093809D01*
X85354895Y-120331904D01*
X85307276Y-120427142D01*
X85259657Y-120474761D01*
X85164419Y-120522380D01*
X84878704Y-120522380D01*
X84783466Y-120474761D01*
X84735847Y-120427142D01*
%TO.C,C206*%
X90981352Y-118437542D02*
X90933733Y-118485161D01*
X90790876Y-118532780D01*
X90695638Y-118532780D01*
X90552780Y-118485161D01*
X90457542Y-118389923D01*
X90409923Y-118294685D01*
X90362304Y-118104209D01*
X90362304Y-117961352D01*
X90409923Y-117770876D01*
X90457542Y-117675638D01*
X90552780Y-117580400D01*
X90695638Y-117532780D01*
X90790876Y-117532780D01*
X90933733Y-117580400D01*
X90981352Y-117628019D01*
X91362304Y-117628019D02*
X91409923Y-117580400D01*
X91505161Y-117532780D01*
X91743257Y-117532780D01*
X91838495Y-117580400D01*
X91886114Y-117628019D01*
X91933733Y-117723257D01*
X91933733Y-117818495D01*
X91886114Y-117961352D01*
X91314685Y-118532780D01*
X91933733Y-118532780D01*
X92552780Y-117532780D02*
X92648019Y-117532780D01*
X92743257Y-117580400D01*
X92790876Y-117628019D01*
X92838495Y-117723257D01*
X92886114Y-117913733D01*
X92886114Y-118151828D01*
X92838495Y-118342304D01*
X92790876Y-118437542D01*
X92743257Y-118485161D01*
X92648019Y-118532780D01*
X92552780Y-118532780D01*
X92457542Y-118485161D01*
X92409923Y-118437542D01*
X92362304Y-118342304D01*
X92314685Y-118151828D01*
X92314685Y-117913733D01*
X92362304Y-117723257D01*
X92409923Y-117628019D01*
X92457542Y-117580400D01*
X92552780Y-117532780D01*
X93743257Y-117532780D02*
X93552780Y-117532780D01*
X93457542Y-117580400D01*
X93409923Y-117628019D01*
X93314685Y-117770876D01*
X93267066Y-117961352D01*
X93267066Y-118342304D01*
X93314685Y-118437542D01*
X93362304Y-118485161D01*
X93457542Y-118532780D01*
X93648019Y-118532780D01*
X93743257Y-118485161D01*
X93790876Y-118437542D01*
X93838495Y-118342304D01*
X93838495Y-118104209D01*
X93790876Y-118008971D01*
X93743257Y-117961352D01*
X93648019Y-117913733D01*
X93457542Y-117913733D01*
X93362304Y-117961352D01*
X93314685Y-118008971D01*
X93267066Y-118104209D01*
%TO.C,C102*%
X65276552Y-84439542D02*
X65228933Y-84487161D01*
X65086076Y-84534780D01*
X64990838Y-84534780D01*
X64847980Y-84487161D01*
X64752742Y-84391923D01*
X64705123Y-84296685D01*
X64657504Y-84106209D01*
X64657504Y-83963352D01*
X64705123Y-83772876D01*
X64752742Y-83677638D01*
X64847980Y-83582400D01*
X64990838Y-83534780D01*
X65086076Y-83534780D01*
X65228933Y-83582400D01*
X65276552Y-83630019D01*
X66228933Y-84534780D02*
X65657504Y-84534780D01*
X65943219Y-84534780D02*
X65943219Y-83534780D01*
X65847980Y-83677638D01*
X65752742Y-83772876D01*
X65657504Y-83820495D01*
X66847980Y-83534780D02*
X66943219Y-83534780D01*
X67038457Y-83582400D01*
X67086076Y-83630019D01*
X67133695Y-83725257D01*
X67181314Y-83915733D01*
X67181314Y-84153828D01*
X67133695Y-84344304D01*
X67086076Y-84439542D01*
X67038457Y-84487161D01*
X66943219Y-84534780D01*
X66847980Y-84534780D01*
X66752742Y-84487161D01*
X66705123Y-84439542D01*
X66657504Y-84344304D01*
X66609885Y-84153828D01*
X66609885Y-83915733D01*
X66657504Y-83725257D01*
X66705123Y-83630019D01*
X66752742Y-83582400D01*
X66847980Y-83534780D01*
X67562266Y-83630019D02*
X67609885Y-83582400D01*
X67705123Y-83534780D01*
X67943219Y-83534780D01*
X68038457Y-83582400D01*
X68086076Y-83630019D01*
X68133695Y-83725257D01*
X68133695Y-83820495D01*
X68086076Y-83963352D01*
X67514647Y-84534780D01*
X68133695Y-84534780D01*
%TO.C,C107*%
X70635952Y-93829142D02*
X70588333Y-93876761D01*
X70445476Y-93924380D01*
X70350238Y-93924380D01*
X70207380Y-93876761D01*
X70112142Y-93781523D01*
X70064523Y-93686285D01*
X70016904Y-93495809D01*
X70016904Y-93352952D01*
X70064523Y-93162476D01*
X70112142Y-93067238D01*
X70207380Y-92972000D01*
X70350238Y-92924380D01*
X70445476Y-92924380D01*
X70588333Y-92972000D01*
X70635952Y-93019619D01*
X71588333Y-93924380D02*
X71016904Y-93924380D01*
X71302619Y-93924380D02*
X71302619Y-92924380D01*
X71207380Y-93067238D01*
X71112142Y-93162476D01*
X71016904Y-93210095D01*
X72207380Y-92924380D02*
X72302619Y-92924380D01*
X72397857Y-92972000D01*
X72445476Y-93019619D01*
X72493095Y-93114857D01*
X72540714Y-93305333D01*
X72540714Y-93543428D01*
X72493095Y-93733904D01*
X72445476Y-93829142D01*
X72397857Y-93876761D01*
X72302619Y-93924380D01*
X72207380Y-93924380D01*
X72112142Y-93876761D01*
X72064523Y-93829142D01*
X72016904Y-93733904D01*
X71969285Y-93543428D01*
X71969285Y-93305333D01*
X72016904Y-93114857D01*
X72064523Y-93019619D01*
X72112142Y-92972000D01*
X72207380Y-92924380D01*
X72874047Y-92924380D02*
X73540714Y-92924380D01*
X73112142Y-93924380D01*
%TO.C,U202*%
X94575380Y-120967285D02*
X95384904Y-120967285D01*
X95480142Y-120919666D01*
X95527761Y-120872047D01*
X95575380Y-120776809D01*
X95575380Y-120586333D01*
X95527761Y-120491095D01*
X95480142Y-120443476D01*
X95384904Y-120395857D01*
X94575380Y-120395857D01*
X94670619Y-119967285D02*
X94623000Y-119919666D01*
X94575380Y-119824428D01*
X94575380Y-119586333D01*
X94623000Y-119491095D01*
X94670619Y-119443476D01*
X94765857Y-119395857D01*
X94861095Y-119395857D01*
X95003952Y-119443476D01*
X95575380Y-120014904D01*
X95575380Y-119395857D01*
X94575380Y-118776809D02*
X94575380Y-118681571D01*
X94623000Y-118586333D01*
X94670619Y-118538714D01*
X94765857Y-118491095D01*
X94956333Y-118443476D01*
X95194428Y-118443476D01*
X95384904Y-118491095D01*
X95480142Y-118538714D01*
X95527761Y-118586333D01*
X95575380Y-118681571D01*
X95575380Y-118776809D01*
X95527761Y-118872047D01*
X95480142Y-118919666D01*
X95384904Y-118967285D01*
X95194428Y-119014904D01*
X94956333Y-119014904D01*
X94765857Y-118967285D01*
X94670619Y-118919666D01*
X94623000Y-118872047D01*
X94575380Y-118776809D01*
X94670619Y-118062523D02*
X94623000Y-118014904D01*
X94575380Y-117919666D01*
X94575380Y-117681571D01*
X94623000Y-117586333D01*
X94670619Y-117538714D01*
X94765857Y-117491095D01*
X94861095Y-117491095D01*
X95003952Y-117538714D01*
X95575380Y-118110142D01*
X95575380Y-117491095D01*
%TO.C,R206*%
X97226380Y-114022047D02*
X96750190Y-114355380D01*
X97226380Y-114593476D02*
X96226380Y-114593476D01*
X96226380Y-114212523D01*
X96274000Y-114117285D01*
X96321619Y-114069666D01*
X96416857Y-114022047D01*
X96559714Y-114022047D01*
X96654952Y-114069666D01*
X96702571Y-114117285D01*
X96750190Y-114212523D01*
X96750190Y-114593476D01*
X96321619Y-113641095D02*
X96274000Y-113593476D01*
X96226380Y-113498238D01*
X96226380Y-113260142D01*
X96274000Y-113164904D01*
X96321619Y-113117285D01*
X96416857Y-113069666D01*
X96512095Y-113069666D01*
X96654952Y-113117285D01*
X97226380Y-113688714D01*
X97226380Y-113069666D01*
X96226380Y-112450619D02*
X96226380Y-112355380D01*
X96274000Y-112260142D01*
X96321619Y-112212523D01*
X96416857Y-112164904D01*
X96607333Y-112117285D01*
X96845428Y-112117285D01*
X97035904Y-112164904D01*
X97131142Y-112212523D01*
X97178761Y-112260142D01*
X97226380Y-112355380D01*
X97226380Y-112450619D01*
X97178761Y-112545857D01*
X97131142Y-112593476D01*
X97035904Y-112641095D01*
X96845428Y-112688714D01*
X96607333Y-112688714D01*
X96416857Y-112641095D01*
X96321619Y-112593476D01*
X96274000Y-112545857D01*
X96226380Y-112450619D01*
X96226380Y-111260142D02*
X96226380Y-111450619D01*
X96274000Y-111545857D01*
X96321619Y-111593476D01*
X96464476Y-111688714D01*
X96654952Y-111736333D01*
X97035904Y-111736333D01*
X97131142Y-111688714D01*
X97178761Y-111641095D01*
X97226380Y-111545857D01*
X97226380Y-111355380D01*
X97178761Y-111260142D01*
X97131142Y-111212523D01*
X97035904Y-111164904D01*
X96797809Y-111164904D01*
X96702571Y-111212523D01*
X96654952Y-111260142D01*
X96607333Y-111355380D01*
X96607333Y-111545857D01*
X96654952Y-111641095D01*
X96702571Y-111688714D01*
X96797809Y-111736333D01*
%TO.C,R205*%
X99893380Y-114022047D02*
X99417190Y-114355380D01*
X99893380Y-114593476D02*
X98893380Y-114593476D01*
X98893380Y-114212523D01*
X98941000Y-114117285D01*
X98988619Y-114069666D01*
X99083857Y-114022047D01*
X99226714Y-114022047D01*
X99321952Y-114069666D01*
X99369571Y-114117285D01*
X99417190Y-114212523D01*
X99417190Y-114593476D01*
X98988619Y-113641095D02*
X98941000Y-113593476D01*
X98893380Y-113498238D01*
X98893380Y-113260142D01*
X98941000Y-113164904D01*
X98988619Y-113117285D01*
X99083857Y-113069666D01*
X99179095Y-113069666D01*
X99321952Y-113117285D01*
X99893380Y-113688714D01*
X99893380Y-113069666D01*
X98893380Y-112450619D02*
X98893380Y-112355380D01*
X98941000Y-112260142D01*
X98988619Y-112212523D01*
X99083857Y-112164904D01*
X99274333Y-112117285D01*
X99512428Y-112117285D01*
X99702904Y-112164904D01*
X99798142Y-112212523D01*
X99845761Y-112260142D01*
X99893380Y-112355380D01*
X99893380Y-112450619D01*
X99845761Y-112545857D01*
X99798142Y-112593476D01*
X99702904Y-112641095D01*
X99512428Y-112688714D01*
X99274333Y-112688714D01*
X99083857Y-112641095D01*
X98988619Y-112593476D01*
X98941000Y-112545857D01*
X98893380Y-112450619D01*
X98893380Y-111212523D02*
X98893380Y-111688714D01*
X99369571Y-111736333D01*
X99321952Y-111688714D01*
X99274333Y-111593476D01*
X99274333Y-111355380D01*
X99321952Y-111260142D01*
X99369571Y-111212523D01*
X99464809Y-111164904D01*
X99702904Y-111164904D01*
X99798142Y-111212523D01*
X99845761Y-111260142D01*
X99893380Y-111355380D01*
X99893380Y-111593476D01*
X99845761Y-111688714D01*
X99798142Y-111736333D01*
%TO.C,D202*%
X102433380Y-114720476D02*
X101433380Y-114720476D01*
X101433380Y-114482380D01*
X101481000Y-114339523D01*
X101576238Y-114244285D01*
X101671476Y-114196666D01*
X101861952Y-114149047D01*
X102004809Y-114149047D01*
X102195285Y-114196666D01*
X102290523Y-114244285D01*
X102385761Y-114339523D01*
X102433380Y-114482380D01*
X102433380Y-114720476D01*
X101528619Y-113768095D02*
X101481000Y-113720476D01*
X101433380Y-113625238D01*
X101433380Y-113387142D01*
X101481000Y-113291904D01*
X101528619Y-113244285D01*
X101623857Y-113196666D01*
X101719095Y-113196666D01*
X101861952Y-113244285D01*
X102433380Y-113815714D01*
X102433380Y-113196666D01*
X101433380Y-112577619D02*
X101433380Y-112482380D01*
X101481000Y-112387142D01*
X101528619Y-112339523D01*
X101623857Y-112291904D01*
X101814333Y-112244285D01*
X102052428Y-112244285D01*
X102242904Y-112291904D01*
X102338142Y-112339523D01*
X102385761Y-112387142D01*
X102433380Y-112482380D01*
X102433380Y-112577619D01*
X102385761Y-112672857D01*
X102338142Y-112720476D01*
X102242904Y-112768095D01*
X102052428Y-112815714D01*
X101814333Y-112815714D01*
X101623857Y-112768095D01*
X101528619Y-112720476D01*
X101481000Y-112672857D01*
X101433380Y-112577619D01*
X101528619Y-111863333D02*
X101481000Y-111815714D01*
X101433380Y-111720476D01*
X101433380Y-111482380D01*
X101481000Y-111387142D01*
X101528619Y-111339523D01*
X101623857Y-111291904D01*
X101719095Y-111291904D01*
X101861952Y-111339523D01*
X102433380Y-111910952D01*
X102433380Y-111291904D01*
%TO.C,C209*%
X103934142Y-136501047D02*
X103981761Y-136548666D01*
X104029380Y-136691523D01*
X104029380Y-136786761D01*
X103981761Y-136929619D01*
X103886523Y-137024857D01*
X103791285Y-137072476D01*
X103600809Y-137120095D01*
X103457952Y-137120095D01*
X103267476Y-137072476D01*
X103172238Y-137024857D01*
X103077000Y-136929619D01*
X103029380Y-136786761D01*
X103029380Y-136691523D01*
X103077000Y-136548666D01*
X103124619Y-136501047D01*
X103124619Y-136120095D02*
X103077000Y-136072476D01*
X103029380Y-135977238D01*
X103029380Y-135739142D01*
X103077000Y-135643904D01*
X103124619Y-135596285D01*
X103219857Y-135548666D01*
X103315095Y-135548666D01*
X103457952Y-135596285D01*
X104029380Y-136167714D01*
X104029380Y-135548666D01*
X103029380Y-134929619D02*
X103029380Y-134834380D01*
X103077000Y-134739142D01*
X103124619Y-134691523D01*
X103219857Y-134643904D01*
X103410333Y-134596285D01*
X103648428Y-134596285D01*
X103838904Y-134643904D01*
X103934142Y-134691523D01*
X103981761Y-134739142D01*
X104029380Y-134834380D01*
X104029380Y-134929619D01*
X103981761Y-135024857D01*
X103934142Y-135072476D01*
X103838904Y-135120095D01*
X103648428Y-135167714D01*
X103410333Y-135167714D01*
X103219857Y-135120095D01*
X103124619Y-135072476D01*
X103077000Y-135024857D01*
X103029380Y-134929619D01*
X104029380Y-134120095D02*
X104029380Y-133929619D01*
X103981761Y-133834380D01*
X103934142Y-133786761D01*
X103791285Y-133691523D01*
X103600809Y-133643904D01*
X103219857Y-133643904D01*
X103124619Y-133691523D01*
X103077000Y-133739142D01*
X103029380Y-133834380D01*
X103029380Y-134024857D01*
X103077000Y-134120095D01*
X103124619Y-134167714D01*
X103219857Y-134215333D01*
X103457952Y-134215333D01*
X103553190Y-134167714D01*
X103600809Y-134120095D01*
X103648428Y-134024857D01*
X103648428Y-133834380D01*
X103600809Y-133739142D01*
X103553190Y-133691523D01*
X103457952Y-133643904D01*
%TO.C,C208*%
X105560952Y-114585142D02*
X105513333Y-114632761D01*
X105370476Y-114680380D01*
X105275238Y-114680380D01*
X105132380Y-114632761D01*
X105037142Y-114537523D01*
X104989523Y-114442285D01*
X104941904Y-114251809D01*
X104941904Y-114108952D01*
X104989523Y-113918476D01*
X105037142Y-113823238D01*
X105132380Y-113728000D01*
X105275238Y-113680380D01*
X105370476Y-113680380D01*
X105513333Y-113728000D01*
X105560952Y-113775619D01*
X105941904Y-113775619D02*
X105989523Y-113728000D01*
X106084761Y-113680380D01*
X106322857Y-113680380D01*
X106418095Y-113728000D01*
X106465714Y-113775619D01*
X106513333Y-113870857D01*
X106513333Y-113966095D01*
X106465714Y-114108952D01*
X105894285Y-114680380D01*
X106513333Y-114680380D01*
X107132380Y-113680380D02*
X107227619Y-113680380D01*
X107322857Y-113728000D01*
X107370476Y-113775619D01*
X107418095Y-113870857D01*
X107465714Y-114061333D01*
X107465714Y-114299428D01*
X107418095Y-114489904D01*
X107370476Y-114585142D01*
X107322857Y-114632761D01*
X107227619Y-114680380D01*
X107132380Y-114680380D01*
X107037142Y-114632761D01*
X106989523Y-114585142D01*
X106941904Y-114489904D01*
X106894285Y-114299428D01*
X106894285Y-114061333D01*
X106941904Y-113870857D01*
X106989523Y-113775619D01*
X107037142Y-113728000D01*
X107132380Y-113680380D01*
X108037142Y-114108952D02*
X107941904Y-114061333D01*
X107894285Y-114013714D01*
X107846666Y-113918476D01*
X107846666Y-113870857D01*
X107894285Y-113775619D01*
X107941904Y-113728000D01*
X108037142Y-113680380D01*
X108227619Y-113680380D01*
X108322857Y-113728000D01*
X108370476Y-113775619D01*
X108418095Y-113870857D01*
X108418095Y-113918476D01*
X108370476Y-114013714D01*
X108322857Y-114061333D01*
X108227619Y-114108952D01*
X108037142Y-114108952D01*
X107941904Y-114156571D01*
X107894285Y-114204190D01*
X107846666Y-114299428D01*
X107846666Y-114489904D01*
X107894285Y-114585142D01*
X107941904Y-114632761D01*
X108037142Y-114680380D01*
X108227619Y-114680380D01*
X108322857Y-114632761D01*
X108370476Y-114585142D01*
X108418095Y-114489904D01*
X108418095Y-114299428D01*
X108370476Y-114204190D01*
X108322857Y-114156571D01*
X108227619Y-114108952D01*
%TO.C,R112*%
X91463952Y-70810380D02*
X91130619Y-70334190D01*
X90892523Y-70810380D02*
X90892523Y-69810380D01*
X91273476Y-69810380D01*
X91368714Y-69858000D01*
X91416333Y-69905619D01*
X91463952Y-70000857D01*
X91463952Y-70143714D01*
X91416333Y-70238952D01*
X91368714Y-70286571D01*
X91273476Y-70334190D01*
X90892523Y-70334190D01*
X92416333Y-70810380D02*
X91844904Y-70810380D01*
X92130619Y-70810380D02*
X92130619Y-69810380D01*
X92035380Y-69953238D01*
X91940142Y-70048476D01*
X91844904Y-70096095D01*
X93368714Y-70810380D02*
X92797285Y-70810380D01*
X93083000Y-70810380D02*
X93083000Y-69810380D01*
X92987761Y-69953238D01*
X92892523Y-70048476D01*
X92797285Y-70096095D01*
X93749666Y-69905619D02*
X93797285Y-69858000D01*
X93892523Y-69810380D01*
X94130619Y-69810380D01*
X94225857Y-69858000D01*
X94273476Y-69905619D01*
X94321095Y-70000857D01*
X94321095Y-70096095D01*
X94273476Y-70238952D01*
X93702047Y-70810380D01*
X94321095Y-70810380D01*
%TO.C,R109*%
X99591952Y-76398380D02*
X99258619Y-75922190D01*
X99020523Y-76398380D02*
X99020523Y-75398380D01*
X99401476Y-75398380D01*
X99496714Y-75446000D01*
X99544333Y-75493619D01*
X99591952Y-75588857D01*
X99591952Y-75731714D01*
X99544333Y-75826952D01*
X99496714Y-75874571D01*
X99401476Y-75922190D01*
X99020523Y-75922190D01*
X100544333Y-76398380D02*
X99972904Y-76398380D01*
X100258619Y-76398380D02*
X100258619Y-75398380D01*
X100163380Y-75541238D01*
X100068142Y-75636476D01*
X99972904Y-75684095D01*
X101163380Y-75398380D02*
X101258619Y-75398380D01*
X101353857Y-75446000D01*
X101401476Y-75493619D01*
X101449095Y-75588857D01*
X101496714Y-75779333D01*
X101496714Y-76017428D01*
X101449095Y-76207904D01*
X101401476Y-76303142D01*
X101353857Y-76350761D01*
X101258619Y-76398380D01*
X101163380Y-76398380D01*
X101068142Y-76350761D01*
X101020523Y-76303142D01*
X100972904Y-76207904D01*
X100925285Y-76017428D01*
X100925285Y-75779333D01*
X100972904Y-75588857D01*
X101020523Y-75493619D01*
X101068142Y-75446000D01*
X101163380Y-75398380D01*
X101972904Y-76398380D02*
X102163380Y-76398380D01*
X102258619Y-76350761D01*
X102306238Y-76303142D01*
X102401476Y-76160285D01*
X102449095Y-75969809D01*
X102449095Y-75588857D01*
X102401476Y-75493619D01*
X102353857Y-75446000D01*
X102258619Y-75398380D01*
X102068142Y-75398380D01*
X101972904Y-75446000D01*
X101925285Y-75493619D01*
X101877666Y-75588857D01*
X101877666Y-75826952D01*
X101925285Y-75922190D01*
X101972904Y-75969809D01*
X102068142Y-76017428D01*
X102258619Y-76017428D01*
X102353857Y-75969809D01*
X102401476Y-75922190D01*
X102449095Y-75826952D01*
%TO.C,R108*%
X99591952Y-74747380D02*
X99258619Y-74271190D01*
X99020523Y-74747380D02*
X99020523Y-73747380D01*
X99401476Y-73747380D01*
X99496714Y-73795000D01*
X99544333Y-73842619D01*
X99591952Y-73937857D01*
X99591952Y-74080714D01*
X99544333Y-74175952D01*
X99496714Y-74223571D01*
X99401476Y-74271190D01*
X99020523Y-74271190D01*
X100544333Y-74747380D02*
X99972904Y-74747380D01*
X100258619Y-74747380D02*
X100258619Y-73747380D01*
X100163380Y-73890238D01*
X100068142Y-73985476D01*
X99972904Y-74033095D01*
X101163380Y-73747380D02*
X101258619Y-73747380D01*
X101353857Y-73795000D01*
X101401476Y-73842619D01*
X101449095Y-73937857D01*
X101496714Y-74128333D01*
X101496714Y-74366428D01*
X101449095Y-74556904D01*
X101401476Y-74652142D01*
X101353857Y-74699761D01*
X101258619Y-74747380D01*
X101163380Y-74747380D01*
X101068142Y-74699761D01*
X101020523Y-74652142D01*
X100972904Y-74556904D01*
X100925285Y-74366428D01*
X100925285Y-74128333D01*
X100972904Y-73937857D01*
X101020523Y-73842619D01*
X101068142Y-73795000D01*
X101163380Y-73747380D01*
X102068142Y-74175952D02*
X101972904Y-74128333D01*
X101925285Y-74080714D01*
X101877666Y-73985476D01*
X101877666Y-73937857D01*
X101925285Y-73842619D01*
X101972904Y-73795000D01*
X102068142Y-73747380D01*
X102258619Y-73747380D01*
X102353857Y-73795000D01*
X102401476Y-73842619D01*
X102449095Y-73937857D01*
X102449095Y-73985476D01*
X102401476Y-74080714D01*
X102353857Y-74128333D01*
X102258619Y-74175952D01*
X102068142Y-74175952D01*
X101972904Y-74223571D01*
X101925285Y-74271190D01*
X101877666Y-74366428D01*
X101877666Y-74556904D01*
X101925285Y-74652142D01*
X101972904Y-74699761D01*
X102068142Y-74747380D01*
X102258619Y-74747380D01*
X102353857Y-74699761D01*
X102401476Y-74652142D01*
X102449095Y-74556904D01*
X102449095Y-74366428D01*
X102401476Y-74271190D01*
X102353857Y-74223571D01*
X102258619Y-74175952D01*
%TO.C,R106*%
X88796952Y-83510380D02*
X88463619Y-83034190D01*
X88225523Y-83510380D02*
X88225523Y-82510380D01*
X88606476Y-82510380D01*
X88701714Y-82558000D01*
X88749333Y-82605619D01*
X88796952Y-82700857D01*
X88796952Y-82843714D01*
X88749333Y-82938952D01*
X88701714Y-82986571D01*
X88606476Y-83034190D01*
X88225523Y-83034190D01*
X89749333Y-83510380D02*
X89177904Y-83510380D01*
X89463619Y-83510380D02*
X89463619Y-82510380D01*
X89368380Y-82653238D01*
X89273142Y-82748476D01*
X89177904Y-82796095D01*
X90368380Y-82510380D02*
X90463619Y-82510380D01*
X90558857Y-82558000D01*
X90606476Y-82605619D01*
X90654095Y-82700857D01*
X90701714Y-82891333D01*
X90701714Y-83129428D01*
X90654095Y-83319904D01*
X90606476Y-83415142D01*
X90558857Y-83462761D01*
X90463619Y-83510380D01*
X90368380Y-83510380D01*
X90273142Y-83462761D01*
X90225523Y-83415142D01*
X90177904Y-83319904D01*
X90130285Y-83129428D01*
X90130285Y-82891333D01*
X90177904Y-82700857D01*
X90225523Y-82605619D01*
X90273142Y-82558000D01*
X90368380Y-82510380D01*
X91558857Y-82510380D02*
X91368380Y-82510380D01*
X91273142Y-82558000D01*
X91225523Y-82605619D01*
X91130285Y-82748476D01*
X91082666Y-82938952D01*
X91082666Y-83319904D01*
X91130285Y-83415142D01*
X91177904Y-83462761D01*
X91273142Y-83510380D01*
X91463619Y-83510380D01*
X91558857Y-83462761D01*
X91606476Y-83415142D01*
X91654095Y-83319904D01*
X91654095Y-83081809D01*
X91606476Y-82986571D01*
X91558857Y-82938952D01*
X91463619Y-82891333D01*
X91273142Y-82891333D01*
X91177904Y-82938952D01*
X91130285Y-82986571D01*
X91082666Y-83081809D01*
%TO.C,R103*%
X103780952Y-90776380D02*
X103447619Y-90300190D01*
X103209523Y-90776380D02*
X103209523Y-89776380D01*
X103590476Y-89776380D01*
X103685714Y-89824000D01*
X103733333Y-89871619D01*
X103780952Y-89966857D01*
X103780952Y-90109714D01*
X103733333Y-90204952D01*
X103685714Y-90252571D01*
X103590476Y-90300190D01*
X103209523Y-90300190D01*
X104733333Y-90776380D02*
X104161904Y-90776380D01*
X104447619Y-90776380D02*
X104447619Y-89776380D01*
X104352380Y-89919238D01*
X104257142Y-90014476D01*
X104161904Y-90062095D01*
X105352380Y-89776380D02*
X105447619Y-89776380D01*
X105542857Y-89824000D01*
X105590476Y-89871619D01*
X105638095Y-89966857D01*
X105685714Y-90157333D01*
X105685714Y-90395428D01*
X105638095Y-90585904D01*
X105590476Y-90681142D01*
X105542857Y-90728761D01*
X105447619Y-90776380D01*
X105352380Y-90776380D01*
X105257142Y-90728761D01*
X105209523Y-90681142D01*
X105161904Y-90585904D01*
X105114285Y-90395428D01*
X105114285Y-90157333D01*
X105161904Y-89966857D01*
X105209523Y-89871619D01*
X105257142Y-89824000D01*
X105352380Y-89776380D01*
X106019047Y-89776380D02*
X106638095Y-89776380D01*
X106304761Y-90157333D01*
X106447619Y-90157333D01*
X106542857Y-90204952D01*
X106590476Y-90252571D01*
X106638095Y-90347809D01*
X106638095Y-90585904D01*
X106590476Y-90681142D01*
X106542857Y-90728761D01*
X106447619Y-90776380D01*
X106161904Y-90776380D01*
X106066666Y-90728761D01*
X106019047Y-90681142D01*
%TO.C,R102*%
X103782952Y-95856380D02*
X103449619Y-95380190D01*
X103211523Y-95856380D02*
X103211523Y-94856380D01*
X103592476Y-94856380D01*
X103687714Y-94904000D01*
X103735333Y-94951619D01*
X103782952Y-95046857D01*
X103782952Y-95189714D01*
X103735333Y-95284952D01*
X103687714Y-95332571D01*
X103592476Y-95380190D01*
X103211523Y-95380190D01*
X104735333Y-95856380D02*
X104163904Y-95856380D01*
X104449619Y-95856380D02*
X104449619Y-94856380D01*
X104354380Y-94999238D01*
X104259142Y-95094476D01*
X104163904Y-95142095D01*
X105354380Y-94856380D02*
X105449619Y-94856380D01*
X105544857Y-94904000D01*
X105592476Y-94951619D01*
X105640095Y-95046857D01*
X105687714Y-95237333D01*
X105687714Y-95475428D01*
X105640095Y-95665904D01*
X105592476Y-95761142D01*
X105544857Y-95808761D01*
X105449619Y-95856380D01*
X105354380Y-95856380D01*
X105259142Y-95808761D01*
X105211523Y-95761142D01*
X105163904Y-95665904D01*
X105116285Y-95475428D01*
X105116285Y-95237333D01*
X105163904Y-95046857D01*
X105211523Y-94951619D01*
X105259142Y-94904000D01*
X105354380Y-94856380D01*
X106068666Y-94951619D02*
X106116285Y-94904000D01*
X106211523Y-94856380D01*
X106449619Y-94856380D01*
X106544857Y-94904000D01*
X106592476Y-94951619D01*
X106640095Y-95046857D01*
X106640095Y-95142095D01*
X106592476Y-95284952D01*
X106021047Y-95856380D01*
X106640095Y-95856380D01*
%TO.C,R101*%
X103782952Y-93316380D02*
X103449619Y-92840190D01*
X103211523Y-93316380D02*
X103211523Y-92316380D01*
X103592476Y-92316380D01*
X103687714Y-92364000D01*
X103735333Y-92411619D01*
X103782952Y-92506857D01*
X103782952Y-92649714D01*
X103735333Y-92744952D01*
X103687714Y-92792571D01*
X103592476Y-92840190D01*
X103211523Y-92840190D01*
X104735333Y-93316380D02*
X104163904Y-93316380D01*
X104449619Y-93316380D02*
X104449619Y-92316380D01*
X104354380Y-92459238D01*
X104259142Y-92554476D01*
X104163904Y-92602095D01*
X105354380Y-92316380D02*
X105449619Y-92316380D01*
X105544857Y-92364000D01*
X105592476Y-92411619D01*
X105640095Y-92506857D01*
X105687714Y-92697333D01*
X105687714Y-92935428D01*
X105640095Y-93125904D01*
X105592476Y-93221142D01*
X105544857Y-93268761D01*
X105449619Y-93316380D01*
X105354380Y-93316380D01*
X105259142Y-93268761D01*
X105211523Y-93221142D01*
X105163904Y-93125904D01*
X105116285Y-92935428D01*
X105116285Y-92697333D01*
X105163904Y-92506857D01*
X105211523Y-92411619D01*
X105259142Y-92364000D01*
X105354380Y-92316380D01*
X106640095Y-93316380D02*
X106068666Y-93316380D01*
X106354380Y-93316380D02*
X106354380Y-92316380D01*
X106259142Y-92459238D01*
X106163904Y-92554476D01*
X106068666Y-92602095D01*
%TO.C,R14*%
X75938142Y-70937380D02*
X75604809Y-70461190D01*
X75366714Y-70937380D02*
X75366714Y-69937380D01*
X75747666Y-69937380D01*
X75842904Y-69985000D01*
X75890523Y-70032619D01*
X75938142Y-70127857D01*
X75938142Y-70270714D01*
X75890523Y-70365952D01*
X75842904Y-70413571D01*
X75747666Y-70461190D01*
X75366714Y-70461190D01*
X76890523Y-70937380D02*
X76319095Y-70937380D01*
X76604809Y-70937380D02*
X76604809Y-69937380D01*
X76509571Y-70080238D01*
X76414333Y-70175476D01*
X76319095Y-70223095D01*
X77747666Y-70270714D02*
X77747666Y-70937380D01*
X77509571Y-69889761D02*
X77271476Y-70604047D01*
X77890523Y-70604047D01*
%TO.C,R13*%
X82794142Y-76144380D02*
X82460809Y-75668190D01*
X82222714Y-76144380D02*
X82222714Y-75144380D01*
X82603666Y-75144380D01*
X82698904Y-75192000D01*
X82746523Y-75239619D01*
X82794142Y-75334857D01*
X82794142Y-75477714D01*
X82746523Y-75572952D01*
X82698904Y-75620571D01*
X82603666Y-75668190D01*
X82222714Y-75668190D01*
X83746523Y-76144380D02*
X83175095Y-76144380D01*
X83460809Y-76144380D02*
X83460809Y-75144380D01*
X83365571Y-75287238D01*
X83270333Y-75382476D01*
X83175095Y-75430095D01*
X84079857Y-75144380D02*
X84698904Y-75144380D01*
X84365571Y-75525333D01*
X84508428Y-75525333D01*
X84603666Y-75572952D01*
X84651285Y-75620571D01*
X84698904Y-75715809D01*
X84698904Y-75953904D01*
X84651285Y-76049142D01*
X84603666Y-76096761D01*
X84508428Y-76144380D01*
X84222714Y-76144380D01*
X84127476Y-76096761D01*
X84079857Y-76049142D01*
%TO.C,R12*%
X82923142Y-74493380D02*
X82589809Y-74017190D01*
X82351714Y-74493380D02*
X82351714Y-73493380D01*
X82732666Y-73493380D01*
X82827904Y-73541000D01*
X82875523Y-73588619D01*
X82923142Y-73683857D01*
X82923142Y-73826714D01*
X82875523Y-73921952D01*
X82827904Y-73969571D01*
X82732666Y-74017190D01*
X82351714Y-74017190D01*
X83875523Y-74493380D02*
X83304095Y-74493380D01*
X83589809Y-74493380D02*
X83589809Y-73493380D01*
X83494571Y-73636238D01*
X83399333Y-73731476D01*
X83304095Y-73779095D01*
X84256476Y-73588619D02*
X84304095Y-73541000D01*
X84399333Y-73493380D01*
X84637428Y-73493380D01*
X84732666Y-73541000D01*
X84780285Y-73588619D01*
X84827904Y-73683857D01*
X84827904Y-73779095D01*
X84780285Y-73921952D01*
X84208857Y-74493380D01*
X84827904Y-74493380D01*
%TO.C,R10*%
X74810880Y-82367357D02*
X74334690Y-82700690D01*
X74810880Y-82938785D02*
X73810880Y-82938785D01*
X73810880Y-82557833D01*
X73858500Y-82462595D01*
X73906119Y-82414976D01*
X74001357Y-82367357D01*
X74144214Y-82367357D01*
X74239452Y-82414976D01*
X74287071Y-82462595D01*
X74334690Y-82557833D01*
X74334690Y-82938785D01*
X74810880Y-81414976D02*
X74810880Y-81986404D01*
X74810880Y-81700690D02*
X73810880Y-81700690D01*
X73953738Y-81795928D01*
X74048976Y-81891166D01*
X74096595Y-81986404D01*
X73810880Y-80795928D02*
X73810880Y-80700690D01*
X73858500Y-80605452D01*
X73906119Y-80557833D01*
X74001357Y-80510214D01*
X74191833Y-80462595D01*
X74429928Y-80462595D01*
X74620404Y-80510214D01*
X74715642Y-80557833D01*
X74763261Y-80605452D01*
X74810880Y-80700690D01*
X74810880Y-80795928D01*
X74763261Y-80891166D01*
X74715642Y-80938785D01*
X74620404Y-80986404D01*
X74429928Y-81034023D01*
X74191833Y-81034023D01*
X74001357Y-80986404D01*
X73906119Y-80938785D01*
X73858500Y-80891166D01*
X73810880Y-80795928D01*
%TO.C,R5*%
X58718380Y-71540666D02*
X58242190Y-71874000D01*
X58718380Y-72112095D02*
X57718380Y-72112095D01*
X57718380Y-71731142D01*
X57766000Y-71635904D01*
X57813619Y-71588285D01*
X57908857Y-71540666D01*
X58051714Y-71540666D01*
X58146952Y-71588285D01*
X58194571Y-71635904D01*
X58242190Y-71731142D01*
X58242190Y-72112095D01*
X57718380Y-70635904D02*
X57718380Y-71112095D01*
X58194571Y-71159714D01*
X58146952Y-71112095D01*
X58099333Y-71016857D01*
X58099333Y-70778761D01*
X58146952Y-70683523D01*
X58194571Y-70635904D01*
X58289809Y-70588285D01*
X58527904Y-70588285D01*
X58623142Y-70635904D01*
X58670761Y-70683523D01*
X58718380Y-70778761D01*
X58718380Y-71016857D01*
X58670761Y-71112095D01*
X58623142Y-71159714D01*
%TO.C,R4*%
X64247833Y-71826380D02*
X63914500Y-71350190D01*
X63676404Y-71826380D02*
X63676404Y-70826380D01*
X64057357Y-70826380D01*
X64152595Y-70874000D01*
X64200214Y-70921619D01*
X64247833Y-71016857D01*
X64247833Y-71159714D01*
X64200214Y-71254952D01*
X64152595Y-71302571D01*
X64057357Y-71350190D01*
X63676404Y-71350190D01*
X65104976Y-71159714D02*
X65104976Y-71826380D01*
X64866880Y-70778761D02*
X64628785Y-71493047D01*
X65247833Y-71493047D01*
%TO.C,R3*%
X62575333Y-68397380D02*
X62242000Y-67921190D01*
X62003904Y-68397380D02*
X62003904Y-67397380D01*
X62384857Y-67397380D01*
X62480095Y-67445000D01*
X62527714Y-67492619D01*
X62575333Y-67587857D01*
X62575333Y-67730714D01*
X62527714Y-67825952D01*
X62480095Y-67873571D01*
X62384857Y-67921190D01*
X62003904Y-67921190D01*
X62908666Y-67397380D02*
X63527714Y-67397380D01*
X63194380Y-67778333D01*
X63337238Y-67778333D01*
X63432476Y-67825952D01*
X63480095Y-67873571D01*
X63527714Y-67968809D01*
X63527714Y-68206904D01*
X63480095Y-68302142D01*
X63432476Y-68349761D01*
X63337238Y-68397380D01*
X63051523Y-68397380D01*
X62956285Y-68349761D01*
X62908666Y-68302142D01*
%TO.C,R2*%
X94448333Y-109672380D02*
X94115000Y-109196190D01*
X93876904Y-109672380D02*
X93876904Y-108672380D01*
X94257857Y-108672380D01*
X94353095Y-108720000D01*
X94400714Y-108767619D01*
X94448333Y-108862857D01*
X94448333Y-109005714D01*
X94400714Y-109100952D01*
X94353095Y-109148571D01*
X94257857Y-109196190D01*
X93876904Y-109196190D01*
X94829285Y-108767619D02*
X94876904Y-108720000D01*
X94972142Y-108672380D01*
X95210238Y-108672380D01*
X95305476Y-108720000D01*
X95353095Y-108767619D01*
X95400714Y-108862857D01*
X95400714Y-108958095D01*
X95353095Y-109100952D01*
X94781666Y-109672380D01*
X95400714Y-109672380D01*
%TO.C,R1*%
X98877380Y-98718666D02*
X98401190Y-99052000D01*
X98877380Y-99290095D02*
X97877380Y-99290095D01*
X97877380Y-98909142D01*
X97925000Y-98813904D01*
X97972619Y-98766285D01*
X98067857Y-98718666D01*
X98210714Y-98718666D01*
X98305952Y-98766285D01*
X98353571Y-98813904D01*
X98401190Y-98909142D01*
X98401190Y-99290095D01*
X98877380Y-97766285D02*
X98877380Y-98337714D01*
X98877380Y-98052000D02*
X97877380Y-98052000D01*
X98020238Y-98147238D01*
X98115476Y-98242476D01*
X98163095Y-98337714D01*
%TO.C,L2*%
X78636333Y-73891380D02*
X78160142Y-73891380D01*
X78160142Y-72891380D01*
X78922047Y-72986619D02*
X78969666Y-72939000D01*
X79064904Y-72891380D01*
X79303000Y-72891380D01*
X79398238Y-72939000D01*
X79445857Y-72986619D01*
X79493476Y-73081857D01*
X79493476Y-73177095D01*
X79445857Y-73319952D01*
X78874428Y-73891380D01*
X79493476Y-73891380D01*
%TO.C,L1*%
X63333333Y-69921380D02*
X62857142Y-69921380D01*
X62857142Y-68921380D01*
X64190476Y-69921380D02*
X63619047Y-69921380D01*
X63904761Y-69921380D02*
X63904761Y-68921380D01*
X63809523Y-69064238D01*
X63714285Y-69159476D01*
X63619047Y-69207095D01*
%TO.C,C111*%
X89431952Y-69318142D02*
X89384333Y-69365761D01*
X89241476Y-69413380D01*
X89146238Y-69413380D01*
X89003380Y-69365761D01*
X88908142Y-69270523D01*
X88860523Y-69175285D01*
X88812904Y-68984809D01*
X88812904Y-68841952D01*
X88860523Y-68651476D01*
X88908142Y-68556238D01*
X89003380Y-68461000D01*
X89146238Y-68413380D01*
X89241476Y-68413380D01*
X89384333Y-68461000D01*
X89431952Y-68508619D01*
X90384333Y-69413380D02*
X89812904Y-69413380D01*
X90098619Y-69413380D02*
X90098619Y-68413380D01*
X90003380Y-68556238D01*
X89908142Y-68651476D01*
X89812904Y-68699095D01*
X91336714Y-69413380D02*
X90765285Y-69413380D01*
X91051000Y-69413380D02*
X91051000Y-68413380D01*
X90955761Y-68556238D01*
X90860523Y-68651476D01*
X90765285Y-68699095D01*
X92289095Y-69413380D02*
X91717666Y-69413380D01*
X92003380Y-69413380D02*
X92003380Y-68413380D01*
X91908142Y-68556238D01*
X91812904Y-68651476D01*
X91717666Y-68699095D01*
%TO.C,C15*%
X73652142Y-69191142D02*
X73604523Y-69238761D01*
X73461666Y-69286380D01*
X73366428Y-69286380D01*
X73223571Y-69238761D01*
X73128333Y-69143523D01*
X73080714Y-69048285D01*
X73033095Y-68857809D01*
X73033095Y-68714952D01*
X73080714Y-68524476D01*
X73128333Y-68429238D01*
X73223571Y-68334000D01*
X73366428Y-68286380D01*
X73461666Y-68286380D01*
X73604523Y-68334000D01*
X73652142Y-68381619D01*
X74604523Y-69286380D02*
X74033095Y-69286380D01*
X74318809Y-69286380D02*
X74318809Y-68286380D01*
X74223571Y-68429238D01*
X74128333Y-68524476D01*
X74033095Y-68572095D01*
X75509285Y-68286380D02*
X75033095Y-68286380D01*
X74985476Y-68762571D01*
X75033095Y-68714952D01*
X75128333Y-68667333D01*
X75366428Y-68667333D01*
X75461666Y-68714952D01*
X75509285Y-68762571D01*
X75556904Y-68857809D01*
X75556904Y-69095904D01*
X75509285Y-69191142D01*
X75461666Y-69238761D01*
X75366428Y-69286380D01*
X75128333Y-69286380D01*
X75033095Y-69238761D01*
X74985476Y-69191142D01*
%TO.C,U201*%
X78954380Y-118706685D02*
X79763904Y-118706685D01*
X79859142Y-118659066D01*
X79906761Y-118611447D01*
X79954380Y-118516209D01*
X79954380Y-118325733D01*
X79906761Y-118230495D01*
X79859142Y-118182876D01*
X79763904Y-118135257D01*
X78954380Y-118135257D01*
X79049619Y-117706685D02*
X79002000Y-117659066D01*
X78954380Y-117563828D01*
X78954380Y-117325733D01*
X79002000Y-117230495D01*
X79049619Y-117182876D01*
X79144857Y-117135257D01*
X79240095Y-117135257D01*
X79382952Y-117182876D01*
X79954380Y-117754304D01*
X79954380Y-117135257D01*
X78954380Y-116516209D02*
X78954380Y-116420971D01*
X79002000Y-116325733D01*
X79049619Y-116278114D01*
X79144857Y-116230495D01*
X79335333Y-116182876D01*
X79573428Y-116182876D01*
X79763904Y-116230495D01*
X79859142Y-116278114D01*
X79906761Y-116325733D01*
X79954380Y-116420971D01*
X79954380Y-116516209D01*
X79906761Y-116611447D01*
X79859142Y-116659066D01*
X79763904Y-116706685D01*
X79573428Y-116754304D01*
X79335333Y-116754304D01*
X79144857Y-116706685D01*
X79049619Y-116659066D01*
X79002000Y-116611447D01*
X78954380Y-116516209D01*
X79954380Y-115230495D02*
X79954380Y-115801923D01*
X79954380Y-115516209D02*
X78954380Y-115516209D01*
X79097238Y-115611447D01*
X79192476Y-115706685D01*
X79240095Y-115801923D01*
%TO.C,R204*%
X89050952Y-114345980D02*
X88717619Y-113869790D01*
X88479523Y-114345980D02*
X88479523Y-113345980D01*
X88860476Y-113345980D01*
X88955714Y-113393600D01*
X89003333Y-113441219D01*
X89050952Y-113536457D01*
X89050952Y-113679314D01*
X89003333Y-113774552D01*
X88955714Y-113822171D01*
X88860476Y-113869790D01*
X88479523Y-113869790D01*
X89431904Y-113441219D02*
X89479523Y-113393600D01*
X89574761Y-113345980D01*
X89812857Y-113345980D01*
X89908095Y-113393600D01*
X89955714Y-113441219D01*
X90003333Y-113536457D01*
X90003333Y-113631695D01*
X89955714Y-113774552D01*
X89384285Y-114345980D01*
X90003333Y-114345980D01*
X90622380Y-113345980D02*
X90717619Y-113345980D01*
X90812857Y-113393600D01*
X90860476Y-113441219D01*
X90908095Y-113536457D01*
X90955714Y-113726933D01*
X90955714Y-113965028D01*
X90908095Y-114155504D01*
X90860476Y-114250742D01*
X90812857Y-114298361D01*
X90717619Y-114345980D01*
X90622380Y-114345980D01*
X90527142Y-114298361D01*
X90479523Y-114250742D01*
X90431904Y-114155504D01*
X90384285Y-113965028D01*
X90384285Y-113726933D01*
X90431904Y-113536457D01*
X90479523Y-113441219D01*
X90527142Y-113393600D01*
X90622380Y-113345980D01*
X91812857Y-113679314D02*
X91812857Y-114345980D01*
X91574761Y-113298361D02*
X91336666Y-114012647D01*
X91955714Y-114012647D01*
%TO.C,R203*%
X89000152Y-112974380D02*
X88666819Y-112498190D01*
X88428723Y-112974380D02*
X88428723Y-111974380D01*
X88809676Y-111974380D01*
X88904914Y-112022000D01*
X88952533Y-112069619D01*
X89000152Y-112164857D01*
X89000152Y-112307714D01*
X88952533Y-112402952D01*
X88904914Y-112450571D01*
X88809676Y-112498190D01*
X88428723Y-112498190D01*
X89381104Y-112069619D02*
X89428723Y-112022000D01*
X89523961Y-111974380D01*
X89762057Y-111974380D01*
X89857295Y-112022000D01*
X89904914Y-112069619D01*
X89952533Y-112164857D01*
X89952533Y-112260095D01*
X89904914Y-112402952D01*
X89333485Y-112974380D01*
X89952533Y-112974380D01*
X90571580Y-111974380D02*
X90666819Y-111974380D01*
X90762057Y-112022000D01*
X90809676Y-112069619D01*
X90857295Y-112164857D01*
X90904914Y-112355333D01*
X90904914Y-112593428D01*
X90857295Y-112783904D01*
X90809676Y-112879142D01*
X90762057Y-112926761D01*
X90666819Y-112974380D01*
X90571580Y-112974380D01*
X90476342Y-112926761D01*
X90428723Y-112879142D01*
X90381104Y-112783904D01*
X90333485Y-112593428D01*
X90333485Y-112355333D01*
X90381104Y-112164857D01*
X90428723Y-112069619D01*
X90476342Y-112022000D01*
X90571580Y-111974380D01*
X91238247Y-111974380D02*
X91857295Y-111974380D01*
X91523961Y-112355333D01*
X91666819Y-112355333D01*
X91762057Y-112402952D01*
X91809676Y-112450571D01*
X91857295Y-112545809D01*
X91857295Y-112783904D01*
X91809676Y-112879142D01*
X91762057Y-112926761D01*
X91666819Y-112974380D01*
X91381104Y-112974380D01*
X91285866Y-112926761D01*
X91238247Y-112879142D01*
%TO.C,R202*%
X88542952Y-110942380D02*
X88209619Y-110466190D01*
X87971523Y-110942380D02*
X87971523Y-109942380D01*
X88352476Y-109942380D01*
X88447714Y-109990000D01*
X88495333Y-110037619D01*
X88542952Y-110132857D01*
X88542952Y-110275714D01*
X88495333Y-110370952D01*
X88447714Y-110418571D01*
X88352476Y-110466190D01*
X87971523Y-110466190D01*
X88923904Y-110037619D02*
X88971523Y-109990000D01*
X89066761Y-109942380D01*
X89304857Y-109942380D01*
X89400095Y-109990000D01*
X89447714Y-110037619D01*
X89495333Y-110132857D01*
X89495333Y-110228095D01*
X89447714Y-110370952D01*
X88876285Y-110942380D01*
X89495333Y-110942380D01*
X90114380Y-109942380D02*
X90209619Y-109942380D01*
X90304857Y-109990000D01*
X90352476Y-110037619D01*
X90400095Y-110132857D01*
X90447714Y-110323333D01*
X90447714Y-110561428D01*
X90400095Y-110751904D01*
X90352476Y-110847142D01*
X90304857Y-110894761D01*
X90209619Y-110942380D01*
X90114380Y-110942380D01*
X90019142Y-110894761D01*
X89971523Y-110847142D01*
X89923904Y-110751904D01*
X89876285Y-110561428D01*
X89876285Y-110323333D01*
X89923904Y-110132857D01*
X89971523Y-110037619D01*
X90019142Y-109990000D01*
X90114380Y-109942380D01*
X90828666Y-110037619D02*
X90876285Y-109990000D01*
X90971523Y-109942380D01*
X91209619Y-109942380D01*
X91304857Y-109990000D01*
X91352476Y-110037619D01*
X91400095Y-110132857D01*
X91400095Y-110228095D01*
X91352476Y-110370952D01*
X90781047Y-110942380D01*
X91400095Y-110942380D01*
%TO.C,R201*%
X81427580Y-110339047D02*
X80951390Y-110672380D01*
X81427580Y-110910476D02*
X80427580Y-110910476D01*
X80427580Y-110529523D01*
X80475200Y-110434285D01*
X80522819Y-110386666D01*
X80618057Y-110339047D01*
X80760914Y-110339047D01*
X80856152Y-110386666D01*
X80903771Y-110434285D01*
X80951390Y-110529523D01*
X80951390Y-110910476D01*
X80522819Y-109958095D02*
X80475200Y-109910476D01*
X80427580Y-109815238D01*
X80427580Y-109577142D01*
X80475200Y-109481904D01*
X80522819Y-109434285D01*
X80618057Y-109386666D01*
X80713295Y-109386666D01*
X80856152Y-109434285D01*
X81427580Y-110005714D01*
X81427580Y-109386666D01*
X80427580Y-108767619D02*
X80427580Y-108672380D01*
X80475200Y-108577142D01*
X80522819Y-108529523D01*
X80618057Y-108481904D01*
X80808533Y-108434285D01*
X81046628Y-108434285D01*
X81237104Y-108481904D01*
X81332342Y-108529523D01*
X81379961Y-108577142D01*
X81427580Y-108672380D01*
X81427580Y-108767619D01*
X81379961Y-108862857D01*
X81332342Y-108910476D01*
X81237104Y-108958095D01*
X81046628Y-109005714D01*
X80808533Y-109005714D01*
X80618057Y-108958095D01*
X80522819Y-108910476D01*
X80475200Y-108862857D01*
X80427580Y-108767619D01*
X81427580Y-107481904D02*
X81427580Y-108053333D01*
X81427580Y-107767619D02*
X80427580Y-107767619D01*
X80570438Y-107862857D01*
X80665676Y-107958095D01*
X80713295Y-108053333D01*
%TO.C,Q202*%
X91662380Y-130635619D02*
X91567142Y-130588000D01*
X91471904Y-130492761D01*
X91329047Y-130349904D01*
X91233809Y-130302285D01*
X91138571Y-130302285D01*
X91186190Y-130540380D02*
X91090952Y-130492761D01*
X90995714Y-130397523D01*
X90948095Y-130207047D01*
X90948095Y-129873714D01*
X90995714Y-129683238D01*
X91090952Y-129588000D01*
X91186190Y-129540380D01*
X91376666Y-129540380D01*
X91471904Y-129588000D01*
X91567142Y-129683238D01*
X91614761Y-129873714D01*
X91614761Y-130207047D01*
X91567142Y-130397523D01*
X91471904Y-130492761D01*
X91376666Y-130540380D01*
X91186190Y-130540380D01*
X91995714Y-129635619D02*
X92043333Y-129588000D01*
X92138571Y-129540380D01*
X92376666Y-129540380D01*
X92471904Y-129588000D01*
X92519523Y-129635619D01*
X92567142Y-129730857D01*
X92567142Y-129826095D01*
X92519523Y-129968952D01*
X91948095Y-130540380D01*
X92567142Y-130540380D01*
X93186190Y-129540380D02*
X93281428Y-129540380D01*
X93376666Y-129588000D01*
X93424285Y-129635619D01*
X93471904Y-129730857D01*
X93519523Y-129921333D01*
X93519523Y-130159428D01*
X93471904Y-130349904D01*
X93424285Y-130445142D01*
X93376666Y-130492761D01*
X93281428Y-130540380D01*
X93186190Y-130540380D01*
X93090952Y-130492761D01*
X93043333Y-130445142D01*
X92995714Y-130349904D01*
X92948095Y-130159428D01*
X92948095Y-129921333D01*
X92995714Y-129730857D01*
X93043333Y-129635619D01*
X93090952Y-129588000D01*
X93186190Y-129540380D01*
X93900476Y-129635619D02*
X93948095Y-129588000D01*
X94043333Y-129540380D01*
X94281428Y-129540380D01*
X94376666Y-129588000D01*
X94424285Y-129635619D01*
X94471904Y-129730857D01*
X94471904Y-129826095D01*
X94424285Y-129968952D01*
X93852857Y-130540380D01*
X94471904Y-130540380D01*
%TO.C,Q201*%
X90249619Y-90455619D02*
X90202000Y-90550857D01*
X90106761Y-90646095D01*
X89963904Y-90788952D01*
X89916285Y-90884190D01*
X89916285Y-90979428D01*
X90154380Y-90931809D02*
X90106761Y-91027047D01*
X90011523Y-91122285D01*
X89821047Y-91169904D01*
X89487714Y-91169904D01*
X89297238Y-91122285D01*
X89202000Y-91027047D01*
X89154380Y-90931809D01*
X89154380Y-90741333D01*
X89202000Y-90646095D01*
X89297238Y-90550857D01*
X89487714Y-90503238D01*
X89821047Y-90503238D01*
X90011523Y-90550857D01*
X90106761Y-90646095D01*
X90154380Y-90741333D01*
X90154380Y-90931809D01*
X89249619Y-90122285D02*
X89202000Y-90074666D01*
X89154380Y-89979428D01*
X89154380Y-89741333D01*
X89202000Y-89646095D01*
X89249619Y-89598476D01*
X89344857Y-89550857D01*
X89440095Y-89550857D01*
X89582952Y-89598476D01*
X90154380Y-90169904D01*
X90154380Y-89550857D01*
X89154380Y-88931809D02*
X89154380Y-88836571D01*
X89202000Y-88741333D01*
X89249619Y-88693714D01*
X89344857Y-88646095D01*
X89535333Y-88598476D01*
X89773428Y-88598476D01*
X89963904Y-88646095D01*
X90059142Y-88693714D01*
X90106761Y-88741333D01*
X90154380Y-88836571D01*
X90154380Y-88931809D01*
X90106761Y-89027047D01*
X90059142Y-89074666D01*
X89963904Y-89122285D01*
X89773428Y-89169904D01*
X89535333Y-89169904D01*
X89344857Y-89122285D01*
X89249619Y-89074666D01*
X89202000Y-89027047D01*
X89154380Y-88931809D01*
X90154380Y-87646095D02*
X90154380Y-88217523D01*
X90154380Y-87931809D02*
X89154380Y-87931809D01*
X89297238Y-88027047D01*
X89392476Y-88122285D01*
X89440095Y-88217523D01*
%TO.C,L201*%
X89304952Y-120157580D02*
X88828761Y-120157580D01*
X88828761Y-119157580D01*
X89590666Y-119252819D02*
X89638285Y-119205200D01*
X89733523Y-119157580D01*
X89971619Y-119157580D01*
X90066857Y-119205200D01*
X90114476Y-119252819D01*
X90162095Y-119348057D01*
X90162095Y-119443295D01*
X90114476Y-119586152D01*
X89543047Y-120157580D01*
X90162095Y-120157580D01*
X90781142Y-119157580D02*
X90876380Y-119157580D01*
X90971619Y-119205200D01*
X91019238Y-119252819D01*
X91066857Y-119348057D01*
X91114476Y-119538533D01*
X91114476Y-119776628D01*
X91066857Y-119967104D01*
X91019238Y-120062342D01*
X90971619Y-120109961D01*
X90876380Y-120157580D01*
X90781142Y-120157580D01*
X90685904Y-120109961D01*
X90638285Y-120062342D01*
X90590666Y-119967104D01*
X90543047Y-119776628D01*
X90543047Y-119538533D01*
X90590666Y-119348057D01*
X90638285Y-119252819D01*
X90685904Y-119205200D01*
X90781142Y-119157580D01*
X92066857Y-120157580D02*
X91495428Y-120157580D01*
X91781142Y-120157580D02*
X91781142Y-119157580D01*
X91685904Y-119300438D01*
X91590666Y-119395676D01*
X91495428Y-119443295D01*
%TO.C,J202*%
X92567285Y-134580380D02*
X92567285Y-135294666D01*
X92519666Y-135437523D01*
X92424428Y-135532761D01*
X92281571Y-135580380D01*
X92186333Y-135580380D01*
X92995857Y-134675619D02*
X93043476Y-134628000D01*
X93138714Y-134580380D01*
X93376809Y-134580380D01*
X93472047Y-134628000D01*
X93519666Y-134675619D01*
X93567285Y-134770857D01*
X93567285Y-134866095D01*
X93519666Y-135008952D01*
X92948238Y-135580380D01*
X93567285Y-135580380D01*
X94186333Y-134580380D02*
X94281571Y-134580380D01*
X94376809Y-134628000D01*
X94424428Y-134675619D01*
X94472047Y-134770857D01*
X94519666Y-134961333D01*
X94519666Y-135199428D01*
X94472047Y-135389904D01*
X94424428Y-135485142D01*
X94376809Y-135532761D01*
X94281571Y-135580380D01*
X94186333Y-135580380D01*
X94091095Y-135532761D01*
X94043476Y-135485142D01*
X93995857Y-135389904D01*
X93948238Y-135199428D01*
X93948238Y-134961333D01*
X93995857Y-134770857D01*
X94043476Y-134675619D01*
X94091095Y-134628000D01*
X94186333Y-134580380D01*
X94900619Y-134675619D02*
X94948238Y-134628000D01*
X95043476Y-134580380D01*
X95281571Y-134580380D01*
X95376809Y-134628000D01*
X95424428Y-134675619D01*
X95472047Y-134770857D01*
X95472047Y-134866095D01*
X95424428Y-135008952D01*
X94853000Y-135580380D01*
X95472047Y-135580380D01*
%TO.C,J201*%
X109307380Y-129555714D02*
X110021666Y-129555714D01*
X110164523Y-129603333D01*
X110259761Y-129698571D01*
X110307380Y-129841428D01*
X110307380Y-129936666D01*
X109402619Y-129127142D02*
X109355000Y-129079523D01*
X109307380Y-128984285D01*
X109307380Y-128746190D01*
X109355000Y-128650952D01*
X109402619Y-128603333D01*
X109497857Y-128555714D01*
X109593095Y-128555714D01*
X109735952Y-128603333D01*
X110307380Y-129174761D01*
X110307380Y-128555714D01*
X109307380Y-127936666D02*
X109307380Y-127841428D01*
X109355000Y-127746190D01*
X109402619Y-127698571D01*
X109497857Y-127650952D01*
X109688333Y-127603333D01*
X109926428Y-127603333D01*
X110116904Y-127650952D01*
X110212142Y-127698571D01*
X110259761Y-127746190D01*
X110307380Y-127841428D01*
X110307380Y-127936666D01*
X110259761Y-128031904D01*
X110212142Y-128079523D01*
X110116904Y-128127142D01*
X109926428Y-128174761D01*
X109688333Y-128174761D01*
X109497857Y-128127142D01*
X109402619Y-128079523D01*
X109355000Y-128031904D01*
X109307380Y-127936666D01*
X110307380Y-126650952D02*
X110307380Y-127222380D01*
X110307380Y-126936666D02*
X109307380Y-126936666D01*
X109450238Y-127031904D01*
X109545476Y-127127142D01*
X109593095Y-127222380D01*
%TO.C,D201*%
X99892380Y-89241976D02*
X98892380Y-89241976D01*
X98892380Y-89003880D01*
X98940000Y-88861023D01*
X99035238Y-88765785D01*
X99130476Y-88718166D01*
X99320952Y-88670547D01*
X99463809Y-88670547D01*
X99654285Y-88718166D01*
X99749523Y-88765785D01*
X99844761Y-88861023D01*
X99892380Y-89003880D01*
X99892380Y-89241976D01*
X98987619Y-88289595D02*
X98940000Y-88241976D01*
X98892380Y-88146738D01*
X98892380Y-87908642D01*
X98940000Y-87813404D01*
X98987619Y-87765785D01*
X99082857Y-87718166D01*
X99178095Y-87718166D01*
X99320952Y-87765785D01*
X99892380Y-88337214D01*
X99892380Y-87718166D01*
X98892380Y-87099119D02*
X98892380Y-87003880D01*
X98940000Y-86908642D01*
X98987619Y-86861023D01*
X99082857Y-86813404D01*
X99273333Y-86765785D01*
X99511428Y-86765785D01*
X99701904Y-86813404D01*
X99797142Y-86861023D01*
X99844761Y-86908642D01*
X99892380Y-87003880D01*
X99892380Y-87099119D01*
X99844761Y-87194357D01*
X99797142Y-87241976D01*
X99701904Y-87289595D01*
X99511428Y-87337214D01*
X99273333Y-87337214D01*
X99082857Y-87289595D01*
X98987619Y-87241976D01*
X98940000Y-87194357D01*
X98892380Y-87099119D01*
X99892380Y-85813404D02*
X99892380Y-86384833D01*
X99892380Y-86099119D02*
X98892380Y-86099119D01*
X99035238Y-86194357D01*
X99130476Y-86289595D01*
X99178095Y-86384833D01*
%TO.C,C207*%
X81049952Y-93702142D02*
X81002333Y-93749761D01*
X80859476Y-93797380D01*
X80764238Y-93797380D01*
X80621380Y-93749761D01*
X80526142Y-93654523D01*
X80478523Y-93559285D01*
X80430904Y-93368809D01*
X80430904Y-93225952D01*
X80478523Y-93035476D01*
X80526142Y-92940238D01*
X80621380Y-92845000D01*
X80764238Y-92797380D01*
X80859476Y-92797380D01*
X81002333Y-92845000D01*
X81049952Y-92892619D01*
X81430904Y-92892619D02*
X81478523Y-92845000D01*
X81573761Y-92797380D01*
X81811857Y-92797380D01*
X81907095Y-92845000D01*
X81954714Y-92892619D01*
X82002333Y-92987857D01*
X82002333Y-93083095D01*
X81954714Y-93225952D01*
X81383285Y-93797380D01*
X82002333Y-93797380D01*
X82621380Y-92797380D02*
X82716619Y-92797380D01*
X82811857Y-92845000D01*
X82859476Y-92892619D01*
X82907095Y-92987857D01*
X82954714Y-93178333D01*
X82954714Y-93416428D01*
X82907095Y-93606904D01*
X82859476Y-93702142D01*
X82811857Y-93749761D01*
X82716619Y-93797380D01*
X82621380Y-93797380D01*
X82526142Y-93749761D01*
X82478523Y-93702142D01*
X82430904Y-93606904D01*
X82383285Y-93416428D01*
X82383285Y-93178333D01*
X82430904Y-92987857D01*
X82478523Y-92892619D01*
X82526142Y-92845000D01*
X82621380Y-92797380D01*
X83288047Y-92797380D02*
X83954714Y-92797380D01*
X83526142Y-93797380D01*
%TO.C,C205*%
X83180952Y-109577142D02*
X83133333Y-109624761D01*
X82990476Y-109672380D01*
X82895238Y-109672380D01*
X82752380Y-109624761D01*
X82657142Y-109529523D01*
X82609523Y-109434285D01*
X82561904Y-109243809D01*
X82561904Y-109100952D01*
X82609523Y-108910476D01*
X82657142Y-108815238D01*
X82752380Y-108720000D01*
X82895238Y-108672380D01*
X82990476Y-108672380D01*
X83133333Y-108720000D01*
X83180952Y-108767619D01*
X83561904Y-108767619D02*
X83609523Y-108720000D01*
X83704761Y-108672380D01*
X83942857Y-108672380D01*
X84038095Y-108720000D01*
X84085714Y-108767619D01*
X84133333Y-108862857D01*
X84133333Y-108958095D01*
X84085714Y-109100952D01*
X83514285Y-109672380D01*
X84133333Y-109672380D01*
X84752380Y-108672380D02*
X84847619Y-108672380D01*
X84942857Y-108720000D01*
X84990476Y-108767619D01*
X85038095Y-108862857D01*
X85085714Y-109053333D01*
X85085714Y-109291428D01*
X85038095Y-109481904D01*
X84990476Y-109577142D01*
X84942857Y-109624761D01*
X84847619Y-109672380D01*
X84752380Y-109672380D01*
X84657142Y-109624761D01*
X84609523Y-109577142D01*
X84561904Y-109481904D01*
X84514285Y-109291428D01*
X84514285Y-109053333D01*
X84561904Y-108862857D01*
X84609523Y-108767619D01*
X84657142Y-108720000D01*
X84752380Y-108672380D01*
X85990476Y-108672380D02*
X85514285Y-108672380D01*
X85466666Y-109148571D01*
X85514285Y-109100952D01*
X85609523Y-109053333D01*
X85847619Y-109053333D01*
X85942857Y-109100952D01*
X85990476Y-109148571D01*
X86038095Y-109243809D01*
X86038095Y-109481904D01*
X85990476Y-109577142D01*
X85942857Y-109624761D01*
X85847619Y-109672380D01*
X85609523Y-109672380D01*
X85514285Y-109624761D01*
X85466666Y-109577142D01*
%TO.C,C204*%
X78839542Y-122429447D02*
X78887161Y-122477066D01*
X78934780Y-122619923D01*
X78934780Y-122715161D01*
X78887161Y-122858019D01*
X78791923Y-122953257D01*
X78696685Y-123000876D01*
X78506209Y-123048495D01*
X78363352Y-123048495D01*
X78172876Y-123000876D01*
X78077638Y-122953257D01*
X77982400Y-122858019D01*
X77934780Y-122715161D01*
X77934780Y-122619923D01*
X77982400Y-122477066D01*
X78030019Y-122429447D01*
X78030019Y-122048495D02*
X77982400Y-122000876D01*
X77934780Y-121905638D01*
X77934780Y-121667542D01*
X77982400Y-121572304D01*
X78030019Y-121524685D01*
X78125257Y-121477066D01*
X78220495Y-121477066D01*
X78363352Y-121524685D01*
X78934780Y-122096114D01*
X78934780Y-121477066D01*
X77934780Y-120858019D02*
X77934780Y-120762780D01*
X77982400Y-120667542D01*
X78030019Y-120619923D01*
X78125257Y-120572304D01*
X78315733Y-120524685D01*
X78553828Y-120524685D01*
X78744304Y-120572304D01*
X78839542Y-120619923D01*
X78887161Y-120667542D01*
X78934780Y-120762780D01*
X78934780Y-120858019D01*
X78887161Y-120953257D01*
X78839542Y-121000876D01*
X78744304Y-121048495D01*
X78553828Y-121096114D01*
X78315733Y-121096114D01*
X78125257Y-121048495D01*
X78030019Y-121000876D01*
X77982400Y-120953257D01*
X77934780Y-120858019D01*
X78268114Y-119667542D02*
X78934780Y-119667542D01*
X77887161Y-119905638D02*
X78601447Y-120143733D01*
X78601447Y-119524685D01*
%TO.C,C202*%
X78385942Y-114606247D02*
X78433561Y-114653866D01*
X78481180Y-114796723D01*
X78481180Y-114891961D01*
X78433561Y-115034819D01*
X78338323Y-115130057D01*
X78243085Y-115177676D01*
X78052609Y-115225295D01*
X77909752Y-115225295D01*
X77719276Y-115177676D01*
X77624038Y-115130057D01*
X77528800Y-115034819D01*
X77481180Y-114891961D01*
X77481180Y-114796723D01*
X77528800Y-114653866D01*
X77576419Y-114606247D01*
X77576419Y-114225295D02*
X77528800Y-114177676D01*
X77481180Y-114082438D01*
X77481180Y-113844342D01*
X77528800Y-113749104D01*
X77576419Y-113701485D01*
X77671657Y-113653866D01*
X77766895Y-113653866D01*
X77909752Y-113701485D01*
X78481180Y-114272914D01*
X78481180Y-113653866D01*
X77481180Y-113034819D02*
X77481180Y-112939580D01*
X77528800Y-112844342D01*
X77576419Y-112796723D01*
X77671657Y-112749104D01*
X77862133Y-112701485D01*
X78100228Y-112701485D01*
X78290704Y-112749104D01*
X78385942Y-112796723D01*
X78433561Y-112844342D01*
X78481180Y-112939580D01*
X78481180Y-113034819D01*
X78433561Y-113130057D01*
X78385942Y-113177676D01*
X78290704Y-113225295D01*
X78100228Y-113272914D01*
X77862133Y-113272914D01*
X77671657Y-113225295D01*
X77576419Y-113177676D01*
X77528800Y-113130057D01*
X77481180Y-113034819D01*
X77576419Y-112320533D02*
X77528800Y-112272914D01*
X77481180Y-112177676D01*
X77481180Y-111939580D01*
X77528800Y-111844342D01*
X77576419Y-111796723D01*
X77671657Y-111749104D01*
X77766895Y-111749104D01*
X77909752Y-111796723D01*
X78481180Y-112368152D01*
X78481180Y-111749104D01*
%TO.C,U1*%
X91567095Y-106648380D02*
X91567095Y-107457904D01*
X91614714Y-107553142D01*
X91662333Y-107600761D01*
X91757571Y-107648380D01*
X91948047Y-107648380D01*
X92043285Y-107600761D01*
X92090904Y-107553142D01*
X92138523Y-107457904D01*
X92138523Y-106648380D01*
X93138523Y-107648380D02*
X92567095Y-107648380D01*
X92852809Y-107648380D02*
X92852809Y-106648380D01*
X92757571Y-106791238D01*
X92662333Y-106886476D01*
X92567095Y-106934095D01*
%TO.C,R113*%
X69873952Y-86939380D02*
X69540619Y-86463190D01*
X69302523Y-86939380D02*
X69302523Y-85939380D01*
X69683476Y-85939380D01*
X69778714Y-85987000D01*
X69826333Y-86034619D01*
X69873952Y-86129857D01*
X69873952Y-86272714D01*
X69826333Y-86367952D01*
X69778714Y-86415571D01*
X69683476Y-86463190D01*
X69302523Y-86463190D01*
X70826333Y-86939380D02*
X70254904Y-86939380D01*
X70540619Y-86939380D02*
X70540619Y-85939380D01*
X70445380Y-86082238D01*
X70350142Y-86177476D01*
X70254904Y-86225095D01*
X71778714Y-86939380D02*
X71207285Y-86939380D01*
X71493000Y-86939380D02*
X71493000Y-85939380D01*
X71397761Y-86082238D01*
X71302523Y-86177476D01*
X71207285Y-86225095D01*
X72112047Y-85939380D02*
X72731095Y-85939380D01*
X72397761Y-86320333D01*
X72540619Y-86320333D01*
X72635857Y-86367952D01*
X72683476Y-86415571D01*
X72731095Y-86510809D01*
X72731095Y-86748904D01*
X72683476Y-86844142D01*
X72635857Y-86891761D01*
X72540619Y-86939380D01*
X72254904Y-86939380D01*
X72159666Y-86891761D01*
X72112047Y-86844142D01*
%TO.C,R111*%
X77874952Y-92273380D02*
X77541619Y-91797190D01*
X77303523Y-92273380D02*
X77303523Y-91273380D01*
X77684476Y-91273380D01*
X77779714Y-91321000D01*
X77827333Y-91368619D01*
X77874952Y-91463857D01*
X77874952Y-91606714D01*
X77827333Y-91701952D01*
X77779714Y-91749571D01*
X77684476Y-91797190D01*
X77303523Y-91797190D01*
X78827333Y-92273380D02*
X78255904Y-92273380D01*
X78541619Y-92273380D02*
X78541619Y-91273380D01*
X78446380Y-91416238D01*
X78351142Y-91511476D01*
X78255904Y-91559095D01*
X79779714Y-92273380D02*
X79208285Y-92273380D01*
X79494000Y-92273380D02*
X79494000Y-91273380D01*
X79398761Y-91416238D01*
X79303523Y-91511476D01*
X79208285Y-91559095D01*
X80732095Y-92273380D02*
X80160666Y-92273380D01*
X80446380Y-92273380D02*
X80446380Y-91273380D01*
X80351142Y-91416238D01*
X80255904Y-91511476D01*
X80160666Y-91559095D01*
%TO.C,R110*%
X70048380Y-90654047D02*
X69572190Y-90987380D01*
X70048380Y-91225476D02*
X69048380Y-91225476D01*
X69048380Y-90844523D01*
X69096000Y-90749285D01*
X69143619Y-90701666D01*
X69238857Y-90654047D01*
X69381714Y-90654047D01*
X69476952Y-90701666D01*
X69524571Y-90749285D01*
X69572190Y-90844523D01*
X69572190Y-91225476D01*
X70048380Y-89701666D02*
X70048380Y-90273095D01*
X70048380Y-89987380D02*
X69048380Y-89987380D01*
X69191238Y-90082619D01*
X69286476Y-90177857D01*
X69334095Y-90273095D01*
X70048380Y-88749285D02*
X70048380Y-89320714D01*
X70048380Y-89035000D02*
X69048380Y-89035000D01*
X69191238Y-89130238D01*
X69286476Y-89225476D01*
X69334095Y-89320714D01*
X69048380Y-88130238D02*
X69048380Y-88035000D01*
X69096000Y-87939761D01*
X69143619Y-87892142D01*
X69238857Y-87844523D01*
X69429333Y-87796904D01*
X69667428Y-87796904D01*
X69857904Y-87844523D01*
X69953142Y-87892142D01*
X70000761Y-87939761D01*
X70048380Y-88035000D01*
X70048380Y-88130238D01*
X70000761Y-88225476D01*
X69953142Y-88273095D01*
X69857904Y-88320714D01*
X69667428Y-88368333D01*
X69429333Y-88368333D01*
X69238857Y-88320714D01*
X69143619Y-88273095D01*
X69096000Y-88225476D01*
X69048380Y-88130238D01*
%TO.C,R107*%
X99591952Y-77795380D02*
X99258619Y-77319190D01*
X99020523Y-77795380D02*
X99020523Y-76795380D01*
X99401476Y-76795380D01*
X99496714Y-76843000D01*
X99544333Y-76890619D01*
X99591952Y-76985857D01*
X99591952Y-77128714D01*
X99544333Y-77223952D01*
X99496714Y-77271571D01*
X99401476Y-77319190D01*
X99020523Y-77319190D01*
X100544333Y-77795380D02*
X99972904Y-77795380D01*
X100258619Y-77795380D02*
X100258619Y-76795380D01*
X100163380Y-76938238D01*
X100068142Y-77033476D01*
X99972904Y-77081095D01*
X101163380Y-76795380D02*
X101258619Y-76795380D01*
X101353857Y-76843000D01*
X101401476Y-76890619D01*
X101449095Y-76985857D01*
X101496714Y-77176333D01*
X101496714Y-77414428D01*
X101449095Y-77604904D01*
X101401476Y-77700142D01*
X101353857Y-77747761D01*
X101258619Y-77795380D01*
X101163380Y-77795380D01*
X101068142Y-77747761D01*
X101020523Y-77700142D01*
X100972904Y-77604904D01*
X100925285Y-77414428D01*
X100925285Y-77176333D01*
X100972904Y-76985857D01*
X101020523Y-76890619D01*
X101068142Y-76843000D01*
X101163380Y-76795380D01*
X101830047Y-76795380D02*
X102496714Y-76795380D01*
X102068142Y-77795380D01*
%TO.C,R105*%
X88082380Y-80621047D02*
X87606190Y-80954380D01*
X88082380Y-81192476D02*
X87082380Y-81192476D01*
X87082380Y-80811523D01*
X87130000Y-80716285D01*
X87177619Y-80668666D01*
X87272857Y-80621047D01*
X87415714Y-80621047D01*
X87510952Y-80668666D01*
X87558571Y-80716285D01*
X87606190Y-80811523D01*
X87606190Y-81192476D01*
X88082380Y-79668666D02*
X88082380Y-80240095D01*
X88082380Y-79954380D02*
X87082380Y-79954380D01*
X87225238Y-80049619D01*
X87320476Y-80144857D01*
X87368095Y-80240095D01*
X87082380Y-79049619D02*
X87082380Y-78954380D01*
X87130000Y-78859142D01*
X87177619Y-78811523D01*
X87272857Y-78763904D01*
X87463333Y-78716285D01*
X87701428Y-78716285D01*
X87891904Y-78763904D01*
X87987142Y-78811523D01*
X88034761Y-78859142D01*
X88082380Y-78954380D01*
X88082380Y-79049619D01*
X88034761Y-79144857D01*
X87987142Y-79192476D01*
X87891904Y-79240095D01*
X87701428Y-79287714D01*
X87463333Y-79287714D01*
X87272857Y-79240095D01*
X87177619Y-79192476D01*
X87130000Y-79144857D01*
X87082380Y-79049619D01*
X87082380Y-77811523D02*
X87082380Y-78287714D01*
X87558571Y-78335333D01*
X87510952Y-78287714D01*
X87463333Y-78192476D01*
X87463333Y-77954380D01*
X87510952Y-77859142D01*
X87558571Y-77811523D01*
X87653809Y-77763904D01*
X87891904Y-77763904D01*
X87987142Y-77811523D01*
X88034761Y-77859142D01*
X88082380Y-77954380D01*
X88082380Y-78192476D01*
X88034761Y-78287714D01*
X87987142Y-78335333D01*
%TO.C,R104*%
X88082380Y-76557047D02*
X87606190Y-76890380D01*
X88082380Y-77128476D02*
X87082380Y-77128476D01*
X87082380Y-76747523D01*
X87130000Y-76652285D01*
X87177619Y-76604666D01*
X87272857Y-76557047D01*
X87415714Y-76557047D01*
X87510952Y-76604666D01*
X87558571Y-76652285D01*
X87606190Y-76747523D01*
X87606190Y-77128476D01*
X88082380Y-75604666D02*
X88082380Y-76176095D01*
X88082380Y-75890380D02*
X87082380Y-75890380D01*
X87225238Y-75985619D01*
X87320476Y-76080857D01*
X87368095Y-76176095D01*
X87082380Y-74985619D02*
X87082380Y-74890380D01*
X87130000Y-74795142D01*
X87177619Y-74747523D01*
X87272857Y-74699904D01*
X87463333Y-74652285D01*
X87701428Y-74652285D01*
X87891904Y-74699904D01*
X87987142Y-74747523D01*
X88034761Y-74795142D01*
X88082380Y-74890380D01*
X88082380Y-74985619D01*
X88034761Y-75080857D01*
X87987142Y-75128476D01*
X87891904Y-75176095D01*
X87701428Y-75223714D01*
X87463333Y-75223714D01*
X87272857Y-75176095D01*
X87177619Y-75128476D01*
X87130000Y-75080857D01*
X87082380Y-74985619D01*
X87415714Y-73795142D02*
X88082380Y-73795142D01*
X87034761Y-74033238D02*
X87749047Y-74271333D01*
X87749047Y-73652285D01*
%TO.C,L104*%
X93876952Y-74239380D02*
X93400761Y-74239380D01*
X93400761Y-73239380D01*
X94734095Y-74239380D02*
X94162666Y-74239380D01*
X94448380Y-74239380D02*
X94448380Y-73239380D01*
X94353142Y-73382238D01*
X94257904Y-73477476D01*
X94162666Y-73525095D01*
X95353142Y-73239380D02*
X95448380Y-73239380D01*
X95543619Y-73287000D01*
X95591238Y-73334619D01*
X95638857Y-73429857D01*
X95686476Y-73620333D01*
X95686476Y-73858428D01*
X95638857Y-74048904D01*
X95591238Y-74144142D01*
X95543619Y-74191761D01*
X95448380Y-74239380D01*
X95353142Y-74239380D01*
X95257904Y-74191761D01*
X95210285Y-74144142D01*
X95162666Y-74048904D01*
X95115047Y-73858428D01*
X95115047Y-73620333D01*
X95162666Y-73429857D01*
X95210285Y-73334619D01*
X95257904Y-73287000D01*
X95353142Y-73239380D01*
X96543619Y-73572714D02*
X96543619Y-74239380D01*
X96305523Y-73191761D02*
X96067428Y-73906047D01*
X96686476Y-73906047D01*
%TO.C,J106*%
X97774285Y-66254380D02*
X97774285Y-66968666D01*
X97726666Y-67111523D01*
X97631428Y-67206761D01*
X97488571Y-67254380D01*
X97393333Y-67254380D01*
X98774285Y-67254380D02*
X98202857Y-67254380D01*
X98488571Y-67254380D02*
X98488571Y-66254380D01*
X98393333Y-66397238D01*
X98298095Y-66492476D01*
X98202857Y-66540095D01*
X99393333Y-66254380D02*
X99488571Y-66254380D01*
X99583809Y-66302000D01*
X99631428Y-66349619D01*
X99679047Y-66444857D01*
X99726666Y-66635333D01*
X99726666Y-66873428D01*
X99679047Y-67063904D01*
X99631428Y-67159142D01*
X99583809Y-67206761D01*
X99488571Y-67254380D01*
X99393333Y-67254380D01*
X99298095Y-67206761D01*
X99250476Y-67159142D01*
X99202857Y-67063904D01*
X99155238Y-66873428D01*
X99155238Y-66635333D01*
X99202857Y-66444857D01*
X99250476Y-66349619D01*
X99298095Y-66302000D01*
X99393333Y-66254380D01*
X100583809Y-66254380D02*
X100393333Y-66254380D01*
X100298095Y-66302000D01*
X100250476Y-66349619D01*
X100155238Y-66492476D01*
X100107619Y-66682952D01*
X100107619Y-67063904D01*
X100155238Y-67159142D01*
X100202857Y-67206761D01*
X100298095Y-67254380D01*
X100488571Y-67254380D01*
X100583809Y-67206761D01*
X100631428Y-67159142D01*
X100679047Y-67063904D01*
X100679047Y-66825809D01*
X100631428Y-66730571D01*
X100583809Y-66682952D01*
X100488571Y-66635333D01*
X100298095Y-66635333D01*
X100202857Y-66682952D01*
X100155238Y-66730571D01*
X100107619Y-66825809D01*
%TO.C,C110*%
X100525642Y-72366047D02*
X100573261Y-72413666D01*
X100620880Y-72556523D01*
X100620880Y-72651761D01*
X100573261Y-72794619D01*
X100478023Y-72889857D01*
X100382785Y-72937476D01*
X100192309Y-72985095D01*
X100049452Y-72985095D01*
X99858976Y-72937476D01*
X99763738Y-72889857D01*
X99668500Y-72794619D01*
X99620880Y-72651761D01*
X99620880Y-72556523D01*
X99668500Y-72413666D01*
X99716119Y-72366047D01*
X100620880Y-71413666D02*
X100620880Y-71985095D01*
X100620880Y-71699380D02*
X99620880Y-71699380D01*
X99763738Y-71794619D01*
X99858976Y-71889857D01*
X99906595Y-71985095D01*
X100620880Y-70461285D02*
X100620880Y-71032714D01*
X100620880Y-70747000D02*
X99620880Y-70747000D01*
X99763738Y-70842238D01*
X99858976Y-70937476D01*
X99906595Y-71032714D01*
X99620880Y-69842238D02*
X99620880Y-69747000D01*
X99668500Y-69651761D01*
X99716119Y-69604142D01*
X99811357Y-69556523D01*
X100001833Y-69508904D01*
X100239928Y-69508904D01*
X100430404Y-69556523D01*
X100525642Y-69604142D01*
X100573261Y-69651761D01*
X100620880Y-69747000D01*
X100620880Y-69842238D01*
X100573261Y-69937476D01*
X100525642Y-69985095D01*
X100430404Y-70032714D01*
X100239928Y-70080333D01*
X100001833Y-70080333D01*
X99811357Y-70032714D01*
X99716119Y-69985095D01*
X99668500Y-69937476D01*
X99620880Y-69842238D01*
%TO.C,C109*%
X100814142Y-81637047D02*
X100861761Y-81684666D01*
X100909380Y-81827523D01*
X100909380Y-81922761D01*
X100861761Y-82065619D01*
X100766523Y-82160857D01*
X100671285Y-82208476D01*
X100480809Y-82256095D01*
X100337952Y-82256095D01*
X100147476Y-82208476D01*
X100052238Y-82160857D01*
X99957000Y-82065619D01*
X99909380Y-81922761D01*
X99909380Y-81827523D01*
X99957000Y-81684666D01*
X100004619Y-81637047D01*
X100909380Y-80684666D02*
X100909380Y-81256095D01*
X100909380Y-80970380D02*
X99909380Y-80970380D01*
X100052238Y-81065619D01*
X100147476Y-81160857D01*
X100195095Y-81256095D01*
X99909380Y-80065619D02*
X99909380Y-79970380D01*
X99957000Y-79875142D01*
X100004619Y-79827523D01*
X100099857Y-79779904D01*
X100290333Y-79732285D01*
X100528428Y-79732285D01*
X100718904Y-79779904D01*
X100814142Y-79827523D01*
X100861761Y-79875142D01*
X100909380Y-79970380D01*
X100909380Y-80065619D01*
X100861761Y-80160857D01*
X100814142Y-80208476D01*
X100718904Y-80256095D01*
X100528428Y-80303714D01*
X100290333Y-80303714D01*
X100099857Y-80256095D01*
X100004619Y-80208476D01*
X99957000Y-80160857D01*
X99909380Y-80065619D01*
X100909380Y-79256095D02*
X100909380Y-79065619D01*
X100861761Y-78970380D01*
X100814142Y-78922761D01*
X100671285Y-78827523D01*
X100480809Y-78779904D01*
X100099857Y-78779904D01*
X100004619Y-78827523D01*
X99957000Y-78875142D01*
X99909380Y-78970380D01*
X99909380Y-79160857D01*
X99957000Y-79256095D01*
X100004619Y-79303714D01*
X100099857Y-79351333D01*
X100337952Y-79351333D01*
X100433190Y-79303714D01*
X100480809Y-79256095D01*
X100528428Y-79160857D01*
X100528428Y-78970380D01*
X100480809Y-78875142D01*
X100433190Y-78827523D01*
X100337952Y-78779904D01*
%TO.C,C108*%
X88923952Y-72620142D02*
X88876333Y-72667761D01*
X88733476Y-72715380D01*
X88638238Y-72715380D01*
X88495380Y-72667761D01*
X88400142Y-72572523D01*
X88352523Y-72477285D01*
X88304904Y-72286809D01*
X88304904Y-72143952D01*
X88352523Y-71953476D01*
X88400142Y-71858238D01*
X88495380Y-71763000D01*
X88638238Y-71715380D01*
X88733476Y-71715380D01*
X88876333Y-71763000D01*
X88923952Y-71810619D01*
X89876333Y-72715380D02*
X89304904Y-72715380D01*
X89590619Y-72715380D02*
X89590619Y-71715380D01*
X89495380Y-71858238D01*
X89400142Y-71953476D01*
X89304904Y-72001095D01*
X90495380Y-71715380D02*
X90590619Y-71715380D01*
X90685857Y-71763000D01*
X90733476Y-71810619D01*
X90781095Y-71905857D01*
X90828714Y-72096333D01*
X90828714Y-72334428D01*
X90781095Y-72524904D01*
X90733476Y-72620142D01*
X90685857Y-72667761D01*
X90590619Y-72715380D01*
X90495380Y-72715380D01*
X90400142Y-72667761D01*
X90352523Y-72620142D01*
X90304904Y-72524904D01*
X90257285Y-72334428D01*
X90257285Y-72096333D01*
X90304904Y-71905857D01*
X90352523Y-71810619D01*
X90400142Y-71763000D01*
X90495380Y-71715380D01*
X91400142Y-72143952D02*
X91304904Y-72096333D01*
X91257285Y-72048714D01*
X91209666Y-71953476D01*
X91209666Y-71905857D01*
X91257285Y-71810619D01*
X91304904Y-71763000D01*
X91400142Y-71715380D01*
X91590619Y-71715380D01*
X91685857Y-71763000D01*
X91733476Y-71810619D01*
X91781095Y-71905857D01*
X91781095Y-71953476D01*
X91733476Y-72048714D01*
X91685857Y-72096333D01*
X91590619Y-72143952D01*
X91400142Y-72143952D01*
X91304904Y-72191571D01*
X91257285Y-72239190D01*
X91209666Y-72334428D01*
X91209666Y-72524904D01*
X91257285Y-72620142D01*
X91304904Y-72667761D01*
X91400142Y-72715380D01*
X91590619Y-72715380D01*
X91685857Y-72667761D01*
X91733476Y-72620142D01*
X91781095Y-72524904D01*
X91781095Y-72334428D01*
X91733476Y-72239190D01*
X91685857Y-72191571D01*
X91590619Y-72143952D01*
%TO.C,U2*%
X63224380Y-80263904D02*
X64033904Y-80263904D01*
X64129142Y-80216285D01*
X64176761Y-80168666D01*
X64224380Y-80073428D01*
X64224380Y-79882952D01*
X64176761Y-79787714D01*
X64129142Y-79740095D01*
X64033904Y-79692476D01*
X63224380Y-79692476D01*
X63319619Y-79263904D02*
X63272000Y-79216285D01*
X63224380Y-79121047D01*
X63224380Y-78882952D01*
X63272000Y-78787714D01*
X63319619Y-78740095D01*
X63414857Y-78692476D01*
X63510095Y-78692476D01*
X63652952Y-78740095D01*
X64224380Y-79311523D01*
X64224380Y-78692476D01*
%TO.C,Y101*%
X56229428Y-93575190D02*
X56229428Y-94051380D01*
X55896095Y-93051380D02*
X56229428Y-93575190D01*
X56562761Y-93051380D01*
X57419904Y-94051380D02*
X56848476Y-94051380D01*
X57134190Y-94051380D02*
X57134190Y-93051380D01*
X57038952Y-93194238D01*
X56943714Y-93289476D01*
X56848476Y-93337095D01*
X58038952Y-93051380D02*
X58134190Y-93051380D01*
X58229428Y-93099000D01*
X58277047Y-93146619D01*
X58324666Y-93241857D01*
X58372285Y-93432333D01*
X58372285Y-93670428D01*
X58324666Y-93860904D01*
X58277047Y-93956142D01*
X58229428Y-94003761D01*
X58134190Y-94051380D01*
X58038952Y-94051380D01*
X57943714Y-94003761D01*
X57896095Y-93956142D01*
X57848476Y-93860904D01*
X57800857Y-93670428D01*
X57800857Y-93432333D01*
X57848476Y-93241857D01*
X57896095Y-93146619D01*
X57943714Y-93099000D01*
X58038952Y-93051380D01*
X59324666Y-94051380D02*
X58753238Y-94051380D01*
X59038952Y-94051380D02*
X59038952Y-93051380D01*
X58943714Y-93194238D01*
X58848476Y-93289476D01*
X58753238Y-93337095D01*
%TO.C,J104*%
X107934285Y-81196380D02*
X107934285Y-81910666D01*
X107886666Y-82053523D01*
X107791428Y-82148761D01*
X107648571Y-82196380D01*
X107553333Y-82196380D01*
X108934285Y-82196380D02*
X108362857Y-82196380D01*
X108648571Y-82196380D02*
X108648571Y-81196380D01*
X108553333Y-81339238D01*
X108458095Y-81434476D01*
X108362857Y-81482095D01*
X109553333Y-81196380D02*
X109648571Y-81196380D01*
X109743809Y-81244000D01*
X109791428Y-81291619D01*
X109839047Y-81386857D01*
X109886666Y-81577333D01*
X109886666Y-81815428D01*
X109839047Y-82005904D01*
X109791428Y-82101142D01*
X109743809Y-82148761D01*
X109648571Y-82196380D01*
X109553333Y-82196380D01*
X109458095Y-82148761D01*
X109410476Y-82101142D01*
X109362857Y-82005904D01*
X109315238Y-81815428D01*
X109315238Y-81577333D01*
X109362857Y-81386857D01*
X109410476Y-81291619D01*
X109458095Y-81244000D01*
X109553333Y-81196380D01*
X110743809Y-81529714D02*
X110743809Y-82196380D01*
X110505714Y-81148761D02*
X110267619Y-81863047D01*
X110886666Y-81863047D01*
%TO.C,D104*%
X108721023Y-54172380D02*
X108721023Y-53172380D01*
X108959119Y-53172380D01*
X109101976Y-53220000D01*
X109197214Y-53315238D01*
X109244833Y-53410476D01*
X109292452Y-53600952D01*
X109292452Y-53743809D01*
X109244833Y-53934285D01*
X109197214Y-54029523D01*
X109101976Y-54124761D01*
X108959119Y-54172380D01*
X108721023Y-54172380D01*
X110244833Y-54172380D02*
X109673404Y-54172380D01*
X109959119Y-54172380D02*
X109959119Y-53172380D01*
X109863880Y-53315238D01*
X109768642Y-53410476D01*
X109673404Y-53458095D01*
X110863880Y-53172380D02*
X110959119Y-53172380D01*
X111054357Y-53220000D01*
X111101976Y-53267619D01*
X111149595Y-53362857D01*
X111197214Y-53553333D01*
X111197214Y-53791428D01*
X111149595Y-53981904D01*
X111101976Y-54077142D01*
X111054357Y-54124761D01*
X110959119Y-54172380D01*
X110863880Y-54172380D01*
X110768642Y-54124761D01*
X110721023Y-54077142D01*
X110673404Y-53981904D01*
X110625785Y-53791428D01*
X110625785Y-53553333D01*
X110673404Y-53362857D01*
X110721023Y-53267619D01*
X110768642Y-53220000D01*
X110863880Y-53172380D01*
X112054357Y-53505714D02*
X112054357Y-54172380D01*
X111816261Y-53124761D02*
X111578166Y-53839047D01*
X112197214Y-53839047D01*
%TO.C,D103*%
X101512023Y-54172380D02*
X101512023Y-53172380D01*
X101750119Y-53172380D01*
X101892976Y-53220000D01*
X101988214Y-53315238D01*
X102035833Y-53410476D01*
X102083452Y-53600952D01*
X102083452Y-53743809D01*
X102035833Y-53934285D01*
X101988214Y-54029523D01*
X101892976Y-54124761D01*
X101750119Y-54172380D01*
X101512023Y-54172380D01*
X103035833Y-54172380D02*
X102464404Y-54172380D01*
X102750119Y-54172380D02*
X102750119Y-53172380D01*
X102654880Y-53315238D01*
X102559642Y-53410476D01*
X102464404Y-53458095D01*
X103654880Y-53172380D02*
X103750119Y-53172380D01*
X103845357Y-53220000D01*
X103892976Y-53267619D01*
X103940595Y-53362857D01*
X103988214Y-53553333D01*
X103988214Y-53791428D01*
X103940595Y-53981904D01*
X103892976Y-54077142D01*
X103845357Y-54124761D01*
X103750119Y-54172380D01*
X103654880Y-54172380D01*
X103559642Y-54124761D01*
X103512023Y-54077142D01*
X103464404Y-53981904D01*
X103416785Y-53791428D01*
X103416785Y-53553333D01*
X103464404Y-53362857D01*
X103512023Y-53267619D01*
X103559642Y-53220000D01*
X103654880Y-53172380D01*
X104321547Y-53172380D02*
X104940595Y-53172380D01*
X104607261Y-53553333D01*
X104750119Y-53553333D01*
X104845357Y-53600952D01*
X104892976Y-53648571D01*
X104940595Y-53743809D01*
X104940595Y-53981904D01*
X104892976Y-54077142D01*
X104845357Y-54124761D01*
X104750119Y-54172380D01*
X104464404Y-54172380D01*
X104369166Y-54124761D01*
X104321547Y-54077142D01*
%TO.C,D102*%
X105165023Y-54172380D02*
X105165023Y-53172380D01*
X105403119Y-53172380D01*
X105545976Y-53220000D01*
X105641214Y-53315238D01*
X105688833Y-53410476D01*
X105736452Y-53600952D01*
X105736452Y-53743809D01*
X105688833Y-53934285D01*
X105641214Y-54029523D01*
X105545976Y-54124761D01*
X105403119Y-54172380D01*
X105165023Y-54172380D01*
X106688833Y-54172380D02*
X106117404Y-54172380D01*
X106403119Y-54172380D02*
X106403119Y-53172380D01*
X106307880Y-53315238D01*
X106212642Y-53410476D01*
X106117404Y-53458095D01*
X107307880Y-53172380D02*
X107403119Y-53172380D01*
X107498357Y-53220000D01*
X107545976Y-53267619D01*
X107593595Y-53362857D01*
X107641214Y-53553333D01*
X107641214Y-53791428D01*
X107593595Y-53981904D01*
X107545976Y-54077142D01*
X107498357Y-54124761D01*
X107403119Y-54172380D01*
X107307880Y-54172380D01*
X107212642Y-54124761D01*
X107165023Y-54077142D01*
X107117404Y-53981904D01*
X107069785Y-53791428D01*
X107069785Y-53553333D01*
X107117404Y-53362857D01*
X107165023Y-53267619D01*
X107212642Y-53220000D01*
X107307880Y-53172380D01*
X108022166Y-53267619D02*
X108069785Y-53220000D01*
X108165023Y-53172380D01*
X108403119Y-53172380D01*
X108498357Y-53220000D01*
X108545976Y-53267619D01*
X108593595Y-53362857D01*
X108593595Y-53458095D01*
X108545976Y-53600952D01*
X107974547Y-54172380D01*
X108593595Y-54172380D01*
%TO.C,D101*%
X92719023Y-88716380D02*
X92719023Y-87716380D01*
X92957119Y-87716380D01*
X93099976Y-87764000D01*
X93195214Y-87859238D01*
X93242833Y-87954476D01*
X93290452Y-88144952D01*
X93290452Y-88287809D01*
X93242833Y-88478285D01*
X93195214Y-88573523D01*
X93099976Y-88668761D01*
X92957119Y-88716380D01*
X92719023Y-88716380D01*
X94242833Y-88716380D02*
X93671404Y-88716380D01*
X93957119Y-88716380D02*
X93957119Y-87716380D01*
X93861880Y-87859238D01*
X93766642Y-87954476D01*
X93671404Y-88002095D01*
X94861880Y-87716380D02*
X94957119Y-87716380D01*
X95052357Y-87764000D01*
X95099976Y-87811619D01*
X95147595Y-87906857D01*
X95195214Y-88097333D01*
X95195214Y-88335428D01*
X95147595Y-88525904D01*
X95099976Y-88621142D01*
X95052357Y-88668761D01*
X94957119Y-88716380D01*
X94861880Y-88716380D01*
X94766642Y-88668761D01*
X94719023Y-88621142D01*
X94671404Y-88525904D01*
X94623785Y-88335428D01*
X94623785Y-88097333D01*
X94671404Y-87906857D01*
X94719023Y-87811619D01*
X94766642Y-87764000D01*
X94861880Y-87716380D01*
X96147595Y-88716380D02*
X95576166Y-88716380D01*
X95861880Y-88716380D02*
X95861880Y-87716380D01*
X95766642Y-87859238D01*
X95671404Y-87954476D01*
X95576166Y-88002095D01*
%TO.C,C105*%
X55522952Y-85066142D02*
X55475333Y-85113761D01*
X55332476Y-85161380D01*
X55237238Y-85161380D01*
X55094380Y-85113761D01*
X54999142Y-85018523D01*
X54951523Y-84923285D01*
X54903904Y-84732809D01*
X54903904Y-84589952D01*
X54951523Y-84399476D01*
X54999142Y-84304238D01*
X55094380Y-84209000D01*
X55237238Y-84161380D01*
X55332476Y-84161380D01*
X55475333Y-84209000D01*
X55522952Y-84256619D01*
X56475333Y-85161380D02*
X55903904Y-85161380D01*
X56189619Y-85161380D02*
X56189619Y-84161380D01*
X56094380Y-84304238D01*
X55999142Y-84399476D01*
X55903904Y-84447095D01*
X57094380Y-84161380D02*
X57189619Y-84161380D01*
X57284857Y-84209000D01*
X57332476Y-84256619D01*
X57380095Y-84351857D01*
X57427714Y-84542333D01*
X57427714Y-84780428D01*
X57380095Y-84970904D01*
X57332476Y-85066142D01*
X57284857Y-85113761D01*
X57189619Y-85161380D01*
X57094380Y-85161380D01*
X56999142Y-85113761D01*
X56951523Y-85066142D01*
X56903904Y-84970904D01*
X56856285Y-84780428D01*
X56856285Y-84542333D01*
X56903904Y-84351857D01*
X56951523Y-84256619D01*
X56999142Y-84209000D01*
X57094380Y-84161380D01*
X58332476Y-84161380D02*
X57856285Y-84161380D01*
X57808666Y-84637571D01*
X57856285Y-84589952D01*
X57951523Y-84542333D01*
X58189619Y-84542333D01*
X58284857Y-84589952D01*
X58332476Y-84637571D01*
X58380095Y-84732809D01*
X58380095Y-84970904D01*
X58332476Y-85066142D01*
X58284857Y-85113761D01*
X58189619Y-85161380D01*
X57951523Y-85161380D01*
X57856285Y-85113761D01*
X57808666Y-85066142D01*
%TO.C,C104*%
X53096642Y-92879047D02*
X53144261Y-92926666D01*
X53191880Y-93069523D01*
X53191880Y-93164761D01*
X53144261Y-93307619D01*
X53049023Y-93402857D01*
X52953785Y-93450476D01*
X52763309Y-93498095D01*
X52620452Y-93498095D01*
X52429976Y-93450476D01*
X52334738Y-93402857D01*
X52239500Y-93307619D01*
X52191880Y-93164761D01*
X52191880Y-93069523D01*
X52239500Y-92926666D01*
X52287119Y-92879047D01*
X53191880Y-91926666D02*
X53191880Y-92498095D01*
X53191880Y-92212380D02*
X52191880Y-92212380D01*
X52334738Y-92307619D01*
X52429976Y-92402857D01*
X52477595Y-92498095D01*
X52191880Y-91307619D02*
X52191880Y-91212380D01*
X52239500Y-91117142D01*
X52287119Y-91069523D01*
X52382357Y-91021904D01*
X52572833Y-90974285D01*
X52810928Y-90974285D01*
X53001404Y-91021904D01*
X53096642Y-91069523D01*
X53144261Y-91117142D01*
X53191880Y-91212380D01*
X53191880Y-91307619D01*
X53144261Y-91402857D01*
X53096642Y-91450476D01*
X53001404Y-91498095D01*
X52810928Y-91545714D01*
X52572833Y-91545714D01*
X52382357Y-91498095D01*
X52287119Y-91450476D01*
X52239500Y-91402857D01*
X52191880Y-91307619D01*
X52525214Y-90117142D02*
X53191880Y-90117142D01*
X52144261Y-90355238D02*
X52858547Y-90593333D01*
X52858547Y-89974285D01*
%TO.C,C103*%
X53062142Y-89196047D02*
X53109761Y-89243666D01*
X53157380Y-89386523D01*
X53157380Y-89481761D01*
X53109761Y-89624619D01*
X53014523Y-89719857D01*
X52919285Y-89767476D01*
X52728809Y-89815095D01*
X52585952Y-89815095D01*
X52395476Y-89767476D01*
X52300238Y-89719857D01*
X52205000Y-89624619D01*
X52157380Y-89481761D01*
X52157380Y-89386523D01*
X52205000Y-89243666D01*
X52252619Y-89196047D01*
X53157380Y-88243666D02*
X53157380Y-88815095D01*
X53157380Y-88529380D02*
X52157380Y-88529380D01*
X52300238Y-88624619D01*
X52395476Y-88719857D01*
X52443095Y-88815095D01*
X52157380Y-87624619D02*
X52157380Y-87529380D01*
X52205000Y-87434142D01*
X52252619Y-87386523D01*
X52347857Y-87338904D01*
X52538333Y-87291285D01*
X52776428Y-87291285D01*
X52966904Y-87338904D01*
X53062142Y-87386523D01*
X53109761Y-87434142D01*
X53157380Y-87529380D01*
X53157380Y-87624619D01*
X53109761Y-87719857D01*
X53062142Y-87767476D01*
X52966904Y-87815095D01*
X52776428Y-87862714D01*
X52538333Y-87862714D01*
X52347857Y-87815095D01*
X52252619Y-87767476D01*
X52205000Y-87719857D01*
X52157380Y-87624619D01*
X52157380Y-86957952D02*
X52157380Y-86338904D01*
X52538333Y-86672238D01*
X52538333Y-86529380D01*
X52585952Y-86434142D01*
X52633571Y-86386523D01*
X52728809Y-86338904D01*
X52966904Y-86338904D01*
X53062142Y-86386523D01*
X53109761Y-86434142D01*
X53157380Y-86529380D01*
X53157380Y-86815095D01*
X53109761Y-86910333D01*
X53062142Y-86957952D01*
%TO.C,C101*%
X67206952Y-95734142D02*
X67159333Y-95781761D01*
X67016476Y-95829380D01*
X66921238Y-95829380D01*
X66778380Y-95781761D01*
X66683142Y-95686523D01*
X66635523Y-95591285D01*
X66587904Y-95400809D01*
X66587904Y-95257952D01*
X66635523Y-95067476D01*
X66683142Y-94972238D01*
X66778380Y-94877000D01*
X66921238Y-94829380D01*
X67016476Y-94829380D01*
X67159333Y-94877000D01*
X67206952Y-94924619D01*
X68159333Y-95829380D02*
X67587904Y-95829380D01*
X67873619Y-95829380D02*
X67873619Y-94829380D01*
X67778380Y-94972238D01*
X67683142Y-95067476D01*
X67587904Y-95115095D01*
X68778380Y-94829380D02*
X68873619Y-94829380D01*
X68968857Y-94877000D01*
X69016476Y-94924619D01*
X69064095Y-95019857D01*
X69111714Y-95210333D01*
X69111714Y-95448428D01*
X69064095Y-95638904D01*
X69016476Y-95734142D01*
X68968857Y-95781761D01*
X68873619Y-95829380D01*
X68778380Y-95829380D01*
X68683142Y-95781761D01*
X68635523Y-95734142D01*
X68587904Y-95638904D01*
X68540285Y-95448428D01*
X68540285Y-95210333D01*
X68587904Y-95019857D01*
X68635523Y-94924619D01*
X68683142Y-94877000D01*
X68778380Y-94829380D01*
X70064095Y-95829380D02*
X69492666Y-95829380D01*
X69778380Y-95829380D02*
X69778380Y-94829380D01*
X69683142Y-94972238D01*
X69587904Y-95067476D01*
X69492666Y-95115095D01*
%TO.C,C12*%
X73083142Y-72337142D02*
X73035523Y-72384761D01*
X72892666Y-72432380D01*
X72797428Y-72432380D01*
X72654571Y-72384761D01*
X72559333Y-72289523D01*
X72511714Y-72194285D01*
X72464095Y-72003809D01*
X72464095Y-71860952D01*
X72511714Y-71670476D01*
X72559333Y-71575238D01*
X72654571Y-71480000D01*
X72797428Y-71432380D01*
X72892666Y-71432380D01*
X73035523Y-71480000D01*
X73083142Y-71527619D01*
X74035523Y-72432380D02*
X73464095Y-72432380D01*
X73749809Y-72432380D02*
X73749809Y-71432380D01*
X73654571Y-71575238D01*
X73559333Y-71670476D01*
X73464095Y-71718095D01*
X74416476Y-71527619D02*
X74464095Y-71480000D01*
X74559333Y-71432380D01*
X74797428Y-71432380D01*
X74892666Y-71480000D01*
X74940285Y-71527619D01*
X74987904Y-71622857D01*
X74987904Y-71718095D01*
X74940285Y-71860952D01*
X74368857Y-72432380D01*
X74987904Y-72432380D01*
%TO.C,J6*%
X70278666Y-66508380D02*
X70278666Y-67222666D01*
X70231047Y-67365523D01*
X70135809Y-67460761D01*
X69992952Y-67508380D01*
X69897714Y-67508380D01*
X71183428Y-66508380D02*
X70992952Y-66508380D01*
X70897714Y-66556000D01*
X70850095Y-66603619D01*
X70754857Y-66746476D01*
X70707238Y-66936952D01*
X70707238Y-67317904D01*
X70754857Y-67413142D01*
X70802476Y-67460761D01*
X70897714Y-67508380D01*
X71088190Y-67508380D01*
X71183428Y-67460761D01*
X71231047Y-67413142D01*
X71278666Y-67317904D01*
X71278666Y-67079809D01*
X71231047Y-66984571D01*
X71183428Y-66936952D01*
X71088190Y-66889333D01*
X70897714Y-66889333D01*
X70802476Y-66936952D01*
X70754857Y-66984571D01*
X70707238Y-67079809D01*
%TO.C,C14*%
X84177142Y-80398857D02*
X84224761Y-80446476D01*
X84272380Y-80589333D01*
X84272380Y-80684571D01*
X84224761Y-80827428D01*
X84129523Y-80922666D01*
X84034285Y-80970285D01*
X83843809Y-81017904D01*
X83700952Y-81017904D01*
X83510476Y-80970285D01*
X83415238Y-80922666D01*
X83320000Y-80827428D01*
X83272380Y-80684571D01*
X83272380Y-80589333D01*
X83320000Y-80446476D01*
X83367619Y-80398857D01*
X84272380Y-79446476D02*
X84272380Y-80017904D01*
X84272380Y-79732190D02*
X83272380Y-79732190D01*
X83415238Y-79827428D01*
X83510476Y-79922666D01*
X83558095Y-80017904D01*
X83605714Y-78589333D02*
X84272380Y-78589333D01*
X83224761Y-78827428D02*
X83939047Y-79065523D01*
X83939047Y-78446476D01*
%TO.C,C13*%
X84050142Y-71635857D02*
X84097761Y-71683476D01*
X84145380Y-71826333D01*
X84145380Y-71921571D01*
X84097761Y-72064428D01*
X84002523Y-72159666D01*
X83907285Y-72207285D01*
X83716809Y-72254904D01*
X83573952Y-72254904D01*
X83383476Y-72207285D01*
X83288238Y-72159666D01*
X83193000Y-72064428D01*
X83145380Y-71921571D01*
X83145380Y-71826333D01*
X83193000Y-71683476D01*
X83240619Y-71635857D01*
X84145380Y-70683476D02*
X84145380Y-71254904D01*
X84145380Y-70969190D02*
X83145380Y-70969190D01*
X83288238Y-71064428D01*
X83383476Y-71159666D01*
X83431095Y-71254904D01*
X83145380Y-70350142D02*
X83145380Y-69731095D01*
X83526333Y-70064428D01*
X83526333Y-69921571D01*
X83573952Y-69826333D01*
X83621571Y-69778714D01*
X83716809Y-69731095D01*
X83954904Y-69731095D01*
X84050142Y-69778714D01*
X84097761Y-69826333D01*
X84145380Y-69921571D01*
X84145380Y-70207285D01*
X84097761Y-70302523D01*
X84050142Y-70350142D01*
%TO.C,C11*%
X54205142Y-96781857D02*
X54252761Y-96829476D01*
X54300380Y-96972333D01*
X54300380Y-97067571D01*
X54252761Y-97210428D01*
X54157523Y-97305666D01*
X54062285Y-97353285D01*
X53871809Y-97400904D01*
X53728952Y-97400904D01*
X53538476Y-97353285D01*
X53443238Y-97305666D01*
X53348000Y-97210428D01*
X53300380Y-97067571D01*
X53300380Y-96972333D01*
X53348000Y-96829476D01*
X53395619Y-96781857D01*
X54300380Y-95829476D02*
X54300380Y-96400904D01*
X54300380Y-96115190D02*
X53300380Y-96115190D01*
X53443238Y-96210428D01*
X53538476Y-96305666D01*
X53586095Y-96400904D01*
X54300380Y-94877095D02*
X54300380Y-95448523D01*
X54300380Y-95162809D02*
X53300380Y-95162809D01*
X53443238Y-95258047D01*
X53538476Y-95353285D01*
X53586095Y-95448523D01*
%TO.C,C9*%
X54570333Y-76811142D02*
X54522714Y-76858761D01*
X54379857Y-76906380D01*
X54284619Y-76906380D01*
X54141761Y-76858761D01*
X54046523Y-76763523D01*
X53998904Y-76668285D01*
X53951285Y-76477809D01*
X53951285Y-76334952D01*
X53998904Y-76144476D01*
X54046523Y-76049238D01*
X54141761Y-75954000D01*
X54284619Y-75906380D01*
X54379857Y-75906380D01*
X54522714Y-75954000D01*
X54570333Y-76001619D01*
X55046523Y-76906380D02*
X55237000Y-76906380D01*
X55332238Y-76858761D01*
X55379857Y-76811142D01*
X55475095Y-76668285D01*
X55522714Y-76477809D01*
X55522714Y-76096857D01*
X55475095Y-76001619D01*
X55427476Y-75954000D01*
X55332238Y-75906380D01*
X55141761Y-75906380D01*
X55046523Y-75954000D01*
X54998904Y-76001619D01*
X54951285Y-76096857D01*
X54951285Y-76334952D01*
X54998904Y-76430190D01*
X55046523Y-76477809D01*
X55141761Y-76525428D01*
X55332238Y-76525428D01*
X55427476Y-76477809D01*
X55475095Y-76430190D01*
X55522714Y-76334952D01*
%TO.C,C7*%
X66524142Y-77128666D02*
X66571761Y-77176285D01*
X66619380Y-77319142D01*
X66619380Y-77414380D01*
X66571761Y-77557238D01*
X66476523Y-77652476D01*
X66381285Y-77700095D01*
X66190809Y-77747714D01*
X66047952Y-77747714D01*
X65857476Y-77700095D01*
X65762238Y-77652476D01*
X65667000Y-77557238D01*
X65619380Y-77414380D01*
X65619380Y-77319142D01*
X65667000Y-77176285D01*
X65714619Y-77128666D01*
X65619380Y-76795333D02*
X65619380Y-76128666D01*
X66619380Y-76557238D01*
%TO.C,C6*%
X66397142Y-82208666D02*
X66444761Y-82256285D01*
X66492380Y-82399142D01*
X66492380Y-82494380D01*
X66444761Y-82637238D01*
X66349523Y-82732476D01*
X66254285Y-82780095D01*
X66063809Y-82827714D01*
X65920952Y-82827714D01*
X65730476Y-82780095D01*
X65635238Y-82732476D01*
X65540000Y-82637238D01*
X65492380Y-82494380D01*
X65492380Y-82399142D01*
X65540000Y-82256285D01*
X65587619Y-82208666D01*
X65492380Y-81351523D02*
X65492380Y-81542000D01*
X65540000Y-81637238D01*
X65587619Y-81684857D01*
X65730476Y-81780095D01*
X65920952Y-81827714D01*
X66301904Y-81827714D01*
X66397142Y-81780095D01*
X66444761Y-81732476D01*
X66492380Y-81637238D01*
X66492380Y-81446761D01*
X66444761Y-81351523D01*
X66397142Y-81303904D01*
X66301904Y-81256285D01*
X66063809Y-81256285D01*
X65968571Y-81303904D01*
X65920952Y-81351523D01*
X65873333Y-81446761D01*
X65873333Y-81637238D01*
X65920952Y-81732476D01*
X65968571Y-81780095D01*
X66063809Y-81827714D01*
%TO.C,C2*%
X58113142Y-74588666D02*
X58160761Y-74636285D01*
X58208380Y-74779142D01*
X58208380Y-74874380D01*
X58160761Y-75017238D01*
X58065523Y-75112476D01*
X57970285Y-75160095D01*
X57779809Y-75207714D01*
X57636952Y-75207714D01*
X57446476Y-75160095D01*
X57351238Y-75112476D01*
X57256000Y-75017238D01*
X57208380Y-74874380D01*
X57208380Y-74779142D01*
X57256000Y-74636285D01*
X57303619Y-74588666D01*
X57303619Y-74207714D02*
X57256000Y-74160095D01*
X57208380Y-74064857D01*
X57208380Y-73826761D01*
X57256000Y-73731523D01*
X57303619Y-73683904D01*
X57398857Y-73636285D01*
X57494095Y-73636285D01*
X57636952Y-73683904D01*
X58208380Y-74255333D01*
X58208380Y-73636285D01*
%TO.C,C1*%
X63603142Y-74588666D02*
X63650761Y-74636285D01*
X63698380Y-74779142D01*
X63698380Y-74874380D01*
X63650761Y-75017238D01*
X63555523Y-75112476D01*
X63460285Y-75160095D01*
X63269809Y-75207714D01*
X63126952Y-75207714D01*
X62936476Y-75160095D01*
X62841238Y-75112476D01*
X62746000Y-75017238D01*
X62698380Y-74874380D01*
X62698380Y-74779142D01*
X62746000Y-74636285D01*
X62793619Y-74588666D01*
X63698380Y-73636285D02*
X63698380Y-74207714D01*
X63698380Y-73922000D02*
X62698380Y-73922000D01*
X62841238Y-74017238D01*
X62936476Y-74112476D01*
X62984095Y-74207714D01*
%TO.C,R8*%
X71381880Y-76112666D02*
X70905690Y-76446000D01*
X71381880Y-76684095D02*
X70381880Y-76684095D01*
X70381880Y-76303142D01*
X70429500Y-76207904D01*
X70477119Y-76160285D01*
X70572357Y-76112666D01*
X70715214Y-76112666D01*
X70810452Y-76160285D01*
X70858071Y-76207904D01*
X70905690Y-76303142D01*
X70905690Y-76684095D01*
X70810452Y-75541238D02*
X70762833Y-75636476D01*
X70715214Y-75684095D01*
X70619976Y-75731714D01*
X70572357Y-75731714D01*
X70477119Y-75684095D01*
X70429500Y-75636476D01*
X70381880Y-75541238D01*
X70381880Y-75350761D01*
X70429500Y-75255523D01*
X70477119Y-75207904D01*
X70572357Y-75160285D01*
X70619976Y-75160285D01*
X70715214Y-75207904D01*
X70762833Y-75255523D01*
X70810452Y-75350761D01*
X70810452Y-75541238D01*
X70858071Y-75636476D01*
X70905690Y-75684095D01*
X71000928Y-75731714D01*
X71191404Y-75731714D01*
X71286642Y-75684095D01*
X71334261Y-75636476D01*
X71381880Y-75541238D01*
X71381880Y-75350761D01*
X71334261Y-75255523D01*
X71286642Y-75207904D01*
X71191404Y-75160285D01*
X71000928Y-75160285D01*
X70905690Y-75207904D01*
X70858071Y-75255523D01*
X70810452Y-75350761D01*
%TO.C,R9*%
X71381880Y-78335166D02*
X70905690Y-78668500D01*
X71381880Y-78906595D02*
X70381880Y-78906595D01*
X70381880Y-78525642D01*
X70429500Y-78430404D01*
X70477119Y-78382785D01*
X70572357Y-78335166D01*
X70715214Y-78335166D01*
X70810452Y-78382785D01*
X70858071Y-78430404D01*
X70905690Y-78525642D01*
X70905690Y-78906595D01*
X71381880Y-77858976D02*
X71381880Y-77668500D01*
X71334261Y-77573261D01*
X71286642Y-77525642D01*
X71143785Y-77430404D01*
X70953309Y-77382785D01*
X70572357Y-77382785D01*
X70477119Y-77430404D01*
X70429500Y-77478023D01*
X70381880Y-77573261D01*
X70381880Y-77763738D01*
X70429500Y-77858976D01*
X70477119Y-77906595D01*
X70572357Y-77954214D01*
X70810452Y-77954214D01*
X70905690Y-77906595D01*
X70953309Y-77858976D01*
X71000928Y-77763738D01*
X71000928Y-77573261D01*
X70953309Y-77478023D01*
X70905690Y-77430404D01*
X70810452Y-77382785D01*
%TO.C,R11*%
X82796142Y-77541380D02*
X82462809Y-77065190D01*
X82224714Y-77541380D02*
X82224714Y-76541380D01*
X82605666Y-76541380D01*
X82700904Y-76589000D01*
X82748523Y-76636619D01*
X82796142Y-76731857D01*
X82796142Y-76874714D01*
X82748523Y-76969952D01*
X82700904Y-77017571D01*
X82605666Y-77065190D01*
X82224714Y-77065190D01*
X83748523Y-77541380D02*
X83177095Y-77541380D01*
X83462809Y-77541380D02*
X83462809Y-76541380D01*
X83367571Y-76684238D01*
X83272333Y-76779476D01*
X83177095Y-76827095D01*
X84700904Y-77541380D02*
X84129476Y-77541380D01*
X84415190Y-77541380D02*
X84415190Y-76541380D01*
X84319952Y-76684238D01*
X84224714Y-76779476D01*
X84129476Y-76827095D01*
%TO.C,J2*%
X72882166Y-121543380D02*
X72882166Y-122257666D01*
X72834547Y-122400523D01*
X72739309Y-122495761D01*
X72596452Y-122543380D01*
X72501214Y-122543380D01*
X73310738Y-121638619D02*
X73358357Y-121591000D01*
X73453595Y-121543380D01*
X73691690Y-121543380D01*
X73786928Y-121591000D01*
X73834547Y-121638619D01*
X73882166Y-121733857D01*
X73882166Y-121829095D01*
X73834547Y-121971952D01*
X73263119Y-122543380D01*
X73882166Y-122543380D01*
%TO.C,J3*%
X72882166Y-122979380D02*
X72882166Y-123693666D01*
X72834547Y-123836523D01*
X72739309Y-123931761D01*
X72596452Y-123979380D01*
X72501214Y-123979380D01*
X73263119Y-122979380D02*
X73882166Y-122979380D01*
X73548833Y-123360333D01*
X73691690Y-123360333D01*
X73786928Y-123407952D01*
X73834547Y-123455571D01*
X73882166Y-123550809D01*
X73882166Y-123788904D01*
X73834547Y-123884142D01*
X73786928Y-123931761D01*
X73691690Y-123979380D01*
X73405976Y-123979380D01*
X73310738Y-123931761D01*
X73263119Y-123884142D01*
%TO.C,C10*%
X71112142Y-102846142D02*
X71064523Y-102893761D01*
X70921666Y-102941380D01*
X70826428Y-102941380D01*
X70683571Y-102893761D01*
X70588333Y-102798523D01*
X70540714Y-102703285D01*
X70493095Y-102512809D01*
X70493095Y-102369952D01*
X70540714Y-102179476D01*
X70588333Y-102084238D01*
X70683571Y-101989000D01*
X70826428Y-101941380D01*
X70921666Y-101941380D01*
X71064523Y-101989000D01*
X71112142Y-102036619D01*
X72064523Y-102941380D02*
X71493095Y-102941380D01*
X71778809Y-102941380D02*
X71778809Y-101941380D01*
X71683571Y-102084238D01*
X71588333Y-102179476D01*
X71493095Y-102227095D01*
X72683571Y-101941380D02*
X72778809Y-101941380D01*
X72874047Y-101989000D01*
X72921666Y-102036619D01*
X72969285Y-102131857D01*
X73016904Y-102322333D01*
X73016904Y-102560428D01*
X72969285Y-102750904D01*
X72921666Y-102846142D01*
X72874047Y-102893761D01*
X72778809Y-102941380D01*
X72683571Y-102941380D01*
X72588333Y-102893761D01*
X72540714Y-102846142D01*
X72493095Y-102750904D01*
X72445476Y-102560428D01*
X72445476Y-102322333D01*
X72493095Y-102131857D01*
X72540714Y-102036619D01*
X72588333Y-101989000D01*
X72683571Y-101941380D01*
%TD*%
M02*
